<svg width="14" height="15" viewBox="0 0 14 15" fill="none" xmlns="http://www.w3.org/2000/svg">
<path fill-rule="evenodd" clip-rule="evenodd" d="M0 0.752688C0 0.33699 0.33699 0 0.752688 0H2.74731C3.16301 0 3.5 0.33699 3.5 0.752688V3.65054H13.2473C13.4857 3.65054 13.71 3.76348 13.852 3.95499C13.9939 4.14651 14.0368 4.39396 13.9675 4.62206L11.8976 11.4339C11.8012 11.751 11.5088 11.9677 11.1774 11.9677H2.74731C2.33161 11.9677 1.99462 11.6307 1.99462 11.215V1.50538H0.752688C0.33699 1.50538 0 1.16839 0 0.752688ZM3.5 5.15591V10.4624H10.6195L12.2319 5.15591H3.5Z" fill="#002238"/>
<circle cx="3.08599" cy="13.7743" r="1.05376" fill="#002238"/>
<circle cx="10.1612" cy="13.7743" r="1.05376" fill="#002238"/>
</svg>
