<svg width="70" height="70" viewBox="0 0 70 70" fill="none" xmlns="http://www.w3.org/2000/svg">
<circle cx="35" cy="35" r="35" fill="#386B6F"/>
<g clip-path="url(#clip0)">
<path d="M55.784 35.0339L50.7091 29.2404C50.5436 29.0515 50.3047 28.9431 50.0536 28.9431H45.8277V25.3651C45.8277 24.8838 45.4374 24.4937 44.9562 24.4937H26.9565C26.4753 24.4937 26.0851 24.8838 26.0851 25.3651V26.5411H17.7032C17.2219 26.5411 16.8317 26.9313 16.8317 27.4126C16.8317 27.8939 17.2219 28.2841 17.7032 28.2841H26.0851V39.5813H21.0396C20.5584 39.5813 20.1681 39.9715 20.1681 40.4528C20.1681 40.9342 20.5584 41.3243 21.0396 41.3243H26.0851V42.21C26.0851 42.6913 26.4753 43.0815 26.9565 43.0815H28.7756C29.1588 44.4777 30.4383 45.5067 31.9546 45.5067C33.4708 45.5067 34.7503 44.4777 35.1336 43.0815H46.7623V43.0814C47.1456 44.4776 48.4251 45.5066 49.9413 45.5066C51.4575 45.5066 52.737 44.4776 53.1203 43.0814H55.1286C55.6098 43.0814 56.0001 42.6913 56.0001 42.2099V35.608C56 35.3969 55.9232 35.1927 55.784 35.0339ZM31.9546 43.7637C31.0978 43.7637 30.4009 43.0667 30.4009 42.21C30.4009 41.3533 31.0978 40.6563 31.9546 40.6563C32.8113 40.6563 33.5083 41.3533 33.5083 42.21C33.5083 43.0667 32.8113 43.7637 31.9546 43.7637ZM35.1334 41.3385C34.7502 39.9424 33.4706 38.9133 31.9544 38.9133C30.4382 38.9133 29.1587 39.9424 28.7754 41.3385H27.8279V26.2366H44.0843V41.3385H35.1334ZM49.9411 43.7637C49.0844 43.7637 48.3875 43.0667 48.3875 42.21C48.3875 41.3533 49.0844 40.6563 49.9411 40.6563C50.7978 40.6563 51.4948 41.3533 51.4948 42.21C51.4948 43.0667 50.7979 43.7637 49.9411 43.7637ZM54.257 41.3385H53.1202C52.7369 39.9424 51.4573 38.9133 49.9411 38.9133C48.4249 38.9133 47.1455 39.9424 46.7621 41.3385H45.8274V30.6861H49.6582L54.2569 35.9358V41.3385H54.257Z" fill="white"/>
<path d="M18.1683 39.5811H17.7033C17.222 39.5811 16.8318 39.9712 16.8318 40.4525C16.8318 40.9339 17.222 41.324 17.7033 41.324H18.1683C18.6495 41.324 19.0398 40.9339 19.0398 40.4525C19.0398 39.9712 18.6496 39.5811 18.1683 39.5811Z" fill="white"/>
<path d="M22.4612 32.9727H13.1215C12.6402 32.9727 12.25 33.3628 12.25 33.8442C12.25 34.3255 12.6402 34.7157 13.1215 34.7157H22.4612C22.9424 34.7157 23.3327 34.3255 23.3327 33.8442C23.3327 33.3628 22.9424 32.9727 22.4612 32.9727Z" fill="white"/>
</g>
<defs>
<clipPath id="clip0">
<rect width="43.75" height="43.75" fill="white" transform="translate(12.25 13.125)"/>
</clipPath>
</defs>
</svg>
