<svg width="20" height="20" viewBox="0 0 20 20" fill="none" xmlns="http://www.w3.org/2000/svg">
<g clip-path="url(#clip0)">
<path d="M10 2.47955e-05C7.28418 2.47955e-05 6.94363 0.0115376 5.87702 0.0602036C4.81264 0.108749 4.0857 0.277811 3.44961 0.524992C2.79202 0.78055 2.23436 1.12249 1.67841 1.67842C1.12247 2.23435 0.780537 2.79206 0.524984 3.44965C0.277789 4.08573 0.108743 4.81266 0.0601631 5.87705C0.0115054 6.94366 0 7.2842 0 10.0001C0 12.7159 0.0115054 13.0564 0.0601631 14.123C0.108743 15.1874 0.277789 15.9144 0.524984 16.5504C0.780537 17.208 1.12247 17.7657 1.67841 18.3217C2.23436 18.8776 2.79202 19.2195 3.44961 19.4751C4.0857 19.7223 4.81264 19.8913 5.87702 19.9399C6.94363 19.9885 7.28418 20.0001 10 20.0001C12.7159 20.0001 13.0564 19.9885 14.123 19.9399C15.1874 19.8913 15.9143 19.7223 16.5504 19.4751C17.208 19.2195 17.7657 18.8776 18.3216 18.3217C18.8776 17.7657 19.2195 17.208 19.4751 16.5504C19.7223 15.9144 19.8913 15.1874 19.9399 14.123C19.9885 13.0564 20 12.7159 20 10.0001C20 7.2842 19.9885 6.94366 19.9399 5.87705C19.8913 4.81266 19.7223 4.08573 19.4751 3.44965C19.2195 2.79206 18.8776 2.23435 18.3216 1.67842C17.7657 1.12249 17.208 0.78055 16.5504 0.524992C15.9143 0.277811 15.1874 0.108749 14.123 0.0602036C13.0564 0.0115376 12.7159 2.47955e-05 10 2.47955e-05ZM10 1.80183C12.6701 1.80183 12.9864 1.81203 14.0409 1.86014C15.0159 1.9046 15.5454 2.06751 15.8977 2.20446C16.3645 2.38586 16.6976 2.60256 17.0476 2.95247C17.3975 3.30242 17.6142 3.63554 17.7956 4.10232C17.9326 4.45469 18.0955 4.98419 18.1399 5.95918C18.188 7.01364 18.1982 7.32993 18.1982 10.0001C18.1982 12.6702 18.188 12.9864 18.1399 14.0409C18.0955 15.0159 17.9326 15.5454 17.7956 15.8978C17.6142 16.3645 17.3975 16.6977 17.0476 17.0476C16.6976 17.3975 16.3645 17.6142 15.8977 17.7956C15.5454 17.9326 15.0159 18.0955 14.0409 18.1399C12.9866 18.1881 12.6703 18.1983 10 18.1983C7.32971 18.1983 7.0135 18.1881 5.95915 18.1399C4.98416 18.0955 4.45467 17.9326 4.10229 17.7956C3.63551 17.6142 3.3024 17.3975 2.95248 17.0476C2.60256 16.6977 2.38583 16.3645 2.20443 15.8978C2.06748 15.5454 1.90459 15.0159 1.86011 14.0409C1.81199 12.9864 1.8018 12.6702 1.8018 10.0001C1.8018 7.32993 1.81199 7.01364 1.86011 5.95918C1.90459 4.98419 2.06748 4.45469 2.20443 4.10232C2.38583 3.63554 2.60254 3.30242 2.95246 2.95251C3.3024 2.60256 3.63551 2.38586 4.10229 2.20446C4.45467 2.06751 4.98416 1.9046 5.95915 1.86014C7.01361 1.81203 7.32991 1.80183 10 1.80183Z" fill="#100F0D"/>
<path d="M9.99991 13.3333C8.15893 13.3333 6.66655 11.841 6.66655 10C6.66655 8.15903 8.15893 6.66665 9.99991 6.66665C11.8408 6.66665 13.3332 8.15903 13.3332 10C13.3332 11.841 11.8408 13.3333 9.99991 13.3333ZM9.99991 4.86485C7.16381 4.86485 4.86475 7.16391 4.86475 10C4.86475 12.8361 7.16381 15.1351 9.99991 15.1351C12.836 15.1351 15.135 12.8361 15.135 10C15.135 7.16391 12.836 4.86485 9.99991 4.86485Z" fill="#100F0D"/>
<path d="M16.5382 4.66198C16.5382 5.32473 16.0009 5.86197 15.3382 5.86197C14.6755 5.86197 14.1382 5.32473 14.1382 4.66198C14.1382 3.99923 14.6755 3.46196 15.3382 3.46196C16.0009 3.46196 16.5382 3.99923 16.5382 4.66198Z" fill="#100F0D"/>
</g>
<defs>
<clipPath id="clip0">
<rect width="20" height="20" fill="white"/>
</clipPath>
</defs>
</svg>
