<svg width="163" height="53" viewBox="0 0 163 53" fill="none" xmlns="http://www.w3.org/2000/svg">
<path d="M60.96 13.6L60.96 22L61.98 22L61.98 13.6L60.96 13.6ZM61.524 14.56L63.24 14.56C63.784 14.56 64.224 14.692 64.56 14.956C64.904 15.212 65.076 15.6 65.076 16.12C65.076 16.632 64.904 17.02 64.56 17.284C64.224 17.548 63.784 17.68 63.24 17.68L61.524 17.68L61.524 18.64L63.24 18.64C63.784 18.64 64.268 18.54 64.692 18.34C65.124 18.132 65.464 17.84 65.712 17.464C65.968 17.08 66.096 16.632 66.096 16.12C66.096 15.6 65.968 15.152 65.712 14.776C65.464 14.4 65.124 14.112 64.692 13.912C64.268 13.704 63.784 13.6 63.24 13.6L61.524 13.6L61.524 14.56ZM67.2429 19.48L71.9589 19.48C71.9669 19.432 71.9709 19.384 71.9709 19.336C71.9709 19.288 71.9709 19.24 71.9709 19.192C71.9709 18.608 71.8629 18.108 71.6469 17.692C71.4309 17.268 71.1269 16.94 70.7349 16.708C70.3429 16.476 69.8869 16.36 69.3669 16.36C68.8949 16.36 68.4669 16.456 68.0829 16.648C67.7069 16.84 67.3989 17.108 67.1589 17.452C66.9189 17.796 66.7589 18.196 66.6789 18.652C66.6629 18.748 66.6509 18.844 66.6429 18.94C66.6349 19.036 66.6309 19.136 66.6309 19.24C66.6309 19.792 66.7429 20.288 66.9669 20.728C67.1989 21.16 67.5109 21.5 67.9029 21.748C68.3029 21.996 68.7509 22.12 69.2469 22.12C69.7269 22.12 70.1269 22.064 70.4469 21.952C70.7669 21.832 71.0389 21.668 71.2629 21.46C71.4869 21.244 71.6909 20.996 71.8749 20.716L71.0949 20.224C70.9749 20.424 70.8309 20.6 70.6629 20.752C70.4949 20.896 70.3029 21.012 70.0869 21.1C69.8789 21.18 69.6389 21.22 69.3669 21.22C69.0069 21.22 68.6949 21.144 68.4309 20.992C68.1669 20.84 67.9629 20.616 67.8189 20.32C67.6749 20.024 67.6029 19.664 67.6029 19.24L67.6269 18.88C67.6269 18.536 67.7029 18.24 67.8549 17.992C68.0149 17.736 68.2269 17.54 68.4909 17.404C68.7549 17.268 69.0469 17.2 69.3669 17.2C69.6869 17.2 69.9549 17.264 70.1709 17.392C70.3949 17.512 70.5669 17.684 70.6869 17.908C70.8149 18.124 70.8949 18.376 70.9269 18.664L67.2429 18.664L67.2429 19.48ZM73.7187 19.24C73.7187 18.856 73.7987 18.516 73.9587 18.22C74.1267 17.916 74.3507 17.68 74.6307 17.512C74.9187 17.344 75.2427 17.26 75.6027 17.26C75.8987 17.26 76.1747 17.308 76.4307 17.404C76.6947 17.492 76.9227 17.612 77.1147 17.764C77.3067 17.916 77.4427 18.084 77.5227 18.268L77.5227 17.068C77.3307 16.844 77.0547 16.672 76.6947 16.552C76.3427 16.424 75.9787 16.36 75.6027 16.36C75.0667 16.36 74.5827 16.484 74.1507 16.732C73.7187 16.98 73.3747 17.32 73.1187 17.752C72.8707 18.184 72.7467 18.68 72.7467 19.24C72.7467 19.792 72.8707 20.288 73.1187 20.728C73.3747 21.16 73.7187 21.5 74.1507 21.748C74.5827 21.996 75.0667 22.12 75.6027 22.12C75.9787 22.12 76.3427 22.06 76.6947 21.94C77.0547 21.812 77.3307 21.636 77.5227 21.412L77.5227 20.212C77.4427 20.388 77.3067 20.556 77.1147 20.716C76.9227 20.868 76.6947 20.992 76.4307 21.088C76.1747 21.176 75.8987 21.22 75.6027 21.22C75.2427 21.22 74.9187 21.136 74.6307 20.968C74.3507 20.792 74.1267 20.556 73.9587 20.26C73.7987 19.964 73.7187 19.624 73.7187 19.24ZM78.1772 16.48L78.1772 17.38L81.4172 17.38L81.4172 16.48L78.1772 16.48ZM79.3172 16.72L79.3172 22L80.2772 22L80.2772 16.72L79.3172 16.72ZM81.7247 19.24C81.7247 19.792 81.8487 20.288 82.0967 20.728C82.3527 21.16 82.6967 21.5 83.1287 21.748C83.5607 21.996 84.0447 22.12 84.5807 22.12C85.1247 22.12 85.6087 21.996 86.0327 21.748C86.4647 21.5 86.8047 21.16 87.0527 20.728C87.3087 20.288 87.4367 19.792 87.4367 19.24C87.4367 18.68 87.3087 18.184 87.0527 17.752C86.8047 17.32 86.4647 16.98 86.0327 16.732C85.6087 16.484 85.1247 16.36 84.5807 16.36C84.0447 16.36 83.5607 16.484 83.1287 16.732C82.6967 16.98 82.3527 17.32 82.0967 17.752C81.8487 18.184 81.7247 18.68 81.7247 19.24ZM82.6967 19.24C82.6967 18.856 82.7767 18.516 82.9367 18.22C83.1047 17.916 83.3287 17.68 83.6087 17.512C83.8967 17.344 84.2207 17.26 84.5807 17.26C84.9407 17.26 85.2607 17.344 85.5407 17.512C85.8287 17.68 86.0527 17.916 86.2127 18.22C86.3807 18.516 86.4647 18.856 86.4647 19.24C86.4647 19.624 86.3807 19.964 86.2127 20.26C86.0527 20.556 85.8287 20.792 85.5407 20.968C85.2607 21.136 84.9407 21.22 84.5807 21.22C84.2207 21.22 83.8967 21.136 83.6087 20.968C83.3287 20.792 83.1047 20.556 82.9367 20.26C82.7767 19.964 82.6967 19.624 82.6967 19.24ZM89.6555 24.64L89.6555 16.48L88.6955 16.48L88.6955 24.64L89.6555 24.64ZM94.2755 19.24C94.2755 18.64 94.1515 18.128 93.9035 17.704C93.6555 17.272 93.3235 16.94 92.9075 16.708C92.4995 16.476 92.0435 16.36 91.5395 16.36C91.0835 16.36 90.6795 16.476 90.3275 16.708C89.9835 16.94 89.7115 17.272 89.5115 17.704C89.3195 18.128 89.2235 18.64 89.2235 19.24C89.2235 19.832 89.3195 20.344 89.5115 20.776C89.7115 21.208 89.9835 21.54 90.3275 21.772C90.6795 22.004 91.0835 22.12 91.5395 22.12C92.0435 22.12 92.4995 22.004 92.9075 21.772C93.3235 21.54 93.6555 21.208 93.9035 20.776C94.1515 20.344 94.2755 19.832 94.2755 19.24ZM93.3035 19.24C93.3035 19.664 93.2155 20.024 93.0395 20.32C92.8715 20.616 92.6435 20.84 92.3555 20.992C92.0755 21.144 91.7635 21.22 91.4195 21.22C91.1395 21.22 90.8635 21.144 90.5915 20.992C90.3195 20.84 90.0955 20.616 89.9195 20.32C89.7435 20.024 89.6555 19.664 89.6555 19.24C89.6555 18.816 89.7435 18.456 89.9195 18.16C90.0955 17.864 90.3195 17.64 90.5915 17.488C90.8635 17.336 91.1395 17.26 91.4195 17.26C91.7635 17.26 92.0755 17.336 92.3555 17.488C92.6435 17.64 92.8715 17.864 93.0395 18.16C93.2155 18.456 93.3035 18.816 93.3035 19.24ZM96.0312 20.38C96.0312 20.156 96.0832 19.964 96.1872 19.804C96.2912 19.644 96.4472 19.52 96.6552 19.432C96.8712 19.344 97.1392 19.3 97.4592 19.3C97.8112 19.3 98.1272 19.348 98.4072 19.444C98.6872 19.532 98.9632 19.672 99.2352 19.864L99.2352 19.3C99.1792 19.228 99.0752 19.136 98.9232 19.024C98.7712 18.904 98.5672 18.8 98.3112 18.712C98.0632 18.616 97.7632 18.568 97.4112 18.568C96.9312 18.568 96.5152 18.644 96.1632 18.796C95.8112 18.94 95.5392 19.148 95.3472 19.42C95.1552 19.692 95.0592 20.024 95.0592 20.416C95.0592 20.792 95.1432 21.108 95.3112 21.364C95.4872 21.612 95.7192 21.8 96.0072 21.928C96.2952 22.056 96.6112 22.12 96.9552 22.12C97.3392 22.12 97.6872 22.056 97.9992 21.928C98.3112 21.792 98.5592 21.6 98.7432 21.352C98.9352 21.096 99.0312 20.792 99.0312 20.44L98.8392 19.84C98.8392 20.184 98.7672 20.46 98.6232 20.668C98.4872 20.876 98.2952 21.028 98.0472 21.124C97.7992 21.22 97.5152 21.268 97.1952 21.268C96.9792 21.268 96.7832 21.236 96.6072 21.172C96.4312 21.1 96.2912 21 96.1872 20.872C96.0832 20.736 96.0312 20.572 96.0312 20.38ZM96.0312 17.776C96.1192 17.712 96.2392 17.636 96.3912 17.548C96.5512 17.452 96.7392 17.372 96.9552 17.308C97.1712 17.236 97.4112 17.2 97.6752 17.2C97.9792 17.2 98.2472 17.272 98.4792 17.416C98.7192 17.552 98.8392 17.76 98.8392 18.04L98.8392 22L99.7992 22L99.7992 18.04C99.7992 17.68 99.7072 17.376 99.5232 17.128C99.3472 16.88 99.0992 16.692 98.7792 16.564C98.4672 16.428 98.0992 16.36 97.6752 16.36C97.1792 16.36 96.7552 16.436 96.4032 16.588C96.0512 16.74 95.7712 16.892 95.5632 17.044L96.0312 17.776ZM101.987 19.54L106.067 19.54L106.067 18.64L101.987 18.64L101.987 19.54ZM105.443 16.48L105.443 22L106.403 22L106.403 16.48L105.443 16.48ZM101.423 16.48L101.423 22L102.383 22L102.383 16.48L101.423 16.48ZM111.866 16.48L111.866 22L112.826 22L112.826 17.38L114.806 17.38L114.806 16.48L111.866 16.48ZM116.199 20.38C116.199 20.156 116.251 19.964 116.355 19.804C116.459 19.644 116.615 19.52 116.823 19.432C117.039 19.344 117.307 19.3 117.627 19.3C117.979 19.3 118.295 19.348 118.575 19.444C118.855 19.532 119.131 19.672 119.403 19.864L119.403 19.3C119.347 19.228 119.243 19.136 119.091 19.024C118.939 18.904 118.735 18.8 118.479 18.712C118.231 18.616 117.931 18.568 117.579 18.568C117.099 18.568 116.683 18.644 116.331 18.796C115.979 18.94 115.707 19.148 115.515 19.42C115.323 19.692 115.227 20.024 115.227 20.416C115.227 20.792 115.311 21.108 115.479 21.364C115.655 21.612 115.887 21.8 116.175 21.928C116.463 22.056 116.779 22.12 117.123 22.12C117.507 22.12 117.855 22.056 118.167 21.928C118.479 21.792 118.727 21.6 118.911 21.352C119.103 21.096 119.199 20.792 119.199 20.44L119.007 19.84C119.007 20.184 118.935 20.46 118.791 20.668C118.655 20.876 118.463 21.028 118.215 21.124C117.967 21.22 117.683 21.268 117.363 21.268C117.147 21.268 116.951 21.236 116.775 21.172C116.599 21.1 116.459 21 116.355 20.872C116.251 20.736 116.199 20.572 116.199 20.38ZM116.199 17.776C116.287 17.712 116.407 17.636 116.559 17.548C116.719 17.452 116.907 17.372 117.123 17.308C117.339 17.236 117.579 17.2 117.843 17.2C118.147 17.2 118.415 17.272 118.647 17.416C118.887 17.552 119.007 17.76 119.007 18.04L119.007 22L119.967 22L119.967 18.04C119.967 17.68 119.875 17.376 119.691 17.128C119.515 16.88 119.267 16.692 118.947 16.564C118.635 16.428 118.267 16.36 117.843 16.36C117.347 16.36 116.923 16.436 116.571 16.588C116.219 16.74 115.939 16.892 115.731 17.044L116.199 17.776ZM122.155 19.12L122.155 19.624L123.751 19.624C123.935 19.624 124.091 19.644 124.219 19.684C124.355 19.716 124.463 19.768 124.543 19.84C124.631 19.912 124.695 19.992 124.735 20.08C124.783 20.168 124.807 20.268 124.807 20.38C124.807 20.596 124.719 20.78 124.543 20.932C124.375 21.084 124.111 21.16 123.751 21.16L122.155 21.16L122.155 22L123.991 22C124.623 22 125.075 21.856 125.347 21.568C125.627 21.272 125.767 20.916 125.767 20.5C125.767 20.14 125.679 19.86 125.503 19.66C125.327 19.46 125.087 19.32 124.783 19.24C124.479 19.16 124.135 19.12 123.751 19.12L122.155 19.12ZM122.155 19.36L123.631 19.36C123.975 19.36 124.287 19.312 124.567 19.216C124.855 19.112 125.087 18.96 125.263 18.76C125.439 18.552 125.527 18.292 125.527 17.98C125.527 17.62 125.439 17.332 125.263 17.116C125.087 16.892 124.855 16.732 124.567 16.636C124.287 16.532 123.975 16.48 123.631 16.48L122.155 16.48L122.155 17.32L123.631 17.32C123.919 17.32 124.147 17.388 124.315 17.524C124.483 17.652 124.567 17.824 124.567 18.04C124.567 18.144 124.543 18.244 124.495 18.34C124.455 18.428 124.395 18.508 124.315 18.58C124.235 18.652 124.135 18.708 124.015 18.748C123.903 18.78 123.775 18.796 123.631 18.796L122.155 18.796L122.155 19.36ZM121.591 16.48L121.591 22L122.551 22L122.551 16.48L121.591 16.48ZM127.461 20.38C127.461 20.156 127.513 19.964 127.617 19.804C127.721 19.644 127.877 19.52 128.085 19.432C128.301 19.344 128.569 19.3 128.889 19.3C129.241 19.3 129.557 19.348 129.837 19.444C130.117 19.532 130.393 19.672 130.665 19.864L130.665 19.3C130.609 19.228 130.505 19.136 130.353 19.024C130.201 18.904 129.997 18.8 129.741 18.712C129.493 18.616 129.193 18.568 128.841 18.568C128.361 18.568 127.945 18.644 127.593 18.796C127.241 18.94 126.969 19.148 126.777 19.42C126.585 19.692 126.489 20.024 126.489 20.416C126.489 20.792 126.573 21.108 126.741 21.364C126.917 21.612 127.149 21.8 127.437 21.928C127.725 22.056 128.041 22.12 128.385 22.12C128.769 22.12 129.117 22.056 129.429 21.928C129.741 21.792 129.989 21.6 130.173 21.352C130.365 21.096 130.461 20.792 130.461 20.44L130.269 19.84C130.269 20.184 130.197 20.46 130.053 20.668C129.917 20.876 129.725 21.028 129.477 21.124C129.229 21.22 128.945 21.268 128.625 21.268C128.409 21.268 128.213 21.236 128.037 21.172C127.861 21.1 127.721 21 127.617 20.872C127.513 20.736 127.461 20.572 127.461 20.38ZM127.461 17.776C127.549 17.712 127.669 17.636 127.821 17.548C127.981 17.452 128.169 17.372 128.385 17.308C128.601 17.236 128.841 17.2 129.105 17.2C129.409 17.2 129.677 17.272 129.909 17.416C130.149 17.552 130.269 17.76 130.269 18.04L130.269 22L131.229 22L131.229 18.04C131.229 17.68 131.137 17.376 130.953 17.128C130.777 16.88 130.529 16.692 130.209 16.564C129.897 16.428 129.529 16.36 129.105 16.36C128.609 16.36 128.185 16.436 127.833 16.588C127.481 16.74 127.201 16.892 126.993 17.044L127.461 17.776ZM137.473 17.44L137.533 16.06L132.973 21.04L132.913 22.42L137.473 17.44ZM133.873 16.48L132.913 16.48L132.913 22.42L133.873 21.1L133.873 16.48ZM137.533 16.06L136.573 17.38L136.573 22L137.533 22L137.533 16.06ZM133.357 13.66C133.357 13.932 133.425 14.2 133.561 14.464C133.705 14.72 133.917 14.932 134.197 15.1C134.485 15.26 134.837 15.34 135.253 15.34C135.677 15.34 136.029 15.26 136.309 15.1C136.589 14.932 136.797 14.72 136.933 14.464C137.077 14.2 137.149 13.932 137.149 13.66L136.297 13.66C136.297 13.764 136.269 13.888 136.213 14.032C136.157 14.168 136.053 14.292 135.901 14.404C135.749 14.508 135.533 14.56 135.253 14.56C134.973 14.56 134.757 14.508 134.605 14.404C134.453 14.292 134.349 14.168 134.293 14.032C134.237 13.888 134.209 13.764 134.209 13.66L133.357 13.66ZM139.824 19.24C139.824 18.856 139.904 18.516 140.064 18.22C140.232 17.916 140.456 17.68 140.736 17.512C141.024 17.344 141.348 17.26 141.708 17.26C142.004 17.26 142.28 17.308 142.536 17.404C142.8 17.492 143.028 17.612 143.22 17.764C143.412 17.916 143.548 18.084 143.628 18.268L143.628 17.068C143.436 16.844 143.16 16.672 142.8 16.552C142.448 16.424 142.084 16.36 141.708 16.36C141.172 16.36 140.688 16.484 140.256 16.732C139.824 16.98 139.48 17.32 139.224 17.752C138.976 18.184 138.852 18.68 138.852 19.24C138.852 19.792 138.976 20.288 139.224 20.728C139.48 21.16 139.824 21.5 140.256 21.748C140.688 21.996 141.172 22.12 141.708 22.12C142.084 22.12 142.448 22.06 142.8 21.94C143.16 21.812 143.436 21.636 143.628 21.412L143.628 20.212C143.548 20.388 143.412 20.556 143.22 20.716C143.028 20.868 142.8 20.992 142.536 21.088C142.28 21.176 142.004 21.22 141.708 21.22C141.348 21.22 141.024 21.136 140.736 20.968C140.456 20.792 140.232 20.556 140.064 20.26C139.904 19.964 139.824 19.624 139.824 19.24ZM145.063 16.48L145.063 22L146.023 22L146.023 16.48L145.063 16.48ZM148.063 16.48L145.663 18.76L148.303 22L149.503 22L146.863 18.76L149.263 16.48L148.063 16.48ZM149.752 19.24C149.752 19.792 149.876 20.288 150.124 20.728C150.38 21.16 150.724 21.5 151.156 21.748C151.588 21.996 152.072 22.12 152.608 22.12C153.152 22.12 153.636 21.996 154.06 21.748C154.492 21.5 154.832 21.16 155.08 20.728C155.336 20.288 155.464 19.792 155.464 19.24C155.464 18.68 155.336 18.184 155.08 17.752C154.832 17.32 154.492 16.98 154.06 16.732C153.636 16.484 153.152 16.36 152.608 16.36C152.072 16.36 151.588 16.484 151.156 16.732C150.724 16.98 150.38 17.32 150.124 17.752C149.876 18.184 149.752 18.68 149.752 19.24ZM150.724 19.24C150.724 18.856 150.804 18.516 150.964 18.22C151.132 17.916 151.356 17.68 151.636 17.512C151.924 17.344 152.248 17.26 152.608 17.26C152.968 17.26 153.288 17.344 153.568 17.512C153.856 17.68 154.08 17.916 154.24 18.22C154.408 18.516 154.492 18.856 154.492 19.24C154.492 19.624 154.408 19.964 154.24 20.26C154.08 20.556 153.856 20.792 153.568 20.968C153.288 21.136 152.968 21.22 152.608 21.22C152.248 21.22 151.924 21.136 151.636 20.968C151.356 20.792 151.132 20.556 150.964 20.26C150.804 19.964 150.724 19.624 150.724 19.24ZM161.403 17.44L161.463 16.06L156.903 21.04L156.843 22.42L161.403 17.44ZM157.803 16.48L156.843 16.48L156.843 22.42L157.803 21.1L157.803 16.48ZM161.463 16.06L160.503 17.38L160.503 22L161.463 22L161.463 16.06ZM157.287 13.66C157.287 13.932 157.355 14.2 157.491 14.464C157.635 14.72 157.847 14.932 158.127 15.1C158.415 15.26 158.767 15.34 159.183 15.34C159.607 15.34 159.959 15.26 160.239 15.1C160.519 14.932 160.727 14.72 160.863 14.464C161.007 14.2 161.079 13.932 161.079 13.66L160.227 13.66C160.227 13.764 160.199 13.888 160.143 14.032C160.087 14.168 159.983 14.292 159.831 14.404C159.679 14.508 159.463 14.56 159.183 14.56C158.903 14.56 158.687 14.508 158.535 14.404C158.383 14.292 158.279 14.168 158.223 14.032C158.167 13.888 158.139 13.764 158.139 13.66L157.287 13.66ZM60.84 30.48L60.84 36L61.8 36L61.8 30.48L60.84 30.48ZM63.84 30.48L61.44 32.76L64.08 36L65.28 36L62.64 32.76L65.04 30.48L63.84 30.48ZM70.7409 30.48L69.6609 30.48L67.9569 34.752L68.3529 34.8L66.6009 30.48L65.4609 30.48L67.5729 35.22L66.0609 38.64L67.1409 38.64L70.7409 30.48ZM74.9494 30.48L73.6294 32.4L72.3094 30.48L71.2294 30.48L73.1134 33.156L71.1094 36L72.1894 36L73.6294 33.912L75.0694 36L76.1494 36L74.1454 33.156L76.0294 30.48L74.9494 30.48ZM77.6124 33.54L81.6924 33.54L81.6924 32.64L77.6124 32.64L77.6124 33.54ZM81.0684 30.48L81.0684 36L82.0284 36L82.0284 30.48L81.0684 30.48ZM77.0484 30.48L77.0484 36L78.0084 36L78.0084 30.48L77.0484 30.48ZM88.4536 31.44L88.5136 30.06L83.9536 35.04L83.8936 36.42L88.4536 31.44ZM84.8536 30.48L83.8936 30.48L83.8936 36.42L84.8536 35.1L84.8536 30.48ZM88.5136 30.06L87.5536 31.38L87.5536 36L88.5136 36L88.5136 30.06ZM94.5343 33.12L94.5343 33.624L96.1303 33.624C96.3143 33.624 96.4703 33.644 96.5983 33.684C96.7343 33.716 96.8423 33.768 96.9223 33.84C97.0103 33.912 97.0743 33.992 97.1143 34.08C97.1623 34.168 97.1863 34.268 97.1863 34.38C97.1863 34.596 97.0983 34.78 96.9223 34.932C96.7543 35.084 96.4903 35.16 96.1303 35.16L94.5343 35.16L94.5343 36L96.3703 36C97.0023 36 97.4543 35.856 97.7263 35.568C98.0063 35.272 98.1463 34.916 98.1463 34.5C98.1463 34.14 98.0583 33.86 97.8823 33.66C97.7063 33.46 97.4663 33.32 97.1623 33.24C96.8583 33.16 96.5143 33.12 96.1303 33.12L94.5343 33.12ZM94.5343 33.36L96.0103 33.36C96.3543 33.36 96.6663 33.312 96.9463 33.216C97.2343 33.112 97.4663 32.96 97.6423 32.76C97.8183 32.552 97.9063 32.292 97.9063 31.98C97.9063 31.62 97.8183 31.332 97.6423 31.116C97.4663 30.892 97.2343 30.732 96.9463 30.636C96.6663 30.532 96.3543 30.48 96.0103 30.48L94.5343 30.48L94.5343 31.32L96.0103 31.32C96.2983 31.32 96.5263 31.388 96.6943 31.524C96.8623 31.652 96.9463 31.824 96.9463 32.04C96.9463 32.144 96.9223 32.244 96.8743 32.34C96.8343 32.428 96.7743 32.508 96.6943 32.58C96.6143 32.652 96.5143 32.708 96.3943 32.748C96.2823 32.78 96.1543 32.796 96.0103 32.796L94.5343 32.796L94.5343 33.36ZM93.9703 30.48L93.9703 36L94.9303 36L94.9303 30.48L93.9703 30.48ZM110.385 28.74L110.445 27.18L103.125 34.86L103.065 36.42L110.385 28.74ZM104.085 27.6L103.065 27.6L103.065 36.42L104.085 35.1L104.085 27.6ZM110.445 27.18L109.425 28.5L109.425 36L110.445 36L110.445 27.18ZM118.07 30.48L115.67 32.76L118.31 36L119.51 36L116.75 32.88L119.27 30.48L118.07 30.48ZM115.91 30.48L115.01 30.48L115.01 36L115.91 36L115.91 30.48ZM112.85 30.48L111.65 30.48L114.17 32.88L111.41 36L112.61 36L115.25 32.76L112.85 30.48ZM120.364 33.48L125.08 33.48C125.088 33.432 125.092 33.384 125.092 33.336C125.092 33.288 125.092 33.24 125.092 33.192C125.092 32.608 124.984 32.108 124.768 31.692C124.552 31.268 124.248 30.94 123.856 30.708C123.464 30.476 123.008 30.36 122.488 30.36C122.016 30.36 121.588 30.456 121.204 30.648C120.828 30.84 120.52 31.108 120.28 31.452C120.04 31.796 119.88 32.196 119.8 32.652C119.784 32.748 119.772 32.844 119.764 32.94C119.756 33.036 119.752 33.136 119.752 33.24C119.752 33.792 119.864 34.288 120.088 34.728C120.32 35.16 120.632 35.5 121.024 35.748C121.424 35.996 121.872 36.12 122.368 36.12C122.848 36.12 123.248 36.064 123.568 35.952C123.888 35.832 124.16 35.668 124.384 35.46C124.608 35.244 124.812 34.996 124.996 34.716L124.216 34.224C124.096 34.424 123.952 34.6 123.784 34.752C123.616 34.896 123.424 35.012 123.208 35.1C123 35.18 122.76 35.22 122.488 35.22C122.128 35.22 121.816 35.144 121.552 34.992C121.288 34.84 121.084 34.616 120.94 34.32C120.796 34.024 120.724 33.664 120.724 33.24L120.748 32.88C120.748 32.536 120.824 32.24 120.976 31.992C121.136 31.736 121.348 31.54 121.612 31.404C121.876 31.268 122.168 31.2 122.488 31.2C122.808 31.2 123.076 31.264 123.292 31.392C123.516 31.512 123.688 31.684 123.808 31.908C123.936 32.124 124.016 32.376 124.048 32.664L120.364 32.664L120.364 33.48ZM126.972 33.12L126.972 33.624L128.568 33.624C128.752 33.624 128.908 33.644 129.036 33.684C129.172 33.716 129.28 33.768 129.36 33.84C129.448 33.912 129.512 33.992 129.552 34.08C129.6 34.168 129.624 34.268 129.624 34.38C129.624 34.596 129.536 34.78 129.36 34.932C129.192 35.084 128.928 35.16 128.568 35.16L126.972 35.16L126.972 36L128.808 36C129.44 36 129.892 35.856 130.164 35.568C130.444 35.272 130.584 34.916 130.584 34.5C130.584 34.14 130.496 33.86 130.32 33.66C130.144 33.46 129.904 33.32 129.6 33.24C129.296 33.16 128.952 33.12 128.568 33.12L126.972 33.12ZM126.972 33.36L128.448 33.36C128.792 33.36 129.104 33.312 129.384 33.216C129.672 33.112 129.904 32.96 130.08 32.76C130.256 32.552 130.344 32.292 130.344 31.98C130.344 31.62 130.256 31.332 130.08 31.116C129.904 30.892 129.672 30.732 129.384 30.636C129.104 30.532 128.792 30.48 128.448 30.48L126.972 30.48L126.972 31.32L128.448 31.32C128.736 31.32 128.964 31.388 129.132 31.524C129.3 31.652 129.384 31.824 129.384 32.04C129.384 32.144 129.36 32.244 129.312 32.34C129.272 32.428 129.212 32.508 129.132 32.58C129.052 32.652 128.952 32.708 128.832 32.748C128.72 32.78 128.592 32.796 128.448 32.796L126.972 32.796L126.972 33.36ZM126.408 30.48L126.408 36L127.368 36L127.368 30.48L126.408 30.48ZM132.277 33.24C132.277 32.856 132.357 32.516 132.517 32.22C132.685 31.916 132.909 31.68 133.189 31.512C133.477 31.344 133.801 31.26 134.161 31.26C134.457 31.26 134.733 31.308 134.989 31.404C135.253 31.492 135.481 31.612 135.673 31.764C135.865 31.916 136.001 32.084 136.081 32.268L136.081 31.068C135.889 30.844 135.613 30.672 135.253 30.552C134.901 30.424 134.537 30.36 134.161 30.36C133.625 30.36 133.141 30.484 132.709 30.732C132.277 30.98 131.933 31.32 131.677 31.752C131.429 32.184 131.305 32.68 131.305 33.24C131.305 33.792 131.429 34.288 131.677 34.728C131.933 35.16 132.277 35.5 132.709 35.748C133.141 35.996 133.625 36.12 134.161 36.12C134.537 36.12 134.901 36.06 135.253 35.94C135.613 35.812 135.889 35.636 136.081 35.412L136.081 34.212C136.001 34.388 135.865 34.556 135.673 34.716C135.481 34.868 135.253 34.992 134.989 35.088C134.733 35.176 134.457 35.22 134.161 35.22C133.801 35.22 133.477 35.136 133.189 34.968C132.909 34.792 132.685 34.556 132.517 34.26C132.357 33.964 132.277 33.624 132.277 33.24ZM137.516 30.48L137.516 36L138.476 36L138.476 30.48L137.516 30.48ZM140.516 30.48L138.116 32.76L140.756 36L141.956 36L139.316 32.76L141.716 30.48L140.516 30.48ZM142.817 33.48L147.533 33.48C147.541 33.432 147.545 33.384 147.545 33.336C147.545 33.288 147.545 33.24 147.545 33.192C147.545 32.608 147.437 32.108 147.221 31.692C147.005 31.268 146.701 30.94 146.309 30.708C145.917 30.476 145.461 30.36 144.941 30.36C144.469 30.36 144.041 30.456 143.657 30.648C143.281 30.84 142.973 31.108 142.733 31.452C142.493 31.796 142.333 32.196 142.253 32.652C142.237 32.748 142.225 32.844 142.217 32.94C142.209 33.036 142.205 33.136 142.205 33.24C142.205 33.792 142.317 34.288 142.541 34.728C142.773 35.16 143.085 35.5 143.477 35.748C143.877 35.996 144.325 36.12 144.821 36.12C145.301 36.12 145.701 36.064 146.021 35.952C146.341 35.832 146.613 35.668 146.837 35.46C147.061 35.244 147.265 34.996 147.449 34.716L146.669 34.224C146.549 34.424 146.405 34.6 146.237 34.752C146.069 34.896 145.877 35.012 145.661 35.1C145.453 35.18 145.213 35.22 144.941 35.22C144.581 35.22 144.269 35.144 144.005 34.992C143.741 34.84 143.537 34.616 143.393 34.32C143.249 34.024 143.177 33.664 143.177 33.24L143.201 32.88C143.201 32.536 143.277 32.24 143.429 31.992C143.589 31.736 143.801 31.54 144.065 31.404C144.329 31.268 144.621 31.2 144.941 31.2C145.261 31.2 145.529 31.264 145.745 31.392C145.969 31.512 146.141 31.684 146.261 31.908C146.389 32.124 146.469 32.376 146.501 32.664L142.817 32.664L142.817 33.48Z" fill="white"/>
<path fill-rule="evenodd" clip-rule="evenodd" d="M23.7147 50.9155C23.4066 50.8875 23.0706 50.8595 22.7345 50.8315C10.3007 49.7113 -0.42491 38.6497 0.0511614 26.3558C-0.144868 23.3034 0.219186 20.1949 1.19933 17.1425C6.57613 0.311947 24.2188 -3.66465 36.5686 3.19638C46.6501 6.41686 52.0829 15.9103 49.2545 28.8202C48.5824 41.8981 41.1613 50.0474 28.4474 50.9155C26.9632 51.3355 25.3949 51.6996 23.7987 52.0076C23.4907 52.0357 23.2386 51.8396 23.1826 51.5316C23.2106 51.2235 23.4066 50.9435 23.7147 50.9155ZM28.3354 49.8233C38.0808 46.9949 44.9419 41.058 47.8263 30.2204C47.9663 29.6883 48.0783 29.1842 48.1903 28.6802C48.2463 27.28 48.2463 25.7957 48.1343 24.2555C47.5462 14.6221 42.6175 7.84507 36.1485 4.20453C32.34 3.00035 27.8033 2.74831 22.8186 3.56043C13.9412 5.01665 7.13622 10.1974 3.24364 18.3466C1.92744 21.119 1.28334 23.8915 1.19933 26.6359C1.89944 35.7652 7.83632 43.9985 17.3577 46.6589L21.5024 47.443C21.8104 47.471 22.0344 47.751 21.9784 48.0311C21.9504 48.3391 21.6704 48.5631 21.3903 48.5071L17.0777 47.695C13.9692 46.8269 11.2528 45.3987 8.92848 43.5504C12.7371 46.9669 17.6378 49.2632 22.8746 49.7393C24.7788 49.9073 26.5991 49.9353 28.3354 49.8233ZM48.9184 21.2031C48.6384 14.9301 45.978 9.97339 41.5533 6.83692C45.2499 10.3654 47.9383 15.1822 48.9184 21.2031ZM33.9922 48.8712C40.6572 46.9389 45.1379 42.3462 47.0982 35.5972C44.2978 41.8701 39.8171 46.1268 33.9922 48.8712ZM31.2758 2.13222C20.1021 -1.22828 6.74416 3.47642 2.26349 17.4785C2.17948 17.7585 2.09547 18.0106 2.01145 18.2906C5.708 9.91738 13.4372 4.0085 22.6225 2.49627C25.703 1.96419 28.5874 1.88018 31.2758 2.13222Z" fill="white"/>
<path d="M13.7172 23.2474C13.6052 23.2474 13.5212 23.2194 13.4652 23.1634C13.4091 23.1073 13.3531 23.0513 13.3251 22.9953L12.317 21.2311V24.7596C12.317 24.8436 12.289 24.8996 12.233 24.9556C12.177 25.0116 12.121 25.0396 12.0369 25.0396H10.6367C10.5527 25.0396 10.4967 25.0116 10.4407 24.9556C10.3847 24.8996 10.3567 24.8436 10.3567 24.7596V17.8426C10.3567 17.7585 10.3847 17.7025 10.4407 17.6465C10.4967 17.5905 10.5527 17.5625 10.6367 17.5625H11.8689C12.0089 17.5625 12.121 17.5905 12.177 17.6745C12.261 17.7585 12.289 17.8146 12.317 17.8426L14.0532 20.811L15.7895 17.8426C15.8175 17.8146 15.8455 17.7585 15.9295 17.6745C16.0135 17.5905 16.0975 17.5625 16.2376 17.5625H17.4697C17.5538 17.5625 17.6098 17.5905 17.6658 17.6465C17.7218 17.7025 17.7498 17.7585 17.7498 17.8426V24.7596C17.7498 24.8436 17.7218 24.8996 17.6658 24.9556C17.6098 25.0116 17.5538 25.0396 17.4697 25.0396H16.0695C15.9855 25.0396 15.9295 25.0116 15.8735 24.9556C15.8175 24.8996 15.7895 24.8436 15.7895 24.7596V21.2311L14.7813 22.9953C14.7533 23.0513 14.6973 23.1073 14.6413 23.1634C14.5853 23.2194 14.5013 23.2474 14.3893 23.2474H13.7172ZM19.038 20.3349C19.066 19.9429 19.15 19.5508 19.29 19.2148C19.43 18.8507 19.6541 18.5427 19.9341 18.2906C20.2142 18.0386 20.5502 17.8146 20.9703 17.6745C21.3623 17.5345 21.8384 17.4505 22.3705 17.4505C22.9026 17.4505 23.3506 17.5345 23.7707 17.6745C24.1907 17.8146 24.5268 18.0386 24.8068 18.2906C25.0869 18.5427 25.3109 18.8507 25.4509 19.2148C25.591 19.5788 25.703 19.9429 25.703 20.3349C25.731 20.643 25.731 20.951 25.731 21.2871C25.731 21.6231 25.731 21.9312 25.703 22.2392C25.675 22.6313 25.591 23.0233 25.4509 23.3594C25.3109 23.7234 25.0869 24.0315 24.8068 24.2835C24.5268 24.5356 24.1907 24.7596 23.7707 24.8996C23.3506 25.0396 22.9026 25.1236 22.3705 25.1236C21.8384 25.1236 21.3903 25.0396 20.9703 24.8996C20.5782 24.7596 20.2142 24.5356 19.9341 24.2835C19.6541 24.0315 19.43 23.7234 19.29 23.3594C19.15 22.9953 19.038 22.6313 19.038 22.2392C19.01 21.9592 19.01 21.6231 19.01 21.2871C19.01 20.979 19.01 20.643 19.038 20.3349ZM23.7147 22.1832C23.7147 22.0432 23.7427 21.9032 23.7427 21.7631C23.7427 21.5951 23.7427 21.4551 23.7427 21.2871C23.7427 21.119 23.7427 20.951 23.7427 20.811C23.7427 20.671 23.7147 20.531 23.7147 20.3909C23.6867 20.2229 23.6587 20.0549 23.6027 19.8869C23.5467 19.7468 23.4626 19.6068 23.3506 19.4948C23.2386 19.3828 23.0986 19.2988 22.9306 19.2428C22.7625 19.1868 22.5665 19.1588 22.3425 19.1588C22.1184 19.1588 21.9224 19.1868 21.7544 19.2428C21.5864 19.2988 21.4463 19.3828 21.3343 19.4948C21.2223 19.6068 21.1383 19.7468 21.0823 19.8869C21.0263 20.0269 20.9703 20.1949 20.9703 20.3909C20.9423 20.503 20.9423 20.643 20.9423 20.811C20.9423 20.951 20.9423 21.119 20.9423 21.2871C20.9423 21.4551 20.9423 21.6231 20.9423 21.7631C20.9423 21.9312 20.9423 22.0712 20.9703 22.1832C20.9983 22.5473 21.1103 22.8273 21.3343 23.0793C21.5584 23.3034 21.8944 23.4434 22.3145 23.4434C22.7625 23.4434 23.0706 23.3314 23.2946 23.0793C23.5467 22.8553 23.6867 22.5473 23.7147 22.1832ZM30.1276 17.5625C30.6037 17.5625 31.0238 17.6185 31.3878 17.7025C31.7519 17.8146 32.0879 17.9546 32.34 18.1506C32.592 18.3466 32.788 18.5987 32.928 18.9067C33.0681 19.2148 33.1241 19.5788 33.1241 19.9989C33.1241 20.531 33.0121 20.979 32.788 21.3431C32.564 21.7071 32.256 21.9592 31.8359 22.1552L33.1521 24.7036C33.1801 24.7596 33.1801 24.7876 33.1801 24.8156C33.1801 24.8716 33.1521 24.9276 33.1241 24.9836C33.0681 25.0396 33.0121 25.0396 32.9561 25.0396H31.4998C31.3598 25.0396 31.2478 25.0116 31.1918 24.9556C31.1358 24.8996 31.0798 24.8156 31.0518 24.7596L29.8756 22.4632H28.8955V24.7596C28.8955 24.8436 28.8674 24.8996 28.8114 24.9556C28.7554 25.0116 28.6994 25.0396 28.6154 25.0396H27.2152C27.1312 25.0396 27.0752 25.0116 27.0192 24.9556C26.9632 24.8996 26.9352 24.8436 26.9352 24.7596V17.8426C26.9352 17.7585 26.9632 17.7025 27.0192 17.6465C27.0752 17.5905 27.1312 17.5625 27.2152 17.5625H30.1276ZM28.9235 20.783H30.1276C30.4357 20.783 30.6877 20.727 30.8837 20.615C31.0798 20.503 31.1918 20.3069 31.1918 19.9989C31.1918 19.6908 31.0798 19.4948 30.8837 19.3828C30.6877 19.2708 30.4357 19.2148 30.1276 19.2148H28.9235V20.783ZM39.7331 23.3314C39.8171 23.3314 39.8731 23.3594 39.9291 23.4154C39.9851 23.4714 40.0131 23.5274 40.0131 23.6114V24.7316C40.0131 24.8156 39.9851 24.8716 39.9291 24.9276C39.8731 24.9836 39.8171 25.0116 39.7331 25.0116H34.6643C34.5803 25.0116 34.5243 24.9836 34.4683 24.9276C34.4123 24.8716 34.3843 24.8156 34.3843 24.7316V17.8426C34.3843 17.7585 34.4123 17.7025 34.4683 17.6465C34.5243 17.5905 34.5803 17.5625 34.6643 17.5625H39.6491C39.7331 17.5625 39.7891 17.5905 39.8451 17.6465C39.9011 17.7025 39.9291 17.7585 39.9291 17.8426V18.9627C39.9291 19.0467 39.9011 19.1027 39.8451 19.1588C39.7891 19.2148 39.7331 19.2428 39.6491 19.2428H36.3446V20.3909H39.397C39.481 20.3909 39.537 20.4189 39.593 20.475C39.6491 20.531 39.6771 20.587 39.6771 20.671V21.7911C39.6771 21.8752 39.6491 21.9312 39.593 21.9872C39.537 22.0432 39.481 22.0712 39.397 22.0712H36.3446V23.2754H39.7331V23.3314Z" fill="white"/>
<path d="M14.0533 28.1201C14.5013 28.1201 14.9214 28.1761 15.2854 28.2881C15.6495 28.4001 15.9575 28.5401 16.2096 28.7642C16.4616 28.9882 16.6577 29.2403 16.7977 29.5483C16.9377 29.8563 16.9937 30.2204 16.9937 30.6405C16.9937 31.0605 16.9377 31.4246 16.7977 31.7326C16.6577 32.0407 16.4616 32.2927 16.2096 32.5167C15.9575 32.7128 15.6495 32.8808 15.2854 32.9928C14.9214 33.1048 14.5013 33.1608 14.0533 33.1608H12.6811V35.3452C12.6811 35.4292 12.6531 35.4852 12.597 35.5412C12.541 35.5972 12.485 35.6252 12.401 35.6252H11.0008C10.9168 35.6252 10.8608 35.5972 10.8048 35.5412C10.7488 35.4852 10.7208 35.4292 10.7208 35.3452V28.4281C10.7208 28.3441 10.7488 28.2881 10.8048 28.2321C10.8608 28.1761 10.9168 28.1481 11.0008 28.1481H14.0533V28.1201ZM12.6811 31.4806H13.9973C14.3053 31.4806 14.5573 31.4246 14.7534 31.2846C14.9494 31.1445 15.0614 30.9485 15.0614 30.6405C15.0614 30.3324 14.9494 30.1364 14.7534 29.9964C14.5573 29.8563 14.3053 29.8003 13.9973 29.8003H12.6811V31.4806ZM18.1699 30.9205C18.1979 30.5284 18.2819 30.1364 18.4219 29.8003C18.5619 29.4363 18.786 29.1282 19.066 28.8762C19.3461 28.6242 19.6821 28.4001 20.1022 28.2601C20.4942 28.1201 20.9703 28.0361 21.5024 28.0361C22.0345 28.0361 22.4825 28.1201 22.9026 28.2601C23.3226 28.4001 23.6587 28.6242 23.9387 28.8762C24.2188 29.1282 24.4428 29.4363 24.5828 29.8003C24.7229 30.1644 24.8349 30.5284 24.8349 30.9205C24.8629 31.2285 24.8629 31.5366 24.8629 31.8726C24.8629 32.2087 24.8629 32.5167 24.8349 32.8248C24.8069 33.2168 24.7229 33.6089 24.5828 33.945C24.4428 34.309 24.2188 34.6171 23.9387 34.8691C23.6587 35.1211 23.3226 35.3452 22.9026 35.4852C22.4825 35.6252 22.0345 35.7092 21.5024 35.7092C20.9703 35.7092 20.5222 35.6252 20.1022 35.4852C19.7101 35.3452 19.3461 35.1211 19.066 34.8691C18.786 34.6171 18.5619 34.309 18.4219 33.945C18.2819 33.5809 18.1699 33.2168 18.1699 32.8248C18.1419 32.5447 18.1419 32.2087 18.1419 31.8726C18.1419 31.5366 18.1419 31.2285 18.1699 30.9205ZM22.8466 32.7688C22.8466 32.6288 22.8746 32.4887 22.8746 32.3487C22.8746 32.1807 22.8746 32.0407 22.8746 31.8726C22.8746 31.7046 22.8746 31.5366 22.8746 31.3966C22.8746 31.2565 22.8466 31.1165 22.8466 30.9765C22.8186 30.8085 22.7906 30.6405 22.7346 30.4724C22.6785 30.3324 22.5945 30.1924 22.4825 30.0804C22.3705 29.9684 22.2305 29.8843 22.0625 29.8283C21.8944 29.7723 21.6984 29.7443 21.4744 29.7443C21.2503 29.7443 21.0543 29.7723 20.8863 29.8283C20.7183 29.8843 20.5782 29.9684 20.4662 30.0804C20.3542 30.1924 20.2702 30.3324 20.2142 30.4724C20.1582 30.6125 20.1022 30.7805 20.1022 30.9765C20.0742 31.0885 20.0742 31.2285 20.0742 31.3966C20.0742 31.5366 20.0742 31.7046 20.0742 31.8726C20.0742 32.0407 20.0742 32.2087 20.0742 32.3487C20.0742 32.5167 20.0742 32.6568 20.1022 32.7688C20.1302 33.1328 20.2422 33.4129 20.4662 33.6649C20.6903 33.8889 21.0263 34.029 21.4464 34.029C21.8944 34.029 22.2025 33.9169 22.4265 33.6649C22.7066 33.4129 22.8186 33.1328 22.8466 32.7688ZM32.7881 35.2611C32.8161 35.2892 32.8161 35.3172 32.8161 35.3732C32.8161 35.4292 32.7881 35.4852 32.7601 35.5412C32.704 35.5972 32.648 35.5972 32.592 35.5972H30.8838C30.7718 35.5972 30.7157 35.5692 30.6317 35.5412C30.5757 35.4852 30.4917 35.4292 30.4357 35.3732L28.4194 32.8248V35.3172C28.4194 35.4012 28.3914 35.4572 28.3354 35.5132C28.2794 35.5692 28.2234 35.5972 28.1394 35.5972H26.7392C26.6551 35.5972 26.5991 35.5692 26.5431 35.5132C26.4871 35.4572 26.4591 35.4012 26.4591 35.3172V28.4001C26.4591 28.3161 26.4871 28.2601 26.5431 28.2041C26.5991 28.1481 26.6551 28.1201 26.7392 28.1201H28.1394C28.2234 28.1201 28.2794 28.1481 28.3354 28.2041C28.3914 28.2601 28.4194 28.3161 28.4194 28.4001V30.6685L30.2957 28.3721C30.3237 28.3161 30.3797 28.2881 30.4357 28.2321C30.4917 28.1761 30.5757 28.1481 30.7157 28.1481H32.396C32.452 28.1481 32.508 28.1761 32.564 28.2041C32.62 28.2601 32.62 28.3161 32.62 28.3721C32.62 28.4281 32.62 28.4561 32.592 28.4841L29.9596 31.7046L32.7881 35.2611ZM39.369 33.8889C39.453 33.8889 39.5091 33.9169 39.5651 33.973C39.6211 34.029 39.6491 34.085 39.6491 34.169V35.2892C39.6491 35.3732 39.6211 35.4292 39.5651 35.4852C39.5091 35.5412 39.453 35.5692 39.369 35.5692H34.3003C34.2163 35.5692 34.1603 35.5412 34.1043 35.4852C34.0482 35.4292 34.0202 35.3732 34.0202 35.2892V28.3721C34.0202 28.2881 34.0482 28.2321 34.1043 28.1761C34.1603 28.1201 34.2163 28.0921 34.3003 28.0921H39.285C39.369 28.0921 39.425 28.1201 39.4811 28.1761C39.5371 28.2321 39.5651 28.2881 39.5651 28.3721V29.4923C39.5651 29.5763 39.5371 29.6323 39.4811 29.6883C39.425 29.7443 39.369 29.7723 39.285 29.7723H35.9805V30.9205H39.033C39.117 30.9205 39.173 30.9485 39.229 31.0045C39.285 31.0605 39.313 31.1165 39.313 31.2005V32.3207C39.313 32.4047 39.285 32.4607 39.229 32.5167C39.173 32.5727 39.117 32.6008 39.033 32.6008H35.9805V33.8049H39.369V33.8889Z" fill="white"/>
</svg>
