<svg width="55" height="55" viewBox="0 0 55 55" fill="none" xmlns="http://www.w3.org/2000/svg">
<path fill-rule="evenodd" clip-rule="evenodd" d="M30.6522 10.5649C41.2435 10.5649 49.8 19.1475 49.8 29.7128C49.8 40.3041 41.2174 48.8606 30.6522 48.8606C20.0609 48.8606 11.5044 40.278 11.5044 29.7128C11.5044 19.1215 20.087 10.5649 30.6522 10.5649ZM23.4522 28.4867L22.6174 29.5302L22.5914 29.5562L22.5653 29.5823L22.5392 29.6084L22.5131 29.6345H22.487H22.4609H22.4348H22.4087H22.3827H21.0783H21.0522H21.0261H21H20.974H20.9479L20.9218 29.6084L20.8957 29.5823L20.8696 29.5562L20.8435 29.5302L20.8174 29.5041L20.7914 29.478V29.4519V29.4258V29.3997V29.3736V29.3475V26.478L21.6261 24.991V28.278V28.3041V28.3302V28.3562V28.3823V28.4084C21.6261 28.4084 21.6261 28.4345 21.6522 28.4345C21.6522 28.4345 21.6522 28.4606 21.6783 28.4606C21.6783 28.4606 21.6783 28.4867 21.7044 28.4867C21.7044 28.4867 21.7305 28.4867 21.7305 28.5128C21.7305 28.5128 21.7566 28.5128 21.7566 28.5389C21.7566 28.5389 21.7827 28.5389 21.7827 28.5649H21.8087H21.8348H21.8609H21.887H21.9131H23.2174H23.2435H23.2696H23.2957H23.3218H23.3479C23.3479 28.5649 23.374 28.5649 23.374 28.5389C23.374 28.5389 23.4 28.5389 23.4 28.5128C23.4261 28.5128 23.4261 28.5128 23.4522 28.4867C23.4522 28.5128 23.4522 28.5128 23.4522 28.4867ZM19.9305 24.4432L20.8174 22.9302L21.6522 21.8867L20.8174 22.9302V22.9041V22.878V22.8519L21.6522 21.8084L20.0348 24.5736L19.9305 24.4432ZM18.3653 28.4867L17.5305 29.5302L17.5044 29.5562L17.4783 29.5823L17.4522 29.6084L17.4261 29.6345H17.4H17.374H17.3479H17.3218H17.2957H15.9914H15.9653H15.9392H15.9131H15.887H15.8609L15.8348 29.6084L15.8087 29.5823L15.7827 29.5562L15.7566 29.5302L15.7305 29.5041L15.7044 29.478V29.4519V29.4258V29.3997V29.3736V29.3475V22.9302V22.9041V22.878V22.8519V22.8258V22.7997L15.7305 22.7736L15.7566 22.7475L16.5914 21.7041C16.5914 21.7041 16.5914 21.7302 16.5653 21.7302V21.7562V21.7823V21.8084V21.8345V21.8606V28.3041V28.3302V28.3562V28.3823V28.4084V28.4345C16.5653 28.4345 16.5653 28.4606 16.5914 28.4606C16.5914 28.4606 16.5914 28.4867 16.6174 28.4867C16.6174 28.4867 16.6174 28.5128 16.6435 28.5128C16.6435 28.5128 16.6435 28.5128 16.6696 28.5389C16.6696 28.5389 16.6957 28.5389 16.6957 28.5649C16.6957 28.5649 16.7218 28.5649 16.7218 28.591H16.7479H16.774H16.8H16.8261H16.8522H18.1566H18.1827H18.2087H18.2348H18.2609H18.287C18.287 28.591 18.3131 28.591 18.3131 28.5649C18.3131 28.5649 18.3392 28.5649 18.3392 28.5389C18.3392 28.5128 18.3392 28.5128 18.3653 28.4867C18.3653 28.5128 18.3653 28.5128 18.3653 28.4867ZM20.687 26.7649L19.8783 27.7823L19.8522 27.8084L19.8261 27.8345L19.8 27.8606L19.774 27.8867L19.7479 27.9128L19.7218 27.9389L19.6957 27.9649L19.6696 27.991H19.6435H19.6174H19.5914H19.5653H19.5392H18.9131H18.887H18.8609H18.8348H18.8087H18.7827L18.7566 27.9649L18.7305 27.9389L18.7044 27.9128L18.6783 27.8867L18.6522 27.8606L18.6261 27.8345L18.6 27.8084L18.574 27.7823L18.5479 27.7562L18.5218 27.7302V27.7041L18.4174 27.5475V25.0171L19.3566 26.6606V26.6867L19.3827 26.7128L19.4087 26.7389L19.4348 26.7649C19.4609 26.7649 19.4609 26.791 19.487 26.791H19.5131H19.5392H19.5653H19.5914H19.6174H20.2435H20.2696H20.2957H20.3218H20.3479H20.374C20.374 26.791 20.4 26.791 20.4 26.7649C20.4 26.7649 20.4261 26.7649 20.4261 26.7389C20.4261 26.7389 20.4522 26.7389 20.4522 26.7128L20.4783 26.6867C20.6348 26.791 20.6609 26.791 20.687 26.7649ZM28.2261 26.9736V26.9215V26.8693V26.8171V26.7649V26.7128V26.6606V26.6084V26.5562V26.5041V26.4519V26.3997V26.3475V26.2954V26.2432V26.191V26.1389V26.0867V26.0345V25.9823V25.9302V25.878V25.8258V25.7736V25.7215V25.6693V25.6171V25.5649V25.5128V25.4606V25.4084V25.3562V25.3041V25.2519V25.1997V25.1475V25.0954L28.2 25.0432L28.174 24.991L28.1479 24.9389L28.1218 24.8867L28.0957 24.8345L28.0696 24.7823L28.0435 24.7302L28.0174 24.678L27.9914 24.6258L27.9653 24.5736L27.9131 24.5215L27.887 24.4693L27.8348 24.4432L27.7827 24.4171L27.7305 24.391L27.6783 24.3649L27.6261 24.3389L27.574 24.3128L27.5218 24.2867L27.4696 24.2606L27.4174 24.2345L27.3653 24.2084L27.3131 24.1823H27.2348H27.1566H27.0783H27H26.9218H26.8435H26.7653H26.687H26.6087H26.5305L26.4783 24.2084C26.5044 24.078 26.5305 23.9215 26.5827 23.8171C26.6348 23.7128 26.687 23.6084 26.7392 23.5302L26.7653 23.5041L26.7914 23.478L26.8435 23.4519L26.8696 23.4258L26.8957 23.3997L26.9479 23.3736L27 23.3475L27.0522 23.3215L27.1044 23.2954L27.1566 23.2693L27.2087 23.2432L27.2609 23.2171L27.3131 23.191H27.3914H27.4696H27.5479H27.6261H27.7044H27.7827H27.8609H27.9392H28.0174H28.0957L28.1479 23.2171L28.2 23.2432L28.2522 23.2693L28.3044 23.2954L28.3566 23.3215L28.4087 23.3475L28.4609 23.3736L28.5131 23.3997L28.5653 23.4258L28.6174 23.4519L28.6696 23.478L28.6957 23.5041L28.7218 23.5302L28.7479 23.5823L28.774 23.6345L28.8 23.6867L28.8261 23.7389L28.8522 23.791L28.8783 23.8432L28.9044 23.8954L28.9305 23.9475L28.9566 23.9997L28.9827 24.0519V24.1041V24.1562V24.2084V24.2606V24.2867V24.3389V24.3649V24.391V24.4171V24.4432V24.4954V24.5215L28.9566 24.6519L28.9305 24.7562L28.9044 24.8606L28.8522 24.9649L28.8 25.0693L28.7479 25.1736L28.6957 25.2519L28.6435 25.3041L28.6174 25.3302C28.487 25.4606 28.3305 25.5649 28.1218 25.6171L28.2261 26.9736ZM23.8435 27.0258V26.9215V26.8171V26.7128V26.6084V26.5041V26.3997V26.2954V26.191V26.0867V25.9823V25.878V25.7736V25.6693V25.5649V25.4606V25.3562V25.2258L23.8696 25.0954L23.8957 24.9649L23.9218 24.8345L23.9479 24.7041L24 24.5736L24.0522 24.4432L24.1044 24.3128L24.1566 24.1823L24.2087 24.078L24.287 23.9736L24.3653 23.8693L24.4435 23.7649L25.2783 22.7215C25.2522 22.7475 25.2261 22.7736 25.2 22.8258C25.174 22.8519 25.1479 22.9041 25.1218 22.9302C25.0957 22.9562 25.0696 23.0084 25.0435 23.0345C25.0174 23.0606 24.9914 23.1128 24.9914 23.1389C24.9653 23.191 24.9653 23.2171 24.9392 23.2693C24.9131 23.3215 24.9131 23.3475 24.887 23.3997C24.8609 23.4519 24.8609 23.478 24.8348 23.5302C24.8087 23.5823 24.8087 23.6084 24.8087 23.6606C24.8087 23.7128 24.7827 23.7389 24.7827 23.791C24.7566 23.8693 24.7566 23.9736 24.7305 24.0519C24.7305 24.1041 24.7305 24.1302 24.7044 24.1823C24.7044 24.2345 24.7044 24.2867 24.7044 24.3128V24.8345V25.3041V25.9823C24.7044 26.0345 24.7044 26.0867 24.7044 26.1128C24.7044 26.1649 24.7044 26.2171 24.7305 26.2432C24.7305 26.2954 24.7566 26.3215 24.7566 26.3736C24.7566 26.4258 24.7827 26.4519 24.7827 26.5041C24.7827 26.5562 24.8087 26.5823 24.8087 26.6345C24.8087 26.6867 24.8348 26.7128 24.8348 26.7649C24.8609 26.8171 24.8609 26.8432 24.887 26.8954C24.9131 26.9475 24.9131 26.9736 24.9392 27.0258C24.9914 27.1562 25.0435 27.2606 25.1218 27.391C25.1479 27.4171 25.174 27.4693 25.2 27.4954C25.2261 27.5215 25.2522 27.5736 25.2783 27.5997C25.3044 27.6258 25.3305 27.678 25.3566 27.7041C25.3827 27.7302 25.4087 27.7562 25.4348 27.8084C25.4609 27.8345 25.487 27.8606 25.5392 27.9128C25.5653 27.9389 25.6174 27.9649 25.6435 27.991C25.7218 28.0432 25.774 28.0954 25.8522 28.1475C25.8783 28.1736 25.9305 28.1997 25.9566 28.2258C26.0087 28.2519 26.0348 28.278 26.087 28.3041C26.1392 28.3302 26.1653 28.3562 26.2174 28.3562C26.2696 28.3823 26.2957 28.4084 26.3479 28.4084C26.4 28.4345 26.4261 28.4345 26.4783 28.4606C26.5044 28.4606 26.5305 28.4867 26.5566 28.4867C26.5827 28.4867 26.6087 28.5128 26.6348 28.5128C26.6609 28.5128 26.687 28.5389 26.7131 28.5389C26.7392 28.5389 26.7653 28.5649 26.7914 28.5649C26.8174 28.5649 26.8435 28.5649 26.8696 28.591L26.9479 28.6171C26.974 28.6171 27 28.6171 27.0261 28.6432L27.1044 28.6693C27.1305 28.6693 27.1566 28.6693 27.1827 28.6693C27.2087 28.6693 27.2348 28.6693 27.2609 28.6693H27.3392H27.4174H27.4957H27.574H27.6522C27.6783 28.6693 27.7044 28.6693 27.7566 28.6693C27.7827 28.6693 27.8087 28.6693 27.8348 28.6693C27.8609 28.6693 27.887 28.6693 27.9131 28.6693H27.9914H28.0696H28.1479C28.174 28.6693 28.2 28.6693 28.2261 28.6693C28.2522 28.6693 28.2783 28.6693 28.3044 28.6693C28.3305 28.6693 28.3566 28.6693 28.3827 28.6693C28.4087 28.6693 28.4348 28.6693 28.4609 28.6432C28.487 28.6432 28.5131 28.6432 28.5392 28.6171L28.6174 28.591C28.6435 28.591 28.6696 28.591 28.6957 28.5649C28.7218 28.5649 28.7479 28.5389 28.774 28.5389C28.8 28.5389 28.8261 28.5128 28.8522 28.5128C28.8783 28.5128 28.9044 28.4867 28.9305 28.4867C28.9566 28.4867 28.9827 28.4606 29.0087 28.4606C29.0609 28.4345 29.1131 28.4345 29.1392 28.4084C29.1914 28.3823 29.2174 28.3823 29.2696 28.3562C29.3479 28.3041 29.4522 28.278 29.5305 28.2258C29.5827 28.1997 29.6087 28.1736 29.6609 28.1475C29.687 28.1215 29.7392 28.0954 29.7653 28.0693C29.7914 28.0432 29.8435 28.0171 29.8696 27.991C29.8957 27.9649 29.9479 27.9389 29.974 27.9128C30 27.8867 30.0261 27.8606 30.0783 27.8084C30.1044 27.7823 30.1305 27.7562 30.1566 27.7041L30.1827 27.6519L29.374 28.6432L29.2957 28.7475L29.2174 28.8519V28.9562L29.1131 29.0345L29.0087 29.1128L28.9044 29.191L28.774 29.2693L28.6435 29.3475L28.5131 29.3997L28.3827 29.4519L28.2522 29.5041L28.174 29.5302L28.0957 29.5562L28.0174 29.5823L27.9392 29.6084L27.8609 29.6345L27.7827 29.6606L27.7044 29.6867L27.6261 29.7128H27.5479H27.4696H27.3914H27.3131H27.2348H27.1566H27.0783H27H26.8957H26.8174H26.7392H26.6609H26.5827H26.5044H26.4261H26.3479L26.2696 29.6867L26.1914 29.6606L26.1131 29.6345L26.0348 29.6084L25.9566 29.5823L25.8783 29.5562L25.8 29.5302L25.7218 29.5041L25.5914 29.4519L25.4609 29.3997L25.3305 29.3475L25.2 29.2693L25.0957 29.191L24.9914 29.1128L24.887 29.0345L24.7827 28.9562L24.6783 28.8519L24.6 28.7475L24.5218 28.6432L24.4435 28.5389L24.3653 28.4345L24.287 28.3302L24.2348 28.1997L24.1827 28.0693L24.1305 27.9389L24.0783 27.8084L24.0261 27.678L24 27.5475L23.974 27.4171L23.9479 27.2867L23.9218 27.1562L23.8435 27.0258ZM37.8783 28.5128L37.0435 29.5562L37.0174 29.5823L36.9914 29.6084L36.9653 29.6345H36.9392H36.9131H36.887H36.8609H36.8348H36.8087H35.4522H35.4H35.3479H35.2957H35.2696H35.2435L35.2174 29.6084L35.1913 29.5823L35.1653 29.5562L35.1392 29.5302L35.1131 29.5041L35.087 29.478L35.0609 29.4519L35.0348 29.4258L35.0087 29.3997L34.9827 29.3736V29.3475L33.887 27.2084H33.9131V26.1649H34.8261L35.9218 28.3041V28.3302V28.3562L35.9479 28.3823V28.4084L35.974 28.4345V28.4606L36 28.4867C36 28.4867 36.0261 28.4867 36.0261 28.5128C36.0261 28.5128 36.0522 28.5128 36.0522 28.5389H36.0783H36.1044C36.1044 28.5389 36.1305 28.5389 36.1566 28.5389C36.1827 28.5389 36.1827 28.5389 36.2087 28.5389C36.2348 28.5389 36.2348 28.5389 36.2609 28.5389H37.6174H37.6435H37.6696C37.6696 28.5389 37.6696 28.5389 37.6957 28.5389H37.7218C37.7218 28.5389 37.7218 28.5389 37.7479 28.5389C37.7479 28.5389 37.7479 28.5389 37.774 28.5389C37.8522 28.5389 37.8522 28.5389 37.8783 28.5128ZM43.9044 25.7736L43.0696 26.8171L43.0435 26.8432L43.0174 26.8693L42.9914 26.8954L42.9653 26.9215H42.9392H42.9131H42.887H42.8609H42.8348H40.8261V25.878H43.6696H43.6957H43.7218H43.7479H43.774H43.8C43.8 25.878 43.8261 25.878 43.8261 25.8519C43.8261 25.8519 43.8522 25.8519 43.8522 25.8258C43.8522 25.8258 43.8783 25.7997 43.9044 25.7736C43.8783 25.7997 43.8783 25.7997 43.9044 25.7736ZM44.1131 23.1128L43.2783 24.1562L43.2522 24.1823L43.2261 24.2084L43.2 24.2345L43.174 24.2606H43.1479H43.1218H43.0957H43.0696H43.0435H40.8261V23.2171H43.9044H43.9305H43.9566H43.9827H44.0087H44.0348C44.0348 23.2171 44.0609 23.2171 44.0609 23.191C44.0609 23.191 44.087 23.191 44.087 23.1649C44.087 23.1389 44.087 23.1389 44.1131 23.1128ZM44.1913 28.4867L43.3566 29.5302L43.3305 29.5562L43.3044 29.5823L43.2783 29.6084L43.2522 29.6345H43.2261H43.2H43.174H43.1479H43.1218H38.4H38.374H38.3479H38.3218H38.2957H38.2696L38.2435 29.6084L38.2174 29.5823L38.1913 29.5562L38.1653 29.5302L38.1392 29.5041L38.1131 29.478V29.4519V29.4258V29.3997V29.3736V29.3475V22.9302V22.9041V22.878V22.8519V22.8258V22.7997L38.1392 22.7736L38.1653 22.7475L39 21.7041C39 21.7041 39 21.7302 38.974 21.7302V21.7562V21.7823V21.8084V21.8345V21.8606V28.3041V28.3302V28.3562V28.3823C38.974 28.3823 38.974 28.3823 38.974 28.4084V28.4345C38.974 28.4345 38.974 28.4606 39 28.4606C39 28.4606 39 28.4867 39.0261 28.4867C39.0261 28.4867 39.0261 28.5128 39.0522 28.5128C39.0522 28.5128 39.0522 28.5128 39.0783 28.5389C39.0783 28.5389 39.1044 28.5389 39.1044 28.5649C39.1044 28.5649 39.1044 28.5649 39.1305 28.5649H39.1566H39.1827H39.2087H39.2348H39.2609H43.9827H44.0087H44.0348H44.0609H44.087H44.1131C44.1131 28.5649 44.1392 28.5649 44.1392 28.5389C44.1392 28.5389 44.1653 28.5389 44.1653 28.5128C44.1653 28.5128 44.1653 28.5128 44.1913 28.4867C44.1913 28.5128 44.1913 28.5128 44.1913 28.4867ZM35.1131 24.6258L35.087 24.5736L35.0609 24.4954L35.0087 24.4432L34.9566 24.391L34.9044 24.3389L34.8261 24.3128L34.7479 24.2867L34.6696 24.2606L34.5914 24.2345L34.5131 24.2084H34.4087H34.3044H34.2H33.9131V23.1649H35.0348H35.1392H35.2435H35.3218L35.4 23.191L35.4783 23.2171L35.5566 23.2432L35.6348 23.2693L35.7131 23.2954L35.7653 23.3475L35.8174 23.3997L35.8696 23.4519L35.8957 23.5302L35.9218 23.6084L35.9479 23.6867V23.791V23.8954V23.9997V24.1041L35.9218 24.1823L35.8957 24.2606L35.8696 24.3389L35.8174 24.391C35.7914 24.4171 35.7392 24.4693 35.687 24.4954C35.5566 24.5736 35.3479 24.6258 35.1131 24.6258ZM33.8609 28.4867L33.0261 29.5302L33 29.5562L32.974 29.5823L32.9479 29.6084L32.9218 29.6345H32.8957H32.8696H32.8435H32.8174H32.7914H31.487H31.4609H31.4348H31.4087H31.3827H31.3566L31.3305 29.6084L31.3044 29.5823L31.2783 29.5562L31.2522 29.5302L31.2261 29.5041L31.2 29.478V29.4519V29.4258V29.3997V29.3736V29.3475V22.9302V22.9041V22.878V22.8519V22.8258V22.7997L31.2261 22.7736L31.2522 22.7475L32.087 21.7041C32.087 21.7041 32.087 21.7302 32.0609 21.7302V21.7562V21.7823V21.8084V21.8345V21.8606V28.3041V28.3302V28.3562V28.3823C32.0609 28.3823 32.0609 28.3823 32.0609 28.4084V28.4345C32.0609 28.4345 32.0609 28.4606 32.087 28.4606C32.087 28.4606 32.087 28.4867 32.1131 28.4867C32.1131 28.4867 32.1131 28.5128 32.1392 28.5128C32.1392 28.5128 32.1392 28.5128 32.1653 28.5389C32.1653 28.5389 32.1914 28.5389 32.1914 28.5649C32.1914 28.5649 32.2174 28.5649 32.2174 28.591H32.2435H32.2696H32.2957H32.3218H32.3479H33.6522H33.6783H33.7044H33.7305H33.7566H33.7827C33.7827 28.591 33.8087 28.591 33.8087 28.5649C33.8087 28.5649 33.8348 28.5649 33.8348 28.5389C33.8087 28.5128 33.8348 28.5128 33.8609 28.4867C33.8348 28.5128 33.8348 28.5128 33.8609 28.4867ZM37.3566 25.3823L36.7566 26.1128L36.6522 25.9041C36.7044 25.878 36.7566 25.8519 36.7827 25.8258C36.8348 25.7997 36.8609 25.7736 36.9131 25.7475C36.9653 25.7215 36.9914 25.6954 37.0435 25.6693C37.0957 25.6432 37.1218 25.6171 37.1479 25.591C37.174 25.5649 37.2261 25.5389 37.2522 25.4867C37.3044 25.4345 37.3305 25.4084 37.3566 25.3823ZM23.0348 36.8867V36.7823V36.678V36.5736V36.4693V36.3649V36.2606V36.1562V36.0519V35.9475V35.8432V35.7389V35.6345V35.5302V35.4258V35.3215V35.2171V35.0867L23.0609 34.9562L23.087 34.8258L23.1131 34.6954L23.1392 34.5649L23.1914 34.4345L23.2435 34.3041L23.2957 34.1736L23.3479 34.0432L23.4 33.9389L23.4783 33.8345L23.5566 33.7302L23.6348 33.6258L24.4696 32.5823C24.4435 32.6084 24.4174 32.6345 24.3914 32.6867C24.3653 32.7128 24.3392 32.7649 24.3131 32.791C24.287 32.8171 24.2609 32.8693 24.2348 32.8954C24.2087 32.9215 24.1827 32.9736 24.1827 32.9997C24.1566 33.0519 24.1566 33.078 24.1305 33.1302C24.1044 33.1823 24.1044 33.2084 24.0783 33.2606C24.0522 33.3128 24.0522 33.3389 24.0261 33.391C24 33.4432 24 33.4693 24 33.5215C24 33.5736 23.974 33.5997 23.974 33.6519C23.9479 33.7302 23.9479 33.8345 23.9218 33.9128C23.9218 33.9649 23.9218 33.991 23.8957 34.0432C23.8957 34.0954 23.8957 34.1475 23.8957 34.1736V35.9475C23.8957 35.9997 23.8957 36.0519 23.8957 36.078C23.8957 36.1302 23.8957 36.1823 23.9218 36.2084C23.9218 36.2606 23.9479 36.2867 23.9479 36.3389C23.9479 36.391 23.974 36.4171 23.974 36.4693C23.974 36.5215 24 36.5475 24 36.5997C24 36.6519 24.0261 36.678 24.0261 36.7302C24.0522 36.7823 24.0522 36.8084 24.0783 36.8606C24.1044 36.9128 24.1044 36.9389 24.1305 36.991C24.1827 37.1215 24.2348 37.2258 24.3131 37.3562C24.3392 37.3823 24.3653 37.4345 24.3914 37.4606C24.4174 37.4867 24.4435 37.5389 24.4696 37.5649C24.4957 37.591 24.5218 37.6432 24.5479 37.6693C24.574 37.6954 24.6 37.7215 24.6261 37.7736C24.6522 37.7997 24.6783 37.8258 24.7305 37.878C24.7566 37.9041 24.8087 37.9302 24.8348 37.9562C24.9131 38.0084 24.9653 38.0606 25.0435 38.1128C25.0696 38.1389 25.1218 38.1649 25.1479 38.191C25.2 38.2171 25.2261 38.2432 25.2783 38.2693C25.3305 38.2954 25.3566 38.3215 25.4087 38.3215C25.4609 38.3475 25.487 38.3736 25.5392 38.3736C25.5914 38.3997 25.6174 38.3997 25.6696 38.4258C25.6957 38.4258 25.7218 38.4519 25.7479 38.4519C25.774 38.4519 25.8 38.478 25.8261 38.478C25.8522 38.478 25.8783 38.5041 25.9044 38.5041C25.9305 38.5041 25.9566 38.5302 25.9827 38.5302C26.0087 38.5302 26.0348 38.5302 26.0609 38.5562L26.1392 38.5823C26.1653 38.5823 26.1914 38.5823 26.2174 38.6084L26.2957 38.6345C26.3218 38.6345 26.3479 38.6345 26.374 38.6345C26.4 38.6345 26.4261 38.6345 26.4522 38.6345H26.5305H26.6087H26.687H26.7653H26.8435C26.8696 38.6345 26.8957 38.6345 26.9479 38.6345C26.974 38.6345 27 38.6345 27.0261 38.6345C27.0522 38.6345 27.0783 38.6345 27.1044 38.6345H27.1827H27.2609H27.3392C27.3653 38.6345 27.3914 38.6345 27.4174 38.6345C27.4435 38.6345 27.4696 38.6345 27.4957 38.6345C27.5218 38.6345 27.5479 38.6345 27.574 38.6345C27.6 38.6345 27.6261 38.6345 27.6522 38.6084C27.6783 38.6084 27.7044 38.6084 27.7305 38.5823L27.8087 38.5562C27.8348 38.5562 27.8609 38.5562 27.887 38.5302C27.9131 38.5302 27.9392 38.5041 27.9653 38.5041C27.9914 38.5041 28.0174 38.478 28.0435 38.478C28.0696 38.478 28.0957 38.4519 28.1218 38.4519C28.1479 38.4519 28.174 38.4258 28.2 38.4258C28.2522 38.3997 28.3044 38.3997 28.3305 38.3736C28.3827 38.3475 28.4087 38.3475 28.4609 38.3215C28.5392 38.2693 28.6435 38.2432 28.7218 38.191C28.774 38.1649 28.8 38.1389 28.8522 38.1128C28.8783 38.0867 28.9305 38.0606 28.9566 38.0345C28.9827 38.0084 29.0348 37.9823 29.0609 37.9562C29.087 37.9302 29.1392 37.9041 29.1653 37.878C29.1914 37.8519 29.2174 37.8258 29.2696 37.7736C29.2957 37.7475 29.3218 37.7215 29.3479 37.6693L29.374 37.6171L28.5653 38.6084L28.487 38.7128L28.4087 38.8171L28.3044 38.9215L28.2 38.9997L28.0957 39.078L27.9914 39.1562L27.8609 39.2345L27.7305 39.3128L27.6 39.3649L27.4696 39.4171L27.3392 39.4693L27.2609 39.4954L27.1827 39.5215L27.1044 39.5475L27.0261 39.5736L26.9479 39.5997L26.8696 39.6258L26.7914 39.6519L26.7131 39.678H26.6348H26.5566H26.4783H26.4H26.3218H26.2435H26.1653H26.087H25.9827H25.9044H25.8261H25.7479H25.6696H25.5914H25.5131H25.4348L25.3566 39.6519L25.2783 39.6258L25.2 39.5997L25.1218 39.5736L25.0435 39.5475L24.9653 39.5215L24.887 39.4954L24.8087 39.4693L24.6783 39.4171L24.5479 39.3649L24.4174 39.3128L24.287 39.2345L24.1827 39.1562L24.0783 39.078L23.974 38.9997L23.8696 38.9215L23.7653 38.8171L23.687 38.7128L23.6087 38.6084L23.5305 38.5041L23.4522 38.3997L23.374 38.2954L23.3218 38.1649L23.2696 38.0345L23.2174 37.9041L23.1653 37.7736L23.1131 37.6432L23.087 37.5128L23.0609 37.3823L23.0348 37.2519L23.0087 37.1215L23.0348 36.8867ZM22.3305 35.3215L21.5479 36.2867L21.4696 36.3649L21.3914 36.4432L21.3131 36.5215L21.2348 36.5997L21.1305 36.678L21.0261 36.7562L20.9218 36.8084L20.8174 36.8606L20.7131 36.9128L20.6087 36.9649L20.4783 37.0171L20.3479 37.0432L20.2957 37.0693L20.2435 37.0954L20.1653 37.1215L20.087 37.1475L20.0087 37.1736H19.9305H19.8522H19.774H19.6957H19.6174H19.5392H19.4609H19.3827H19.3044H19.2261H19.1479H18.7827V36.1302H20.0609H20.1392H20.2174H20.2696H20.2957H20.3218H20.374H20.4H20.4522C20.4783 36.1302 20.5044 36.1302 20.5305 36.1302H20.5827H20.6087H20.6348H20.687H20.7653H20.8435C20.8696 36.1302 20.8957 36.1302 20.9218 36.1302H21L21.0783 36.1041L21.1566 36.078C21.1827 36.078 21.2087 36.078 21.2087 36.0519L21.2609 36.0258C21.3131 36.0258 21.3392 35.9997 21.3914 35.9736C21.4435 35.9475 21.4696 35.9475 21.5218 35.9215C21.5479 35.8954 21.6 35.8954 21.6261 35.8693C21.6522 35.8432 21.7044 35.8432 21.7305 35.8171C21.7566 35.791 21.8087 35.791 21.8348 35.7649C21.8609 35.7389 21.9131 35.7128 21.9392 35.7128C21.9653 35.6867 21.9914 35.6606 22.0435 35.6606C22.0696 35.6345 22.0957 35.6084 22.1218 35.5823C22.1479 35.5562 22.174 35.5302 22.2 35.5041C22.2261 35.478 22.2522 35.4519 22.2783 35.4258C22.2783 35.3736 22.3044 35.3475 22.3305 35.3215ZM18.7305 38.3475C18.7044 38.3475 18.7044 38.3475 18.7305 38.3475C18.7044 38.3736 18.7044 38.3736 18.7044 38.3736C18.7044 38.3736 18.6783 38.3736 18.6783 38.3997C18.6783 38.3997 18.6522 38.3997 18.6522 38.4258H18.6261H18.6H18.574H18.5479H18.5218H17.2174H17.1914H17.1653H17.1392H17.1131H17.087C17.087 38.4258 17.0609 38.4258 17.0609 38.3997C17.0609 38.3997 17.0348 38.3997 17.0348 38.3736C17.0348 38.3736 17.0348 38.3736 17.0087 38.3475C17.0087 38.3475 17.0087 38.3475 16.9827 38.3215C16.9827 38.3215 16.9827 38.2954 16.9566 38.2954C16.9566 38.2954 16.9566 38.2693 16.9305 38.2693V38.2432V38.2171V38.191V38.1649V38.1389V31.6954V31.6693V31.6432V31.6171V31.591V31.5649C16.9305 31.5649 16.9305 31.5389 16.9566 31.5389L16.1218 32.5823L16.0957 32.6084L16.0696 32.6345V32.6606V32.6867V32.7128V32.7389V32.7649V39.2084V39.2345V39.2606V39.2867V39.3128V39.3389L16.0957 39.3649L16.1218 39.391H16.174L16.2 39.4171L16.2261 39.4432L16.2522 39.4693H16.2783H16.3044H16.3305H16.3566H16.3827H17.687H17.7131H17.7392H17.7653H17.7914H17.8174L17.8435 39.4432L17.8696 39.4171L17.8957 39.391L17.9218 39.3649L18.7305 38.3475ZM20.087 34.591L20.0609 34.4867L20.0348 34.4084L19.9827 34.3562L19.9305 34.3041L19.8783 34.2519L19.8 34.1997L19.7218 34.1736L19.6435 34.1475L19.5653 34.1215L19.487 34.0954L19.3827 34.0693H19.2783H19.174H18.7827V33.0258H20.0087H20.1131H20.2174L20.3218 33.0519L20.4 33.078L20.4783 33.1041L20.5566 33.1302L20.6348 33.1562L20.7131 33.2084L20.7653 33.2606L20.8174 33.3128L20.8696 33.3649L20.8957 33.4432L20.9218 33.5215L20.9479 33.5997V33.7041V33.8084V33.9128V34.0171L20.9218 34.0954L20.8957 34.1736L20.8696 34.2519L20.8174 34.3041C20.7914 34.3562 20.7392 34.3823 20.687 34.4084C20.5305 34.5128 20.3479 34.5649 20.087 34.591ZM27.4174 36.8345V36.7823V36.7302V36.678V36.6258V36.5736V36.5215V36.4693V36.4171V36.3649V36.3128V36.2606V36.2084V36.1562V36.1041V36.0519V35.9997V35.9475V35.8954V35.8432V35.791V35.7389V35.6867V35.6345V35.5823V35.5302V35.478V35.4258V35.3736V35.3215V35.2693V35.2171V35.1649V35.1128V35.0606V35.0084V34.9562L27.3914 34.9041L27.3653 34.8519L27.3392 34.7997L27.3131 34.7475L27.287 34.6954L27.2609 34.6432L27.2348 34.591L27.2087 34.5388L27.1827 34.4867L27.1566 34.4345L27.1305 34.3823L27.1044 34.3302L27.0522 34.3041L27 34.278L26.9479 34.2519L26.8957 34.2258L26.8435 34.1997L26.7914 34.1736L26.7392 34.1475L26.687 34.1215L26.6348 34.0954L26.5827 34.0693L26.5305 34.0432H26.4522H26.374H26.2957H26.2174H26.1392H26.0609H25.9827H25.9044H25.8261H25.7479L25.6957 34.0693C25.7218 33.9389 25.7479 33.7823 25.8 33.678C25.8522 33.5736 25.9044 33.4693 25.9566 33.391L25.9827 33.3649L26.0087 33.3389L26.0609 33.3128L26.087 33.2867L26.1131 33.2606L26.1653 33.2345L26.2174 33.2084L26.2696 33.1823L26.3218 33.1562L26.374 33.1302L26.4261 33.1041L26.4783 33.078L26.5305 33.0519H26.6087H26.687H26.7653H26.8435H26.9218H27H27.0783H27.1566H27.2348H27.3131L27.3653 33.078L27.4174 33.1041L27.4696 33.1302L27.5218 33.1562L27.574 33.1823L27.6261 33.2084L27.6783 33.2345L27.7305 33.2606L27.7827 33.2867L27.8348 33.3128L27.887 33.3389L27.9131 33.3649L27.9392 33.391L27.9653 33.4432L27.9914 33.4954L28.0174 33.5475L28.0435 33.5997L28.0696 33.6519L28.0957 33.7041L28.1218 33.7562L28.1479 33.8084L28.174 33.8606L28.2 33.9128V33.9649V34.0171V34.0693V34.1215V34.1475V34.1997V34.2258V34.2519V34.278V34.3041V34.3562V34.3823L28.174 34.5128L28.1479 34.6171L28.1218 34.7215L28.0696 34.8258L28.0174 34.9302L27.9653 35.0345L27.9131 35.1128L27.8609 35.1649L27.8348 35.191C27.7044 35.3215 27.5479 35.4258 27.3392 35.478L27.4174 36.8345ZM37.487 38.3475L36.6522 39.391L36.6261 39.4171L36.6 39.4432L36.574 39.4693H36.5479H36.5218H36.4957H36.4696H36.4435H36.4174H34.8261H34.8H34.774H34.7479H34.7218H34.6957H34.6696H34.6435L34.6174 39.4432L34.5914 39.4171L34.5653 39.391L34.5392 39.3649L34.5131 39.3389L34.487 39.3128L34.4609 39.2867L34.4348 39.2606L34.4087 39.2345L33.3653 37.9302V35.8171L35.2435 38.191L35.2696 38.2171L35.2957 38.2432L35.3218 38.2693L35.3479 38.2954H35.374L35.4 38.3215C35.4 38.3215 35.4261 38.3215 35.4261 38.3475H35.4522H35.4783H35.5044H35.5305H35.5566H35.5827H35.6087H37.2C37.2 38.3475 37.2 38.3475 37.2261 38.3475H37.2522H37.2783C37.2783 38.3475 37.2783 38.3475 37.3044 38.3475C37.3044 38.3475 37.3044 38.3475 37.3305 38.3475C37.3305 38.3475 37.3305 38.3475 37.3566 38.3475C37.3566 38.3475 37.3566 38.3475 37.3827 38.3215C37.4609 38.3736 37.4609 38.3736 37.487 38.3475ZM33.3914 38.3475C33.3653 38.3475 33.3653 38.3475 33.3914 38.3475C33.3653 38.3736 33.3653 38.3736 33.3653 38.3736C33.3653 38.3736 33.3392 38.3736 33.3392 38.3997C33.3392 38.3997 33.3131 38.3997 33.3131 38.4258H33.287H33.2609H33.2348H33.2087H33.1827H31.8783H31.8522H31.8261H31.8H31.774H31.7479C31.7479 38.4258 31.7218 38.4258 31.7218 38.3997C31.7218 38.3997 31.6957 38.3997 31.6957 38.3736C31.6957 38.3736 31.6957 38.3736 31.6696 38.3475C31.6696 38.3475 31.6696 38.3215 31.6435 38.3215C31.6435 38.3215 31.6435 38.2954 31.6174 38.2954C31.6174 38.2954 31.6174 38.2693 31.5914 38.2693V38.2432V38.2171V38.191V38.1649V38.1389V31.6954V31.6693V31.6432V31.6171V31.591V31.5649C31.5914 31.5649 31.5914 31.5389 31.6174 31.5389L30.7827 32.5823L30.7566 32.6084L30.7305 32.6345V32.6606V32.6867V32.7128V32.7389V32.7649V39.2084V39.2345V39.2606V39.2867V39.3128V39.3389L30.7566 39.3649L30.7827 39.391L30.8087 39.4171L30.8348 39.4432L30.8609 39.4693L30.887 39.4954H30.9131H30.9392H30.9653H30.9914H31.0174H32.3218H32.3479H32.374H32.4H32.4261H32.4522L32.4783 39.4693L32.5044 39.4432L32.5305 39.4171L32.5566 39.391L33.3914 38.3475ZM43.8522 38.3475C43.8261 38.3475 43.8261 38.3475 43.8522 38.3475C43.8261 38.3736 43.8261 38.3736 43.8261 38.3736C43.8261 38.3736 43.8 38.3736 43.8 38.3997C43.8 38.3997 43.774 38.3997 43.774 38.4258H43.7479H43.7218H43.6957H43.6696H43.6435H38.9218H38.8957H38.8696H38.8435H38.8174H38.7914C38.7914 38.4258 38.7653 38.4258 38.7653 38.3997C38.7653 38.3997 38.7653 38.3997 38.7392 38.3736C38.7392 38.3736 38.7392 38.3736 38.7131 38.3475C38.7131 38.3475 38.7131 38.3215 38.687 38.3215C38.687 38.3215 38.687 38.2954 38.6609 38.2954C38.6609 38.2954 38.6609 38.2693 38.6348 38.2693V38.2432C38.6348 38.2432 38.6348 38.2432 38.6348 38.2171V38.191V38.1649V38.1389V31.6954V31.6693V31.6432V31.6171V31.591V31.5649C38.6348 31.5649 38.6348 31.5389 38.6609 31.5389L37.8261 32.5823L37.8 32.6084L37.774 32.6345V32.6606V32.6867V32.7128V32.7389V32.7649V39.2084V39.2345V39.2606V39.2867V39.3128V39.3389L37.8 39.3649L37.8261 39.391L37.8522 39.4171L37.8783 39.4432L37.9044 39.4693L37.9305 39.4954H37.9566H37.9827H38.0087H38.0348H38.0609H42.7827H42.8087H42.8348H42.8609H42.887H42.9131L42.9392 39.4693L42.9653 39.4432L42.9914 39.4171L43.0174 39.391L43.8522 38.3475ZM43.774 32.9736C43.7479 32.9736 43.7479 32.9736 43.774 32.9736C43.7479 32.9997 43.7479 32.9997 43.7479 32.9997C43.7479 32.9997 43.7218 32.9997 43.7218 33.0258C43.7218 33.0258 43.6957 33.0258 43.6957 33.0519H43.6696H43.6435H43.6174H43.5914H43.5653H40.487V34.0954H42.7044H42.7305H42.7566H42.7827H42.8087H42.8348L42.8609 34.0693L42.887 34.0432L42.9131 34.0171L42.9392 33.991L43.774 32.9736ZM43.5392 35.6345C43.5131 35.6606 43.5131 35.6606 43.5131 35.6606C43.5131 35.6606 43.487 35.6606 43.487 35.6867C43.487 35.6867 43.487 35.6867 43.4609 35.6867H43.4348H43.4087H43.3827H43.3566H43.3305H40.487V36.7302H42.4957H42.5218H42.5479H42.574H42.6H42.6261L42.6522 36.7041L42.6783 36.678L42.7044 36.6519L42.7305 36.6258L43.5392 35.6345Z" fill="#F9B0A0"/>
<path fill-rule="evenodd" clip-rule="evenodd" d="M48.2609 12.4697C48.4696 12.6783 48.6782 12.9392 48.8869 13.174C56.9478 22.2262 57.1826 37.174 48.6783 45.574C46.8 47.8436 44.4522 49.8262 41.7391 51.3392C26.7391 59.661 11.6087 50.7653 7.43477 37.6957C2.45216 28.7218 4.87825 18.3914 15.4696 11.1131C24.6261 2.29574 35.2956 1.46096 44.8696 9.28705C46.2 9.96531 47.5565 10.7479 48.8869 11.6088C49.1217 11.7914 49.1739 12.1044 48.9913 12.3653C48.8348 12.6001 48.4956 12.6523 48.2609 12.4697ZM44.2696 10.174C35.4782 5.71313 26.6869 5.34791 17.4261 11.087C16.9826 11.374 16.5652 11.6349 16.1478 11.9218C15.1565 12.887 14.1913 13.9305 13.2522 15.0784C7.27825 22.3044 6.26086 30.3914 8.42607 37.2784C10.3304 40.6697 13.3565 43.8523 17.4522 46.5914C24.7043 51.4436 32.9478 52.3305 41.1391 49.1479C43.9043 48.0784 46.2261 46.5131 48.0783 44.6349C53.6348 37.7218 54.913 27.9131 49.9304 19.7479L47.5304 16.4349C47.3478 16.2262 47.3739 15.887 47.5826 15.6783C47.7913 15.4957 48.1304 15.5218 48.3391 15.7305L50.8696 19.174C52.4869 21.8349 53.4783 24.6784 53.8956 27.5218C53.4783 22.5653 51.5217 17.687 48.1304 13.8784C46.8522 12.4697 45.5739 11.2436 44.2696 10.174ZM10.6696 16.7479C6.70434 21.3653 5.29564 26.661 6.33912 31.8001C6.07825 26.8957 7.35651 21.6784 10.6696 16.7479ZM39.6522 7.09574C33.6522 4.04357 27.4174 4.30444 21.5217 7.774C27.6782 5.19139 33.6783 5.16531 39.6522 7.09574ZM10.4869 42.0001C16.1478 51.8088 28.7478 57.3392 41.2174 50.4001C41.4522 50.2697 41.6869 50.1392 41.9217 49.9827C33.7304 53.4784 24.3391 52.4871 16.8522 47.4784C14.3478 45.8088 12.2348 43.9566 10.4869 42.0001Z" fill="#F9B0A0"/>
<path fill-rule="evenodd" clip-rule="evenodd" d="M29.0609 52.6957C28.7739 52.6696 28.4609 52.6435 28.1478 52.6174C16.5652 51.5739 6.57391 41.2696 7.01739 29.8174C6.83478 26.9739 7.17391 24.0783 8.08695 21.2348C13.1217 5.55653 29.5565 1.82609 41.0609 8.24348C50.4522 11.2435 55.513 20.087 52.8783 32.113C52.2522 44.2957 45.3391 51.887 33.4956 52.6957C32.113 53.087 30.6522 53.4261 29.1652 53.713C28.8783 53.7391 28.6435 53.5565 28.5913 53.2696C28.5652 52.9826 28.7739 52.7217 29.0609 52.6957ZM33.3652 51.6783C42.4435 49.0435 48.8348 43.513 51.5217 33.4174C51.6522 32.9217 51.7565 32.4522 51.8609 31.9826C51.913 30.6783 51.913 29.2957 51.8087 27.8609C51.2348 18.887 46.6435 12.5739 40.6174 9.18261C37.0696 8.06087 32.8435 7.82609 28.2 8.58261C19.9304 9.93913 13.5913 14.7652 9.96521 22.3565C8.73912 24.9391 8.13912 27.5217 8.06086 30.0783C8.71304 38.5826 14.2435 46.2522 23.113 48.7304L26.9739 49.4609C27.2609 49.487 27.4696 49.7478 27.4174 50.0087C27.3913 50.2956 27.1304 50.5043 26.8696 50.4522L22.8522 49.6957C19.9565 48.887 17.4261 47.5565 15.2609 45.8348C18.8087 49.0174 23.3739 51.1565 28.2522 51.6C30.0522 51.7565 31.7478 51.7826 33.3652 51.6783ZM52.5391 25.0174C52.2782 19.1739 49.8 14.5565 45.6783 11.6348C49.0956 14.9217 51.6261 19.4087 52.5391 25.0174ZM38.6087 50.7913C44.8174 48.9913 48.9913 44.687 50.8435 38.4C48.2348 44.2696 44.0609 48.2348 38.6087 50.7913ZM36.1043 7.25218C25.6956 4.12174 13.2522 8.50435 9.07825 21.5478C8.99999 21.8087 8.92173 22.0435 8.84347 22.3043C12.287 14.5044 19.4869 9 28.0435 7.59131C30.8869 7.09566 33.6 7.0174 36.1043 7.25218Z" fill="#002238"/>
<path d="M19.7479 26.922C19.6435 26.922 19.5653 26.8959 19.5131 26.8437C19.4609 26.7915 19.4087 26.7394 19.3826 26.6872L18.4435 25.0437V28.3307C18.4435 28.4089 18.4174 28.4611 18.3653 28.5133C18.3131 28.5655 18.2609 28.5915 18.1826 28.5915H16.8783C16.8 28.5915 16.7479 28.5655 16.6957 28.5133C16.6435 28.4611 16.6174 28.4089 16.6174 28.3307V21.8872C16.6174 21.8089 16.6435 21.7568 16.6957 21.7046C16.7479 21.6524 16.8 21.6263 16.8783 21.6263H18.0261C18.1566 21.6263 18.2609 21.6524 18.3131 21.7307C18.3913 21.8089 18.4174 21.8611 18.4435 21.8872L20.0609 24.6524L21.6783 21.8872C21.7044 21.8611 21.7305 21.8089 21.8087 21.7307C21.887 21.6524 21.9653 21.6263 22.0957 21.6263H23.2435C23.3218 21.6263 23.374 21.6524 23.4261 21.7046C23.4783 21.7568 23.5044 21.8089 23.5044 21.8872V28.3307C23.5044 28.4089 23.4783 28.4611 23.4261 28.5133C23.374 28.5655 23.3218 28.5915 23.2435 28.5915H21.9392C21.8609 28.5915 21.8087 28.5655 21.7566 28.5133C21.7044 28.4611 21.6783 28.4089 21.6783 28.3307V25.0176L20.7392 26.6611C20.7131 26.7133 20.6609 26.7655 20.6087 26.8176C20.5566 26.8698 20.4783 26.8959 20.374 26.8959H19.7479V26.922ZM24.6783 24.2089C24.7044 23.8437 24.7826 23.4785 24.9131 23.1655C25.0435 22.8263 25.2522 22.5394 25.5131 22.3046C25.774 22.0698 26.087 21.8611 26.4783 21.7307C26.8435 21.6002 27.287 21.522 27.7826 21.522C28.2783 21.522 28.6957 21.6002 29.087 21.7307C29.4783 21.8611 29.7913 22.0698 30.0522 22.3046C30.3131 22.5394 30.5218 22.8263 30.6522 23.1655C30.7826 23.5046 30.887 23.8437 30.887 24.2089C30.9131 24.4959 30.9131 24.7828 30.9131 25.0959C30.9131 25.4089 30.9131 25.6959 30.887 25.9828C30.8609 26.3481 30.7826 26.7133 30.6522 27.0263C30.5218 27.3655 30.3131 27.6524 30.0522 27.8872C29.7913 28.122 29.4783 28.3307 29.087 28.4611C28.6957 28.5915 28.2783 28.6698 27.7826 28.6698C27.287 28.6698 26.8696 28.5915 26.4783 28.4611C26.1131 28.3307 25.774 28.122 25.5131 27.8872C25.2522 27.6524 25.0435 27.3655 24.9131 27.0263C24.7826 26.6872 24.6783 26.3481 24.6783 25.9828C24.6522 25.722 24.6522 25.4089 24.6522 25.0959C24.6783 24.8089 24.6783 24.4959 24.6783 24.2089ZM29.0609 25.9307C29.0609 25.8002 29.087 25.6698 29.087 25.5394C29.087 25.3828 29.087 25.2524 29.087 25.0959C29.087 24.9394 29.087 24.7828 29.087 24.6524C29.087 24.522 29.0609 24.3915 29.0609 24.2611C29.0348 24.1046 29.0087 23.9481 28.9566 23.7915C28.9044 23.6611 28.8261 23.5307 28.7218 23.4263C28.6174 23.322 28.487 23.2437 28.3305 23.1915C28.174 23.1394 27.9913 23.1133 27.7826 23.1133C27.574 23.1133 27.3913 23.1394 27.2348 23.1915C27.0783 23.2437 26.9479 23.322 26.8435 23.4263C26.7392 23.5307 26.6609 23.6611 26.6087 23.7915C26.5566 23.922 26.5044 24.0785 26.5044 24.2611C26.4783 24.3655 26.4783 24.4959 26.4783 24.6524C26.4783 24.7828 26.4783 24.9394 26.4783 25.0959C26.4783 25.2524 26.4783 25.4089 26.4783 25.5394C26.4783 25.6959 26.4783 25.8263 26.5044 25.9307C26.5305 26.2698 26.6348 26.5307 26.8435 26.7655C27.0522 26.9741 27.3653 27.1046 27.7566 27.1046C28.174 27.1046 28.4609 27.0002 28.6696 26.7655C28.9044 26.5568 29.0348 26.2698 29.0609 25.9307ZM35.0348 21.6263C35.4783 21.6263 35.8696 21.6785 36.2087 21.7568C36.5479 21.8611 36.8348 21.9915 37.0957 22.1741C37.3305 22.3568 37.5131 22.5915 37.6435 22.8785C37.7739 23.1655 37.8261 23.5046 37.8261 23.8959C37.8261 24.3915 37.7218 24.8089 37.5131 25.1481C37.3044 25.4872 37.0174 25.722 36.6261 25.9046L37.8522 28.2785C37.8783 28.3307 37.8783 28.3568 37.8783 28.3828C37.8783 28.435 37.8522 28.4872 37.8261 28.5394C37.7739 28.5915 37.7218 28.5915 37.6696 28.5915H36.3131C36.1826 28.5915 36.0783 28.5655 36.0261 28.5133C35.974 28.4611 35.9218 28.3828 35.8957 28.3307L34.8 26.1915H33.9131V28.3307C33.9131 28.4089 33.887 28.4611 33.8348 28.5133C33.7826 28.5655 33.7305 28.5915 33.6522 28.5915H32.3479C32.2696 28.5915 32.2174 28.5655 32.1653 28.5133C32.1131 28.4611 32.087 28.4089 32.087 28.3307V21.8872C32.087 21.8089 32.1131 21.7568 32.1653 21.7046C32.2174 21.6524 32.2696 21.6263 32.3479 21.6263H35.0348ZM33.9131 24.6263H35.0348C35.3218 24.6263 35.5566 24.5741 35.7392 24.4698C35.9218 24.3655 36.0261 24.1828 36.0261 23.8959C36.0261 23.6089 35.9479 23.4263 35.7392 23.322C35.5566 23.2176 35.3218 23.1655 35.0348 23.1655H33.9131V24.6263ZM43.9826 27.0002C44.0609 27.0002 44.1131 27.0263 44.1653 27.0785C44.2174 27.1307 44.2435 27.1828 44.2435 27.2611V28.3046C44.2435 28.3828 44.2174 28.435 44.1653 28.4872C44.1131 28.5394 44.0609 28.5655 43.9826 28.5655H39.2609C39.1826 28.5655 39.1305 28.5394 39.0783 28.4872C39.0261 28.435 39 28.3828 39 28.3046V21.8872C39 21.8089 39.0261 21.7568 39.0783 21.7046C39.1305 21.6524 39.1826 21.6263 39.2609 21.6263H43.9044C43.9826 21.6263 44.0348 21.6524 44.087 21.7046C44.1392 21.7568 44.1653 21.8089 44.1653 21.8872V22.9307C44.1653 23.0089 44.1392 23.0611 44.087 23.1133C44.0348 23.1655 43.9826 23.1915 43.9044 23.1915H40.8261V24.2611H43.6696C43.7479 24.2611 43.8 24.2872 43.8522 24.3394C43.9044 24.3915 43.9305 24.4437 43.9305 24.522V25.5655C43.9305 25.6437 43.9044 25.6959 43.8522 25.7481C43.8 25.8002 43.7479 25.8263 43.6696 25.8263H40.8261V26.9481H43.9826V27.0002ZM20.0609 31.4611C20.4783 31.4611 20.8696 31.5133 21.2087 31.6176C21.5479 31.722 21.8348 31.8524 22.0696 32.0611C22.3044 32.2698 22.487 32.5046 22.6174 32.7915C22.7479 33.0785 22.8 33.4176 22.8 33.8089C22.8 34.2002 22.7479 34.5394 22.6174 34.8263C22.487 35.1133 22.3044 35.3481 22.0696 35.5568C21.8348 35.7655 21.5479 35.8959 21.2087 36.0002C20.8696 36.1046 20.4783 36.1568 20.0609 36.1568H18.7826V38.1915C18.7826 38.2698 18.7566 38.322 18.7044 38.3742C18.6522 38.4263 18.6 38.4524 18.5218 38.4524H17.2174C17.1392 38.4524 17.087 38.4263 17.0348 38.3742C16.9826 38.322 16.9566 38.2698 16.9566 38.1915V31.7481C16.9566 31.6698 16.9826 31.6176 17.0348 31.5655C17.087 31.5133 17.1392 31.4872 17.2174 31.4872H20.0609V31.4611ZM18.7826 34.5915H20.0087C20.2957 34.5915 20.5305 34.5394 20.7131 34.4089C20.8957 34.2785 21 34.0959 21 33.8089C21 33.522 20.8957 33.3394 20.7131 33.2089C20.5305 33.0785 20.2957 33.0263 20.0087 33.0263H18.7826V34.5915ZM23.8957 34.0698C23.9218 33.7046 24 33.3394 24.1305 33.0263C24.2609 32.6872 24.4696 32.4002 24.7305 32.1655C24.9913 31.9307 25.3044 31.722 25.6957 31.5915C26.0609 31.4611 26.5044 31.3828 27 31.3828C27.4957 31.3828 27.9131 31.4611 28.3044 31.5915C28.6957 31.722 29.0087 31.9307 29.2696 32.1655C29.5305 32.4002 29.7392 32.6872 29.8696 33.0263C30 33.3655 30.1044 33.7046 30.1044 34.0698C30.1305 34.3568 30.1305 34.6437 30.1305 34.9568C30.1305 35.2698 30.1305 35.5568 30.1044 35.8437C30.0783 36.2089 30 36.5741 29.8696 36.8872C29.7392 37.2263 29.5305 37.5133 29.2696 37.7481C29.0087 37.9828 28.6957 38.1915 28.3044 38.322C27.9131 38.4524 27.4957 38.5307 27 38.5307C26.5044 38.5307 26.087 38.4524 25.6957 38.322C25.3305 38.1915 24.9913 37.9828 24.7305 37.7481C24.4696 37.5133 24.2609 37.2263 24.1305 36.8872C24 36.5481 23.8957 36.2089 23.8957 35.8437C23.8696 35.5828 23.8696 35.2698 23.8696 34.9568C23.8696 34.6437 23.8696 34.3568 23.8957 34.0698ZM28.2522 35.7915C28.2522 35.6611 28.2783 35.5307 28.2783 35.4002C28.2783 35.2437 28.2783 35.1133 28.2783 34.9568C28.2783 34.8002 28.2783 34.6437 28.2783 34.5133C28.2783 34.3828 28.2522 34.2524 28.2522 34.122C28.2261 33.9655 28.2 33.8089 28.1479 33.6524C28.0957 33.522 28.0174 33.3915 27.9131 33.2872C27.8087 33.1828 27.6783 33.1046 27.5218 33.0524C27.3653 33.0002 27.1826 32.9741 26.974 32.9741C26.7653 32.9741 26.5826 33.0002 26.4261 33.0524C26.2696 33.1046 26.1392 33.1828 26.0348 33.2872C25.9305 33.3915 25.8522 33.522 25.8 33.6524C25.7479 33.7828 25.7218 33.9394 25.6957 34.122C25.6696 34.2263 25.6696 34.3568 25.6696 34.5133C25.6696 34.6437 25.6696 34.8002 25.6696 34.9568C25.6696 35.1133 25.6696 35.2698 25.6696 35.4002C25.6696 35.5568 25.6696 35.6872 25.6957 35.7915C25.7218 36.1307 25.8261 36.3915 26.0348 36.6263C26.2435 36.835 26.5566 36.9655 26.9479 36.9655C27.3653 36.9655 27.6522 36.8611 27.8609 36.6263C28.0957 36.3915 28.2261 36.1307 28.2522 35.7915ZM37.5131 38.1133C37.5392 38.1394 37.5392 38.1655 37.5392 38.2176C37.5392 38.2698 37.5131 38.322 37.487 38.3742C37.4348 38.4263 37.3826 38.4263 37.3305 38.4263H35.7392C35.6348 38.4263 35.5826 38.4002 35.5044 38.3742C35.4522 38.322 35.3739 38.2698 35.3218 38.2176L33.4435 35.8437V38.1655C33.4435 38.2437 33.4174 38.2959 33.3653 38.3481C33.3131 38.4002 33.2609 38.4263 33.1826 38.4263H31.8783C31.8 38.4263 31.7479 38.4002 31.6957 38.3481C31.6435 38.2959 31.6174 38.2437 31.6174 38.1655V31.722C31.6174 31.6437 31.6435 31.5915 31.6957 31.5394C31.7479 31.4872 31.8 31.4611 31.8783 31.4611H33.1826C33.2609 31.4611 33.3131 31.4872 33.3653 31.5394C33.4174 31.5915 33.4435 31.6437 33.4435 31.722V33.835L35.1913 31.6959C35.2174 31.6437 35.2696 31.6176 35.3218 31.5655C35.3739 31.5133 35.4522 31.4872 35.5826 31.4872H37.1479C37.2 31.4872 37.2522 31.5133 37.3044 31.5394C37.3566 31.5915 37.3566 31.6437 37.3566 31.6959C37.3566 31.7481 37.3566 31.7741 37.3305 31.8002L34.8783 34.8002L37.5131 38.1133ZM43.6435 36.835C43.7218 36.835 43.7739 36.8611 43.8261 36.9133C43.8783 36.9655 43.9044 37.0176 43.9044 37.0959V38.1394C43.9044 38.2176 43.8783 38.2698 43.8261 38.322C43.7739 38.3741 43.7218 38.4002 43.6435 38.4002H38.9218C38.8435 38.4002 38.7913 38.3741 38.7392 38.322C38.687 38.2698 38.6609 38.2176 38.6609 38.1394V31.6959C38.6609 31.6176 38.687 31.5655 38.7392 31.5133C38.7913 31.4611 38.8435 31.435 38.9218 31.435H43.5653C43.6435 31.435 43.6957 31.4611 43.7479 31.5133C43.8 31.5655 43.8261 31.6176 43.8261 31.6959V32.7394C43.8261 32.8176 43.8 32.8698 43.7479 32.922C43.6957 32.9741 43.6435 33.0002 43.5653 33.0002H40.487V34.0698H43.3305C43.4087 34.0698 43.4609 34.0959 43.5131 34.1481C43.5653 34.2002 43.5913 34.2524 43.5913 34.3307V35.3742C43.5913 35.4524 43.5653 35.5046 43.5131 35.5568C43.4609 35.6089 43.4087 35.635 43.3305 35.635H40.487V36.7568H43.6435V36.835Z" fill="#002238"/>
</svg>
