<svg width="12" height="17" viewBox="0 0 12 17" fill="none" xmlns="http://www.w3.org/2000/svg">
<path d="M1.73013 0.599976V16.6H4.34751V0.599976L1.73013 0.599976ZM3.28281 2.97712H6.41035C7.31239 2.97712 8.03697 3.19807 8.58411 3.63998C9.13124 4.06664 9.40481 4.70664 9.40481 5.55998C9.40481 6.41331 9.13124 7.06093 8.58411 7.50283C8.03697 7.94474 7.31239 8.16569 6.41035 8.16569H3.28281V10.5428H6.41035C7.54898 10.5428 8.53235 10.3447 9.36044 9.94855C10.1885 9.53712 10.8318 8.95807 11.2902 8.2114C11.7634 7.46474 12 6.58093 12 5.55998C12 4.53902 11.7634 3.66283 11.2902 2.9314C10.8318 2.18474 10.1885 1.61331 9.36044 1.21712C8.53235 0.80569 7.54898 0.599976 6.41035 0.599976L3.28281 0.599976V2.97712Z" fill="#002238"/>
<path d="M0 12.4442H8.06587V14.5221H0V12.4442Z" fill="#002238"/>
</svg>
