<svg width="447" height="437" viewBox="0 0 447 437" fill="none" xmlns="http://www.w3.org/2000/svg">
<path fill-rule="evenodd" clip-rule="evenodd" d="M228.359 78.9175C307.264 78.9175 371.01 143.026 371.01 221.943C371.01 301.056 307.07 364.969 228.359 364.969C149.454 364.969 85.7075 300.861 85.7075 221.943C85.7075 142.831 149.648 78.9175 228.359 78.9175Z" fill="#F9B0A0"/>
<path fill-rule="evenodd" clip-rule="evenodd" d="M359.543 93.1421C361.098 94.701 362.653 96.6496 364.208 98.4033C424.261 166.019 426.01 277.673 362.653 340.417C348.66 357.37 331.169 372.179 310.957 383.481C199.207 445.641 86.4848 379.194 55.3891 281.57C18.2687 214.539 36.3431 137.375 115.248 83.0095C183.464 17.1475 262.953 10.912 334.278 69.3695C344.19 74.4358 354.296 80.2815 364.208 86.7118C365.957 88.0758 366.346 90.4141 364.985 92.3627C363.819 94.1164 361.293 94.5062 359.543 93.1421ZM329.808 75.9946C264.313 42.6739 198.818 39.9459 129.824 82.8147C126.52 84.9581 123.411 86.9067 120.301 89.0501C112.916 96.2599 105.725 104.054 98.7287 112.628C54.2231 166.604 46.6435 227.01 62.7744 278.452C76.9617 303.784 99.5061 327.557 130.019 348.017C184.047 384.26 245.461 390.885 306.487 367.113C327.087 359.124 344.384 347.432 358.183 333.402C399.579 281.765 409.102 208.498 371.982 147.508L354.102 122.761C352.741 121.202 352.936 118.669 354.49 117.11C356.045 115.746 358.572 115.941 360.127 117.499L378.978 143.221C391.028 163.096 398.413 184.336 401.523 205.575C398.413 168.552 383.837 132.114 358.572 103.664C349.049 93.1422 339.526 83.9838 329.808 75.9946ZM79.4883 125.099C49.9474 159.589 39.4526 199.145 47.2265 237.532C45.2831 200.899 54.8061 161.927 79.4883 125.099ZM295.409 53.0014C250.709 30.203 204.26 32.1515 160.337 58.0677C206.203 38.7767 250.903 38.5819 295.409 53.0014ZM78.1278 313.722C120.301 386.988 214.171 428.298 307.07 376.466C308.819 375.492 310.568 374.517 312.317 373.348C251.292 399.459 181.327 392.055 125.549 354.642C106.891 342.171 91.1491 328.336 78.1278 313.722Z" fill="#F9B0A0"/>
<path fill-rule="evenodd" clip-rule="evenodd" d="M216.503 393.613C214.365 393.419 212.033 393.224 209.701 393.029C123.411 385.234 48.9755 308.266 52.2794 222.723C50.9189 201.483 53.4455 179.854 60.2476 158.614C97.7568 41.5047 220.196 13.64 305.903 61.5751C375.868 83.9838 413.572 150.041 393.943 239.87C389.279 330.869 337.776 387.573 249.542 393.613C239.242 396.536 228.359 399.069 217.281 401.213C215.143 401.408 213.394 400.044 213.005 397.9C212.811 395.757 214.365 393.808 216.503 393.613ZM248.571 386.014C316.204 366.333 363.819 325.023 383.837 249.613C384.809 245.911 385.586 242.403 386.363 238.896C386.752 229.153 386.752 218.826 385.975 208.108C381.699 141.077 347.494 93.9216 302.599 68.59C276.168 60.2111 244.684 58.4574 210.09 64.1083C148.482 74.2409 101.255 110.29 74.2407 166.993C65.1063 186.284 60.6363 205.575 60.0533 224.671C64.912 288.195 106.114 345.483 172.192 363.995L200.955 369.451C203.093 369.646 204.648 371.594 204.259 373.543C204.065 375.686 202.122 377.245 200.178 376.856L170.248 371.205C148.676 365.164 129.824 355.226 113.693 342.366C140.125 366.138 174.135 382.117 210.479 385.429C223.889 386.599 236.521 386.793 248.571 386.014ZM391.416 186.869C389.473 143.221 371.01 108.731 340.303 86.9067C365.762 111.459 384.614 144.974 391.416 186.869ZM287.635 379.389C333.889 365.944 364.985 333.792 378.784 286.831C359.349 330.674 328.253 360.293 287.635 379.389ZM268.977 54.1705C191.432 30.7875 98.7285 63.5237 67.6329 160.953C67.0498 162.901 66.4668 164.655 65.8837 166.604C91.5376 108.341 145.178 67.226 208.924 56.7037C230.108 53.0013 250.32 52.4168 268.977 54.1705Z" fill="#002238"/>
<path d="M169.094 250.024C168.507 250.024 167.979 249.818 167.51 249.408C167.099 248.938 166.894 248.411 166.894 247.824V238.146H139.619C139.032 238.146 138.505 237.94 138.035 237.53C137.625 237.061 137.419 236.533 137.419 235.946V227.06C137.419 226.18 137.742 225.3 138.387 224.42L163.903 189.93C164.724 188.933 165.809 188.435 167.158 188.435H180.532C181.177 188.435 181.705 188.64 182.115 189.051C182.585 189.461 182.819 189.989 182.819 190.634V224.508H190.562C191.266 224.508 191.823 224.743 192.234 225.212C192.644 225.623 192.849 226.121 192.849 226.708V235.946C192.849 236.533 192.644 237.061 192.234 237.53C191.823 237.94 191.295 238.146 190.65 238.146H182.819V247.824C182.819 248.469 182.585 248.997 182.115 249.408C181.705 249.818 181.177 250.024 180.532 250.024H169.094ZM153.081 225.124H167.246V205.328L153.081 225.124ZM225.534 250.903C217.439 250.845 211.28 248.704 207.057 244.481C202.834 240.257 200.517 234.685 200.106 227.764C199.989 224.596 199.93 221.751 199.93 219.229C199.93 216.648 199.989 213.715 200.106 210.431C200.341 206.031 201.426 202.131 203.362 198.729C205.356 195.268 208.201 192.541 211.896 190.546C215.65 188.552 220.196 187.555 225.534 187.555C230.871 187.555 235.417 188.552 239.171 190.546C242.925 192.541 245.77 195.268 247.706 198.729C249.7 202.131 250.814 206.031 251.049 210.431C251.166 212.073 251.225 215.006 251.225 219.229C251.225 223.335 251.166 226.18 251.049 227.764C250.638 234.685 248.321 240.257 244.098 244.481C239.875 248.704 233.687 250.845 225.534 250.903ZM225.534 237.618C228.29 237.618 230.343 236.738 231.692 234.978C233.041 233.16 233.775 230.608 233.892 227.324C234.009 225.623 234.068 222.866 234.068 219.053C234.068 215.24 234.009 212.542 233.892 210.959C233.775 207.791 233.041 205.298 231.692 203.48C230.343 201.603 228.29 200.664 225.534 200.664C220.254 200.664 217.468 204.096 217.175 210.959C217.116 212.542 217.087 215.24 217.087 219.053C217.087 222.866 217.116 225.623 217.175 227.324C217.468 234.186 220.254 237.618 225.534 237.618ZM289.814 250.024C289.228 250.024 288.7 249.818 288.23 249.408C287.82 248.938 287.615 248.411 287.615 247.824V238.146H260.339C259.753 238.146 259.225 237.94 258.756 237.53C258.345 237.061 258.14 236.533 258.14 235.946V227.06C258.14 226.18 258.462 225.3 259.108 224.42L284.623 189.93C285.444 188.933 286.529 188.435 287.879 188.435H301.252C301.897 188.435 302.425 188.64 302.836 189.051C303.305 189.461 303.54 189.989 303.54 190.634V224.508H311.282C311.986 224.508 312.543 224.743 312.954 225.212C313.365 225.623 313.57 226.121 313.57 226.708V235.946C313.57 236.533 313.365 237.061 312.954 237.53C312.543 237.94 312.016 238.146 311.37 238.146H303.54V247.824C303.54 248.469 303.305 248.997 302.836 249.408C302.425 249.818 301.897 250.024 301.252 250.024H289.814ZM273.801 225.124H287.967V205.328L273.801 225.124Z" fill="white"/>
<path d="M174.353 244.765C173.766 244.765 173.238 244.559 172.769 244.149C172.358 243.68 172.153 243.152 172.153 242.565V232.887H144.878C144.291 232.887 143.763 232.681 143.294 232.271C142.884 231.802 142.678 231.274 142.678 230.687V221.801C142.678 220.921 143.001 220.041 143.646 219.161L169.161 184.671C169.983 183.674 171.068 183.176 172.417 183.176H185.79C186.436 183.176 186.964 183.381 187.374 183.792C187.843 184.202 188.078 184.73 188.078 185.375V219.249H195.821C196.525 219.249 197.082 219.484 197.492 219.953C197.903 220.364 198.108 220.862 198.108 221.449V230.687C198.108 231.274 197.903 231.802 197.492 232.271C197.082 232.681 196.554 232.887 195.909 232.887H188.078V242.565C188.078 243.21 187.843 243.738 187.374 244.149C186.964 244.559 186.436 244.765 185.79 244.765H174.353ZM158.339 219.865H172.505V200.069L158.339 219.865ZM230.792 245.644C222.698 245.586 216.539 243.445 212.316 239.222C208.092 234.998 205.775 229.426 205.365 222.505C205.248 219.337 205.189 216.492 205.189 213.97C205.189 211.389 205.248 208.457 205.365 205.172C205.6 200.773 206.685 196.872 208.62 193.47C210.615 190.009 213.459 187.282 217.155 185.287C220.909 183.293 225.455 182.296 230.792 182.296C236.13 182.296 240.676 183.293 244.43 185.287C248.184 187.282 251.029 190.009 252.964 193.47C254.959 196.872 256.073 200.773 256.308 205.172C256.425 206.814 256.484 209.747 256.484 213.97C256.484 218.076 256.425 220.921 256.308 222.505C255.897 229.426 253.58 234.998 249.357 239.222C245.134 243.445 238.945 245.586 230.792 245.644ZM230.792 232.359C233.549 232.359 235.602 231.479 236.951 229.719C238.3 227.901 239.033 225.349 239.151 222.065C239.268 220.364 239.327 217.607 239.327 213.794C239.327 209.982 239.268 207.283 239.151 205.7C239.033 202.532 238.3 200.039 236.951 198.221C235.602 196.344 233.549 195.406 230.792 195.406C225.513 195.406 222.727 198.837 222.434 205.7C222.375 207.283 222.346 209.982 222.346 213.794C222.346 217.607 222.375 220.364 222.434 222.065C222.727 228.928 225.513 232.359 230.792 232.359ZM295.073 244.765C294.486 244.765 293.959 244.559 293.489 244.149C293.079 243.68 292.873 243.152 292.873 242.565V232.887H265.598C265.012 232.887 264.484 232.681 264.015 232.271C263.604 231.802 263.399 231.274 263.399 230.687V221.801C263.399 220.921 263.721 220.041 264.367 219.161L289.882 184.671C290.703 183.674 291.788 183.176 293.137 183.176H306.511C307.156 183.176 307.684 183.381 308.095 183.792C308.564 184.202 308.799 184.73 308.799 185.375V219.249H316.541C317.245 219.249 317.802 219.484 318.213 219.953C318.623 220.364 318.829 220.862 318.829 221.449V230.687C318.829 231.274 318.623 231.802 318.213 232.271C317.802 232.681 317.274 232.887 316.629 232.887H308.799V242.565C308.799 243.21 308.564 243.738 308.095 244.149C307.684 244.559 307.156 244.765 306.511 244.765H295.073ZM279.06 219.865H293.225V200.069L279.06 219.865Z" fill="#08202F"/>
</svg>
