<svg width="16" height="16" viewBox="0 0 16 16" fill="none" xmlns="http://www.w3.org/2000/svg">
<path fill-rule="evenodd" clip-rule="evenodd" d="M7.34025 2.09763C7.21007 1.96746 6.99902 1.96746 6.86884 2.09763L3.94984 5.01663C3.91934 5.04714 3.89598 5.08209 3.87977 5.1194L1.98615 5.1194C1.57616 5.1194 1.26332 5.48597 1.32778 5.89087L2.50721 13.3001C2.55873 13.6237 2.83786 13.8619 3.16559 13.8619H12.5369C12.8547 13.8619 13.1283 13.6376 13.1906 13.326L14.6719 5.91675C14.7543 5.50424 14.4388 5.11939 14.0181 5.11939L11.6962 5.1194C11.68 5.08209 11.6566 5.04714 11.6261 5.01663L8.70711 2.09763C8.57693 1.96746 8.36588 1.96746 8.2357 2.09763C8.10553 2.22781 8.10553 2.43886 8.2357 2.56904L10.7861 5.1194L4.78988 5.1194L7.34025 2.56904C7.47042 2.43886 7.47042 2.22781 7.34025 2.09763ZM12.5369 13.1953L14.0181 5.78606L1.98615 5.78606L3.16559 13.1953L12.5369 13.1953ZM5 7.33333C4.8159 7.33333 4.66667 7.48257 4.66667 7.66667V11.6667C4.66667 11.8508 4.8159 12 5 12C5.18409 12 5.33333 11.8508 5.33333 11.6667V7.66667C5.33333 7.48257 5.18409 7.33333 5 7.33333ZM7 7.33333C6.8159 7.33333 6.66667 7.48257 6.66667 7.66667V11.6667C6.66667 11.8508 6.8159 12 7 12C7.18409 12 7.33333 11.8508 7.33333 11.6667V7.66667C7.33333 7.48257 7.18409 7.33333 7 7.33333ZM8.66667 7.66667C8.66667 7.48257 8.8159 7.33333 9 7.33333C9.18409 7.33333 9.33333 7.48257 9.33333 7.66667V11.6667C9.33333 11.8508 9.18409 12 9 12C8.8159 12 8.66667 11.8508 8.66667 11.6667V7.66667ZM11 7.33333C10.8159 7.33333 10.6667 7.48257 10.6667 7.66667V11.6667C10.6667 11.8508 10.8159 12 11 12C11.1841 12 11.3333 11.8508 11.3333 11.6667V7.66667C11.3333 7.48257 11.1841 7.33333 11 7.33333Z" fill="#386B6F"/>
</svg>
