<svg width="70" height="70" viewBox="0 0 70 70" fill="none" xmlns="http://www.w3.org/2000/svg">
<circle cx="35" cy="35" r="35" fill="#386B6F"/>
<g clip-path="url(#clip0)">
<path d="M54.0521 22.8223H26.5837C25.0271 22.8223 23.7608 24.0887 23.7608 25.6452V26.6654H15.9479C14.3913 26.6654 13.125 27.9317 13.125 29.4883V44.3546C13.125 45.9112 14.3913 47.1775 15.9479 47.1775H43.4162C44.9728 47.1775 46.2391 45.9112 46.2391 44.3546V43.3344H54.052C55.6086 43.3344 56.8749 42.0681 56.8749 40.5115V25.6452C56.875 24.0886 55.6087 22.8223 54.0521 22.8223ZM44.4962 44.3546C44.4962 44.9501 44.0117 45.4345 43.4163 45.4345H15.9479C15.3525 45.4345 14.868 44.95 14.868 44.3546V29.4883C14.868 28.8929 15.3525 28.4084 15.9479 28.4084H43.4162C44.0117 28.4084 44.4961 28.8929 44.4961 29.4883V44.3546H44.4962ZM55.132 40.5115C55.132 41.1069 54.6475 41.5914 54.0521 41.5914H46.2392V39.1337H55.132V40.5115ZM55.132 37.3907H46.2392V34.8436H55.132V37.3907ZM55.132 33.1005H46.2392V29.4882C46.2392 27.9317 44.9729 26.6653 43.4163 26.6653H25.5038V25.6452C25.5038 25.0497 25.9883 24.5653 26.5837 24.5653H54.052C54.6474 24.5653 55.1319 25.0498 55.1319 25.6452V33.1005H55.132Z" fill="white"/>
<path d="M21.1301 41.5913H17.6162C17.1349 41.5913 16.7448 41.9815 16.7448 42.4628C16.7448 42.9441 17.1349 43.3343 17.6162 43.3343H21.13C21.6113 43.3343 22.0015 42.9441 22.0015 42.4628C22.0015 41.9815 21.6113 41.5913 21.1301 41.5913Z" fill="white"/>
<path d="M27.6726 41.5913H24.1587C23.6774 41.5913 23.2872 41.9815 23.2872 42.4628C23.2872 42.9441 23.6774 43.3343 24.1587 43.3343H27.6726C28.1539 43.3343 28.5441 42.9441 28.5441 42.4628C28.5441 41.9815 28.1539 41.5913 27.6726 41.5913Z" fill="white"/>
<path d="M34.2484 41.5913H30.7347C30.2533 41.5913 29.8632 41.9815 29.8632 42.4628C29.8632 42.9441 30.2533 43.3343 30.7347 43.3343H34.2484C34.7297 43.3343 35.1199 42.9441 35.1199 42.4628C35.1199 41.9815 34.7297 41.5913 34.2484 41.5913Z" fill="white"/>
<path d="M41.5691 41.5913H41.4394C40.958 41.5913 40.5679 41.9815 40.5679 42.4628C40.5679 42.9441 40.958 43.3343 41.4394 43.3343H41.5691C42.0504 43.3343 42.4406 42.9441 42.4406 42.4628C42.4406 41.9815 42.0504 41.5913 41.5691 41.5913Z" fill="white"/>
<path d="M38.8453 41.5913H37.2771C36.7958 41.5913 36.4056 41.9815 36.4056 42.4628C36.4056 42.9441 36.7958 43.3343 37.2771 43.3343H38.8453C39.3266 43.3343 39.7168 42.9441 39.7168 42.4628C39.7168 41.9815 39.3266 41.5913 38.8453 41.5913Z" fill="white"/>
<path d="M20.32 30.1514H18.6665C17.5577 30.1514 16.6554 31.0535 16.6554 32.1625V33.8159C16.6554 34.9248 17.5576 35.8271 18.6665 35.8271H20.32C21.4288 35.8271 22.3311 34.9249 22.3311 33.8159V32.1625C22.331 31.0535 21.4288 30.1514 20.32 30.1514ZM20.588 33.8159C20.588 33.9637 20.4678 34.0839 20.32 34.0839H18.6665C18.5187 34.0839 18.3985 33.9636 18.3985 33.8159V32.1624C18.3985 32.0146 18.5188 31.8944 18.6665 31.8944H20.32C20.4678 31.8944 20.588 32.0147 20.588 32.1624V33.8159Z" fill="white"/>
</g>
<defs>
<clipPath id="clip0">
<rect width="43.75" height="43.75" fill="white" transform="translate(13.125 13.125)"/>
</clipPath>
</defs>
</svg>
