<svg id="svg8" width="42.72mm" height="13.761mm" version="1.1" viewBox="0 0 42.72 13.761" xmlns="http://www.w3.org/2000/svg">
	<g id="layer1" transform="translate(181.62 -111.8)">
		<g id="g853" transform="matrix(.26458 0 0 .26458 -181.62 111.8)" fill="#fff">
			<path id="path835" d="m23.715 50.916c-0.3081-0.028-0.6441-0.056-0.9802-0.084-12.434-1.1202-23.159-12.182-22.683-24.476-0.19603-3.0524 0.16802-6.1609 1.1482-9.2133 5.3768-16.831 23.019-20.807 35.369-13.946 10.082 3.2205 15.514 12.714 12.686 25.624-0.6721 13.078-8.0932 21.227-20.807 22.095-1.4842 0.42-3.0525 0.7841-4.6487 1.0921-0.308 0.0281-0.5601-0.168-0.6161-0.476 0.028-0.3081 0.224-0.5881 0.5321-0.6161zm4.6207-1.0922c9.7454-2.8284 16.606-8.7653 19.491-19.603 0.14-0.5321 0.252-1.0362 0.364-1.5402 0.056-1.4002 0.056-2.8845-0.056-4.4247-0.5881-9.6334-5.5168-16.41-11.986-20.051-3.8085-1.2042-8.3452-1.4562-13.33-0.6441-8.8774 1.4562-15.682 6.637-19.575 14.786-1.3162 2.7724-1.9603 5.5449-2.0443 8.2893 0.70011 9.1293 6.637 17.363 16.158 20.023l4.1447 0.7841c0.308 0.028 0.532 0.308 0.476 0.5881-0.028 0.308-0.308 0.532-0.5881 0.476l-4.3126-0.8121c-3.1085-0.8681-5.8249-2.2963-8.1492-4.1446 3.8086 3.4165 8.7093 5.7128 13.946 6.1889 1.9042 0.168 3.7245 0.196 5.4608 0.084zm20.583-28.62c-0.28-6.273-2.9404-11.23-7.3651-14.366 3.6966 3.5285 6.385 8.3453 7.3651 14.366zm-14.926 27.668c6.665-1.9323 11.146-6.525 13.106-13.274-2.8004 6.2729-7.2811 10.53-13.106 13.274zm-2.7164-46.739c-11.174-3.3605-24.532 1.3442-29.012 15.346-0.08401 0.28-0.16802 0.5321-0.25204 0.8121 3.6966-8.3732 11.426-14.282 20.611-15.794 3.0805-0.53208 5.9649-0.61609 8.6533-0.36405z" clip-rule="evenodd" fill-rule="evenodd"/>
			<path id="path837" d="m13.717 23.247c-0.112 0-0.196-0.028-0.252-0.084-0.0561-0.0561-0.1121-0.1121-0.1401-0.1681l-1.0081-1.7642v3.5285c0 0.084-0.028 0.14-0.084 0.196s-0.112 0.084-0.1961 0.084h-1.4002c-0.084 0-0.14-0.028-0.196-0.084s-0.084-0.112-0.084-0.196v-6.917c0-0.0841 0.028-0.1401 0.084-0.1961s0.112-0.084 0.196-0.084h1.2322c0.14 0 0.2521 0.028 0.3081 0.112 0.084 0.084 0.112 0.1401 0.14 0.1681l1.7362 2.9684 1.7363-2.9684c0.028-0.028 0.056-0.0841 0.14-0.1681s0.168-0.112 0.3081-0.112h1.2321c0.0841 0 0.1401 0.028 0.1961 0.084s0.084 0.112 0.084 0.1961v6.917c0 0.084-0.028 0.14-0.084 0.196s-0.112 0.084-0.1961 0.084h-1.4002c-0.084 0-0.14-0.028-0.196-0.084s-0.084-0.112-0.084-0.196v-3.5285l-1.0082 1.7642c-0.028 0.056-0.084 0.112-0.14 0.1681-0.056 0.056-0.14 0.084-0.252 0.084zm5.3208-2.9125c0.028-0.392 0.112-0.7841 0.252-1.1201 0.14-0.3641 0.3641-0.6721 0.6441-0.9242 0.2801-0.252 0.6161-0.476 1.0362-0.6161 0.392-0.14 0.8681-0.224 1.4002-0.224s0.9801 0.084 1.4002 0.224c0.42 0.1401 0.7561 0.3641 1.0361 0.6161 0.2801 0.2521 0.5041 0.5601 0.6441 0.9242 0.1401 0.364 0.2521 0.7281 0.2521 1.1201 0.028 0.3081 0.028 0.6161 0.028 0.9522 0 0.336 0 0.6441-0.028 0.9521-0.028 0.3921-0.112 0.7841-0.2521 1.1202-0.14 0.364-0.364 0.6721-0.6441 0.9241-0.28 0.2521-0.6161 0.4761-1.0361 0.6161-0.4201 0.14-0.8681 0.224-1.4002 0.224s-0.9802-0.084-1.4002-0.224c-0.3921-0.14-0.7561-0.364-1.0362-0.6161-0.28-0.252-0.5041-0.5601-0.6441-0.9241-0.14-0.3641-0.252-0.7281-0.252-1.1202-0.028-0.28-0.028-0.6161-0.028-0.9521 0-0.3081 0-0.6441 0.028-0.9522zm4.6767 1.8483c0-0.14 0.028-0.28 0.028-0.4201v-0.476-0.4761c0-0.14-0.028-0.28-0.028-0.4201-0.028-0.168-0.056-0.336-0.112-0.504-0.056-0.1401-0.1401-0.2801-0.2521-0.3921s-0.252-0.196-0.42-0.252c-0.1681-0.056-0.3641-0.084-0.5881-0.084-0.2241 0-0.4201 0.028-0.5881 0.084s-0.3081 0.14-0.4201 0.252-0.196 0.252-0.252 0.3921c-0.056 0.14-0.112 0.308-0.112 0.504-0.028 0.1121-0.028 0.2521-0.028 0.4201v0.4761 0.476c0 0.1681 0 0.3081 0.028 0.4201 0.028 0.3641 0.14 0.6441 0.364 0.8961 0.2241 0.2241 0.5601 0.3641 0.9802 0.3641 0.448 0 0.7561-0.112 0.9801-0.3641 0.2521-0.224 0.3921-0.532 0.4201-0.8961zm6.4129-4.6207c0.4761 0 0.8962 0.056 1.2602 0.14 0.3641 0.1121 0.7001 0.2521 0.9522 0.4481 0.252 0.196 0.448 0.4481 0.588 0.7561 0.1401 0.3081 0.1961 0.6721 0.1961 1.0922 0 0.5321-0.112 0.9801-0.3361 1.3442-0.224 0.364-0.532 0.6161-0.9521 0.8121l1.3162 2.5484c0.028 0.056 0.028 0.084 0.028 0.112 0 0.056-0.028 0.112-0.056 0.168-0.056 0.056-0.112 0.056-0.168 0.056h-1.4563c-0.14 0-0.252-0.028-0.308-0.084s-0.112-0.14-0.14-0.196l-1.1762-2.2964h-0.9801v2.2964c0 0.084-0.0281 0.14-0.0841 0.196s-0.112 0.084-0.196 0.084h-1.4002c-0.084 0-0.14-0.028-0.196-0.084s-0.084-0.112-0.084-0.196v-6.917c0-0.0841 0.028-0.1401 0.084-0.1961s0.112-0.084 0.196-0.084zm-1.2041 3.2205h1.2041c0.3081 0 0.5601-0.056 0.7561-0.168 0.1961-0.112 0.3081-0.3081 0.3081-0.6161 0-0.3081-0.112-0.5041-0.3081-0.6161-0.196-0.112-0.448-0.168-0.7561-0.168h-1.2041zm10.81 2.5484c0.084 0 0.14 0.028 0.196 0.084s0.084 0.112 0.084 0.196v1.1202c0 0.084-0.028 0.14-0.084 0.196s-0.112 0.084-0.196 0.084h-5.0688c-0.084 0-0.14-0.028-0.196-0.084s-0.084-0.112-0.084-0.196v-6.889c0-0.0841 0.028-0.1401 0.084-0.1961s0.112-0.084 0.196-0.084h4.9848c0.084 0 0.14 0.028 0.196 0.084s0.084 0.112 0.084 0.1961v1.1201c0 0.084-0.028 0.14-0.084 0.1961-0.056 0.056-0.112 0.084-0.196 0.084h-3.3045v1.1481h3.0524c0.084 0 0.14 0.028 0.196 0.0841 0.0561 0.056 0.0841 0.112 0.0841 0.196v1.1201c0 0.0841-0.028 0.1401-0.0841 0.1961-0.056 0.056-0.112 0.084-0.196 0.084h-3.0524v1.2042h3.3885z"/>
			<path id="path839" d="m14.053 28.12c0.448 0 0.8681 0.056 1.2321 0.168 0.3641 0.112 0.6721 0.252 0.9242 0.4761 0.252 0.224 0.4481 0.4761 0.5881 0.7841s0.196 0.6721 0.196 1.0922c0 0.42-0.056 0.7841-0.196 1.0921-0.14 0.3081-0.3361 0.5601-0.5881 0.7841-0.2521 0.1961-0.5601 0.3641-0.9242 0.4761-0.364 0.112-0.7841 0.168-1.2321 0.168h-1.3722v2.1844c0 0.084-0.028 0.14-0.0841 0.196-0.056 0.056-0.112 0.084-0.196 0.084h-1.4002c-0.084 0-0.14-0.028-0.196-0.084s-0.084-0.112-0.084-0.196v-6.9171c0-0.084 0.028-0.14 0.084-0.196s0.112-0.084 0.196-0.084h3.0525zm-1.3722 3.3605h1.3162c0.308 0 0.56-0.056 0.7561-0.196 0.196-0.1401 0.308-0.3361 0.308-0.6441 0-0.3081-0.112-0.5041-0.308-0.6441-0.1961-0.1401-0.4481-0.1961-0.7561-0.1961h-1.3162zm5.4888-0.5601c0.028-0.3921 0.112-0.7841 0.252-1.1202 0.14-0.364 0.3641-0.6721 0.6441-0.9241 0.2801-0.252 0.6161-0.4761 1.0362-0.6161 0.392-0.14 0.8681-0.224 1.4002-0.224s0.9801 0.084 1.4002 0.224c0.42 0.14 0.7561 0.3641 1.0361 0.6161 0.2801 0.252 0.5041 0.5601 0.6441 0.9241 0.1401 0.3641 0.2521 0.7281 0.2521 1.1202 0.028 0.308 0.028 0.6161 0.028 0.9521 0 0.3361 0 0.6441-0.028 0.9522-0.028 0.392-0.112 0.7841-0.2521 1.1202-0.14 0.364-0.364 0.6721-0.6441 0.9241-0.28 0.252-0.6161 0.4761-1.0361 0.6161-0.4201 0.14-0.8681 0.224-1.4002 0.224s-0.9802-0.084-1.4002-0.224c-0.3921-0.14-0.7561-0.3641-1.0362-0.6161-0.28-0.252-0.5041-0.5601-0.6441-0.9241-0.14-0.3641-0.252-0.7282-0.252-1.1202-0.028-0.2801-0.028-0.6161-0.028-0.9522 0-0.336 0-0.6441 0.028-0.9521zm4.6767 1.8483c0-0.14 0.028-0.2801 0.028-0.4201v-0.4761-0.476c0-0.1401-0.028-0.2801-0.028-0.4201-0.028-0.168-0.056-0.336-0.112-0.5041-0.0561-0.14-0.1401-0.28-0.2521-0.392s-0.252-0.1961-0.42-0.2521c-0.1681-0.056-0.3641-0.084-0.5881-0.084-0.2241 0-0.4201 0.028-0.5881 0.084s-0.3081 0.1401-0.4201 0.2521-0.196 0.252-0.252 0.392c-0.056 0.1401-0.112 0.3081-0.112 0.5041-0.028 0.112-0.028 0.252-0.028 0.4201v0.476 0.4761c0 0.168 0 0.3081 0.028 0.4201 0.028 0.364 0.14 0.6441 0.364 0.8961 0.2241 0.224 0.5601 0.3641 0.9802 0.3641 0.448 0 0.7561-0.1121 0.9801-0.3641 0.2801-0.252 0.3921-0.5321 0.4201-0.8961zm9.9415 2.4923c0.028 0.0281 0.028 0.0561 0.028 0.1121s-0.028 0.112-0.056 0.168c-0.0561 0.056-0.1121 0.056-0.1681 0.056h-1.7082c-0.112 0-0.1681-0.028-0.2521-0.056-0.056-0.056-0.14-0.112-0.196-0.168l-2.0163-2.5484v2.4924c0 0.084-0.028 0.14-0.084 0.196s-0.112 0.084-0.196 0.084h-1.4002c-0.0841 0-0.1401-0.028-0.1961-0.084s-0.084-0.112-0.084-0.196v-6.9171c0-0.084 0.028-0.14 0.084-0.196s0.112-0.084 0.1961-0.084h1.4002c0.084 0 0.14 0.028 0.196 0.084s0.084 0.112 0.084 0.196v2.2684l1.8763-2.2964c0.028-0.056 0.084-0.084 0.14-0.14s0.14-0.084 0.28-0.084h1.6803c0.056 0 0.112 0.028 0.168 0.056 0.056 0.056 0.056 0.112 0.056 0.168s0 0.084-0.028 0.112l-2.6324 3.2205zm6.5809-1.3722c0.084 0 0.1401 0.028 0.1961 0.0841 0.056 0.056 0.084 0.112 0.084 0.196v1.1202c0 0.084-0.028 0.14-0.084 0.196s-0.1121 0.084-0.1961 0.084h-5.0687c-0.084 0-0.14-0.028-0.196-0.084-0.0561-0.056-0.0841-0.112-0.0841-0.196v-6.9171c0-0.084 0.028-0.14 0.0841-0.196 0.056-0.056 0.112-0.084 0.196-0.084h4.9847c0.084 0 0.14 0.028 0.1961 0.084 0.056 0.056 0.084 0.112 0.084 0.196v1.1202c0 0.084-0.028 0.14-0.084 0.196-0.0561 0.056-0.1121 0.084-0.1961 0.084h-3.3045v1.1482h3.0525c0.084 0 0.14 0.028 0.196 0.084s0.084 0.112 0.084 0.196v1.1202c0 0.084-0.028 0.14-0.084 0.196s-0.112 0.0841-0.196 0.0841h-3.0525v1.2041h3.3885z"/>
		</g>
	</g>
</svg>
