<svg width="223" height="81" viewBox="0 0 223 81" fill="none" xmlns="http://www.w3.org/2000/svg">
<path d="M223 9H11L0 0V81H223V9Z" fill="white"/>
<path d="M14.82 27.1C14.82 26.3627 14.9787 25.7047 15.296 25.126C15.6227 24.5473 16.066 24.09 16.626 23.754C17.186 23.418 17.8207 23.25 18.53 23.25C19.2487 23.25 19.8833 23.418 20.434 23.754C20.994 24.09 21.4327 24.5473 21.75 25.126C22.0767 25.7047 22.24 26.3627 22.24 27.1C22.24 27.8373 22.0767 28.4953 21.75 29.074C21.4327 29.6527 20.994 30.11 20.434 30.446C19.8833 30.782 19.2487 30.95 18.53 30.95C17.8207 30.95 17.186 30.782 16.626 30.446C16.066 30.11 15.6227 29.6527 15.296 29.074C14.9787 28.4953 14.82 27.8373 14.82 27.1ZM13.56 27.1C13.56 27.8093 13.6813 28.472 13.924 29.088C14.176 29.704 14.526 30.2407 14.974 30.698C15.422 31.146 15.9493 31.5007 16.556 31.762C17.1627 32.014 17.8207 32.14 18.53 32.14C19.2487 32.14 19.9067 32.014 20.504 31.762C21.1107 31.5007 21.638 31.146 22.086 30.698C22.534 30.2407 22.8793 29.704 23.122 29.088C23.374 28.472 23.5 27.8093 23.5 27.1C23.5 26.3813 23.374 25.7187 23.122 25.112C22.8793 24.496 22.534 23.964 22.086 23.516C21.638 23.0587 21.1107 22.704 20.504 22.452C19.9067 22.1907 19.2487 22.06 18.53 22.06C17.8207 22.06 17.1627 22.1907 16.556 22.452C15.9493 22.704 15.422 23.0587 14.974 23.516C14.526 23.964 14.176 24.496 13.924 25.112C13.6813 25.7187 13.56 26.3813 13.56 27.1ZM27.2805 30.04H29.4785V28.99H27.2805V30.04ZM28.6805 25.56V32H29.8005V25.56H28.6805ZM25.8805 25.56H24.7605V27.408C24.7605 28.0333 24.8352 28.542 24.9845 28.934C25.1339 29.3167 25.3905 29.5967 25.7545 29.774C26.1279 29.9513 26.6365 30.04 27.2805 30.04V28.99C26.9259 28.99 26.6459 28.9387 26.4405 28.836C26.2352 28.724 26.0905 28.5513 26.0065 28.318C25.9225 28.0847 25.8805 27.7813 25.8805 27.408V25.56ZM32.0595 29.06H37.5615C37.5708 29.004 37.5755 28.948 37.5755 28.892C37.5755 28.836 37.5755 28.78 37.5755 28.724C37.5755 28.0427 37.4495 27.4593 37.1975 26.974C36.9455 26.4793 36.5908 26.0967 36.1335 25.826C35.6761 25.5553 35.1441 25.42 34.5375 25.42C33.9868 25.42 33.4875 25.532 33.0395 25.756C32.6008 25.98 32.2415 26.2927 31.9615 26.694C31.6815 27.0953 31.4948 27.562 31.4015 28.094C31.3828 28.206 31.3688 28.318 31.3595 28.43C31.3501 28.542 31.3455 28.6587 31.3455 28.78C31.3455 29.424 31.4761 30.0027 31.7375 30.516C32.0081 31.02 32.3721 31.4167 32.8295 31.706C33.2961 31.9953 33.8188 32.14 34.3975 32.14C34.9575 32.14 35.4241 32.0747 35.7975 31.944C36.1708 31.804 36.4881 31.6127 36.7495 31.37C37.0108 31.118 37.2488 30.8287 37.4635 30.502L36.5535 29.928C36.4135 30.1613 36.2455 30.3667 36.0495 30.544C35.8535 30.712 35.6295 30.8473 35.3775 30.95C35.1348 31.0433 34.8548 31.09 34.5375 31.09C34.1175 31.09 33.7535 31.0013 33.4455 30.824C33.1375 30.6467 32.8995 30.3853 32.7315 30.04C32.5635 29.6947 32.4795 29.2747 32.4795 28.78L32.5075 28.36C32.5075 27.9587 32.5961 27.6133 32.7735 27.324C32.9601 27.0253 33.2075 26.7967 33.5155 26.638C33.8235 26.4793 34.1641 26.4 34.5375 26.4C34.9108 26.4 35.2235 26.4747 35.4755 26.624C35.7368 26.764 35.9375 26.9647 36.0775 27.226C36.2268 27.478 36.3201 27.772 36.3575 28.108H32.0595V29.06ZM39.7685 29.13H44.5285V28.08H39.7685V29.13ZM43.8005 25.56V32H44.9205V25.56H43.8005ZM39.1105 25.56V32H40.2305V25.56H39.1105ZM47.0266 25.56V32H48.1466V25.56H47.0266ZM47.6846 28.976H49.6866C50.0972 28.976 50.4052 29.0647 50.6106 29.242C50.8159 29.4193 50.9186 29.6713 50.9186 29.998C50.9186 30.2127 50.8719 30.3993 50.7786 30.558C50.6852 30.7073 50.5452 30.824 50.3586 30.908C50.1812 30.9827 49.9572 31.02 49.6866 31.02H47.6846V32H49.6866C50.1346 32 50.5359 31.93 50.8906 31.79C51.2452 31.65 51.5252 31.4307 51.7306 31.132C51.9359 30.8333 52.0386 30.4553 52.0386 29.998C52.0386 29.3073 51.8099 28.8033 51.3526 28.486C50.9046 28.1593 50.3492 27.996 49.6866 27.996H47.6846V28.976ZM57.4314 28.78C57.4314 29.424 57.5761 30.0027 57.8654 30.516C58.1641 31.02 58.5654 31.4167 59.0694 31.706C59.5734 31.9953 60.1381 32.14 60.7634 32.14C61.3981 32.14 61.9627 31.9953 62.4574 31.706C62.9614 31.4167 63.3581 31.02 63.6474 30.516C63.9461 30.0027 64.0954 29.424 64.0954 28.78C64.0954 28.1267 63.9461 27.548 63.6474 27.044C63.3581 26.54 62.9614 26.1433 62.4574 25.854C61.9627 25.5647 61.3981 25.42 60.7634 25.42C60.1381 25.42 59.5734 25.5647 59.0694 25.854C58.5654 26.1433 58.1641 26.54 57.8654 27.044C57.5761 27.548 57.4314 28.1267 57.4314 28.78ZM58.5654 28.78C58.5654 28.332 58.6587 27.9353 58.8454 27.59C59.0414 27.2353 59.3027 26.96 59.6294 26.764C59.9654 26.568 60.3434 26.47 60.7634 26.47C61.1834 26.47 61.5567 26.568 61.8834 26.764C62.2194 26.96 62.4807 27.2353 62.6674 27.59C62.8634 27.9353 62.9614 28.332 62.9614 28.78C62.9614 29.228 62.8634 29.6247 62.6674 29.97C62.4807 30.3153 62.2194 30.5907 61.8834 30.796C61.5567 30.992 61.1834 31.09 60.7634 31.09C60.3434 31.09 59.9654 30.992 59.6294 30.796C59.3027 30.5907 59.0414 30.3153 58.8454 29.97C58.6587 29.6247 58.5654 29.228 58.5654 28.78ZM66.684 35.08V25.56H65.564V35.08H66.684ZM72.074 28.78C72.074 28.08 71.9293 27.4827 71.64 26.988C71.3507 26.484 70.9633 26.0967 70.478 25.826C70.002 25.5553 69.47 25.42 68.882 25.42C68.35 25.42 67.8787 25.5553 67.468 25.826C67.0667 26.0967 66.7493 26.484 66.516 26.988C66.292 27.4827 66.18 28.08 66.18 28.78C66.18 29.4707 66.292 30.068 66.516 30.572C66.7493 31.076 67.0667 31.4633 67.468 31.734C67.8787 32.0047 68.35 32.14 68.882 32.14C69.47 32.14 70.002 32.0047 70.478 31.734C70.9633 31.4633 71.3507 31.076 71.64 30.572C71.9293 30.068 72.074 29.4707 72.074 28.78ZM70.94 28.78C70.94 29.2747 70.8373 29.6947 70.632 30.04C70.436 30.3853 70.17 30.6467 69.834 30.824C69.5073 31.0013 69.1433 31.09 68.742 31.09C68.4153 31.09 68.0933 31.0013 67.776 30.824C67.4587 30.6467 67.1973 30.3853 66.992 30.04C66.7867 29.6947 66.684 29.2747 66.684 28.78C66.684 28.2853 66.7867 27.8653 66.992 27.52C67.1973 27.1747 67.4587 26.9133 67.776 26.736C68.0933 26.5587 68.4153 26.47 68.742 26.47C69.1433 26.47 69.5073 26.5587 69.834 26.736C70.17 26.9133 70.436 27.1747 70.632 27.52C70.8373 27.8653 70.94 28.2853 70.94 28.78ZM79.0084 26.68L79.0784 25.07L73.7584 30.88L73.6884 32.49L79.0084 26.68ZM74.8084 25.56H73.6884V32.49L74.8084 30.95V25.56ZM79.0784 25.07L77.9584 26.61V32H79.0784V25.07ZM81.3173 25.56V32H82.4373V26.61H84.7473V25.56H81.3173ZM91.2584 26.68L91.3284 25.07L86.0084 30.88L85.9384 32.49L91.2584 26.68ZM87.0584 25.56H85.9384V32.49L87.0584 30.95V25.56ZM91.3284 25.07L90.2084 26.61V32H91.3284V25.07ZM94.1553 29.13H98.9153V28.08H94.1553V29.13ZM98.1873 25.56V32H99.3073V25.56H98.1873ZM93.4973 25.56V32H94.6173V25.56H93.4973ZM101.917 30.11C101.917 29.8487 101.978 29.6247 102.099 29.438C102.221 29.2513 102.403 29.1067 102.645 29.004C102.897 28.9013 103.21 28.85 103.583 28.85C103.994 28.85 104.363 28.906 104.689 29.018C105.016 29.1207 105.338 29.284 105.655 29.508V28.85C105.59 28.766 105.469 28.6587 105.291 28.528C105.114 28.388 104.876 28.2667 104.577 28.164C104.288 28.052 103.938 27.996 103.527 27.996C102.967 27.996 102.482 28.0847 102.071 28.262C101.661 28.43 101.343 28.6727 101.119 28.99C100.895 29.3073 100.783 29.6947 100.783 30.152C100.783 30.5907 100.881 30.9593 101.077 31.258C101.283 31.5473 101.553 31.7667 101.889 31.916C102.225 32.0653 102.594 32.14 102.995 32.14C103.443 32.14 103.849 32.0653 104.213 31.916C104.577 31.7573 104.867 31.5333 105.081 31.244C105.305 30.9453 105.417 30.5907 105.417 30.18L105.193 29.48C105.193 29.8813 105.109 30.2033 104.941 30.446C104.783 30.6887 104.559 30.866 104.269 30.978C103.98 31.09 103.649 31.146 103.275 31.146C103.023 31.146 102.795 31.1087 102.589 31.034C102.384 30.95 102.221 30.8333 102.099 30.684C101.978 30.5253 101.917 30.334 101.917 30.11ZM101.917 27.072C102.02 26.9973 102.16 26.9087 102.337 26.806C102.524 26.694 102.743 26.6007 102.995 26.526C103.247 26.442 103.527 26.4 103.835 26.4C104.19 26.4 104.503 26.484 104.773 26.652C105.053 26.8107 105.193 27.0533 105.193 27.38V32H106.313V27.38C106.313 26.96 106.206 26.6053 105.991 26.316C105.786 26.0267 105.497 25.8073 105.123 25.658C104.759 25.4993 104.33 25.42 103.835 25.42C103.257 25.42 102.762 25.5087 102.351 25.686C101.941 25.8633 101.614 26.0407 101.371 26.218L101.917 27.072ZM113.85 25.56H108.32V29.76C108.32 30.2173 108.218 30.5347 108.012 30.712C107.816 30.8893 107.578 30.978 107.298 30.978V32C107.784 32 108.185 31.9207 108.502 31.762C108.82 31.594 109.053 31.3467 109.202 31.02C109.361 30.684 109.44 30.264 109.44 29.76V26.61H112.73V32H113.85V25.56ZM116.015 25.56V32H117.135V25.56H116.015ZM116.673 28.976H118.675C119.086 28.976 119.394 29.0647 119.599 29.242C119.804 29.4193 119.907 29.6713 119.907 29.998C119.907 30.2127 119.86 30.3993 119.767 30.558C119.674 30.7073 119.534 30.824 119.347 30.908C119.17 30.9827 118.946 31.02 118.675 31.02H116.673V32H118.675C119.123 32 119.524 31.93 119.879 31.79C120.234 31.65 120.514 31.4307 120.719 31.132C120.924 30.8333 121.027 30.4553 121.027 29.998C121.027 29.3073 120.798 28.8033 120.341 28.486C119.893 28.1593 119.338 27.996 118.675 27.996H116.673V28.976ZM123.44 29.13H128.2V28.08H123.44V29.13ZM127.472 25.56V32H128.592V25.56H127.472ZM122.782 25.56V32H123.902V25.56H122.782ZM136.508 25.56V32H137.628V25.56H136.508ZM130.698 25.56V32H131.818V25.56H130.698ZM131.356 28.976H133.358C133.769 28.976 134.077 29.0647 134.282 29.242C134.488 29.4193 134.59 29.6713 134.59 29.998C134.59 30.2127 134.544 30.3993 134.45 30.558C134.357 30.7073 134.217 30.824 134.03 30.908C133.853 30.9827 133.629 31.02 133.358 31.02H131.356V32H133.358C133.806 32 134.208 31.93 134.562 31.79C134.917 31.65 135.197 31.4307 135.402 31.132C135.608 30.8333 135.71 30.4553 135.71 29.998C135.71 29.3073 135.482 28.8033 135.024 28.486C134.576 28.1593 134.021 27.996 133.358 27.996H131.356V28.976ZM145.112 26.68L145.182 25.07L139.862 30.88L139.792 32.49L145.112 26.68ZM140.912 25.56H139.792V32.49L140.912 30.95V25.56ZM145.182 25.07L144.062 26.61V32H145.182V25.07ZM140.31 22.27C140.31 22.5873 140.389 22.9 140.548 23.208C140.716 23.5067 140.963 23.754 141.29 23.95C141.626 24.1367 142.037 24.23 142.522 24.23C143.017 24.23 143.427 24.1367 143.754 23.95C144.081 23.754 144.323 23.5067 144.482 23.208C144.65 22.9 144.734 22.5873 144.734 22.27H143.74C143.74 22.3913 143.707 22.536 143.642 22.704C143.577 22.8627 143.455 23.0073 143.278 23.138C143.101 23.2593 142.849 23.32 142.522 23.32C142.195 23.32 141.943 23.2593 141.766 23.138C141.589 23.0073 141.467 22.8627 141.402 22.704C141.337 22.536 141.304 22.3913 141.304 22.27H140.31ZM152.598 35.08V25.56H151.478V35.08H152.598ZM157.988 28.78C157.988 28.08 157.843 27.4827 157.554 26.988C157.265 26.484 156.877 26.0967 156.392 25.826C155.916 25.5553 155.384 25.42 154.796 25.42C154.264 25.42 153.793 25.5553 153.382 25.826C152.981 26.0967 152.663 26.484 152.43 26.988C152.206 27.4827 152.094 28.08 152.094 28.78C152.094 29.4707 152.206 30.068 152.43 30.572C152.663 31.076 152.981 31.4633 153.382 31.734C153.793 32.0047 154.264 32.14 154.796 32.14C155.384 32.14 155.916 32.0047 156.392 31.734C156.877 31.4633 157.265 31.076 157.554 30.572C157.843 30.068 157.988 29.4707 157.988 28.78ZM156.854 28.78C156.854 29.2747 156.751 29.6947 156.546 30.04C156.35 30.3853 156.084 30.6467 155.748 30.824C155.421 31.0013 155.057 31.09 154.656 31.09C154.329 31.09 154.007 31.0013 153.69 30.824C153.373 30.6467 153.111 30.3853 152.906 30.04C152.701 29.6947 152.598 29.2747 152.598 28.78C152.598 28.2853 152.701 27.8653 152.906 27.52C153.111 27.1747 153.373 26.9133 153.69 26.736C154.007 26.5587 154.329 26.47 154.656 26.47C155.057 26.47 155.421 26.5587 155.748 26.736C156.084 26.9133 156.35 27.1747 156.546 27.52C156.751 27.8653 156.854 28.2853 156.854 28.78ZM159.686 29.06H165.188C165.198 29.004 165.202 28.948 165.202 28.892C165.202 28.836 165.202 28.78 165.202 28.724C165.202 28.0427 165.076 27.4593 164.824 26.974C164.572 26.4793 164.218 26.0967 163.76 25.826C163.303 25.5553 162.771 25.42 162.164 25.42C161.614 25.42 161.114 25.532 160.666 25.756C160.228 25.98 159.868 26.2927 159.588 26.694C159.308 27.0953 159.122 27.562 159.028 28.094C159.01 28.206 158.996 28.318 158.986 28.43C158.977 28.542 158.972 28.6587 158.972 28.78C158.972 29.424 159.103 30.0027 159.364 30.516C159.635 31.02 159.999 31.4167 160.456 31.706C160.923 31.9953 161.446 32.14 162.024 32.14C162.584 32.14 163.051 32.0747 163.424 31.944C163.798 31.804 164.115 31.6127 164.376 31.37C164.638 31.118 164.876 30.8287 165.09 30.502L164.18 29.928C164.04 30.1613 163.872 30.3667 163.676 30.544C163.48 30.712 163.256 30.8473 163.004 30.95C162.762 31.0433 162.482 31.09 162.164 31.09C161.744 31.09 161.38 31.0013 161.072 30.824C160.764 30.6467 160.526 30.3853 160.358 30.04C160.19 29.6947 160.106 29.2747 160.106 28.78L160.134 28.36C160.134 27.9587 160.223 27.6133 160.4 27.324C160.587 27.0253 160.834 26.7967 161.142 26.638C161.45 26.4793 161.791 26.4 162.164 26.4C162.538 26.4 162.85 26.4747 163.102 26.624C163.364 26.764 163.564 26.9647 163.704 27.226C163.854 27.478 163.947 27.772 163.984 28.108H159.686V29.06ZM171.988 30.95V25.56H170.868V30.95H167.858V25.56H166.738V32H172.128V33.26H173.108V30.95H171.988ZM174.808 29.06H180.31C180.319 29.004 180.324 28.948 180.324 28.892C180.324 28.836 180.324 28.78 180.324 28.724C180.324 28.0427 180.198 27.4593 179.946 26.974C179.694 26.4793 179.339 26.0967 178.882 25.826C178.424 25.5553 177.892 25.42 177.286 25.42C176.735 25.42 176.236 25.532 175.788 25.756C175.349 25.98 174.99 26.2927 174.71 26.694C174.43 27.0953 174.243 27.562 174.15 28.094C174.131 28.206 174.117 28.318 174.108 28.43C174.098 28.542 174.094 28.6587 174.094 28.78C174.094 29.424 174.224 30.0027 174.486 30.516C174.756 31.02 175.12 31.4167 175.578 31.706C176.044 31.9953 176.567 32.14 177.146 32.14C177.706 32.14 178.172 32.0747 178.546 31.944C178.919 31.804 179.236 31.6127 179.498 31.37C179.759 31.118 179.997 30.8287 180.212 30.502L179.302 29.928C179.162 30.1613 178.994 30.3667 178.798 30.544C178.602 30.712 178.378 30.8473 178.126 30.95C177.883 31.0433 177.603 31.09 177.286 31.09C176.866 31.09 176.502 31.0013 176.194 30.824C175.886 30.6467 175.648 30.3853 175.48 30.04C175.312 29.6947 175.228 29.2747 175.228 28.78L175.256 28.36C175.256 27.9587 175.344 27.6133 175.522 27.324C175.708 27.0253 175.956 26.7967 176.264 26.638C176.572 26.4793 176.912 26.4 177.286 26.4C177.659 26.4 177.972 26.4747 178.224 26.624C178.485 26.764 178.686 26.9647 178.826 27.226C178.975 27.478 179.068 27.772 179.106 28.108H174.808V29.06ZM187.109 25.56H181.859V32H182.979V26.61H185.989V32H187.109V25.56ZM188.234 25.56V26.61H192.014V25.56H188.234ZM189.564 25.84V32H190.684V25.84H189.564ZM193.488 22.2L193.768 29.2H194.608L194.888 22.2H193.488ZM193.418 31.44C193.418 31.6453 193.493 31.8273 193.642 31.986C193.801 32.1353 193.983 32.21 194.188 32.21C194.403 32.21 194.585 32.1353 194.734 31.986C194.883 31.8273 194.958 31.6453 194.958 31.44C194.958 31.2253 194.883 31.0433 194.734 30.894C194.585 30.7447 194.403 30.67 194.188 30.67C193.983 30.67 193.801 30.7447 193.642 30.894C193.493 31.0433 193.418 31.2253 193.418 31.44ZM15.058 43.82H16.64C17.228 43.82 17.7367 43.736 18.166 43.568C18.6047 43.4 18.9453 43.1527 19.188 42.826C19.4307 42.4993 19.552 42.1073 19.552 41.65C19.552 41.09 19.4307 40.6327 19.188 40.278C18.9453 39.914 18.6047 39.6433 18.166 39.466C17.7367 39.2887 17.228 39.2 16.64 39.2H14.12V49H16.78C17.4147 49 17.9793 48.8973 18.474 48.692C18.978 48.4773 19.3747 48.16 19.664 47.74C19.9627 47.3107 20.112 46.774 20.112 46.13C20.112 45.682 20.028 45.2947 19.86 44.968C19.692 44.6413 19.454 44.3753 19.146 44.17C18.8473 43.9553 18.4973 43.7967 18.096 43.694C17.6947 43.5913 17.256 43.54 16.78 43.54H15.058V44.198H16.78C17.0973 44.198 17.3867 44.24 17.648 44.324C17.9093 44.3987 18.1333 44.5153 18.32 44.674C18.516 44.8327 18.6653 45.0287 18.768 45.262C18.8707 45.4953 18.922 45.7613 18.922 46.06C18.922 46.4613 18.8287 46.802 18.642 47.082C18.4647 47.362 18.2127 47.5767 17.886 47.726C17.5687 47.8753 17.2 47.95 16.78 47.95H15.31V40.25H16.64C17.1347 40.25 17.5453 40.3807 17.872 40.642C18.1987 40.894 18.362 41.2533 18.362 41.72C18.362 42.028 18.2873 42.2893 18.138 42.504C17.9887 42.7187 17.7833 42.882 17.522 42.994C17.2607 43.106 16.9667 43.162 16.64 43.162H15.058V43.82ZM27.6666 42.56V49H28.7866V42.56H27.6666ZM21.8566 42.56V49H22.9766V42.56H21.8566ZM22.5146 45.976H24.5166C24.9273 45.976 25.2353 46.0647 25.4406 46.242C25.646 46.4193 25.7486 46.6713 25.7486 46.998C25.7486 47.2127 25.702 47.3993 25.6086 47.558C25.5153 47.7073 25.3753 47.824 25.1886 47.908C25.0113 47.9827 24.7873 48.02 24.5166 48.02H22.5146V49H24.5166C24.9646 49 25.366 48.93 25.7206 48.79C26.0753 48.65 26.3553 48.4307 26.5606 48.132C26.766 47.8333 26.8686 47.4553 26.8686 46.998C26.8686 46.3073 26.64 45.8033 26.1826 45.486C25.7346 45.1593 25.1793 44.996 24.5166 44.996H22.5146V45.976ZM35.7353 46.13H40.4953V45.08H35.7353V46.13ZM39.7673 42.56V49H40.8873V42.56H39.7673ZM35.0773 42.56V49H36.1973V42.56H35.0773ZM43.1474 46.06H48.6494C48.6587 46.004 48.6634 45.948 48.6634 45.892C48.6634 45.836 48.6634 45.78 48.6634 45.724C48.6634 45.0427 48.5374 44.4593 48.2854 43.974C48.0334 43.4793 47.6787 43.0967 47.2214 42.826C46.764 42.5553 46.232 42.42 45.6254 42.42C45.0747 42.42 44.5754 42.532 44.1274 42.756C43.6887 42.98 43.3294 43.2927 43.0494 43.694C42.7694 44.0953 42.5827 44.562 42.4894 45.094C42.4707 45.206 42.4567 45.318 42.4474 45.43C42.438 45.542 42.4334 45.6587 42.4334 45.78C42.4334 46.424 42.564 47.0027 42.8254 47.516C43.096 48.02 43.46 48.4167 43.9174 48.706C44.384 48.9953 44.9067 49.14 45.4854 49.14C46.0454 49.14 46.512 49.0747 46.8854 48.944C47.2587 48.804 47.576 48.6127 47.8374 48.37C48.0987 48.118 48.3367 47.8287 48.5514 47.502L47.6414 46.928C47.5014 47.1613 47.3334 47.3667 47.1374 47.544C46.9414 47.712 46.7174 47.8473 46.4654 47.95C46.2227 48.0433 45.9427 48.09 45.6254 48.09C45.2054 48.09 44.8414 48.0013 44.5334 47.824C44.2254 47.6467 43.9874 47.3853 43.8194 47.04C43.6514 46.6947 43.5674 46.2747 43.5674 45.78L43.5954 45.36C43.5954 44.9587 43.684 44.6133 43.8614 44.324C44.048 44.0253 44.2954 43.7967 44.6034 43.638C44.9114 43.4793 45.252 43.4 45.6254 43.4C45.9987 43.4 46.3114 43.4747 46.5634 43.624C46.8247 43.764 47.0254 43.9647 47.1654 44.226C47.3147 44.478 47.408 44.772 47.4454 45.108H43.1474V46.06ZM59.6457 42.56H54.3957V49H55.5157V43.61H58.5257V49H59.6457V42.56ZM62.8012 52.08V42.56H61.6812V52.08H62.8012ZM68.1912 45.78C68.1912 45.08 68.0465 44.4827 67.7572 43.988C67.4678 43.484 67.0805 43.0967 66.5952 42.826C66.1192 42.5553 65.5872 42.42 64.9992 42.42C64.4672 42.42 63.9958 42.5553 63.5852 42.826C63.1838 43.0967 62.8665 43.484 62.6332 43.988C62.4092 44.4827 62.2972 45.08 62.2972 45.78C62.2972 46.4707 62.4092 47.068 62.6332 47.572C62.8665 48.076 63.1838 48.4633 63.5852 48.734C63.9958 49.0047 64.4672 49.14 64.9992 49.14C65.5872 49.14 66.1192 49.0047 66.5952 48.734C67.0805 48.4633 67.4678 48.076 67.7572 47.572C68.0465 47.068 68.1912 46.4707 68.1912 45.78ZM67.0572 45.78C67.0572 46.2747 66.9545 46.6947 66.7492 47.04C66.5532 47.3853 66.2872 47.6467 65.9512 47.824C65.6245 48.0013 65.2605 48.09 64.8592 48.09C64.5325 48.09 64.2105 48.0013 63.8932 47.824C63.5758 47.6467 63.3145 47.3853 63.1092 47.04C62.9038 46.6947 62.8012 46.2747 62.8012 45.78C62.8012 45.2853 62.9038 44.8653 63.1092 44.52C63.3145 44.1747 63.5758 43.9133 63.8932 43.736C64.2105 43.5587 64.5325 43.47 64.8592 43.47C65.2605 43.47 65.6245 43.5587 65.9512 43.736C66.2872 43.9133 66.5532 44.1747 66.7492 44.52C66.9545 44.8653 67.0572 45.2853 67.0572 45.78ZM69.1755 45.78C69.1755 46.424 69.3202 47.0027 69.6095 47.516C69.9082 48.02 70.3095 48.4167 70.8135 48.706C71.3175 48.9953 71.8822 49.14 72.5075 49.14C73.1422 49.14 73.7069 48.9953 74.2015 48.706C74.7055 48.4167 75.1022 48.02 75.3915 47.516C75.6902 47.0027 75.8395 46.424 75.8395 45.78C75.8395 45.1267 75.6902 44.548 75.3915 44.044C75.1022 43.54 74.7055 43.1433 74.2015 42.854C73.7069 42.5647 73.1422 42.42 72.5075 42.42C71.8822 42.42 71.3175 42.5647 70.8135 42.854C70.3095 43.1433 69.9082 43.54 69.6095 44.044C69.3202 44.548 69.1755 45.1267 69.1755 45.78ZM70.3095 45.78C70.3095 45.332 70.4029 44.9353 70.5895 44.59C70.7855 44.2353 71.0469 43.96 71.3735 43.764C71.7095 43.568 72.0875 43.47 72.5075 43.47C72.9275 43.47 73.3009 43.568 73.6275 43.764C73.9635 43.96 74.2249 44.2353 74.4115 44.59C74.6075 44.9353 74.7055 45.332 74.7055 45.78C74.7055 46.228 74.6075 46.6247 74.4115 46.97C74.2249 47.3153 73.9635 47.5907 73.6275 47.796C73.3009 47.992 72.9275 48.09 72.5075 48.09C72.0875 48.09 71.7095 47.992 71.3735 47.796C71.0469 47.5907 70.7855 47.3153 70.5895 46.97C70.4029 46.6247 70.3095 46.228 70.3095 45.78ZM76.3981 42.56V43.61H80.1781V42.56H76.3981ZM77.7281 42.84V49H78.8481V42.84H77.7281ZM86.692 43.68L86.762 42.07L81.442 47.88L81.372 49.49L86.692 43.68ZM82.492 42.56H81.372V49.49L82.492 47.95V42.56ZM86.762 42.07L85.642 43.61V49H86.762V42.07ZM89.5889 45.64V46.228H91.4509C91.6655 46.228 91.8475 46.2513 91.9969 46.298C92.1555 46.3353 92.2815 46.396 92.3749 46.48C92.4775 46.564 92.5522 46.6573 92.5989 46.76C92.6549 46.8627 92.6829 46.9793 92.6829 47.11C92.6829 47.362 92.5802 47.5767 92.3749 47.754C92.1789 47.9313 91.8709 48.02 91.4509 48.02H89.5889V49H91.7309C92.4682 49 92.9955 48.832 93.3129 48.496C93.6395 48.1507 93.8029 47.7353 93.8029 47.25C93.8029 46.83 93.7002 46.5033 93.4949 46.27C93.2895 46.0367 93.0095 45.8733 92.6549 45.78C92.3002 45.6867 91.8989 45.64 91.4509 45.64H89.5889ZM89.5889 45.92H91.3109C91.7122 45.92 92.0762 45.864 92.4029 45.752C92.7389 45.6307 93.0095 45.4533 93.2149 45.22C93.4202 44.9773 93.5229 44.674 93.5229 44.31C93.5229 43.89 93.4202 43.554 93.2149 43.302C93.0095 43.0407 92.7389 42.854 92.4029 42.742C92.0762 42.6207 91.7122 42.56 91.3109 42.56H89.5889V43.54H91.3109C91.6469 43.54 91.9129 43.6193 92.1089 43.778C92.3049 43.9273 92.4029 44.128 92.4029 44.38C92.4029 44.5013 92.3749 44.618 92.3189 44.73C92.2722 44.8327 92.2022 44.926 92.1089 45.01C92.0155 45.094 91.8989 45.1593 91.7589 45.206C91.6282 45.2433 91.4789 45.262 91.3109 45.262H89.5889V45.92ZM88.9309 42.56V49H90.0509V42.56H88.9309ZM96.2966 47.46L95.0646 51.086L95.8766 51.38L97.4166 47.88L96.2966 47.46ZM103.933 46.06H109.435C109.444 46.004 109.449 45.948 109.449 45.892C109.449 45.836 109.449 45.78 109.449 45.724C109.449 45.0427 109.323 44.4593 109.071 43.974C108.819 43.4793 108.464 43.0967 108.007 42.826C107.549 42.5553 107.017 42.42 106.411 42.42C105.86 42.42 105.361 42.532 104.913 42.756C104.474 42.98 104.115 43.2927 103.835 43.694C103.555 44.0953 103.368 44.562 103.275 45.094C103.256 45.206 103.242 45.318 103.233 45.43C103.223 45.542 103.219 45.6587 103.219 45.78C103.219 46.424 103.349 47.0027 103.611 47.516C103.881 48.02 104.245 48.4167 104.703 48.706C105.169 48.9953 105.692 49.14 106.271 49.14C106.831 49.14 107.297 49.0747 107.671 48.944C108.044 48.804 108.361 48.6127 108.623 48.37C108.884 48.118 109.122 47.8287 109.337 47.502L108.427 46.928C108.287 47.1613 108.119 47.3667 107.923 47.544C107.727 47.712 107.503 47.8473 107.251 47.95C107.008 48.0433 106.728 48.09 106.411 48.09C105.991 48.09 105.627 48.0013 105.319 47.824C105.011 47.6467 104.773 47.3853 104.605 47.04C104.437 46.6947 104.353 46.2747 104.353 45.78L104.381 45.36C104.381 44.9587 104.469 44.6133 104.647 44.324C104.833 44.0253 105.081 43.7967 105.389 43.638C105.697 43.4793 106.037 43.4 106.411 43.4C106.784 43.4 107.097 43.4747 107.349 43.624C107.61 43.764 107.811 43.9647 107.951 44.226C108.1 44.478 108.193 44.772 108.231 45.108H103.933V46.06ZM111.488 45.78C111.488 45.332 111.581 44.9353 111.768 44.59C111.964 44.2353 112.225 43.96 112.552 43.764C112.888 43.568 113.266 43.47 113.686 43.47C114.031 43.47 114.353 43.526 114.652 43.638C114.96 43.7407 115.226 43.8807 115.45 44.058C115.674 44.2353 115.832 44.4313 115.926 44.646V43.246C115.702 42.9847 115.38 42.784 114.96 42.644C114.549 42.4947 114.124 42.42 113.686 42.42C113.06 42.42 112.496 42.5647 111.992 42.854C111.488 43.1433 111.086 43.54 110.788 44.044C110.498 44.548 110.354 45.1267 110.354 45.78C110.354 46.424 110.498 47.0027 110.788 47.516C111.086 48.02 111.488 48.4167 111.992 48.706C112.496 48.9953 113.06 49.14 113.686 49.14C114.124 49.14 114.549 49.07 114.96 48.93C115.38 48.7807 115.702 48.5753 115.926 48.314V46.914C115.832 47.1193 115.674 47.3153 115.45 47.502C115.226 47.6793 114.96 47.824 114.652 47.936C114.353 48.0387 114.031 48.09 113.686 48.09C113.266 48.09 112.888 47.992 112.552 47.796C112.225 47.5907 111.964 47.3153 111.768 46.97C111.581 46.6247 111.488 46.228 111.488 45.78ZM123.311 42.56H117.781V46.76C117.781 47.2173 117.678 47.5347 117.473 47.712C117.277 47.8893 117.039 47.978 116.759 47.978V49C117.244 49 117.646 48.9207 117.963 48.762C118.28 48.594 118.514 48.3467 118.663 48.02C118.822 47.684 118.901 47.264 118.901 46.76V43.61H122.191V49H123.311V42.56ZM130.866 43.68L130.936 42.07L125.616 47.88L125.546 49.49L130.866 43.68ZM126.666 42.56H125.546V49.49L126.666 47.95V42.56ZM130.936 42.07L129.816 43.61V49H130.936V42.07ZM143.42 49H144.68L143 42.07L142.37 43.89L143.42 49ZM140.06 48.034L140.48 49.434L143.14 44.31L143 42.07L140.06 48.034ZM140.48 49.434L140.9 48.034L138.002 42.07L137.862 44.31L140.48 49.434ZM136.322 49H137.582L138.632 43.89L138.002 42.07L136.322 49ZM151.616 42.56V49H152.736V42.56H151.616ZM145.806 42.56V49H146.926V42.56H145.806ZM146.464 45.976H148.466C148.877 45.976 149.185 46.0647 149.39 46.242C149.595 46.4193 149.698 46.6713 149.698 46.998C149.698 47.2127 149.651 47.3993 149.558 47.558C149.465 47.7073 149.325 47.824 149.138 47.908C148.961 47.9827 148.737 48.02 148.466 48.02H146.464V49H148.466C148.914 49 149.315 48.93 149.67 48.79C150.025 48.65 150.305 48.4307 150.51 48.132C150.715 47.8333 150.818 47.4553 150.818 46.998C150.818 46.3073 150.589 45.8033 150.132 45.486C149.684 45.1593 149.129 44.996 148.466 44.996H146.464V45.976ZM162.527 44.492L164.417 48.58H165.677L162.527 42.07L159.377 48.58H160.637L162.527 44.492ZM165.397 49V50.26H166.517V47.95H158.537V50.26H159.727V49H165.397ZM167.64 45.78C167.64 46.424 167.785 47.0027 168.074 47.516C168.373 48.02 168.774 48.4167 169.278 48.706C169.782 48.9953 170.347 49.14 170.972 49.14C171.607 49.14 172.172 48.9953 172.666 48.706C173.17 48.4167 173.567 48.02 173.856 47.516C174.155 47.0027 174.304 46.424 174.304 45.78C174.304 45.1267 174.155 44.548 173.856 44.044C173.567 43.54 173.17 43.1433 172.666 42.854C172.172 42.5647 171.607 42.42 170.972 42.42C170.347 42.42 169.782 42.5647 169.278 42.854C168.774 43.1433 168.373 43.54 168.074 44.044C167.785 44.548 167.64 45.1267 167.64 45.78ZM168.774 45.78C168.774 45.332 168.868 44.9353 169.054 44.59C169.25 44.2353 169.512 43.96 169.838 43.764C170.174 43.568 170.552 43.47 170.972 43.47C171.392 43.47 171.766 43.568 172.092 43.764C172.428 43.96 172.69 44.2353 172.876 44.59C173.072 44.9353 173.17 45.332 173.17 45.78C173.17 46.228 173.072 46.6247 172.876 46.97C172.69 47.3153 172.428 47.5907 172.092 47.796C171.766 47.992 171.392 48.09 170.972 48.09C170.552 48.09 170.174 47.992 169.838 47.796C169.512 47.5907 169.25 47.3153 169.054 46.97C168.868 46.6247 168.774 46.228 168.774 45.78ZM178.615 43.47C179.035 43.47 179.408 43.568 179.735 43.764C180.071 43.96 180.332 44.2353 180.519 44.59C180.715 44.9353 180.813 45.332 180.813 45.78C180.813 46.228 180.715 46.6247 180.519 46.97C180.332 47.3153 180.071 47.5907 179.735 47.796C179.408 47.992 179.035 48.09 178.615 48.09C178.195 48.09 177.817 47.992 177.481 47.796C177.154 47.5907 176.893 47.3153 176.697 46.97C176.501 46.6247 176.403 46.228 176.403 45.78L175.283 44.94C175.283 45.864 175.428 46.6387 175.717 47.264C176.016 47.8893 176.417 48.3607 176.921 48.678C177.425 48.986 177.99 49.14 178.615 49.14C179.25 49.14 179.814 48.9953 180.309 48.706C180.813 48.4167 181.21 48.02 181.499 47.516C181.798 47.0027 181.947 46.424 181.947 45.78C181.947 45.1267 181.798 44.548 181.499 44.044C181.21 43.54 180.813 43.1433 180.309 42.854C179.814 42.5647 179.25 42.42 178.615 42.42V43.47ZM175.899 45.78H176.403C176.403 45.4067 176.468 45.08 176.599 44.8C176.739 44.5107 176.916 44.268 177.131 44.072C177.355 43.876 177.598 43.7267 177.859 43.624C178.12 43.5213 178.372 43.47 178.615 43.47V42.42C178.214 42.42 177.845 42.4993 177.509 42.658C177.182 42.8073 176.898 43.0267 176.655 43.316C176.412 43.6053 176.226 43.96 176.095 44.38C175.964 44.7907 175.899 45.2573 175.899 45.78ZM175.283 44.94L176.263 45.682V44.24C176.263 43.7733 176.324 43.3067 176.445 42.84C176.566 42.3733 176.786 41.9533 177.103 41.58C177.43 41.1973 177.882 40.9127 178.461 40.726C178.974 40.558 179.432 40.348 179.833 40.096C180.244 39.844 180.575 39.55 180.827 39.214C181.079 38.8687 181.228 38.4907 181.275 38.08H180.169C180.104 38.416 179.912 38.738 179.595 39.046C179.287 39.3447 178.816 39.6013 178.181 39.816C177.434 40.0773 176.846 40.4413 176.417 40.908C175.997 41.3747 175.703 41.944 175.535 42.616C175.367 43.288 175.283 44.0627 175.283 44.94ZM183.99 47.11C183.99 46.8487 184.05 46.6247 184.172 46.438C184.293 46.2513 184.475 46.1067 184.718 46.004C184.97 45.9013 185.282 45.85 185.656 45.85C186.066 45.85 186.435 45.906 186.762 46.018C187.088 46.1207 187.41 46.284 187.728 46.508V45.85C187.662 45.766 187.541 45.6587 187.364 45.528C187.186 45.388 186.948 45.2667 186.65 45.164C186.36 45.052 186.01 44.996 185.6 44.996C185.04 44.996 184.554 45.0847 184.144 45.262C183.733 45.43 183.416 45.6727 183.192 45.99C182.968 46.3073 182.856 46.6947 182.856 47.152C182.856 47.5907 182.954 47.9593 183.15 48.258C183.355 48.5473 183.626 48.7667 183.962 48.916C184.298 49.0653 184.666 49.14 185.068 49.14C185.516 49.14 185.922 49.0653 186.286 48.916C186.65 48.7573 186.939 48.5333 187.154 48.244C187.378 47.9453 187.49 47.5907 187.49 47.18L187.266 46.48C187.266 46.8813 187.182 47.2033 187.014 47.446C186.855 47.6887 186.631 47.866 186.342 47.978C186.052 48.09 185.721 48.146 185.348 48.146C185.096 48.146 184.867 48.1087 184.662 48.034C184.456 47.95 184.293 47.8333 184.172 47.684C184.05 47.5253 183.99 47.334 183.99 47.11ZM183.99 44.072C184.092 43.9973 184.232 43.9087 184.41 43.806C184.596 43.694 184.816 43.6007 185.068 43.526C185.32 43.442 185.6 43.4 185.908 43.4C186.262 43.4 186.575 43.484 186.846 43.652C187.126 43.8107 187.266 44.0533 187.266 44.38V49H188.386V44.38C188.386 43.96 188.278 43.6053 188.064 43.316C187.858 43.0267 187.569 42.8073 187.196 42.658C186.832 42.4993 186.402 42.42 185.908 42.42C185.329 42.42 184.834 42.5087 184.424 42.686C184.013 42.8633 183.686 43.0407 183.444 43.218L183.99 44.072ZM190.938 45.64V46.228H192.8C193.015 46.228 193.197 46.2513 193.346 46.298C193.505 46.3353 193.631 46.396 193.724 46.48C193.827 46.564 193.902 46.6573 193.948 46.76C194.004 46.8627 194.032 46.9793 194.032 47.11C194.032 47.362 193.93 47.5767 193.724 47.754C193.528 47.9313 193.22 48.02 192.8 48.02H190.938V49H193.08C193.818 49 194.345 48.832 194.662 48.496C194.989 48.1507 195.152 47.7353 195.152 47.25C195.152 46.83 195.05 46.5033 194.844 46.27C194.639 46.0367 194.359 45.8733 194.004 45.78C193.65 45.6867 193.248 45.64 192.8 45.64H190.938ZM190.938 45.92H192.66C193.062 45.92 193.426 45.864 193.752 45.752C194.088 45.6307 194.359 45.4533 194.564 45.22C194.77 44.9773 194.872 44.674 194.872 44.31C194.872 43.89 194.77 43.554 194.564 43.302C194.359 43.0407 194.088 42.854 193.752 42.742C193.426 42.6207 193.062 42.56 192.66 42.56H190.938V43.54H192.66C192.996 43.54 193.262 43.6193 193.458 43.778C193.654 43.9273 193.752 44.128 193.752 44.38C193.752 44.5013 193.724 44.618 193.668 44.73C193.622 44.8327 193.552 44.926 193.458 45.01C193.365 45.094 193.248 45.1593 193.108 45.206C192.978 45.2433 192.828 45.262 192.66 45.262H190.938V45.92ZM190.28 42.56V49H191.4V42.56H190.28ZM202.014 43.68L202.084 42.07L196.764 47.88L196.694 49.49L202.014 43.68ZM197.814 42.56H196.694V49.49L197.814 47.95V42.56ZM202.084 42.07L200.964 43.61V49H202.084V42.07ZM210.371 49H211.631L209.951 42.07L209.321 43.89L210.371 49ZM207.011 48.034L207.431 49.434L210.091 44.31L209.951 42.07L207.011 48.034ZM207.431 49.434L207.851 48.034L204.953 42.07L204.813 44.31L207.431 49.434ZM203.273 49H204.533L205.583 43.89L204.953 42.07L203.273 49ZM14.204 63.06H19.706C19.7153 63.004 19.72 62.948 19.72 62.892C19.72 62.836 19.72 62.78 19.72 62.724C19.72 62.0427 19.594 61.4593 19.342 60.974C19.09 60.4793 18.7353 60.0967 18.278 59.826C17.8207 59.5553 17.2887 59.42 16.682 59.42C16.1313 59.42 15.632 59.532 15.184 59.756C14.7453 59.98 14.386 60.2927 14.106 60.694C13.826 61.0953 13.6393 61.562 13.546 62.094C13.5273 62.206 13.5133 62.318 13.504 62.43C13.4947 62.542 13.49 62.6587 13.49 62.78C13.49 63.424 13.6207 64.0027 13.882 64.516C14.1527 65.02 14.5167 65.4167 14.974 65.706C15.4407 65.9953 15.9633 66.14 16.542 66.14C17.102 66.14 17.5687 66.0747 17.942 65.944C18.3153 65.804 18.6327 65.6127 18.894 65.37C19.1553 65.118 19.3933 64.8287 19.608 64.502L18.698 63.928C18.558 64.1613 18.39 64.3667 18.194 64.544C17.998 64.712 17.774 64.8473 17.522 64.95C17.2793 65.0433 16.9993 65.09 16.682 65.09C16.262 65.09 15.898 65.0013 15.59 64.824C15.282 64.6467 15.044 64.3853 14.876 64.04C14.708 63.6947 14.624 63.2747 14.624 62.78L14.652 62.36C14.652 61.9587 14.7407 61.6133 14.918 61.324C15.1047 61.0253 15.352 60.7967 15.66 60.638C15.968 60.4793 16.3087 60.4 16.682 60.4C17.0553 60.4 17.368 60.4747 17.62 60.624C17.8813 60.764 18.082 60.9647 18.222 61.226C18.3713 61.478 18.4647 61.772 18.502 62.108H14.204V63.06ZM21.3251 59.56V66H22.4451V60.61H24.7551V59.56H21.3251ZM25.1111 62.78C25.1111 63.424 25.2558 64.0027 25.5451 64.516C25.8438 65.02 26.2451 65.4167 26.7491 65.706C27.2531 65.9953 27.8178 66.14 28.4431 66.14C29.0778 66.14 29.6424 65.9953 30.1371 65.706C30.6411 65.4167 31.0378 65.02 31.3271 64.516C31.6258 64.0027 31.7751 63.424 31.7751 62.78C31.7751 62.1267 31.6258 61.548 31.3271 61.044C31.0378 60.54 30.6411 60.1433 30.1371 59.854C29.6424 59.5647 29.0778 59.42 28.4431 59.42C27.8178 59.42 27.2531 59.5647 26.7491 59.854C26.2451 60.1433 25.8438 60.54 25.5451 61.044C25.2558 61.548 25.1111 62.1267 25.1111 62.78ZM26.2451 62.78C26.2451 62.332 26.3384 61.9353 26.5251 61.59C26.7211 61.2353 26.9824 60.96 27.3091 60.764C27.6451 60.568 28.0231 60.47 28.4431 60.47C28.8631 60.47 29.2364 60.568 29.5631 60.764C29.8991 60.96 30.1604 61.2353 30.3471 61.59C30.5431 61.9353 30.6411 62.332 30.6411 62.78C30.6411 63.228 30.5431 63.6247 30.3471 63.97C30.1604 64.3153 29.8991 64.5907 29.5631 64.796C29.2364 64.992 28.8631 65.09 28.4431 65.09C28.0231 65.09 27.6451 64.992 27.3091 64.796C26.9824 64.5907 26.7211 64.3153 26.5251 63.97C26.3384 63.6247 26.2451 63.228 26.2451 62.78ZM38.1689 62.64V63.228H40.0309C40.2456 63.228 40.4276 63.2513 40.5769 63.298C40.7356 63.3353 40.8616 63.396 40.9549 63.48C41.0576 63.564 41.1323 63.6573 41.1789 63.76C41.2349 63.8627 41.2629 63.9793 41.2629 64.11C41.2629 64.362 41.1603 64.5767 40.9549 64.754C40.7589 64.9313 40.4509 65.02 40.0309 65.02H38.1689V66H40.3109C41.0483 66 41.5756 65.832 41.8929 65.496C42.2196 65.1507 42.3829 64.7353 42.3829 64.25C42.3829 63.83 42.2803 63.5033 42.0749 63.27C41.8696 63.0367 41.5896 62.8733 41.2349 62.78C40.8803 62.6867 40.4789 62.64 40.0309 62.64H38.1689ZM38.1689 62.92H39.8909C40.2923 62.92 40.6563 62.864 40.9829 62.752C41.3189 62.6307 41.5896 62.4533 41.7949 62.22C42.0003 61.9773 42.1029 61.674 42.1029 61.31C42.1029 60.89 42.0003 60.554 41.7949 60.302C41.5896 60.0407 41.3189 59.854 40.9829 59.742C40.6563 59.6207 40.2923 59.56 39.8909 59.56H38.1689V60.54H39.8909C40.2269 60.54 40.4929 60.6193 40.6889 60.778C40.8849 60.9273 40.9829 61.128 40.9829 61.38C40.9829 61.5013 40.9549 61.618 40.8989 61.73C40.8523 61.8327 40.7823 61.926 40.6889 62.01C40.5956 62.094 40.4789 62.1593 40.3389 62.206C40.2083 62.2433 40.0589 62.262 39.8909 62.262H38.1689V62.92ZM37.5109 59.56V66H38.6309V59.56H37.5109ZM48.556 62.78C48.556 62.332 48.6493 61.9353 48.836 61.59C49.032 61.2353 49.2933 60.96 49.62 60.764C49.956 60.568 50.334 60.47 50.754 60.47C51.0993 60.47 51.4213 60.526 51.72 60.638C52.028 60.7407 52.294 60.8807 52.518 61.058C52.742 61.2353 52.9006 61.4313 52.994 61.646V60.246C52.77 59.9847 52.448 59.784 52.028 59.644C51.6173 59.4947 51.1926 59.42 50.754 59.42C50.1286 59.42 49.564 59.5647 49.06 59.854C48.556 60.1433 48.1546 60.54 47.856 61.044C47.5666 61.548 47.422 62.1267 47.422 62.78C47.422 63.424 47.5666 64.0027 47.856 64.516C48.1546 65.02 48.556 65.4167 49.06 65.706C49.564 65.9953 50.1286 66.14 50.754 66.14C51.1926 66.14 51.6173 66.07 52.028 65.93C52.448 65.7807 52.77 65.5753 52.994 65.314V63.914C52.9006 64.1193 52.742 64.3153 52.518 64.502C52.294 64.6793 52.028 64.824 51.72 64.936C51.4213 65.0387 51.0993 65.09 50.754 65.09C50.334 65.09 49.956 64.992 49.62 64.796C49.2933 64.5907 49.032 64.3153 48.836 63.97C48.6493 63.6247 48.556 63.228 48.556 62.78ZM55.3955 62.64V63.228H57.2575C57.4722 63.228 57.6542 63.2513 57.8035 63.298C57.9622 63.3353 58.0882 63.396 58.1815 63.48C58.2842 63.564 58.3588 63.6573 58.4055 63.76C58.4615 63.8627 58.4895 63.9793 58.4895 64.11C58.4895 64.362 58.3868 64.5767 58.1815 64.754C57.9855 64.9313 57.6775 65.02 57.2575 65.02H55.3955V66H57.5375C58.2748 66 58.8022 65.832 59.1195 65.496C59.4462 65.1507 59.6095 64.7353 59.6095 64.25C59.6095 63.83 59.5068 63.5033 59.3015 63.27C59.0962 63.0367 58.8162 62.8733 58.4615 62.78C58.1068 62.6867 57.7055 62.64 57.2575 62.64H55.3955ZM55.3955 62.92H57.1175C57.5188 62.92 57.8828 62.864 58.2095 62.752C58.5455 62.6307 58.8162 62.4533 59.0215 62.22C59.2268 61.9773 59.3295 61.674 59.3295 61.31C59.3295 60.89 59.2268 60.554 59.0215 60.302C58.8162 60.0407 58.5455 59.854 58.2095 59.742C57.8828 59.6207 57.5188 59.56 57.1175 59.56H55.3955V60.54H57.1175C57.4535 60.54 57.7195 60.6193 57.9155 60.778C58.1115 60.9273 58.2095 61.128 58.2095 61.38C58.2095 61.5013 58.1815 61.618 58.1255 61.73C58.0788 61.8327 58.0088 61.926 57.9155 62.01C57.8222 62.094 57.7055 62.1593 57.5655 62.206C57.4348 62.2433 57.2855 62.262 57.1175 62.262H55.3955V62.92ZM54.7375 59.56V66H55.8575V59.56H54.7375ZM60.5213 62.78C60.5213 63.424 60.6659 64.0027 60.9552 64.516C61.2539 65.02 61.6553 65.4167 62.1593 65.706C62.6633 65.9953 63.2279 66.14 63.8533 66.14C64.4879 66.14 65.0526 65.9953 65.5473 65.706C66.0513 65.4167 66.4479 65.02 66.7373 64.516C67.0359 64.0027 67.1853 63.424 67.1853 62.78C67.1853 62.1267 67.0359 61.548 66.7373 61.044C66.4479 60.54 66.0513 60.1433 65.5473 59.854C65.0526 59.5647 64.4879 59.42 63.8533 59.42C63.2279 59.42 62.6633 59.5647 62.1593 59.854C61.6553 60.1433 61.2539 60.54 60.9552 61.044C60.6659 61.548 60.5213 62.1267 60.5213 62.78ZM61.6553 62.78C61.6553 62.332 61.7486 61.9353 61.9353 61.59C62.1313 61.2353 62.3926 60.96 62.7193 60.764C63.0553 60.568 63.4333 60.47 63.8533 60.47C64.2733 60.47 64.6466 60.568 64.9733 60.764C65.3093 60.96 65.5706 61.2353 65.7573 61.59C65.9533 61.9353 66.0513 62.332 66.0513 62.78C66.0513 63.228 65.9533 63.6247 65.7573 63.97C65.5706 64.3153 65.3093 64.5907 64.9733 64.796C64.6466 64.992 64.2733 65.09 63.8533 65.09C63.4333 65.09 63.0553 64.992 62.7193 64.796C62.3926 64.5907 62.1313 64.3153 61.9353 63.97C61.7486 63.6247 61.6553 63.228 61.6553 62.78ZM68.8778 63.06H74.3798C74.3892 63.004 74.3938 62.948 74.3938 62.892C74.3938 62.836 74.3938 62.78 74.3938 62.724C74.3938 62.0427 74.2678 61.4593 74.0158 60.974C73.7638 60.4793 73.4092 60.0967 72.9518 59.826C72.4945 59.5553 71.9625 59.42 71.3558 59.42C70.8052 59.42 70.3058 59.532 69.8578 59.756C69.4192 59.98 69.0598 60.2927 68.7798 60.694C68.4998 61.0953 68.3132 61.562 68.2198 62.094C68.2012 62.206 68.1872 62.318 68.1778 62.43C68.1685 62.542 68.1638 62.6587 68.1638 62.78C68.1638 63.424 68.2945 64.0027 68.5558 64.516C68.8265 65.02 69.1905 65.4167 69.6478 65.706C70.1145 65.9953 70.6372 66.14 71.2158 66.14C71.7758 66.14 72.2425 66.0747 72.6158 65.944C72.9892 65.804 73.3065 65.6127 73.5678 65.37C73.8292 65.118 74.0672 64.8287 74.2818 64.502L73.3718 63.928C73.2318 64.1613 73.0638 64.3667 72.8678 64.544C72.6718 64.712 72.4478 64.8473 72.1958 64.95C71.9532 65.0433 71.6732 65.09 71.3558 65.09C70.9358 65.09 70.5718 65.0013 70.2638 64.824C69.9558 64.6467 69.7178 64.3853 69.5498 64.04C69.3818 63.6947 69.2978 63.2747 69.2978 62.78L69.3258 62.36C69.3258 61.9587 69.4145 61.6133 69.5918 61.324C69.7785 61.0253 70.0258 60.7967 70.3338 60.638C70.6418 60.4793 70.9825 60.4 71.3558 60.4C71.7292 60.4 72.0418 60.4747 72.2938 60.624C72.5552 60.764 72.7558 60.9647 72.8958 61.226C73.0452 61.478 73.1385 61.772 73.1758 62.108H68.8778V63.06ZM86.2442 66H87.5042L85.8242 59.07L85.1942 60.89L86.2442 66ZM82.8842 65.034L83.3042 66.434L85.9642 61.31L85.8242 59.07L82.8842 65.034ZM83.3042 66.434L83.7242 65.034L80.8262 59.07L80.6862 61.31L83.3042 66.434ZM79.1462 66H80.4062L81.4562 60.89L80.8262 59.07L79.1462 66ZM88.7841 63.06H94.2861C94.2954 63.004 94.3001 62.948 94.3001 62.892C94.3001 62.836 94.3001 62.78 94.3001 62.724C94.3001 62.0427 94.1741 61.4593 93.9221 60.974C93.6701 60.4793 93.3154 60.0967 92.8581 59.826C92.4007 59.5553 91.8687 59.42 91.2621 59.42C90.7114 59.42 90.2121 59.532 89.7641 59.756C89.3254 59.98 88.9661 60.2927 88.6861 60.694C88.4061 61.0953 88.2194 61.562 88.1261 62.094C88.1074 62.206 88.0934 62.318 88.0841 62.43C88.0747 62.542 88.0701 62.6587 88.0701 62.78C88.0701 63.424 88.2007 64.0027 88.4621 64.516C88.7327 65.02 89.0967 65.4167 89.5541 65.706C90.0207 65.9953 90.5434 66.14 91.1221 66.14C91.6821 66.14 92.1487 66.0747 92.5221 65.944C92.8954 65.804 93.2127 65.6127 93.4741 65.37C93.7354 65.118 93.9734 64.8287 94.1881 64.502L93.2781 63.928C93.1381 64.1613 92.9701 64.3667 92.7741 64.544C92.5781 64.712 92.3541 64.8473 92.1021 64.95C91.8594 65.0433 91.5794 65.09 91.2621 65.09C90.8421 65.09 90.4781 65.0013 90.1701 64.824C89.8621 64.6467 89.6241 64.3853 89.4561 64.04C89.2881 63.6947 89.2041 63.2747 89.2041 62.78L89.2321 62.36C89.2321 61.9587 89.3207 61.6133 89.4981 61.324C89.6847 61.0253 89.9321 60.7967 90.2401 60.638C90.5481 60.4793 90.8887 60.4 91.2621 60.4C91.6354 60.4 91.9481 60.4747 92.2001 60.624C92.4614 60.764 92.6621 60.9647 92.8021 61.226C92.9514 61.478 93.0447 61.772 93.0821 62.108H88.7841V63.06ZM96.4932 63.13H101.253V62.08H96.4932V63.13ZM100.525 59.56V66H101.645V59.56H100.525ZM95.8352 59.56V66H96.9552V59.56H95.8352ZM104.409 63.13H106.789V62.08H104.409V63.13ZM103.751 59.56V66H104.871V59.56H103.751ZM105.991 62.78C105.991 63.424 106.136 64.0027 106.425 64.516C106.724 65.02 107.125 65.4167 107.629 65.706C108.133 65.9953 108.698 66.14 109.323 66.14C109.958 66.14 110.523 65.9953 111.017 65.706C111.521 65.4167 111.918 65.02 112.207 64.516C112.506 64.0027 112.655 63.424 112.655 62.78C112.655 62.1267 112.506 61.548 112.207 61.044C111.918 60.54 111.521 60.1433 111.017 59.854C110.523 59.5647 109.958 59.42 109.323 59.42C108.698 59.42 108.133 59.5647 107.629 59.854C107.125 60.1433 106.724 60.54 106.425 61.044C106.136 61.548 105.991 62.1267 105.991 62.78ZM107.125 62.78C107.125 62.332 107.219 61.9353 107.405 61.59C107.601 61.2353 107.863 60.96 108.189 60.764C108.525 60.568 108.903 60.47 109.323 60.47C109.743 60.47 110.117 60.568 110.443 60.764C110.779 60.96 111.041 61.2353 111.227 61.59C111.423 61.9353 111.521 62.332 111.521 62.78C111.521 63.228 111.423 63.6247 111.227 63.97C111.041 64.3153 110.779 64.5907 110.443 64.796C110.117 64.992 109.743 65.09 109.323 65.09C108.903 65.09 108.525 64.992 108.189 64.796C107.863 64.5907 107.601 64.3153 107.405 63.97C107.219 63.6247 107.125 63.228 107.125 62.78ZM118.97 59C118.97 59.3547 118.863 59.7 118.648 60.036C118.434 60.3627 118.126 60.6333 117.724 60.848C117.323 61.0627 116.842 61.17 116.282 61.17H115.918L116.198 63.62H117.038L117.136 61.94C117.659 61.912 118.144 61.7673 118.592 61.506C119.04 61.2353 119.404 60.8853 119.684 60.456C119.964 60.0173 120.104 59.532 120.104 59C120.104 58.58 120.025 58.1927 119.866 57.838C119.717 57.4833 119.502 57.1753 119.222 56.914C118.952 56.6433 118.63 56.4333 118.256 56.284C117.892 56.1347 117.491 56.06 117.052 56.06C116.502 56.06 116.035 56.13 115.652 56.27C115.279 56.4007 114.962 56.592 114.7 56.844C114.439 57.0867 114.201 57.3713 113.986 57.698L114.896 58.272C115.111 57.9173 115.382 57.6373 115.708 57.432C116.044 57.2173 116.446 57.11 116.912 57.11C117.332 57.11 117.696 57.1847 118.004 57.334C118.312 57.4833 118.55 57.698 118.718 57.978C118.886 58.258 118.97 58.5987 118.97 59ZM115.876 65.44C115.876 65.6453 115.951 65.8273 116.1 65.986C116.259 66.1353 116.441 66.21 116.646 66.21C116.861 66.21 117.043 66.1353 117.192 65.986C117.342 65.8273 117.416 65.6453 117.416 65.44C117.416 65.2253 117.342 65.0433 117.192 64.894C117.043 64.7447 116.861 64.67 116.646 64.67C116.441 64.67 116.259 64.7447 116.1 64.894C115.951 65.0433 115.876 65.2253 115.876 65.44Z" fill="#08202F"/>
</svg>
