<svg width="16" height="16" viewBox="0 0 16 16" fill="none" xmlns="http://www.w3.org/2000/svg">
<path fill-rule="evenodd" clip-rule="evenodd" d="M7.9611 0C8.1355 0 8.29944 0.0737104 8.42684 0.201742L8.66885 0.444981C8.79625 0.573018 8.86908 0.73723 8.86908 0.911331C8.86908 1.08543 8.79625 1.24964 8.66885 1.37768L2.92599 7.14948H15.3427C15.5257 7.14948 15.6881 7.23897 15.7998 7.35122C15.9115 7.46355 16 7.62622 16 7.80888V8.15637C16 8.54525 15.672 8.81577 15.3427 8.81577H2.9237L8.66885 14.6223C8.79619 14.7503 8.86908 14.9146 8.86908 15.0887C8.86908 15.2628 8.79625 15.427 8.66885 15.555L8.42684 15.7983C8.29944 15.9263 8.1355 16 7.9611 16C7.78671 16 7.62276 15.9263 7.49537 15.7983L0.200227 8.46635C0.0728323 8.33831 0 8.1741 0 8C0 7.8259 0.0728323 7.66169 0.200227 7.53365L7.49537 0.201742C7.62276 0.0737104 7.78671 0 7.9611 0Z" fill="#08202F"/>
</svg>
