<svg class="work-time" width="188" height="188" viewBox="0 0 188 188" fill="none" xmlns="http://www.w3.org/2000/svg">
      <circle cx="94" cy="94" r="92" fill="#386B6F" stroke="white" stroke-width="4"/>
      <circle opacity="0.2" cx="94.0001" cy="94" r="61.8926" stroke="white"/>
      <text id="text843" x="93.876137" y="85.374115" fill="#ffffff" font-family="Jost" font-weight="400" font-size="21.333px" text-anchor="middle" style="line-height:1.25" xml:space="preserve">
        <tspan id="tspan841" x="93.876137" y="85.374115" text-align="center">
          
        </tspan>
        <tspan id="tspan845" x="93.876137" y="112.04074" text-align="center">
          
        </tspan>
      </text>
      <path fill-rule="evenodd" clip-rule="evenodd" d="M166.167 91.25L165.999 89.3363L169.167 86.2853L165.758 86.5819L165.623 85.0452L172.317 84.4628L172.452 85.9994L170.092 86.2048L172.667 88.4495L172.836 90.3776L169.818 87.7332L166.167 91.25ZM171.07 81.3474C170.811 81.6407 170.461 81.8306 170.022 81.9168L165.321 82.8408L165.021 81.3274L165.967 81.1416C165.905 81.121 165.842 81.1018 165.782 81.074C165.438 80.914 165.15 80.6643 164.919 80.324C164.688 79.9839 164.527 79.5853 164.437 79.1284C164.352 78.7001 164.352 78.2972 164.436 77.9198C164.519 77.5422 164.692 77.2215 164.952 76.9578C165.213 76.6938 165.567 76.5182 166.017 76.4297C166.466 76.3415 166.875 76.3798 167.245 76.5442C167.615 76.7088 167.928 76.9859 168.184 77.3758C168.44 77.7655 168.625 78.2459 168.738 78.8171C168.813 79.1976 168.833 79.5474 168.797 79.8659C168.764 80.1561 168.71 80.405 168.637 80.6169L169.55 80.4373C169.856 80.3773 170.067 80.2045 170.184 79.9196C170.302 79.6345 170.324 79.3111 170.253 78.9494C170.191 78.6353 170.095 78.3549 169.967 78.1081C169.839 77.8613 169.705 77.6502 169.566 77.4749C169.427 77.2994 169.314 77.1661 169.227 77.0746L170.206 76.2294C170.445 76.4886 170.697 76.8301 170.959 77.2532C171.222 77.6763 171.411 78.1827 171.528 78.7729C171.636 79.3154 171.651 79.8068 171.575 80.247C171.498 80.6872 171.33 81.054 171.07 81.3474ZM167.794 79.2398C167.73 78.9162 167.631 78.6538 167.497 78.4529C167.362 78.2515 167.201 78.1106 167.011 78.0292C166.821 77.9478 166.611 77.9297 166.382 77.9748C166.182 78.0142 166.025 78.1017 165.913 78.2375C165.801 78.3732 165.727 78.5409 165.692 78.7407C165.658 78.9403 165.662 79.1496 165.705 79.3686C165.771 79.7017 165.883 79.9911 166.041 80.2371C166.199 80.4828 166.407 80.6594 166.667 80.7667C166.926 80.8738 167.252 80.889 167.644 80.812L167.754 80.7902C167.8 80.634 167.834 80.4791 167.853 80.3259C167.893 80.0014 167.873 79.6395 167.794 79.2398ZM169.282 73.197C169.076 73.4843 168.81 73.6782 168.484 73.7789C168.019 73.9225 167.569 73.8279 167.134 73.4951C167.028 73.4141 166.929 73.3183 166.835 73.2085C166.833 73.4176 166.813 73.6152 166.77 73.7981C166.631 74.3843 166.264 74.7696 165.669 74.9535C165.25 75.0829 164.853 75.0761 164.477 74.9333C164.101 74.7904 163.768 74.5401 163.479 74.1827C163.189 73.8251 162.966 73.3964 162.81 72.8962C162.556 72.0807 162.562 71.3704 162.827 70.7654C163.093 70.1602 163.544 69.7186 164.181 69.4403L164.64 70.9137C164.372 71.0676 164.166 71.2757 164.024 71.5383C163.881 71.8007 163.872 72.1312 163.996 72.5296C164.077 72.7889 164.183 73 164.316 73.1624C164.448 73.3247 164.599 73.4329 164.769 73.4872C164.938 73.5412 165.111 73.541 165.288 73.4864C165.493 73.4232 165.647 73.3198 165.75 73.1762C165.853 73.0324 165.911 72.8497 165.923 72.6274C165.936 72.4051 165.897 72.1505 165.808 71.8632L166.128 71.7641L166.475 71.6572L166.547 71.6349L166.798 71.5571C166.914 71.9278 167.069 72.1744 167.265 72.2964C167.462 72.4189 167.667 72.4468 167.881 72.3808C168.094 72.3147 168.241 72.1781 168.319 71.9711C168.397 71.7639 168.393 71.5214 168.306 71.2435C168.234 71.0118 168.13 70.8309 167.992 70.7007C167.855 70.5704 167.706 70.4867 167.547 70.4498C167.388 70.4126 167.233 70.4171 167.085 70.463L166.639 69.0314C167.039 68.9078 167.429 68.9014 167.811 69.0122C168.192 69.123 168.534 69.3373 168.837 69.6551C169.139 69.9728 169.366 70.3726 169.516 70.8546C169.657 71.3084 169.705 71.7408 169.66 72.1509C169.614 72.5611 169.488 72.9098 169.282 73.197ZM160.046 64.743L159.267 63.2602L161.989 61.0577L157.545 60.9547L160.017 57.2981L156.647 58.2698L155.868 56.7868L163.142 55.0989L159.903 59.7307L165.593 59.7669L160.046 64.743ZM158.146 54.0712C158.098 54.1043 158.044 54.1416 157.984 54.183C157.924 54.2244 157.855 54.2658 157.778 54.3075L154.805 50.0242C154.552 50.2362 154.357 50.4601 154.224 50.6959C154.043 51.0152 153.968 51.3378 153.999 51.6645C154.03 51.9908 154.151 52.3056 154.361 52.609C154.538 52.8642 154.731 53.0647 154.939 53.2109C155.147 53.3566 155.369 53.4598 155.607 53.5205C155.844 53.5809 156.087 53.6027 156.335 53.585L156.671 55.0163C156.239 55.0424 155.828 55.0132 155.438 54.9281C155.047 54.8432 154.672 54.6739 154.313 54.4203C153.953 54.1663 153.599 53.7883 153.25 53.2855C152.863 52.7269 152.645 52.1486 152.597 51.5506C152.549 50.9528 152.663 50.3876 152.939 49.8555C153.215 49.3234 153.63 48.8671 154.182 48.4864C154.286 48.4148 154.389 48.3497 154.491 48.2916C154.592 48.2331 154.697 48.1789 154.804 48.1288C155.316 47.894 155.829 47.7799 156.342 47.7861C156.855 47.7924 157.347 47.9286 157.816 48.1954C158.285 48.4619 158.7 48.8544 159.06 49.3733C159.459 49.948 159.686 50.5192 159.743 51.0877C159.8 51.6557 159.694 52.1942 159.426 52.7036C159.158 53.2126 158.731 53.6685 158.146 54.0712ZM158.394 50.8579C158.369 50.5919 158.26 50.3192 158.066 50.0399C157.867 49.7527 157.625 49.536 157.34 49.3901C157.055 49.2441 156.749 49.187 156.421 49.2179C156.188 49.24 155.956 49.3127 155.726 49.4313L157.715 52.2984C157.949 52.0899 158.127 51.8643 158.249 51.6213C158.37 51.3784 158.419 51.124 158.394 50.8579ZM153.914 45.8744L150.301 49.0091L149.284 47.8458L150.011 47.215C149.947 47.2282 149.883 47.2424 149.817 47.2482C149.439 47.2804 149.064 47.2066 148.694 47.0264C148.323 46.8461 147.984 46.5804 147.677 46.2292C147.389 45.9 147.188 45.5508 147.072 45.1819C146.956 44.8131 146.945 44.4494 147.038 44.0915C147.132 43.7335 147.352 43.4048 147.697 43.1054C148.042 42.8059 148.416 42.6356 148.82 42.5946C149.223 42.5538 149.633 42.6385 150.05 42.8494C150.466 43.0603 150.867 43.3852 151.25 43.8242C151.506 44.1167 151.698 44.4104 151.826 44.7044C151.943 44.9724 152.02 45.215 152.063 45.435L152.765 44.8259C153 44.622 153.097 44.3672 153.056 44.0619C153.015 43.7566 152.873 43.4649 152.63 43.1868C152.419 42.9454 152.196 42.7495 151.962 42.5993C151.727 42.4491 151.506 42.3323 151.297 42.2493C151.089 42.1663 150.924 42.1068 150.802 42.0709L151.229 40.8521C151.566 40.9579 151.955 41.1291 152.394 41.3656C152.833 41.6021 153.251 41.9471 153.648 42.4007C154.012 42.8177 154.271 43.2362 154.425 43.6559C154.579 44.0755 154.617 44.477 154.538 44.8601C154.46 45.2433 154.252 45.5815 153.914 45.8744ZM151.238 45.5718C151.11 45.2705 150.912 44.9666 150.644 44.6593C150.426 44.4104 150.209 44.2322 149.992 44.1245C149.775 44.0168 149.564 43.9749 149.359 43.9984C149.154 44.0223 148.963 44.1105 148.787 44.2633C148.632 44.3972 148.541 44.5507 148.512 44.724C148.482 44.8974 148.502 45.0793 148.572 45.2698C148.642 45.4602 148.75 45.6394 148.897 45.8077C149.121 46.0639 149.363 46.2594 149.623 46.394C149.882 46.5287 150.152 46.5783 150.43 46.5425C150.709 46.5066 150.999 46.3583 151.3 46.0969L151.385 46.0232C151.347 45.8648 151.298 45.7138 151.238 45.5718ZM145.846 43.8637L144.603 42.7377L146.4 39.7372L142.191 41.1623L143.25 36.8823L140.421 38.9487L139.178 37.8227L145.426 33.7467L143.983 39.2055L149.338 37.291L145.846 43.8637ZM137.951 36.9586L136.684 36.0711L138.898 32.9361L132.662 33.8752L136.823 27.9836L138.09 28.8712L135.876 32.0062L142.111 31.0671L137.951 36.9586ZM129.483 31.4218L130.848 28.8809L127.821 27.2679L126.456 29.8087L125.091 29.0811L128.261 23.1785L129.626 23.9059L128.441 26.1131L131.468 27.7261L132.653 25.519L134.018 26.2466L130.849 32.1492L129.483 31.4218ZM122.881 28.0841L121.437 27.5271L122.826 23.9526L117.002 26.3624L119.613 19.6451L121.057 20.2021L119.667 23.7767L125.492 21.3666L122.881 28.0841ZM117.825 161.917L119.827 168.307L118.349 168.767L117.052 169.17C116.652 169.294 116.269 169.35 115.903 169.336C115.537 169.323 115.211 169.221 114.927 169.03C114.643 168.839 114.435 168.535 114.305 168.118C114.191 167.757 114.2 167.427 114.331 167.127C114.457 166.837 114.662 166.586 114.941 166.372C114.864 166.38 114.787 166.388 114.712 166.391C114.33 166.408 114 166.333 113.723 166.165C113.446 165.997 113.242 165.704 113.112 165.288C112.961 164.806 112.993 164.346 113.208 163.909C113.422 163.471 113.897 163.138 114.632 162.91L116.347 162.376V162.376L117.825 161.917ZM115.734 167.552C115.801 167.765 115.937 167.915 116.143 168.004C116.35 168.092 116.597 168.092 116.885 168.002L118.001 167.655L117.531 166.155L116.415 166.502C116.266 166.548 116.142 166.607 116.042 166.679C115.942 166.75 115.864 166.835 115.808 166.934C115.753 167.033 115.718 167.135 115.705 167.241C115.692 167.346 115.702 167.45 115.734 167.552ZM115.44 163.878C115.068 163.993 114.823 164.156 114.705 164.366C114.587 164.575 114.561 164.786 114.628 164.999C114.666 165.119 114.722 165.216 114.796 165.29C114.87 165.364 114.958 165.425 115.06 165.475C115.163 165.524 115.287 165.546 115.433 165.542C115.58 165.537 115.746 165.505 115.932 165.448L117.187 165.057L116.695 163.488L115.44 163.878ZM115.289 23.7499C114.866 24.1891 114.381 24.4821 113.831 24.6293C113.282 24.7766 112.724 24.7789 112.157 24.6366C111.609 24.499 111.165 24.2398 110.825 23.8593C110.561 23.565 110.373 23.2129 110.255 22.8057L109.19 27.0131L107.646 26.6254L110.075 17.03L111.619 17.4177L111.341 18.5164C111.638 18.2153 111.971 17.9936 112.344 17.8552C112.826 17.676 113.341 17.6552 113.889 17.7928C114.456 17.9351 114.945 18.2033 115.358 18.597C115.77 18.9908 116.059 19.476 116.225 20.0528C116.39 20.6297 116.38 21.2848 116.194 22.0186C116.013 22.7336 115.711 23.3106 115.289 23.7499ZM114.619 20.4448C114.517 20.0942 114.339 19.8043 114.086 19.5755C113.832 19.3468 113.526 19.1874 113.167 19.0973C112.865 19.0215 112.553 19.0255 112.23 19.1097C111.907 19.1936 111.616 19.3631 111.356 19.6179C111.095 19.8729 110.909 20.2211 110.797 20.6633C110.685 21.1056 110.683 21.5001 110.791 21.8474C110.899 22.1949 111.075 22.4816 111.319 22.708C111.563 22.9342 111.836 23.0854 112.139 23.1612C112.498 23.2514 112.843 23.2533 113.177 23.1668C113.51 23.0805 113.804 22.9093 114.06 22.6534C114.316 22.3974 114.498 22.053 114.608 21.6202C114.717 21.1876 114.721 20.7958 114.619 20.4448ZM104.277 22.843L105.203 14.2923L100.294 13.7645L99.3676 22.3152L97.6249 22.1279L98.7223 12L107.117 12.9027L106.02 23.0304L104.277 22.843ZM85.8429 25.7893L87.2846 21.6739L84.1017 16.001L85.9074 15.8566L88.015 20.053L89.4021 15.5773L91.0912 15.4422L87.5175 25.6554L85.8429 25.7893ZM82.145 23.1058L78.7822 20.2697L79.4176 23.6193L77.8961 23.9057L76.6483 17.3279L78.17 17.0415L78.6097 19.3604L80.5957 16.585L82.5049 16.2254L80.1638 19.4801L84.0397 22.7492L82.145 23.1058ZM78.1446 160.887L79.6847 161.289L77.1628 170.861L75.6225 170.458L75.9113 169.362C75.6116 169.66 75.2755 169.879 74.9015 170.014C74.4175 170.188 73.9024 170.204 73.356 170.061C72.7908 169.913 72.3039 169.64 71.8952 169.243C71.4866 168.845 71.2024 168.357 71.0426 167.778C70.883 167.2 70.8994 166.545 71.0922 165.813C71.2802 165.1 71.5877 164.526 72.0142 164.091C72.4412 163.655 72.9299 163.367 73.4807 163.225C74.0316 163.083 74.5895 163.087 75.1547 163.234C75.7012 163.377 76.1426 163.641 76.4796 164.025C76.74 164.321 76.925 164.675 77.0387 165.084L78.1446 160.887ZM76.493 166.037C76.3885 165.688 76.2154 165.4 75.9735 165.171C75.7318 164.942 75.4602 164.789 75.1586 164.71C74.8008 164.616 74.4549 164.611 74.1207 164.694C73.7867 164.777 73.4908 164.946 73.2325 165.199C72.9746 165.453 72.7885 165.795 72.6747 166.227C72.561 166.658 72.5536 167.05 72.6521 167.402C72.7508 167.754 72.9258 168.045 73.1769 168.276C73.4282 168.508 73.7327 168.67 74.0905 168.764C74.3921 168.842 74.7045 168.841 75.0277 168.76C75.3512 168.679 75.6444 168.513 75.9072 168.261C76.17 168.008 76.3594 167.662 76.4757 167.221C76.5919 166.78 76.5976 166.385 76.493 166.037ZM74.0113 24.9468L71.6897 25.6443L70.8085 25.909L68.8682 19.5001L70.3506 19.0547L71.6515 18.6639C72.0522 18.5436 72.4358 18.4917 72.8021 18.5082C73.1681 18.5251 73.4924 18.6302 73.775 18.8238C74.0573 19.018 74.262 19.3235 74.3884 19.7415C74.498 20.1038 74.4861 20.4341 74.3529 20.7327C74.2237 21.0215 74.0168 21.2708 73.7356 21.4819C73.8127 21.4745 73.8896 21.4677 73.9643 21.4649C74.3467 21.4515 74.6756 21.5301 74.951 21.7005C75.2263 21.8711 75.4275 22.1654 75.5541 22.5834C75.7002 23.0663 75.6639 23.5258 75.4448 23.9613C75.2257 24.3972 74.7478 24.7255 74.0113 24.9468ZM72.9537 20.2942C72.889 20.0806 72.7539 19.9287 72.5487 19.8383C72.3433 19.7481 72.0959 19.7464 71.807 19.833L70.6881 20.1693L71.1437 21.6741L72.2627 21.3378C72.4116 21.2931 72.5368 21.2352 72.6373 21.1645C72.7379 21.0938 72.8166 21.0094 72.8735 20.9111C72.9301 20.8131 72.9654 20.7113 72.9793 20.6058C72.9931 20.5004 72.9847 20.3964 72.9537 20.2942ZM74.0349 22.8574C73.9984 22.7367 73.9434 22.6392 73.8701 22.5649C73.7965 22.4907 73.7091 22.4285 73.6075 22.3778C73.5056 22.3274 73.3814 22.3039 73.235 22.3072C73.0887 22.3109 72.9221 22.3405 72.7358 22.3964L71.4769 22.7746L71.9537 24.349L73.2124 23.9708C73.5852 23.8589 73.8318 23.6987 73.9518 23.4902C74.072 23.2821 74.0997 23.0712 74.0349 22.8574ZM66.7672 26.4054C66.7598 26.4701 66.7536 26.535 66.7386 26.5991C66.6516 26.9676 66.4647 27.299 66.1773 27.5938C65.8901 27.8886 65.5312 28.1267 65.1006 28.308C64.697 28.4779 64.3009 28.5603 63.9129 28.5552C63.5249 28.5503 63.1747 28.4475 62.8623 28.2472C62.55 28.047 62.305 27.737 62.1267 27.3168C61.9483 26.8969 61.9025 26.4897 61.9887 26.0952C62.0752 25.7009 62.2837 25.339 62.6148 25.01C62.9454 24.6811 63.3801 24.4032 63.9184 24.1766C64.2771 24.0256 64.617 23.9353 64.9373 23.9055C65.2292 23.8785 65.4847 23.8806 65.7079 23.9086L65.3452 23.0543C65.2239 22.7684 65.0111 22.5974 64.7071 22.541C64.4032 22.4849 64.0805 22.5284 63.7399 22.6718C63.4437 22.7966 63.1876 22.9466 62.9712 23.1219C62.7548 23.2976 62.5746 23.4708 62.4306 23.642C62.2864 23.8132 62.1784 23.951 62.1064 24.055L61.0763 23.2722C61.2823 22.9855 61.5666 22.6709 61.9288 22.3286C62.2911 21.9864 62.7502 21.6984 63.3066 21.464C63.8179 21.2486 64.2976 21.1336 64.7459 21.1186C65.194 21.1037 65.5887 21.1929 65.9299 21.3862C66.2711 21.5798 66.5288 21.882 66.7033 22.2929L68.5691 26.6893L67.1428 27.29L66.7672 26.4054ZM66.1018 24.837L66.0579 24.7336C65.895 24.7206 65.736 24.7194 65.5815 24.7323C65.2545 24.7595 64.903 24.8522 64.5261 25.0108C64.2211 25.1392 63.9835 25.2894 63.8132 25.4611C63.6429 25.633 63.5372 25.8198 63.4958 26.0213C63.4546 26.2231 63.4794 26.4312 63.5705 26.6456C63.6501 26.8333 63.7679 26.968 63.9242 27.0496C64.0805 27.1314 64.2604 27.1688 64.4636 27.1621C64.6671 27.1555 64.8718 27.1087 65.0782 27.0218C65.3921 26.8897 65.6539 26.7216 65.8634 26.5175C66.0727 26.3134 66.2036 26.0738 66.2563 25.799C66.3086 25.5242 66.2573 25.2035 66.1018 24.837ZM59.6974 30.7804L57.2092 26.0826L56.0077 26.7142L55.36 25.4914L59.1198 23.5153L59.7674 24.7379L58.5788 25.3627L61.0669 30.0606L59.6974 30.7804ZM53.4271 28.2112C53.1286 28.287 52.8482 28.4087 52.586 28.5764C52.2583 28.7863 52.0113 29.0541 51.8451 29.3794C51.6789 29.7049 51.6045 30.0522 51.6229 30.4211C51.6408 30.7902 51.7631 31.1503 51.9894 31.5011C52.2159 31.8521 52.4937 32.1125 52.8232 32.2821C53.1524 32.4518 53.5004 32.5292 53.8668 32.5136C54.233 32.4983 54.58 32.3857 54.9078 32.1758C55.1862 31.9976 55.4187 31.7881 55.6052 31.5477C55.7915 31.3073 55.933 31.0554 56.0293 30.7919C56.1257 30.5286 56.1608 30.2783 56.1353 30.0408L57.075 31.4978C57.0048 31.8194 56.8384 32.1451 56.5762 32.4743C56.3138 32.8036 55.9821 33.0968 55.5806 33.3538C55.0071 33.7209 54.4087 33.9282 53.7852 33.9755C53.1617 34.0229 52.5714 33.9107 52.014 33.6389C51.4568 33.3672 50.9939 32.9456 50.6254 32.3743C50.2516 31.7949 50.0577 31.1981 50.0438 30.5843C50.0298 29.9706 50.1741 29.3913 50.4763 28.8457C50.7787 28.3006 51.2165 27.8443 51.7903 27.4772C52.1916 27.2203 52.5971 27.0415 53.0068 26.9406C53.4165 26.8399 53.7802 26.8205 54.0978 26.8823L55.0455 28.3513C54.8342 28.2215 54.5863 28.1467 54.3016 28.1269C54.017 28.1074 53.7255 28.1354 53.4271 28.2112ZM49.8177 36.7989C49.5813 37.3712 49.1948 37.8742 48.6579 38.3082C48.1284 38.7361 47.5566 39.008 46.9423 39.1234C46.3278 39.2393 45.7304 39.1913 45.1502 38.9792C44.57 38.7674 44.0651 38.3978 43.6355 37.8705C43.1999 37.3357 42.9391 36.7655 42.8536 36.1601C42.7678 35.5547 42.8452 34.9643 43.0852 34.389C43.3251 33.814 43.7099 33.3124 44.2393 32.8844C44.7762 32.4504 45.35 32.1772 45.9606 32.0645C46.5712 31.9519 47.1651 31.9996 47.7424 32.2077C48.3194 32.4158 48.8259 32.7872 49.2617 33.3221C49.6913 33.8493 49.9504 34.4178 50.0391 35.0269C50.1277 35.6363 50.054 36.2269 49.8177 36.7989ZM48.4934 35.358C48.4302 35.0033 48.2666 34.6638 48.0026 34.3399C47.7388 34.0161 47.4374 33.7848 47.0988 33.6462C46.7601 33.5077 46.4183 33.4655 46.0736 33.5193C45.7286 33.5732 45.4087 33.7193 45.1137 33.9578C44.8189 34.1962 44.6094 34.478 44.4855 34.8032C44.3615 35.1283 44.3328 35.4702 44.3991 35.8287C44.4656 36.1873 44.6309 36.5288 44.8946 36.8525C45.1586 37.1765 45.4582 37.406 45.7938 37.5407C46.1294 37.6754 46.4711 37.7177 46.819 37.6676C47.167 37.6177 47.4885 37.4731 47.7833 37.2346C48.0783 36.9963 48.2863 36.7128 48.407 36.3838C48.528 36.0549 48.5568 35.7131 48.4934 35.358ZM43.7633 40.4046L45.6974 42.2431L44.6385 43.3485L43.6872 42.4444L39.9052 46.3923L40.8565 47.2964L39.747 48.4545L37.8131 46.616L38.6625 45.7294L36.5397 39.4715L42.9231 41.2818L43.7633 40.4046ZM38.5478 41.3804L39.8163 44.5248L41.7601 42.4957L38.5478 41.3804ZM33.3658 138.985C33.2613 139.056 33.1577 139.12 33.0553 139.177C32.9532 139.235 32.8483 139.288 32.7404 139.337C32.2263 139.567 31.7127 139.676 31.1992 139.665C30.6861 139.654 30.196 139.513 29.7294 139.242C29.2629 138.971 28.8521 138.574 28.497 138.052C28.1039 137.474 27.8817 136.9 27.8302 136.331C27.7787 135.763 27.8897 135.225 28.1628 134.719C28.4359 134.212 28.8669 133.76 29.4555 133.363C29.5039 133.33 29.5583 133.294 29.6188 133.253C29.6792 133.212 29.7485 133.171 29.8265 133.13L32.7577 137.442C33.0133 137.232 33.2098 137.01 33.3457 136.776C33.5299 136.458 33.6077 136.136 33.5797 135.809C33.5518 135.483 33.4339 135.167 33.2264 134.861C33.0517 134.605 32.8611 134.402 32.6547 134.254C32.4483 134.106 32.2267 134.001 31.9899 133.938C31.7532 133.875 31.5107 133.851 31.2622 133.867L30.9397 132.432C31.3718 132.41 31.7827 132.443 32.1721 132.532C32.5619 132.621 32.9353 132.794 33.2921 133.051C33.6493 133.308 33.9999 133.689 34.3438 134.195C34.7262 134.758 34.9385 135.338 34.9806 135.937C35.0229 136.535 34.9033 137.099 34.6222 137.628C34.3413 138.158 33.9222 138.61 33.3658 138.985ZM29.8696 135.14C29.6334 135.346 29.4535 135.57 29.3294 135.812C29.2058 136.054 29.1548 136.308 29.1771 136.574C29.1993 136.84 29.306 137.114 29.497 137.395C29.6937 137.684 29.9338 137.903 30.2171 138.052C30.5006 138.2 30.8061 138.261 31.134 138.233C31.3679 138.213 31.6005 138.142 31.8315 138.026L29.8696 135.14ZM33.2345 53.4925C33.265 53.5502 33.2966 53.6073 33.3204 53.6687C33.4566 54.0221 33.4895 54.4008 33.4185 54.8056C33.3477 55.2103 33.1856 55.6083 32.9322 55.9997C32.6945 56.3664 32.4138 56.6566 32.0903 56.8702C31.7669 57.0838 31.4192 57.1951 31.048 57.2046C30.6767 57.2143 30.2988 57.0956 29.9141 56.8482C29.5296 56.6012 29.2616 56.2902 29.1098 55.9157C28.9584 55.5414 28.9264 55.1255 29.014 54.6679C29.1016 54.2106 29.3037 53.7371 29.6205 53.248C29.8316 52.9221 30.0614 52.6568 30.3096 52.4525C30.5355 52.2667 30.7479 52.1251 30.9481 52.023L30.1658 51.5203C29.904 51.352 29.6312 51.33 29.3482 51.4538C29.0653 51.578 28.8232 51.7949 28.6226 52.1045C28.4484 52.3736 28.3214 52.6412 28.2418 52.9075C28.162 53.1739 28.1109 53.4182 28.0887 53.6404C28.0664 53.8629 28.0549 54.0374 28.0541 54.1637L26.7605 54.0943C26.7687 53.7418 26.8257 53.3224 26.9318 52.8364C27.0379 52.3503 27.2547 51.8547 27.582 51.3492C27.8829 50.8846 28.2143 50.5204 28.5764 50.2564C28.9385 49.9929 29.315 49.8452 29.7064 49.8137C30.0977 49.7824 30.4814 49.8876 30.8578 50.1293L34.8842 52.7168L34.0448 54.0131L33.2345 53.4925ZM32.4696 53.2779C32.3576 53.0214 32.134 52.7852 31.7983 52.5695L31.7037 52.5087C31.5617 52.5893 31.4296 52.6776 31.3092 52.7746C31.0542 52.9804 30.816 53.2544 30.5942 53.5966C30.4147 53.874 30.3031 54.1313 30.2594 54.3688C30.2159 54.6064 30.2341 54.8198 30.3139 55.0097C30.3937 55.1996 30.5318 55.3576 30.7282 55.4837C30.9001 55.5943 31.0735 55.6396 31.2489 55.6194C31.4243 55.5993 31.594 55.5294 31.7583 55.4099C31.9226 55.2903 32.0654 55.1368 32.1869 54.9493C32.3717 54.664 32.493 54.3783 32.5508 54.092C32.6085 53.8061 32.5814 53.5346 32.4696 53.2779ZM29.9565 60.856L27.3602 59.5859L25.8471 62.6556L28.4433 63.9256L27.7609 65.3103L21.7292 62.3598L22.4116 60.9751L24.667 62.0784L26.1801 59.0087L23.9247 57.9054L24.6071 56.5207L30.6391 59.4713L29.9565 60.856ZM24.8607 73.2769L18.3633 71.5698L18.7693 70.036L25.2669 71.7431L24.8607 73.2769ZM19.8624 75.3799C20.0387 74.7141 20.3495 74.1963 20.7949 73.8265C21.2401 73.4569 21.8113 73.3636 22.5082 73.5466C22.9695 73.6679 23.3332 73.8739 23.5985 74.1643C23.864 74.4548 24.0297 74.7994 24.0954 75.1978C24.1611 75.5966 24.1344 76.0208 24.0152 76.4709L23.6053 78.0189L23.1994 79.5527L16.7017 77.8455L17.1077 76.3118L19.4525 76.9278L19.8624 75.3799ZM22.3482 77.6885L22.7171 76.2954C22.7766 76.0704 22.794 75.8718 22.769 75.6996C22.7442 75.5276 22.6763 75.3844 22.5655 75.2699C22.4549 75.1558 22.3101 75.075 22.131 75.0279C21.8486 74.9537 21.6084 74.986 21.4106 75.1245C21.2128 75.2633 21.069 75.5014 20.9796 75.8391L20.6109 77.2322L22.3482 77.6885ZM17.8873 81.0701C18.3699 81.1346 18.7384 81.409 18.9925 81.8931C19.0541 82.0109 19.104 82.1396 19.1429 82.2785C19.233 82.0896 19.3344 81.9188 19.4509 81.7709C19.8243 81.2973 20.32 81.1014 20.9377 81.184C21.372 81.2421 21.7296 81.4147 22.0101 81.7017C22.291 81.9888 22.4873 82.3553 22.5991 82.8009C22.7109 83.2466 22.7321 83.7289 22.6623 84.2482C22.5483 85.0944 22.2432 85.7363 21.7469 86.1741C21.251 86.612 20.655 86.8236 19.9591 86.8089L20.1649 85.28C20.4734 85.2528 20.7477 85.1499 20.9878 84.9715C21.228 84.7931 21.3759 84.4973 21.4315 84.0838C21.4677 83.8146 21.4603 83.5787 21.4088 83.376C21.3577 83.1735 21.2664 83.0118 21.1351 82.8915C21.004 82.7712 20.8468 82.6989 20.6632 82.6744C20.4511 82.646 20.2678 82.6754 20.1134 82.7624C19.9593 82.8495 19.8298 82.9912 19.7246 83.1877C19.6195 83.3841 19.5469 83.6313 19.5067 83.9293L19.1737 83.8848L18.4788 83.7921C18.5305 83.4075 18.4934 83.1185 18.367 82.9255C18.2408 82.7323 18.0668 82.621 17.8445 82.5914C17.6225 82.5617 17.4325 82.6245 17.2739 82.7793C17.1155 82.9344 17.0168 83.1562 16.978 83.4446C16.9456 83.685 16.9643 83.8931 17.034 84.0688C17.1038 84.2447 17.2031 84.3827 17.3319 84.483C17.461 84.5834 17.6026 84.6439 17.757 84.6647L17.557 86.1502C17.142 86.0947 16.785 85.9369 16.4858 85.6766C16.1869 85.4166 15.967 85.0788 15.8264 84.6635C15.6857 84.2484 15.649 83.7909 15.7163 83.2907C15.7797 82.8198 15.9188 82.4076 16.1334 82.0544C16.3482 81.7013 16.6096 81.4378 16.9179 81.2635C17.2265 81.0895 17.5494 81.025 17.8873 81.0701ZM16.0158 89.4395C16.3336 89.2102 16.7165 89.1012 17.1641 89.113L21.9539 89.2386L21.9131 90.7807L20.9494 90.7554C21.0056 90.7888 21.0623 90.8213 21.1146 90.8615C21.4155 91.0928 21.6412 91.3995 21.7918 91.782C21.9424 92.1644 22.0117 92.5883 21.9994 93.0537C21.9877 93.4902 21.8993 93.8836 21.7342 94.2334C21.5694 94.5834 21.3306 94.8584 21.0185 95.0588C20.7061 95.2595 20.3214 95.3536 19.8637 95.3416C19.4062 95.3295 19.0151 95.2028 18.6901 94.9614C18.3654 94.72 18.121 94.3813 17.9571 93.945C17.7932 93.5091 17.7191 92.9999 17.7345 92.4178C17.7447 92.0301 17.8026 91.6846 17.908 91.3816C18.0039 91.1058 18.1116 90.8747 18.2295 90.6841L17.2987 90.6596C16.9871 90.6514 16.7429 90.7737 16.5655 91.0261C16.3886 91.2788 16.295 91.5894 16.2852 91.9578C16.2768 92.2777 16.308 92.5723 16.3788 92.8409C16.4499 93.1099 16.5336 93.3449 16.6305 93.5462C16.7275 93.7479 16.8088 93.9028 16.874 94.0113L15.7327 94.6219C15.5558 94.3166 15.3856 93.9285 15.2227 93.4584C15.0597 92.9882 14.9863 92.4528 15.0021 91.8513C15.0167 91.2984 15.1098 90.8159 15.2815 90.4029C15.4531 89.9903 15.698 89.669 16.0158 89.4395ZM18.8651 93.0444C18.9517 93.27 19.0787 93.443 19.2459 93.5639C19.4133 93.6848 19.6136 93.7483 19.8473 93.7543C20.0516 93.7598 20.2237 93.7085 20.3628 93.6004C20.5022 93.4928 20.6107 93.3451 20.6888 93.1577C20.7666 92.9706 20.8085 92.7655 20.8146 92.5424C20.8236 92.2031 20.7781 91.896 20.678 91.6216C20.5783 91.3474 20.4135 91.1295 20.1839 90.9682C19.9544 90.8071 19.6401 90.721 19.2408 90.7105L19.1282 90.7076C19.049 90.8501 18.9821 90.9939 18.93 91.1391C18.8196 91.4469 18.7589 91.8043 18.7482 92.2116C18.7394 92.5414 18.7784 92.819 18.8651 93.0444ZM21.7945 96.1057L21.9438 98.0208L18.747 101.041L22.1587 100.777L22.2785 102.315L15.579 102.834L15.4592 101.296L17.8209 101.113L15.268 98.8438L15.1174 96.9142L18.1099 99.5874L21.7945 96.1057ZM16.7965 105.967C17.0591 105.676 17.4105 105.489 17.8506 105.407L22.5602 104.528L22.8453 106.044L21.8977 106.221C21.9596 106.242 22.022 106.262 22.0817 106.291C22.4245 106.454 22.7097 106.706 22.9375 107.049C23.1654 107.391 23.3225 107.791 23.4085 108.249C23.4893 108.678 23.4856 109.081 23.398 109.458C23.3106 109.834 23.135 110.153 22.872 110.414C22.609 110.676 22.2528 110.848 21.8027 110.932C21.3528 111.016 20.9437 110.974 20.5752 110.806C20.2067 110.638 19.8963 110.358 19.6442 109.966C19.3922 109.574 19.2123 109.091 19.1046 108.519C19.033 108.138 19.0168 107.788 19.0559 107.47C19.0918 107.18 19.1483 106.931 19.2232 106.72L18.3081 106.891C18.0018 106.948 17.7888 107.119 17.6686 107.403C17.5488 107.687 17.5227 108.01 17.5909 108.372C17.65 108.687 17.7427 108.968 17.8685 109.216C17.9946 109.464 18.1259 109.677 18.2632 109.853C18.4006 110.03 18.5127 110.165 18.5992 110.257L17.612 111.093C17.3746 110.831 17.1266 110.487 16.8681 110.062C16.6098 109.636 16.4251 109.128 16.3139 108.537C16.2117 107.993 16.2009 107.502 16.2819 107.062C16.3627 106.623 16.5343 106.257 16.7965 105.967ZM20.0524 108.105C20.1134 108.43 20.21 108.693 20.3421 108.895C20.4745 109.098 20.6351 109.24 20.824 109.323C21.013 109.407 21.2223 109.427 21.4521 109.384C21.6531 109.346 21.8103 109.26 21.9237 109.126C22.0372 108.991 22.1121 108.824 22.149 108.625C22.1859 108.425 22.1837 108.216 22.1424 107.997C22.0795 107.663 21.9707 107.372 21.815 107.125C21.6595 106.878 21.4525 106.699 21.194 106.589C20.9357 106.48 20.6103 106.462 20.2178 106.535L20.107 106.555C20.0596 106.711 20.0245 106.866 20.0042 107.019C19.9611 107.343 19.9771 107.705 20.0524 108.105ZM18.5051 114.129C18.7143 113.844 18.9819 113.653 19.3085 113.555C19.775 113.416 20.2242 113.515 20.6558 113.852C20.7607 113.934 20.8595 114.031 20.9523 114.141C20.9562 113.932 20.9781 113.735 21.0231 113.552C21.1675 112.968 21.5384 112.586 22.1353 112.408C22.555 112.282 22.9524 112.293 23.3267 112.44C23.7011 112.586 24.0316 112.839 24.3178 113.199C24.6038 113.56 24.8225 113.991 24.9735 114.493C25.2195 115.31 25.2068 116.021 24.9356 116.623C24.6645 117.226 24.2089 117.663 23.5687 117.935L23.1244 116.457C23.3941 116.306 23.6016 116.1 23.7466 115.839C23.8917 115.578 23.9042 115.247 23.784 114.847C23.7058 114.587 23.6016 114.376 23.4707 114.212C23.3404 114.048 23.1904 113.939 23.021 113.883C22.8519 113.827 22.6787 113.825 22.5013 113.878C22.2963 113.94 22.1412 114.042 22.0366 114.184C21.9323 114.327 21.8727 114.509 21.8581 114.731C21.8437 114.953 21.8796 115.209 21.9662 115.496L21.5075 115.633L20.9726 115.793C20.8608 115.421 20.7077 115.173 20.5126 115.049C20.3177 114.925 20.113 114.895 19.8984 114.959C19.6838 115.023 19.5366 115.158 19.456 115.364C19.3758 115.571 19.3776 115.813 19.4614 116.092C19.5313 116.325 19.6343 116.506 19.7705 116.638C19.9066 116.77 20.0543 116.855 20.2131 116.893C20.3723 116.932 20.5264 116.929 20.6757 116.884L21.1074 118.32C20.7063 118.44 20.3157 118.442 19.9355 118.328C19.5557 118.214 19.2156 117.996 18.9158 117.675C18.6161 117.355 18.3935 116.953 18.2482 116.469C18.1112 116.014 18.0675 115.581 18.1171 115.172C18.1668 114.762 18.2962 114.414 18.5051 114.129ZM27.6577 122.67L28.4219 124.16L25.6782 126.336L30.1209 126.482L27.6142 130.114L30.9934 129.175L31.7575 130.666L24.4674 132.283L27.7512 127.683L22.062 127.592L27.6577 122.67ZM33.6101 141.601L37.2534 138.501L38.2591 139.674L37.5261 140.298C37.5903 140.286 37.6543 140.272 37.7202 140.267C38.0991 140.238 38.4727 140.315 38.8416 140.499C39.2105 140.683 39.5467 140.952 39.8504 141.306C40.135 141.638 40.3334 141.989 40.446 142.359C40.5586 142.729 40.566 143.092 40.4686 143.449C40.3715 143.807 40.1489 144.133 39.8007 144.429C39.4528 144.726 39.0769 144.892 38.6732 144.929C38.2698 144.967 37.8607 144.878 37.4457 144.663C37.0312 144.448 36.6338 144.119 36.2543 143.677C36.0015 143.382 35.8123 143.086 35.687 142.791C35.5731 142.522 35.4978 142.279 35.4572 142.059L34.7492 142.661C34.5124 142.863 34.4129 143.116 34.4509 143.422C34.489 143.728 34.6281 144.021 34.8684 144.301C35.0772 144.545 35.2982 144.742 35.5313 144.895C35.7647 145.047 35.9849 145.166 36.1923 145.251C36.3997 145.336 36.5643 145.397 36.6855 145.434L36.2477 146.649C35.9112 146.54 35.5241 146.365 35.0871 146.125C34.6503 145.884 34.2357 145.535 33.8436 145.078C33.4831 144.657 33.2279 144.236 33.0781 143.815C32.9283 143.394 32.8945 142.992 32.9762 142.61C33.0584 142.227 33.2697 141.891 33.6101 141.601ZM36.2834 141.93C36.4083 142.232 36.6033 142.538 36.8689 142.848C37.084 143.099 37.2996 143.279 37.5152 143.388C37.7313 143.498 37.9419 143.542 38.1473 143.521C38.3529 143.499 38.5443 143.412 38.722 143.261C38.8775 143.129 38.9709 142.976 39.0018 142.803C39.0328 142.63 39.0143 142.448 38.9464 142.257C38.8787 142.066 38.772 141.885 38.6264 141.716C38.4052 141.458 38.1652 141.26 37.9065 141.123C37.648 140.985 37.3792 140.933 37.1002 140.967C36.8215 141 36.5302 141.146 36.2264 141.404L36.1408 141.477C36.1777 141.635 36.2245 141.787 36.2834 141.93ZM41.6591 143.689L42.8913 144.826L41.0662 147.81L45.2883 146.425L44.1886 150.694L47.0375 148.655L48.2695 149.793L41.9825 153.809L43.4777 148.364L38.1042 150.228L41.6591 143.689ZM49.4868 150.667L50.7446 151.567L48.5007 154.681L54.7453 153.801L50.528 159.653L49.2703 158.753L51.5142 155.639L45.2696 156.519L49.4868 150.667ZM57.8971 156.283L56.5083 158.81L59.5197 160.452L60.9085 157.925L62.2667 158.665L59.0402 164.537L57.6818 163.797L58.8884 161.601L55.877 159.959L54.6705 162.155L53.3123 161.414L56.5389 155.542L57.8971 156.283ZM64.474 159.687L65.9126 160.258L64.4886 163.819L70.3358 161.465L67.6602 168.157L66.2216 167.586L67.6453 164.025L61.7981 166.379L64.474 159.687ZM83.016 165.104L82.0066 173.646L86.9104 174.221L87.9198 165.679L89.6608 165.883L88.4653 176L80.0795 175.017L81.275 164.9L83.016 165.104ZM102.794 162.18L101.391 166.309L104.628 171.951L102.824 172.113L100.677 167.936L99.3323 172.425L97.6444 172.576L101.121 162.329L102.794 162.18ZM106.526 164.826L109.916 167.63L109.248 164.287L110.766 163.986L112.078 170.551L110.559 170.852L110.097 168.538L108.138 171.332L106.233 171.71L108.542 168.433L104.635 165.201L106.526 164.826ZM121.874 161.377C121.881 161.312 121.886 161.247 121.901 161.183C121.984 160.814 122.168 160.48 122.452 160.183C122.736 159.885 123.093 159.644 123.522 159.458C123.924 159.284 124.319 159.198 124.707 159.199C125.095 159.2 125.446 159.3 125.76 159.497C126.075 159.694 126.323 160.002 126.505 160.42C126.688 160.838 126.738 161.245 126.655 161.641C126.573 162.036 126.368 162.4 126.04 162.732C125.712 163.064 125.28 163.346 124.744 163.578C124.387 163.732 124.048 163.826 123.728 163.859C123.437 163.888 123.181 163.889 122.958 163.863L123.328 164.714C123.453 164.999 123.667 165.167 123.972 165.221C124.276 165.274 124.598 165.228 124.938 165.081C125.233 164.953 125.487 164.801 125.702 164.623C125.917 164.445 126.095 164.271 126.237 164.098C126.38 163.925 126.487 163.786 126.558 163.682L127.595 164.454C127.392 164.743 127.111 165.061 126.752 165.406C126.393 165.752 125.937 166.045 125.383 166.284C124.874 166.505 124.395 166.624 123.947 166.644C123.499 166.663 123.103 166.578 122.76 166.388C122.417 166.197 122.157 165.898 121.978 165.489L120.069 161.11L121.49 160.496L121.874 161.377ZM122.555 162.939L122.599 163.042C122.763 163.053 122.922 163.053 123.076 163.038C123.403 163.008 123.753 162.912 124.129 162.749C124.432 162.618 124.668 162.465 124.837 162.292C125.006 162.119 125.109 161.931 125.149 161.729C125.188 161.527 125.161 161.319 125.068 161.105C124.987 160.919 124.868 160.785 124.71 160.705C124.553 160.625 124.373 160.589 124.17 160.598C123.967 160.606 123.762 160.655 123.557 160.744C123.244 160.879 122.984 161.05 122.777 161.256C122.569 161.462 122.441 161.703 122.391 161.978C122.341 162.253 122.396 162.574 122.555 162.939ZM127.534 157.668L128.897 156.935L131.431 161.609L132.626 160.966L133.285 162.182L129.545 164.195L128.885 162.978L130.068 162.342L127.534 157.668ZM135.183 159.45C135.481 159.371 135.76 159.247 136.02 159.077C136.346 158.864 136.59 158.594 136.754 158.267C136.917 157.94 136.988 157.592 136.966 157.223C136.944 156.854 136.818 156.495 136.589 156.147C136.359 155.798 136.079 155.54 135.748 155.373C135.417 155.207 135.068 155.133 134.702 155.152C134.336 155.171 133.99 155.286 133.664 155.499C133.388 155.68 133.157 155.892 132.973 156.134C132.789 156.376 132.65 156.629 132.556 156.894C132.462 157.158 132.429 157.409 132.457 157.646L131.504 156.198C131.571 155.875 131.734 155.548 131.993 155.217C132.252 154.885 132.581 154.589 132.98 154.328C133.55 153.955 134.147 153.742 134.77 153.689C135.393 153.636 135.984 153.742 136.544 154.009C137.104 154.275 137.571 154.692 137.945 155.26C138.324 155.836 138.524 156.431 138.543 157.045C138.563 157.658 138.424 158.239 138.127 158.787C137.83 159.335 137.397 159.796 136.827 160.168C136.428 160.429 136.024 160.612 135.615 160.716C135.206 160.821 134.843 160.844 134.525 160.785L133.563 159.325C133.776 159.453 134.024 159.525 134.309 159.542C134.594 159.559 134.885 159.528 135.183 159.45ZM138.714 150.826C138.945 150.251 139.326 149.745 139.859 149.305C140.384 148.872 140.954 148.595 141.567 148.474C142.18 148.352 142.778 148.395 143.36 148.601C143.942 148.807 144.451 149.172 144.885 149.696C145.326 150.226 145.592 150.794 145.684 151.399C145.775 152.003 145.703 152.594 145.469 153.172C145.234 153.749 144.855 154.254 144.329 154.687C143.797 155.126 143.226 155.405 142.616 155.523C142.006 155.642 141.412 155.6 140.833 155.397C140.254 155.194 139.744 154.828 139.303 154.297C138.868 153.774 138.604 153.208 138.509 152.6C138.415 151.991 138.483 151.4 138.714 150.826ZM140.052 152.254C140.118 152.608 140.285 152.946 140.552 153.267C140.819 153.589 141.123 153.817 141.463 153.952C141.803 154.088 142.145 154.127 142.489 154.07C142.833 154.012 143.152 153.863 143.445 153.622C143.737 153.381 143.944 153.097 144.065 152.771C144.186 152.445 144.211 152.102 144.141 151.744C144.072 151.387 143.903 151.047 143.636 150.725C143.369 150.404 143.067 150.177 142.73 150.046C142.394 149.914 142.051 149.875 141.704 149.929C141.356 149.982 141.037 150.13 140.744 150.371C140.451 150.612 140.246 150.897 140.128 151.228C140.011 151.557 139.985 151.9 140.052 152.254ZM145.57 146.273L144.738 147.159L142.786 145.339L143.834 144.223L144.794 145.118L148.538 141.134L147.578 140.239L148.677 139.071L150.628 140.89L149.787 141.785L151.97 148.022L145.57 146.273ZM148.645 143.001L146.721 145.048L149.944 146.133L148.645 143.001ZM155.138 133.973C155.107 133.916 155.075 133.859 155.051 133.798C154.911 133.446 154.874 133.067 154.941 132.662C155.008 132.257 155.167 131.857 155.416 131.464C155.65 131.094 155.928 130.802 156.25 130.585C156.571 130.368 156.918 130.254 157.289 130.241C157.66 130.227 158.039 130.343 158.426 130.586C158.813 130.83 159.084 131.138 159.239 131.511C159.394 131.884 159.43 132.299 159.347 132.758C159.264 133.216 159.066 133.691 158.754 134.183C158.546 134.511 158.319 134.779 158.073 134.985C157.849 135.173 157.638 135.317 157.438 135.421L158.226 135.916C158.489 136.082 158.762 136.101 159.044 135.975C159.326 135.848 159.565 135.629 159.763 135.317C159.935 135.047 160.059 134.778 160.136 134.511C160.213 134.243 160.262 133.999 160.282 133.776C160.302 133.554 160.312 133.379 160.312 133.253L161.606 133.31C161.601 133.662 161.548 134.082 161.447 134.569C161.345 135.056 161.133 135.554 160.811 136.063C160.515 136.53 160.187 136.898 159.827 137.165C159.468 137.432 159.092 137.583 158.701 137.618C158.31 137.653 157.926 137.552 157.547 137.314L153.496 134.765L154.323 133.461L155.138 133.973ZM155.905 134.181C156.02 134.436 156.245 134.67 156.583 134.883L156.678 134.943C156.82 134.861 156.951 134.771 157.07 134.673C157.323 134.465 157.559 134.188 157.777 133.844C157.954 133.565 158.063 133.307 158.104 133.069C158.146 132.831 158.126 132.617 158.044 132.428C157.962 132.239 157.823 132.083 157.625 131.958C157.452 131.849 157.278 131.806 157.103 131.828C156.928 131.849 156.759 131.921 156.596 132.042C156.433 132.163 156.291 132.318 156.172 132.507C155.99 132.794 155.871 133.081 155.816 133.367C155.761 133.654 155.791 133.925 155.905 134.181ZM158.347 126.575L160.956 127.82L162.439 124.736L159.83 123.491L160.499 122.1L166.559 124.992L165.89 126.383L163.624 125.301L162.141 128.385L164.407 129.467L163.738 130.858L157.678 127.966L158.347 126.575ZM163.321 114.105L169.835 115.749L169.444 117.287L162.93 115.643L163.321 114.105ZM168.299 111.954C168.129 112.621 167.823 113.142 167.382 113.516C166.94 113.89 166.37 113.989 165.671 113.813C165.208 113.696 164.843 113.493 164.575 113.206C164.306 112.918 164.137 112.575 164.068 112.177C163.998 111.779 164.021 111.355 164.135 110.903L164.53 109.351L164.921 107.814L171.435 109.458L171.044 110.995L168.693 110.402L168.299 111.954ZM165.79 109.669L165.435 111.066C165.378 111.292 165.362 111.49 165.389 111.662C165.415 111.834 165.485 111.977 165.597 112.09C165.708 112.203 165.854 112.283 166.033 112.328C166.317 112.399 166.557 112.365 166.753 112.224C166.949 112.084 167.091 111.844 167.177 111.506L167.532 110.109L165.79 109.669ZM170.216 106.261C169.732 106.201 169.361 105.93 169.103 105.448C169.04 105.331 168.989 105.203 168.949 105.064C168.86 105.254 168.76 105.426 168.645 105.575C168.276 106.052 167.783 106.253 167.164 106.176C166.729 106.122 166.37 105.953 166.087 105.668C165.803 105.384 165.604 105.019 165.487 104.575C165.372 104.13 165.346 103.648 165.411 103.128C165.517 102.281 165.816 101.636 166.308 101.194C166.8 100.751 167.393 100.534 168.089 100.542L167.898 102.073C167.59 102.103 167.317 102.208 167.078 102.389C166.84 102.57 166.695 102.867 166.643 103.281C166.609 103.55 166.619 103.786 166.672 103.989C166.725 104.19 166.818 104.351 166.951 104.47C167.083 104.589 167.241 104.66 167.424 104.683C167.637 104.709 167.82 104.678 167.973 104.59C168.127 104.501 168.255 104.358 168.358 104.161C168.461 103.963 168.532 103.715 168.569 103.417L168.902 103.459L169.598 103.545C169.55 103.93 169.59 104.218 169.718 104.41C169.846 104.602 170.021 104.712 170.244 104.739C170.466 104.767 170.656 104.703 170.813 104.546C170.97 104.389 171.066 104.167 171.102 103.878C171.133 103.637 171.112 103.429 171.04 103.254C170.969 103.079 170.868 102.942 170.738 102.843C170.609 102.744 170.466 102.685 170.312 102.665L170.498 101.178C170.913 101.23 171.272 101.384 171.573 101.641C171.875 101.899 172.098 102.234 172.242 102.648C172.387 103.062 172.428 103.519 172.365 104.02C172.306 104.492 172.171 104.905 171.96 105.26C171.749 105.615 171.49 105.881 171.183 106.058C170.876 106.235 170.554 106.303 170.216 106.261ZM172.008 97.8595C171.693 98.0917 171.311 98.2042 170.863 98.1969L166.072 98.1166L166.098 96.5741L167.063 96.5904C167.006 96.5574 166.949 96.5253 166.896 96.4857C166.593 96.2573 166.365 95.9528 166.21 95.5718C166.056 95.1907 165.983 94.7675 165.991 94.3018C165.998 93.8653 166.083 93.4714 166.245 93.12C166.406 92.7684 166.642 92.4909 166.953 92.2876C167.263 92.0842 167.647 91.9864 168.104 91.994C168.562 92.0017 168.954 92.1248 169.282 92.363C169.609 92.6015 169.856 92.9379 170.024 93.3725C170.192 93.807 170.271 94.3154 170.261 94.8975C170.255 95.2852 170.2 95.6313 170.098 95.9353C170.005 96.212 169.899 96.4441 169.783 96.6359L170.714 96.6514C171.026 96.6567 171.269 96.5321 171.443 96.2781C171.618 96.0237 171.709 95.7124 171.715 95.3439C171.72 95.0238 171.686 94.7296 171.613 94.4616C171.539 94.1934 171.453 93.959 171.355 93.7586C171.256 93.5581 171.173 93.4037 171.107 93.2961L172.242 92.6746C172.422 92.9783 172.596 93.3647 172.763 93.8333C172.931 94.3018 173.009 94.8366 172.999 95.4381C172.99 95.9911 172.901 96.4746 172.734 96.8891C172.566 97.3035 172.324 97.6268 172.008 97.8595ZM169.125 94.2816C169.036 94.0567 168.908 93.8849 168.739 93.7658C168.571 93.6465 168.37 93.5849 168.136 93.581C167.932 93.5775 167.76 93.6303 167.622 93.7398C167.484 93.8488 167.377 93.9977 167.3 94.1856C167.224 94.3735 167.184 94.5789 167.18 94.8021C167.175 95.1416 167.223 95.4481 167.326 95.7215C167.428 95.9947 167.595 96.211 167.826 96.3702C168.057 96.5292 168.372 96.6124 168.771 96.619L168.884 96.6209C168.962 96.4777 169.027 96.3333 169.078 96.1875C169.186 95.8787 169.243 95.5207 169.25 95.1134C169.255 94.7834 169.214 94.5063 169.125 94.2816Z" fill="white"/>
    </svg>