<svg width="12" height="12" viewBox="0 0 12 12" fill="none" xmlns="http://www.w3.org/2000/svg">
<path d="M5.76732 0.000528475C2.56865 -0.0426746 -0.0426746 2.56865 0.000528475 5.76732C0.0431847 8.83502 2.54104 11.3329 5.60873 11.3755C8.80795 11.4193 11.4187 8.80795 11.375 5.60928C11.3329 2.54104 8.83502 0.0431847 5.76732 0.000528475ZM8.28568 3.47975L6.03693 8.5799C5.90596 8.86619 5.46873 8.77131 5.46873 8.45522V6.01615C5.46873 5.98714 5.45721 5.95933 5.4367 5.93881C5.41618 5.9183 5.38836 5.90678 5.35936 5.90678H2.92084C2.60584 5.90678 2.51068 5.47283 2.79588 5.34158L7.89631 3.09037C7.9508 3.06521 8.01171 3.05736 8.0708 3.06789C8.12989 3.07843 8.18434 3.10683 8.22678 3.14928C8.26922 3.19172 8.29763 3.24616 8.30816 3.30526C8.3187 3.36435 8.31085 3.42525 8.28568 3.47975Z" fill="#386B6F"/>
</svg>
