<?xml version="1.0" standalone="no"?>
<!DOCTYPE svg PUBLIC "-//W3C//DTD SVG 1.1//EN" "http://www.w3.org/Graphics/SVG/1.1/DTD/svg11.dtd" >
<svg xmlns="http://www.w3.org/2000/svg" xmlns:xlink="http://www.w3.org/1999/xlink" version="1.1">
<metadata>
Created by FontForge 20170731 at Thu Aug 27 10:30:09 2020
 By Aleksey,,,
Copyright 2020 The Jost Project Authors (https://github.com/indestructible-type)
</metadata>
<defs>
<font id="Jost-SemiBoldItalic" horiz-adv-x="584" >
  <font-face 
    font-family="Jost SemiBold"
    font-weight="600"
    font-style="italic"
    font-stretch="normal"
    units-per-em="1000"
    panose-1="0 0 0 0 0 0 0 0 0 0"
    ascent="800"
    descent="-200"
    x-height="460"
    cap-height="700"
    bbox="-201 -359 1656.04 1041"
    underline-thickness="50"
    underline-position="-175"
    slope="-10"
    unicode-range="U+000D-FF19"
  />
<missing-glyph horiz-adv-x="500" 
d="M50 -200h400v1000h-400v-1000zM100 -150v900h300v-900h-300z" />
    <glyph glyph-name=".notdef" horiz-adv-x="500" 
d="M50 -200h400v1000h-400v-1000zM100 -150v900h300v-900h-300z" />
    <glyph glyph-name="uni0000" horiz-adv-x="301" 
 />
    <glyph glyph-name="uni0000" horiz-adv-x="301" 
 />
    <glyph glyph-name="uni000D" unicode="&#xd;" horiz-adv-x="301" 
 />
    <glyph glyph-name="space" unicode=" " horiz-adv-x="301" 
 />
    <glyph glyph-name="exclam" unicode="!" horiz-adv-x="320" 
d="M174 700l-54 -478h103l109 478h-158zM62 55q0 -33 23 -54.5t59 -21.5q34 0 58 21.5t24 54.5t-24 54.5t-58 21.5q-36 0 -59 -21.5t-23 -54.5z" />
    <glyph glyph-name="quotedbl" unicode="&#x22;" horiz-adv-x="487" 
d="M199 700l-92 -312h85l147 312h-140zM394 700l-92 -312h85l147 312h-140z" />
    <glyph glyph-name="numbersign" unicode="#" horiz-adv-x="629" 
d="M118 422l140 -1l22 4h195l23 -4h143l17 103h-524zM37 181h524l18 103h-127l-27 -4h-214l-25 4h-132zM544 700l-88 -216l-5 -26l-85 -209l-14 -24l-92 -225h114l286 700h-116zM319 700l-283 -700h113l93 226l4 23l86 210l15 27l88 214h-116z" />
    <glyph glyph-name="dollar" unicode="$" horiz-adv-x="591" 
d="M362 818l-23 -171h98l32 171h-107zM249 57l-31 -168h106l23 168h-98zM495 497l114 64q-17 41 -45.5 75t-71 53.5t-100.5 20.5q-63 0 -117 -23.5t-90.5 -64.5t-44.5 -94q-7 -58 15 -99.5t59 -70t76 -44.5q33 -14 63.5 -29.5t48.5 -38t12 -55.5q-6 -38 -35.5 -60t-73.5 -22
q-39 -1 -66.5 17t-46 48.5t-34.5 68.5l-110 -69q17 -52 51.5 -93.5t82.5 -65.5t108 -24q71 -1 129.5 23t96 70t46.5 110q6 54 -12 95.5t-53 71t-79 47.5q-24 10 -49.5 20.5t-46.5 23t-32 30.5t-6 43q4 22 17.5 38.5t35 26t49.5 9.5q29 -1 49.5 -15t34.5 -37t25 -50z" />
    <glyph glyph-name="percent" unicode="%" horiz-adv-x="841" 
d="M90 540q-7 -46 9.5 -86.5t53 -65.5t86.5 -25t93.5 24t72 64.5t36.5 87.5q6 46 -11 86.5t-53 65.5t-86 25q-51 0 -94.5 -24t-71.5 -64t-35 -88zM195 539q3 19 15 36.5t30 28.5t39 11q20 -1 33.5 -12t19 -28t3.5 -35q-3 -19 -15 -36.5t-30 -28.5t-38 -10q-22 0 -35.5 11
t-18.5 28t-3 35zM467 162q-7 -47 10 -87t53 -65t86 -25q51 0 94 24t71.5 64t35.5 88q6 46 -10.5 86.5t-52 65.5t-86.5 25t-94 -24t-71.5 -64t-35.5 -88zM573 161q3 19 14.5 36.5t30 28t39.5 10.5q20 0 33 -11.5t18.5 -28t3.5 -34.5q-4 -20 -16 -37.5t-30 -28t-38 -9.5
q-21 0 -34 11t-19 27.5t-2 35.5zM694 700l-614 -700h132l616 700h-134z" />
    <glyph glyph-name="ampersand" unicode="&#x26;" horiz-adv-x="706" 
d="M259 375l271 -375h141l-296 408q-18 24 -34.5 45.5t-26 43t-5.5 44.5q3 19 14.5 34.5t29 25t39.5 9.5q21 -1 34.5 -11t20 -25.5t4.5 -32.5q-4 -25 -24.5 -47t-50 -40.5t-61.5 -34.5q-27 -13 -60.5 -27t-67 -32t-63 -41.5t-49.5 -56t-26 -76.5q-7 -60 20 -104.5t76.5 -69
t109.5 -24.5q71 0 134.5 24.5t118.5 65.5t103 90.5t89 98.5l-81 66q-33 -42 -71.5 -83.5t-82 -76.5t-90 -55.5t-95.5 -17.5q-32 0 -55 12.5t-34 34.5t-6 50q4 33 25 55.5t50.5 39.5t62 30.5t59.5 29.5q47 28 87.5 56t67 62t33.5 80q6 44 -13.5 81.5t-58.5 60.5t-93 23
q-56 0 -103.5 -22t-78 -60t-37.5 -85q-4 -34 7 -64t29.5 -56.5t36.5 -52.5z" />
    <glyph glyph-name="quotesingle" unicode="'" horiz-adv-x="292" 
d="M199 700l-92 -312h85l147 312h-140z" />
    <glyph glyph-name="parenleft" unicode="(" horiz-adv-x="322" 
d="M289 779q-74 -110 -122 -234t-68 -255q-18 -123 -8 -247.5t52 -242.5h114q-35 118 -41 242.5t12 247.5q21 129 67 252.5t111 236.5h-117z" />
    <glyph glyph-name="parenright" unicode=")" horiz-adv-x="322" 
d="M88 -199q73 110 121.5 234.5t68.5 254.5q18 123 8 247.5t-52 243.5h-114q35 -119 41 -243.5t-12 -247.5q-21 -129 -67 -252.5t-111 -236.5h117z" />
    <glyph glyph-name="asterisk" unicode="*" horiz-adv-x="575" 
d="M550 602l-214 -92l11 -64l220 44zM491 330l-123 167l-56 -37l75 -198zM227 264l138 192l-49 40l-173 -161zM121 491l208 -45l30 62l-186 93zM322 700l-12 -222h65l64 222h-117z" />
    <glyph glyph-name="plus" unicode="+" horiz-adv-x="636" 
d="M70 203l512 -1l22 125h-513zM315 528l-89 -526l131 -1l91 527h-133z" />
    <glyph glyph-name="comma" unicode="," horiz-adv-x="309" 
d="M115 109l-130 -257l95 -23l160 247z" />
    <glyph glyph-name="hyphen" unicode="-" horiz-adv-x="212" 
d="M8 181h205l20 113h-205z" />
    <glyph glyph-name="period" unicode="." horiz-adv-x="306" 
d="M57 59q0 -32 23 -56t58 -24q36 0 59 24t23 56q0 34 -23 57.5t-59 23.5q-35 0 -58 -23.5t-23 -57.5z" />
    <glyph glyph-name="slash" unicode="/" horiz-adv-x="562" 
d="M516 700l-556 -849h130l553 849h-127z" />
    <glyph glyph-name="zero" unicode="0" horiz-adv-x="624" 
d="M207 350q6 43 21 85.5t38.5 77t54 54.5t69.5 20q29 -1 48.5 -15.5t30 -39t14.5 -55.5t3 -64t-4 -63q-5 -43 -20.5 -85.5t-38.5 -77t-54 -54.5t-69 -19q-30 0 -49 14.5t-30 39t-15 55.5t-3.5 64t4.5 63zM71 350q-8 -54 -4.5 -106.5t18 -98.5t41.5 -81.5t66.5 -55.5
t94.5 -20q69 0 125.5 29t99.5 79.5t70 115.5t37 138q7 54 4 106.5t-17.5 99t-41 81.5t-67 55t-95.5 20q-68 0 -124 -29t-99.5 -79.5t-71 -115.5t-36.5 -138z" />
    <glyph glyph-name="one" unicode="1" horiz-adv-x="476" 
d="M129 517l171 43l-96 -560h137l122 714l-311 -66z" />
    <glyph glyph-name="two" unicode="2" horiz-adv-x="610" 
d="M0 0h550l21 131l-282 1l202 171q45 38 80 87t43 107q9 55 -16.5 104.5t-77 80.5t-123.5 31q-82 0 -143 -36t-98.5 -96.5t-49.5 -132.5h138q8 37 25.5 69t46 52t66.5 19q32 -1 52 -15t29 -37t5 -47q-4 -31 -20.5 -57.5t-40 -50.5t-48.5 -49z" />
    <glyph glyph-name="three" unicode="3" horiz-adv-x="580" 
d="M296 342q52 0 101.5 10.5t91 32t68.5 55t34 81.5q8 54 -16 97.5t-71.5 68.5t-111.5 25q-66 0 -119.5 -27t-87.5 -73.5t-45 -105.5l130 -1q7 24 22.5 45t38 33t51.5 12q26 -1 42.5 -12t23 -29t4.5 -41q-6 -31 -27 -53t-52.5 -35t-67.5 -15zM283 -14q70 0 130 24.5t99 70.5
t48 108q7 54 -12 91.5t-56.5 60.5t-86.5 34.5t-103 12.5l-11 -76q30 -1 56 -8t45 -20t27 -33t4 -47q-5 -30 -23 -53t-45 -35t-58 -11q-32 1 -54 14t-32.5 36.5t-8.5 55.5h-138q-6 -62 18.5 -113t75.5 -81t125 -31z" />
    <glyph glyph-name="four" unicode="4" horiz-adv-x="643" 
d="M9 130l593 -1l21 122h-144l-20 -14h-235l195 229l-47 -279l-15 -11l-30 -176h145l120 700l-98 -1z" />
    <glyph glyph-name="five" unicode="5" horiz-adv-x="601" 
d="M582 226q7 62 -12.5 114t-61 84t-101.5 33q-31 0 -59.5 -6.5t-55.5 -18.5l67 144h266l20 124h-374l-151 -393q50 24 99 36.5t97 12.5q35 -2 63.5 -16t43 -39.5t9.5 -61.5q-6 -37 -28 -64t-56.5 -41.5t-74.5 -13.5q-46 0 -87 25t-71 62l-80 -110q43 -47 104 -78t146 -31
q52 0 102 16t91.5 46t68.5 74t35 102z" />
    <glyph glyph-name="six" unicode="6" horiz-adv-x="622" 
d="M205 241q6 37 27 67t53 48t70 18q36 -1 60.5 -19.5t35.5 -48.5t6 -65q-6 -37 -27.5 -67t-53 -47.5t-69.5 -16.5q-37 0 -61.5 18.5t-35.5 48t-5 64.5zM410 698l-249 -278q-34 -38 -60 -82.5t-34 -96.5q-9 -75 18 -132.5t81.5 -90t129.5 -32.5q74 0 138.5 32t107 89
t52.5 134q7 61 -14 112t-63.5 83t-98.5 32q-35 0 -62 -10t-53 -31l29 8l260 263h-182z" />
    <glyph glyph-name="seven" unicode="7" horiz-adv-x="561" 
d="M97 566h325l-359 -566h154l436 700h-534z" />
    <glyph glyph-name="eight" unicode="8" 
d="M138 532q-6 -44 7 -78.5t40.5 -58t64.5 -36t79 -12.5t83 12t75 35.5t57 58t29 78.5q6 41 -6.5 74.5t-40 58t-64.5 37.5t-79 13q-59 0 -112 -22.5t-89 -63.5t-44 -96zM267 516q4 25 18.5 45.5t37 33t49.5 12.5q25 0 41 -13t23 -33.5t3 -43.5q-4 -24 -19 -44.5t-37.5 -32.5
t-47.5 -12q-24 0 -40.5 12.5t-23.5 32.5t-4 43zM56 191q-7 -46 7.5 -83t44.5 -64.5t71 -42.5t88 -15q48 0 93.5 14.5t83.5 41.5t63 64.5t33 83.5q6 49 -10 87t-47 64t-71.5 39.5t-83.5 13.5q-45 0 -90.5 -13t-84 -39t-64.5 -64t-33 -87zM197 210q5 28 23.5 52t45 39t56.5 15
q28 -1 48 -16t29.5 -39t5.5 -50q-5 -31 -23.5 -55t-45 -38t-57.5 -13q-28 0 -48 14t-29 38t-5 53z" />
    <glyph glyph-name="nine" unicode="9" horiz-adv-x="622" 
d="M490 460q-5 -37 -26.5 -67.5t-53.5 -48.5t-69 -17q-37 0 -61.5 18.5t-35.5 49t-5 64.5q5 37 26.5 67t53 47.5t69.5 17.5q36 -1 60.5 -19.5t35.5 -47.5t6 -64zM286 3l249 277q33 38 59.5 82.5t33.5 96.5q9 76 -18 133t-82 89.5t-128 32.5q-75 0 -139.5 -32t-107 -89
t-52.5 -134q-7 -60 14 -111.5t63 -83t100 -31.5q34 -1 61 9t53 31l-29 -7l-260 -263h183z" />
    <glyph glyph-name="colon" unicode=":" horiz-adv-x="306" 
d="M55 59q0 -32 23 -56t58 -24q36 0 59 24t23 56q0 34 -23 57.5t-59 23.5q-35 0 -58 -23.5t-23 -57.5zM119 435q0 -33 23 -56.5t58 -23.5q36 0 59 23.5t23 56.5t-23 57t-59 24q-35 0 -58 -24t-23 -57z" />
    <glyph glyph-name="semicolon" unicode=";" horiz-adv-x="362" 
d="M162 431q0 -33 23 -56.5t59 -23.5q35 0 58 23.5t23 56.5t-23 56.5t-58 23.5q-36 0 -59 -23.5t-23 -56.5zM129 109l-129 -257l94 -23l160 247z" />
    <glyph glyph-name="less" unicode="&#x3c;" horiz-adv-x="621" 
d="M265 262l334 127l24 132l-536 -217l-14 -82l460 -216l21 121z" />
    <glyph glyph-name="equal" unicode="=" horiz-adv-x="604" 
d="M47 102l492 -1l20 114h-493zM79 291l493 -1l20 114h-494z" />
    <glyph glyph-name="greater" unicode="&#x3e;" horiz-adv-x="621" 
d="M392 262l-335 -127l-23 -133l535 217l14 83l-459 216l-22 -121z" />
    <glyph glyph-name="question" unicode="?" horiz-adv-x="587" 
d="M465 500q-8 -36 -36.5 -65.5t-71.5 -47t-94 -18.5h-28l-9 -177h103l23 95q55 10 107 37.5t88 71t46 104.5q6 47 -7 86.5t-42 68.5t-69.5 45t-86.5 16q-85 0 -149 -34.5t-116 -89.5l80 -72q31 36 73 60.5t91 24.5q34 -1 58 -14t34.5 -36.5t5.5 -54.5zM171 53
q0 -30 23 -51.5t58 -21.5q33 0 56.5 21.5t23.5 51.5t-23 52t-57 22t-57.5 -22t-23.5 -52z" />
    <glyph glyph-name="at" unicode="@" horiz-adv-x="747" 
d="M319 320q4 28 19.5 56.5t38.5 47t47 17.5q18 -2 28 -12.5t13.5 -27t1.5 -35.5q-4 -31 -21 -59.5t-40.5 -46t-46.5 -14.5q-18 1 -28 11.5t-12.5 27t0.5 35.5zM214 315q-5 -43 4.5 -79t35.5 -58t67 -21q49 -1 89.5 28t67 78t33.5 107q5 36 -3 72.5t-31 61.5t-63 26
q-48 1 -91 -29t-72.5 -79t-36.5 -107zM50 320q-11 -70 2 -131.5t48 -108.5t92 -73.5t136 -26.5q70 -1 126.5 13.5t107.5 40.5l-25 81q-46 -22 -94 -34.5t-100 -11.5q-78 0 -125 34t-64.5 90.5t-6.5 126.5q11 63 40 119t74 99t102.5 67.5t124.5 24.5q55 -1 93 -21t60 -54
t28 -77t-1 -88q-3 -30 -13.5 -59t-26 -52.5t-33 -36t-32.5 -8.5q-10 1 -14.5 7.5t-5.5 15t1 18.5q0 6 2 13.5t4 13.5l68 218h-102l-65 -232l8 -21q-6 -32 1 -59t28 -44t56 -18q39 -2 76 16t67.5 51.5t50.5 78.5t27 98q9 61 -4 119.5t-47.5 105.5t-89.5 75.5t-130 28.5
q-86 0 -161 -31.5t-134.5 -87t-98 -127.5t-50.5 -153z" />
    <glyph glyph-name="A" unicode="A" horiz-adv-x="690" 
d="M167 159h361l3 113h-329zM400 473l61 -243l-7 -36l53 -194h155l-218 744l-474 -744h163l123 200l3 32z" />
    <glyph glyph-name="B" unicode="B" horiz-adv-x="612" 
d="M211 356h127q62 0 116.5 18.5t92 55.5t46.5 93q6 44 -7.5 77.5t-43 55.5t-69.5 33t-85 11h-223l-120 -700h247q72 0 132.5 21t101 65t50.5 113q7 50 -9.5 87t-49.5 61t-76.5 35.5t-90.5 11.5h-132l-14 -77l128 -1q32 0 57.5 -11t38 -32.5t7.5 -54.5q-6 -36 -27.5 -58.5
t-52.5 -34t-65 -11.5h-85l82 472h77q40 0 63.5 -21.5t17.5 -59.5q-5 -27 -21.5 -45.5t-41 -29t-53.5 -10.5h-107z" />
    <glyph glyph-name="C" unicode="C" horiz-adv-x="675" 
d="M219 350q8 49 32 90t59 71.5t78.5 47.5t90.5 18q65 0 111.5 -26.5t78.5 -69.5l25 161q-42 35 -91 53.5t-115 18.5q-81 0 -152 -27.5t-127.5 -77t-93.5 -116t-49 -143.5q-11 -75 5.5 -140.5t57.5 -116t102.5 -79t140.5 -28.5q69 0 123 19.5t102 52.5l24 160
q-45 -38 -101 -66.5t-126 -27.5q-47 0 -82.5 18t-59 49.5t-32.5 72t-1 86.5z" />
    <glyph glyph-name="D" unicode="D" horiz-adv-x="695" 
d="M165 700l-119 -700h144l120 700h-145zM282 0q80 0 150 25.5t125 72t90 110.5t48 142q10 75 -5.5 139t-55.5 111t-101.5 73.5t-140.5 26.5h-138l-23 -130h143q48 0 84 -15.5t59 -44.5t31.5 -69.5t1.5 -90.5q-12 -70 -49 -119t-91 -75t-119 -26h-134l-23 -130h148z" />
    <glyph glyph-name="E" unicode="E" horiz-adv-x="569" 
d="M135 0h345l21 121h-345zM234 579h345l21 121h-345zM188 313h326l21 118h-326zM165 700l-119 -700h135l121 700h-137z" />
    <glyph glyph-name="F" unicode="F" horiz-adv-x="521" 
d="M233 575h306l22 125h-306zM186 300l297 -1l20 119h-296zM165 700l-119 -700h135l121 700h-137z" />
    <glyph glyph-name="G" unicode="G" horiz-adv-x="778" 
d="M419 260h190q-15 -31 -36 -58.5t-47.5 -48t-60.5 -32t-75 -11.5q-50 0 -86.5 19.5t-59 53t-30.5 76.5t0 91q8 50 32 93t59.5 75t80 50t93.5 18q61 0 101 -27.5t61 -75.5l129 70q-42 75 -111.5 118t-165.5 43q-81 0 -153 -27t-129.5 -76.5t-95 -116t-49.5 -144.5
q-11 -75 6 -141.5t58 -118t103 -80.5t142 -29q86 0 155.5 32t120.5 87t82 125.5t42 148.5h-336z" />
    <glyph glyph-name="H" unicode="H" horiz-adv-x="742" 
d="M144 308h502l22 129h-502zM621 700l-119 -700h140l121 700h-142zM165 700l-119 -700h140l120 700h-141z" />
    <glyph glyph-name="I" unicode="I" horiz-adv-x="288" 
d="M165 700l-119 -700h142l120 700h-143z" />
    <glyph glyph-name="J" unicode="J" horiz-adv-x="293" 
d="M-112 -76l-89 -101q29 -22 69.5 -38.5t88.5 -16.5q57 -1 105 19t81 59t43 98l128 756h-149l-125 -726q-5 -38 -28.5 -60.5t-51.5 -23.5q-22 -1 -40.5 9t-31.5 25z" />
    <glyph glyph-name="K" unicode="K" horiz-adv-x="638" 
d="M165 700l-119 -700h144l121 700h-146zM547 700l-335 -328l231 -372h166l-232 369l342 331h-172z" />
    <glyph glyph-name="L" unicode="L" horiz-adv-x="489" 
d="M165 700l-120 -700h412l22 125h-271l98 575h-141z" />
    <glyph glyph-name="M" unicode="M" horiz-adv-x="840" 
d="M266 392l140 -328l249 323l-22 -387h146l26 740l-365 -455l-206 451l-229 -736h149z" />
    <glyph glyph-name="N" unicode="N" horiz-adv-x="764" 
d="M648 700l-75 -434l-403 468l-125 -734h137l75 435l403 -469l125 734h-137z" />
    <glyph glyph-name="O" unicode="O" horiz-adv-x="788" 
d="M215 350q8 47 30.5 89t56 74t76.5 50t92 18q49 -1 84 -20t56 -51.5t28 -74t0 -85.5q-8 -47 -30.5 -89t-56 -74t-76.5 -50t-92 -17q-49 0 -83.5 19t-56 51.5t-28.5 74t0 85.5zM66 350q-11 -73 5 -139.5t56 -118t101 -81.5t140 -30q80 0 150.5 28.5t127 79.5t93 118
t48.5 143q11 73 -6 139t-57 117t-101 79.5t-139 28.5q-79 0 -149.5 -27.5t-127 -77.5t-93 -116t-48.5 -143z" />
    <glyph glyph-name="P" unicode="P" horiz-adv-x="582" 
d="M165 700l-119 -700h140l120 700h-141zM230 580h139q33 -1 57 -13.5t35 -34.5t6 -54q-7 -34 -26.5 -56.5t-49.5 -34t-64 -12.5h-132l-22 -121h141q76 1 138 27.5t102 76t49 119.5q8 69 -17.5 118.5t-78 77t-125.5 27.5h-132z" />
    <glyph glyph-name="Q" unicode="Q" horiz-adv-x="816" 
d="M215 350q8 47 30.5 89t57 74t77.5 50t92 18q51 -1 88 -21.5t59 -55.5t29.5 -78.5t0.5 -88.5q-9 -47 -31.5 -88t-56.5 -72.5t-77 -48.5t-92 -16q-49 0 -85.5 19t-59.5 53t-31 76.5t-1 89.5zM66 350q-11 -73 5.5 -139.5t57 -118t101.5 -81.5t140 -30q80 0 150.5 28.5
t126.5 79.5t92 118t48 143q11 73 -5.5 139t-56.5 116.5t-100.5 79.5t-137.5 29q-80 0 -150.5 -27.5t-127.5 -77.5t-94 -116t-49 -143zM380 300l259 -309h149l-263 309h-145z" />
    <glyph glyph-name="R" unicode="R" horiz-adv-x="601" 
d="M258 326l149 -326h161l-166 326h-144zM165 700l-119 -700h140l120 700h-141zM229 578h140q33 -1 56.5 -13.5t34.5 -36t6 -55.5q-6 -33 -26 -56.5t-50 -36t-65 -12.5h-131l-21 -114h149q76 0 137.5 27.5t102 77.5t49.5 118q9 67 -16.5 117t-78.5 78t-126 28h-140z" />
    <glyph glyph-name="S" unicode="S" horiz-adv-x="583" 
d="M141 235l-107 -72q18 -50 54 -91.5t86.5 -66t112.5 -24.5q67 0 127 28.5t98.5 79t43.5 118.5q3 53 -17 92t-54.5 65.5t-76.5 43.5q-27 10 -52 21.5t-43 25t-28.5 29.5t-8.5 36t13.5 36.5t32 25.5t47.5 9q34 0 57.5 -12.5t40 -33t27.5 -43.5l115 60q-17 40 -47 75
t-74.5 56t-105.5 21q-67 0 -122 -25t-89.5 -70t-38.5 -104q-2 -42 12 -75t37.5 -57t51.5 -41.5t54 -28.5q35 -16 63.5 -30t44.5 -33t14 -50q-2 -25 -16.5 -46.5t-40 -34t-57.5 -12.5q-38 0 -66.5 16.5t-49.5 45.5t-38 66z" />
    <glyph glyph-name="T" unicode="T" horiz-adv-x="516" 
d="M74 571h184l-98 -571h141l98 571h182l23 129h-507z" />
    <glyph glyph-name="U" unicode="U" horiz-adv-x="658" 
d="M160 700l-79 -470q-11 -75 14 -132t78.5 -88.5t129.5 -31.5q81 0 144 31t103 88t53 133l80 470h-141l-79 -461q-7 -37 -25 -67t-48.5 -47.5t-73.5 -17.5q-40 0 -62 18.5t-30 48.5t-3 65l80 461h-141z" />
    <glyph glyph-name="V" unicode="V" horiz-adv-x="690" 
d="M364 245l-112 455h-160l230 -743l462 743h-166z" />
    <glyph glyph-name="W" unicode="W" horiz-adv-x="1011" 
d="M718 261l-117 476l-266 -475l-76 438h-162l171 -742l287 461l143 -460l401 741h-168z" />
    <glyph glyph-name="X" unicode="X" horiz-adv-x="626" 
d="M525 700l-154 -218l-81 218h-168l152 -335l-289 -365h176l177 250l97 -250h167l-167 359l265 341h-175z" />
    <glyph glyph-name="Y" unicode="Y" horiz-adv-x="610" 
d="M541 700l-193 -279l-97 279h-157l164 -407l-51 -293h143l48 287l308 413h-165z" />
    <glyph glyph-name="Z" unicode="Z" horiz-adv-x="579" 
d="M118 571h289l-427 -571h528l22 125l-301 1l430 574h-519z" />
    <glyph glyph-name="bracketleft" unicode="[" horiz-adv-x="333" 
d="M303 666l98 1l17 113h-225l-154 -1000h225l18 114h-99z" />
    <glyph glyph-name="backslash" unicode="\" horiz-adv-x="521" 
d="M107 701l250 -701h121l-247 700z" />
    <glyph glyph-name="bracketright" unicode="]" horiz-adv-x="333" 
d="M83 -106h-98l-18 -114h225l154 1000h-224l-18 -114h98z" />
    <glyph glyph-name="asciicircum" unicode="^" horiz-adv-x="495" 
d="M324 592l61 -141h113l-122 259h-74l-209 -258h121z" />
    <glyph glyph-name="underscore" unicode="_" horiz-adv-x="506" 
d="M-53 -147h508l14 83h-508z" />
    <glyph glyph-name="grave" unicode="`" horiz-adv-x="364" 
d="M142 658l155 -152l73 36l-123 163z" />
    <glyph glyph-name="a" unicode="a" 
d="M452 460l-78 -460h125l79 460h-126zM43 230q-9 -65 10.5 -119.5t63 -87.5t106.5 -32q45 0 84 18.5t69 51.5t49 76.5t26 92.5q6 46 0 89t-25 77t-51.5 54t-78.5 20q-62 1 -116.5 -31t-91 -86t-45.5 -123zM175 230q6 37 27.5 67t52.5 48t67 18q23 -1 41.5 -12t30 -29.5
t16 -42t1.5 -49.5q-5 -28 -18.5 -52t-33 -42t-42.5 -28t-47 -10q-35 0 -58 18.5t-33 48.5t-4 65z" />
    <glyph glyph-name="b" unicode="b" 
d="M293 780h-128l-134 -780h128zM566 230q8 65 -11.5 119.5t-62.5 87.5t-105 33q-46 -1 -85 -19.5t-69.5 -51.5t-49 -76.5t-25.5 -92.5q-6 -46 0 -89t25 -77t51.5 -54t78.5 -20q63 0 117 31.5t90 86t46 122.5zM434 230q-6 -36 -27.5 -66.5t-53 -48.5t-66.5 -17q-24 0 -42 11
t-29.5 29.5t-16 42t-1.5 49.5q4 28 17.5 52t33 42t43 28.5t47.5 10.5q35 -1 58 -19.5t32.5 -48.5t4.5 -65z" />
    <glyph glyph-name="c" unicode="c" horiz-adv-x="471" 
d="M174 230q5 36 27 66.5t54.5 48.5t71.5 19q41 0 74.5 -20t51.5 -53l18 133q-27 22 -63 34t-80 12q-73 -1 -134 -31.5t-101 -84.5t-49 -124q-10 -67 16 -121.5t78 -86t123 -31.5q46 0 84 12.5t68 33.5l18 132q-27 -30 -66.5 -51.5t-85.5 -20.5q-37 1 -62.5 19t-37 47.5
t-5.5 66.5z" />
    <glyph glyph-name="d" unicode="d" 
d="M504 780l-132 -780h126l135 780h-129zM43 230q-9 -65 10.5 -119.5t63 -87.5t106.5 -32q45 0 84 18.5t69 51.5t49 76.5t26 92.5q6 46 0 89t-25 77t-51.5 54t-78.5 20q-62 1 -116.5 -31t-91 -86t-45.5 -123zM175 230q6 37 27.5 67t52.5 48t67 18q23 -1 41.5 -12t30 -29.5
t16 -42t1.5 -49.5q-5 -28 -18.5 -52t-33 -42t-42.5 -28t-47 -10q-35 0 -58 18.5t-33 48.5t-4 65z" />
    <glyph glyph-name="e" unicode="e" horiz-adv-x="539" 
d="M264 -10q83 0 144 34.5t98 95.5l-110 35q-21 -30 -52.5 -48t-71.5 -18q-36 0 -59 15.5t-33 44.5t-6 67q3 36 13.5 66t28.5 51.5t42.5 33.5t54.5 12t48.5 -12t28 -34t9.5 -53q0 -11 -4 -23t-9 -22l34 46h-307v-80h406q5 13 8 31.5t3 34.5q0 65 -24 110t-69.5 69t-112.5 24
q-61 0 -112 -21t-88.5 -58t-58 -86t-20.5 -105q0 -66 27 -113t76.5 -72t115.5 -25z" />
    <glyph glyph-name="f" unicode="f" horiz-adv-x="317" 
d="M75 460l-20 -109h282l20 109h-282zM377 651l68 95q-18 18 -43.5 33t-64.5 15q-51 1 -89 -20.5t-61.5 -58t-31.5 -84.5l-107 -631h124l103 601q3 20 11 37.5t20.5 27.5t30.5 11q12 -1 22 -8t18 -18z" />
    <glyph glyph-name="g" unicode="g" horiz-adv-x="580" 
d="M7 -32q-3 -61 21.5 -107t73.5 -71.5t121 -24.5q71 0 129 29.5t95.5 84t49.5 131.5l77 450h-124l-78 -450q-6 -40 -27 -72t-52.5 -49.5t-67.5 -16.5q-33 0 -54 12t-31.5 33.5t-9.5 50.5h-123zM44 235q-9 -66 11 -119.5t63.5 -85t105.5 -31.5q45 0 84 18t69 50t49.5 75
t25.5 92q6 47 -0.5 89.5t-25.5 75.5t-51.5 52t-78.5 19q-62 1 -116 -29.5t-90.5 -84t-45.5 -121.5zM176 234q6 37 26.5 66t52 46t67.5 17q23 -1 41.5 -11t30 -28t16.5 -40.5t2 -48.5q-5 -28 -18.5 -51.5t-33 -41t-42.5 -27t-47 -8.5q-34 0 -57.5 17t-33.5 46t-4 64z" />
    <glyph glyph-name="h" unicode="h" horiz-adv-x="538" 
d="M296 780h-128l-134 -780h128zM372 280l-49 -280h127l51 299q7 50 -3.5 89.5t-40.5 63t-84 23.5q-55 0 -94 -28t-63 -72t-33 -94h27q6 24 20.5 46t36.5 34.5t50 12.5q26 -2 39 -15t16 -33.5t0 -45.5z" />
    <glyph glyph-name="i" unicode="i" horiz-adv-x="263" 
d="M136 638q0 -32 23 -52.5t54 -20.5q33 0 55.5 20.5t22.5 52.5t-22.5 52.5t-55.5 20.5q-31 0 -54 -20.5t-23 -52.5zM120 460l-77 -460h124l79 460h-126z" />
    <glyph glyph-name="j" unicode="j" horiz-adv-x="258" 
d="M129 638q0 -32 23 -52.5t55 -20.5t54.5 20.5t22.5 52.5t-22.5 52.5t-54.5 20.5t-55 -20.5t-23 -52.5zM-73 -89l-67 -95q19 -20 46 -34t65 -14q51 -1 88 20.5t60 58.5t31 84l90 529h-124l-86 -499q-3 -19 -10.5 -37t-19.5 -28.5t-29 -9.5q-14 0 -25 7.5t-19 17.5z" />
    <glyph glyph-name="k" unicode="k" horiz-adv-x="518" 
d="M164 780l-132 -780h123l134 780h-125zM393 460l-221 -186l168 -274h146l-166 265l231 195h-158z" />
    <glyph glyph-name="l" unicode="l" horiz-adv-x="250" 
d="M167 780l-132 -780h126l135 780h-129z" />
    <glyph glyph-name="m" unicode="m" horiz-adv-x="784" 
d="M746 294q6 48 -2 88.5t-35 64t-79 23.5q-49 0 -87.5 -22.5t-66.5 -59.5q-6 25 -20 43.5t-37.5 28.5t-58.5 10q-29 0 -53.5 -9t-44.5 -25.5t-35 -38.5l10 63h-124l-79 -460h124l49 285q4 26 17 46t32.5 31t45.5 11q24 0 34.5 -13t12.5 -34.5t0 -45.5l-50 -280h127l48 282
q4 26 17 46.5t33.5 32.5t45.5 12t35.5 -13t12.5 -34.5t0 -45.5l-51 -280h129z" />
    <glyph glyph-name="n" unicode="n" horiz-adv-x="542" 
d="M372 280l-49 -280h131l51 294q6 49 -5 89t-42.5 64t-85.5 23q-47 0 -82.5 -20.5t-58.5 -55.5l10 66h-128l-79 -460h128l49 283q4 26 18 46.5t36 32.5t49 12q28 0 41 -13.5t16.5 -34.5t0.5 -46z" />
    <glyph glyph-name="o" unicode="o" horiz-adv-x="559" 
d="M49 230q-9 -67 16.5 -121.5t77.5 -86t122 -31.5q71 0 132 30.5t100.5 85t49.5 123.5q9 67 -17 121.5t-77.5 86.5t-121.5 32q-72 0 -132 -31t-100 -85.5t-50 -123.5zM179 230q6 36 26 66t50.5 47.5t65.5 17.5q35 -1 58 -19.5t33 -48t5 -63.5q-6 -36 -26.5 -66t-50.5 -47.5
t-66 -16.5q-34 0 -57 18.5t-33 48t-5 63.5z" />
    <glyph glyph-name="p" unicode="p" 
d="M122 -219l115 679h-126l-118 -680zM566 230q8 67 -11 122t-62 88.5t-106 33.5q-47 -1 -85.5 -20t-67.5 -53t-47 -78t-25 -93q-6 -46 -1 -90t22.5 -78.5t49.5 -55t79 -20.5q63 0 117.5 32t90.5 87t46 125zM434 230q-6 -36 -27.5 -65.5t-52.5 -46.5t-66 -16q-24 0 -42 10.5
t-30 28t-16.5 40t-1.5 49.5q4 27 17.5 50.5t33 41t43 27.5t47.5 10q34 -1 57.5 -18.5t33 -46t4.5 -64.5z" />
    <glyph glyph-name="q" unicode="q" 
d="M333 -220h128l117 680h-128zM43 230q-9 -66 10.5 -121.5t62.5 -89t106 -32.5q47 0 85.5 19t67.5 53t47 78t25 93q6 46 1 90t-22.5 78.5t-49.5 55t-79 20.5q-63 1 -117.5 -31.5t-91 -87.5t-45.5 -125zM175 230q6 36 27 65.5t52.5 47t66.5 16.5q23 -1 41.5 -11.5t30 -28
t16.5 -40t2 -49.5q-5 -27 -18 -50.5t-32.5 -41t-43 -27t-47.5 -9.5q-34 1 -57.5 18t-33.5 45.5t-4 64.5z" />
    <glyph glyph-name="r" unicode="r" horiz-adv-x="381" 
d="M239 460h-126l-79 -460h126zM351 326l73 107q-15 17 -35 27.5t-44 10.5q-41 -1 -76.5 -28.5t-60.5 -71t-34 -90.5l28 -37q4 27 16.5 51.5t32.5 40t46 14.5q17 0 29.5 -7t24.5 -17z" />
    <glyph glyph-name="s" unicode="s" horiz-adv-x="427" 
d="M90 158l-71 -79q25 -25 56.5 -47t71.5 -35t87 -13q50 0 88.5 18t61.5 51.5t26 79.5q2 40 -14 66t-43.5 43.5t-61.5 31.5q-23 9 -43.5 17.5t-32.5 20t-11 28.5t16 27.5t39 10.5q32 0 62 -18t53 -44l61 79q-33 32 -77.5 53.5t-101.5 21.5q-42 0 -80 -15t-62.5 -44
t-27.5 -73q-2 -39 14 -65.5t42.5 -43.5t55.5 -28q24 -9 43.5 -18.5t31.5 -22t11 -30.5q0 -20 -16.5 -33.5t-40.5 -13.5q-24 -1 -47 8.5t-45 26.5t-45 40z" />
    <glyph glyph-name="t" unicode="t" horiz-adv-x="285" 
d="M57 460l-20 -109h278l19 109h-277zM159 620l-105 -620h122l108 620h-125z" />
    <glyph glyph-name="u" unicode="u" horiz-adv-x="542" 
d="M196 180l48 280h-130l-51 -294q-7 -50 4 -89.5t42.5 -63t85.5 -23.5q48 0 82.5 20.5t59.5 56.5l-11 -67h128l80 460h-128l-50 -283q-4 -28 -19 -48t-37.5 -31t-48.5 -11q-27 0 -40 13t-16 34t1 46z" />
    <glyph glyph-name="v" unicode="v" horiz-adv-x="485" 
d="M52 460l167 -509l325 509h-139l-151 -274l-66 274h-136z" />
    <glyph glyph-name="w" unicode="w" horiz-adv-x="714" 
d="M49 460l135 -493l191 292l92 -292l305 493h-138l-143 -254l-80 291l-176 -289l-54 252h-132z" />
    <glyph glyph-name="x" unicode="x" horiz-adv-x="483" 
d="M385 460l-110 -132l-69 132h-141l129 -217l-215 -243h150l119 149l80 -149h136l-136 233l202 227h-145z" />
    <glyph glyph-name="y" unicode="y" horiz-adv-x="481" 
d="M542 460h-136l-204 -363l64 -3l-83 366h-137l116 -410l-162 -269h134z" />
    <glyph glyph-name="z" unicode="z" horiz-adv-x="488" 
d="M290 343l-306 -343h436l21 118h-211l298 342h-425l-21 -117h208z" />
    <glyph glyph-name="braceleft" unicode="{" horiz-adv-x="360" 
d="M312 626q4 21 18 35.5t37 14.5h34l15 104h-83q-38 0 -72 -16.5t-57 -48t-29 -74.5l-30 -193q-6 -48 -22.5 -73t-48.5 -38l-14 -94q29 -16 36 -40t2 -70l-29 -193q-6 -43 9 -74t44 -48.5t66 -17.5h77l15 105h-35q-15 0 -24.5 6.5t-13 18t-1.5 24.5l22 136q5 34 7 68.5
t-6.5 65t-31.5 51t-68 25.5l-3 -19q47 4 76.5 23t46.5 48.5t26 65t16 72.5z" />
    <glyph glyph-name="bar" unicode="|" horiz-adv-x="318" 
d="M200 785l-154 -999h127l153 999h-126z" />
    <glyph glyph-name="braceright" unicode="}" horiz-adv-x="360" 
d="M109 -46q-4 -21 -18.5 -35.5t-37.5 -14.5h-33l-15 -103h83q38 0 71.5 16t56.5 47.5t30 75.5l29 193q7 48 23.5 72.5t48.5 37.5l14 94q-30 16 -37 40t-2 70l29 193q6 43 -9 74t-44 48.5t-66 17.5h-76l-16 -104h36q14 -1 23 -7.5t13 -17.5t2 -24l-22 -137q-5 -33 -6.5 -68
t6 -65.5t31.5 -51t69 -25.5l2 20q-46 -5 -75.5 -24t-47 -48.5t-26.5 -65t-15 -72.5z" />
    <glyph glyph-name="asciitilde" unicode="~" horiz-adv-x="558" 
d="M158 167q-1 6 -2 13t1 14q4 19 18 33t37 15q12 1 24.5 -4t25 -12.5t25.5 -16.5q28 -22 55 -35.5t56 -13.5q34 -1 61.5 13t48.5 37q16 19 25 42.5t12 46.5q1 7 0.5 14t-0.5 14l-106 5q2 -7 2.5 -15.5t-0.5 -16.5q-4 -16 -15.5 -29t-28.5 -13q-14 0 -30 10.5t-33 22.5
q-29 21 -56 35t-58 14q-40 0 -71.5 -15.5t-53.5 -40.5q-17 -20 -27 -42t-13 -45q-1 -7 -1 -13t1 -12z" />
    <glyph glyph-name="uni00A0" unicode="&#xa0;" horiz-adv-x="301" 
 />
    <glyph glyph-name="exclamdown" unicode="&#xa1;" horiz-adv-x="320" 
d="M172 -234l54 478h-103l-109 -478h158zM283 410q4 32 -16 54t-53 23t-60 -21.5t-31 -53.5q-4 -32 16.5 -54t53.5 -23t60 21.5t30 53.5z" />
    <glyph glyph-name="cent" unicode="&#xa2;" horiz-adv-x="563" 
d="M221 38l-32 -149h108l20 149h-96zM199 230q6 37 29 67.5t56 48t71 18.5q44 0 75.5 -21t48.5 -53l20 134q-26 21 -63 33.5t-79 12.5q-73 -1 -134.5 -31.5t-102.5 -84.5t-51 -124q-10 -67 14.5 -121.5t76.5 -86t123 -31.5q44 0 83.5 12t69.5 33l20 133q-27 -28 -67 -50.5
t-87 -21.5q-37 1 -62 19t-36 48t-5 66zM307 578l-20 -149h96l32 149h-108z" />
    <glyph glyph-name="sterling" unicode="&#xa3;" 
d="M101 370l-17 -92h364l17 92h-364zM481 471l120 43q1 36 -11 71t-37 62.5t-62 44.5t-85 18q-46 0 -89 -13t-77.5 -38t-58 -60t-29.5 -78q-4 -39 6 -70t24 -58.5t24 -56t5 -61.5q-9 -53 -35.5 -98.5t-65 -88t-83.5 -88.5h463l22 121h-346l-45 -70q33 10 67.5 30t65.5 48
t52.5 63.5t27.5 75.5q5 36 -4.5 65t-22.5 55.5t-21 54t-2 60.5q5 28 22 48t41 30.5t51 10.5q27 -1 44 -12t26 -28.5t11.5 -38.5t1.5 -42z" />
    <glyph glyph-name="currency" unicode="&#xa4;" horiz-adv-x="561" 
d="M85 505l83 -98l62 54l-80 101zM66 39l110 96l-50 60l-110 -94zM484 406l110 95l-49 61l-111 -95zM378 139l82 -100l63 55l-80 101zM73 300q-10 -64 12 -118.5t69 -87.5t114 -33t125 32t96.5 86.5t47.5 120.5q9 64 -13 118.5t-68.5 88t-113.5 33.5q-68 0 -126 -32.5
t-96 -87t-47 -120.5zM190 300q6 33 25.5 61t49 44.5t64.5 16.5q34 -1 55.5 -18t30.5 -44.5t5 -59.5q-6 -33 -26 -61t-49.5 -44.5t-63.5 -15.5q-34 0 -56 17t-31 44.5t-4 59.5z" />
    <glyph glyph-name="yen" unicode="&#xa5;" horiz-adv-x="623" 
d="M63 273h533l16 92h-533zM37 123h533l16 92h-533zM547 700l-194 -279l-96 279h-157l164 -406l-52 -294h145l49 290l305 410h-164z" />
    <glyph glyph-name="brokenbar" unicode="&#xa6;" horiz-adv-x="318" 
d="M188 695l-44 -257h126l44 257h-126zM240 262h-126l-44 -256h126z" />
    <glyph glyph-name="section" unicode="&#xa7;" horiz-adv-x="509" 
d="M433 559l78 79q-22 37 -67 59t-100 22q-41 -1 -82.5 -16.5t-70.5 -46t-36 -73.5q-4 -29 3.5 -50.5t22 -38.5t34.5 -30t42 -22q22 -11 45.5 -22t38.5 -27t11 -42q-4 -22 -18 -38t-33 -26t-39 -15l-7 -39q37 1 74 9t67.5 24.5t51 43t25.5 65.5q5 34 -9.5 61.5t-41 47.5
t-58.5 31q-15 5 -30.5 10.5t-29.5 12.5t-22 15.5t-6 20.5q1 12 11 19.5t24.5 12t29.5 4.5q25 0 50 -14t42 -37zM113 169l-79 -77q17 -33 44.5 -57.5t65 -38.5t84.5 -14q48 0 92.5 16.5t76 49t38.5 82.5q4 35 -9.5 62t-38.5 48t-55 35q-17 7 -36.5 15t-36 17.5t-25.5 24
t-5 37.5q4 21 17.5 35t33.5 23.5t41 17.5l6 34q-39 -1 -76.5 -9t-68.5 -24.5t-51.5 -41.5t-25.5 -61q-5 -38 11.5 -65t46 -46.5t62.5 -30.5q20 -8 40 -16.5t33 -20.5t9 -30q-2 -15 -13 -24t-26 -14t-32 -5q-38 0 -69.5 21.5t-53.5 56.5z" />
    <glyph glyph-name="dieresis" unicode="&#xa8;" horiz-adv-x="483" 
d="M359 642q-4 -31 16 -52t51 -22q30 -1 56 20.5t30 51.5q2 30 -18 51.5t-50 22.5t-56.5 -21t-28.5 -51zM136 642q-4 -31 16 -52t51 -22q30 -1 56 20.5t29 51.5t-17 51.5t-50 22.5q-31 1 -57 -21t-28 -51z" />
    <glyph glyph-name="copyright" unicode="&#xa9;" horiz-adv-x="776" 
d="M302 350q7 39 29.5 69.5t55.5 48.5t71 18q39 0 66.5 -16t47.5 -41l13 96q-26 20 -55.5 32t-69.5 12q-64 -1 -117.5 -29.5t-88.5 -78t-43 -111.5q-8 -60 14 -109.5t67 -79t108 -29.5q41 0 72.5 11.5t59.5 31.5l13 96q-26 -23 -59.5 -40t-75.5 -16q-38 0 -64 18.5t-37.5 49
t-6.5 67.5zM130 350q10 64 40.5 120t77 98.5t105 67t124.5 24.5q64 -1 113 -26t81 -68.5t45 -99t5 -116.5q-11 -64 -41.5 -120t-77 -98.5t-105 -67t-123.5 -23.5q-65 0 -114 25t-81 68.5t-45 99t-4 116.5zM75 350q-10 -72 7 -137t57 -115t99.5 -79t135.5 -29t144.5 27.5
t122.5 77t89 115t45 140.5q10 72 -7 137t-57 115t-99.5 79t-134.5 29q-77 0 -145.5 -27.5t-122.5 -77t-89 -115t-45 -140.5z" />
    <glyph glyph-name="ordfeminine" unicode="&#xaa;" horiz-adv-x="252" 
d="M145 530q2 16 18.5 27.5t35.5 11.5q17 0 30.5 -5.5t26.5 -15.5l6 32q-13 9 -31.5 17.5t-43.5 8.5q-37 0 -69.5 -20.5t-37.5 -55.5q-4 -33 17 -53.5t54 -20.5q35 -1 59.5 18.5t33.5 49.5l-4 28q-8 -23 -25 -37.5t-41 -13.5q-15 0 -23 8.5t-6 20.5zM143 631q12 7 32.5 14.5
t42.5 6.5q17 -2 24.5 -10.5t9.5 -23.5l-29 -157h63l28 171q3 36 -23 54.5t-65 18.5q-29 0 -54 -8.5t-45 -17.5z" />
    <glyph glyph-name="guillemotleft" unicode="&#xab;" horiz-adv-x="516" 
d="M340 257l179 186l-72 60l-215 -244l135 -252l86 56zM155 257l179 186l-71 60l-216 -244l136 -252l86 56z" />
    <glyph glyph-name="logicalnot" unicode="&#xac;" horiz-adv-x="622" 
d="M84 281h403l-20 -105h96l38 218h-498z" />
    <glyph glyph-name="uni00AD" unicode="&#xad;" horiz-adv-x="204" 
d="M12 201h197l12 74h-196z" />
    <glyph glyph-name="registered" unicode="&#xae;" horiz-adv-x="776" 
d="M392 337l78 -187h98l-98 187h-78zM322 570l-65 -419h85l66 419h-86zM362 497h84q28 -1 46 -16.5t14 -43.5q-5 -30 -29 -45t-54 -17h-80l-11 -68l90 1q67 1 115 36.5t57 96.5q7 58 -33 93t-104 36h-84zM130 350q10 64 40.5 120t77 98.5t105 67t124.5 24.5q64 -1 113 -26
t81 -68.5t45 -99t5 -116.5q-11 -64 -41.5 -120t-77 -98.5t-105 -67t-123.5 -23.5q-65 0 -114 25t-81 68.5t-45 99t-4 116.5zM75 350q-10 -72 7 -137t57 -115t99.5 -79t135.5 -29t144.5 28t122.5 77t89 114.5t45 140.5q10 72 -7 137t-57 115t-99.5 79t-134.5 29
q-77 0 -145.5 -28t-122.5 -77t-89 -114.5t-45 -140.5z" />
    <glyph glyph-name="macron" unicode="&#xaf;" horiz-adv-x="510" 
d="M149 581h357l18 113h-357z" />
    <glyph glyph-name="degree" unicode="&#xb0;" horiz-adv-x="282" 
d="M91 599q-4 -34 8 -62t38 -44t61 -16q36 -1 66.5 15t51 43.5t25.5 61.5t-8 61.5t-39 44t-61 17.5q-35 0 -65.5 -16t-51 -43.5t-25.5 -61.5zM154 597q3 18 14 33t27.5 24.5t34.5 9.5q26 -1 38.5 -21t9.5 -45q-3 -17 -14.5 -32t-27.5 -24.5t-34 -8.5q-26 0 -39 20t-9 44z
" />
    <glyph glyph-name="plusminus" unicode="&#xb1;" horiz-adv-x="609" 
d="M47 4h484l18 115h-485zM97 336h485l19 119h-485zM318 620l-69 -448l130 -1l70 449h-131z" />
    <glyph glyph-name="uni00B2" unicode="&#xb2;" horiz-adv-x="378" 
d="M43 283h330l14 78l-167 1l123 102q26 23 47 51t27 62q5 34 -8.5 64.5t-43.5 49.5t-74 19q-50 0 -87 -22t-60 -58t-32 -79h84q5 21 16.5 41t29.5 32t41 11q18 -1 29.5 -10t15.5 -22t2 -27q-4 -28 -25 -50.5t-43 -43.5z" />
    <glyph glyph-name="uni00B3" unicode="&#xb3;" horiz-adv-x="338" 
d="M202 485q41 2 80 12.5t66 33.5t33 61q5 33 -9 58.5t-43 41t-66 15.5q-61 0 -101.5 -35t-52.5 -87l80 -1q7 20 24.5 36.5t43.5 16.5q23 -1 33 -15.5t7 -33.5t-16 -32t-32.5 -20.5t-40.5 -9.5zM192 272q41 0 77.5 14.5t60 42t29.5 64.5q5 33 -6.5 55t-34 36t-52.5 20.5
t-61 8.5l-8 -45q23 -2 42.5 -9t29.5 -20.5t6 -34.5q-4 -28 -26.5 -45t-49.5 -15q-30 0 -43 17.5t-13 44.5h-83q-2 -37 12 -67.5t44.5 -48.5t75.5 -18z" />
    <glyph glyph-name="acute" unicode="&#xb4;" horiz-adv-x="364" 
d="M389 653l-97 51l-168 -157l69 -40z" />
    <glyph glyph-name="mu" unicode="&#xb5;" horiz-adv-x="550" 
d="M245 460h-132l-133 -779l124 -1l56 334q15 -10 31 -14.5t35 -4.5q31 0 59.5 16t49.5 43l-9 -54h129l78 460h-125l-48 -265q-5 -27 -19 -47.5t-35 -32t-49 -11.5q-26 -1 -40.5 10.5t-19.5 31.5t-1 45z" />
    <glyph glyph-name="paragraph" unicode="&#xb6;" horiz-adv-x="623" 
d="M298 271l-84 -490h112l142 835h65l-143 -835h112l157 919h-288q-64 0 -119 -25.5t-91.5 -73.5t-47.5 -115q-10 -65 12 -112t67 -73.5t106 -29.5z" />
    <glyph glyph-name="periodcentered" unicode="&#xb7;" horiz-adv-x="306" 
d="M90 260q-3 -21 5 -39.5t25 -29.5t39 -11q22 -1 42 10t33.5 29.5t16.5 38.5q3 22 -5.5 40t-25 29.5t-38.5 12.5q-23 0 -43 -11t-33.5 -29t-15.5 -40z" />
    <glyph glyph-name="cedilla" unicode="&#xb8;" horiz-adv-x="369" 
d="M164 67l-114 -184q21 7 42.5 11.5t35.5 3.5q11 0 22.5 -3.5t19 -10.5t5.5 -18q-1 -12 -10.5 -20.5t-23 -13t-26.5 -4.5q-17 0 -33.5 6.5t-31.5 17.5l-49 -57q29 -21 57 -31t64 -9q30 0 59.5 12t50.5 35t25 56q4 39 -18 63.5t-54 27.5q-7 0 -13 -1l-12 -2l100 119z" />
    <glyph glyph-name="uni00B9" unicode="&#xb9;" horiz-adv-x="465" 
d="M207 585l101 25l-57 -335h84l74 428l-189 -41z" />
    <glyph glyph-name="ordmasculine" unicode="&#xba;" horiz-adv-x="270" 
d="M90 581q-7 -51 23.5 -85.5t83.5 -34.5q35 -1 66 15t51 42.5t25 61.5q5 33 -8 60t-39 43t-61 17q-35 0 -65.5 -15.5t-51 -42.5t-24.5 -61zM154 580q3 17 14 32t27 24t33 9q25 -1 37 -20.5t9 -44.5q-3 -17 -14 -32t-27 -24t-33 -8q-24 0 -36.5 19.5t-9.5 44.5z" />
    <glyph glyph-name="guillemotright" unicode="&#xbb;" horiz-adv-x="516" 
d="M209 253l-179 -185l72 -60l216 243l-136 253l-86 -57zM394 253l-179 -185l71 -60l216 243l-136 253l-85 -57z" />
    <glyph glyph-name="onequarter" unicode="&#xbc;" horiz-adv-x="777" 
d="M697 699l-623 -699h89l624 699h-90zM97 585l101 25l-56 -335h83l73 428l-188 -41zM376 79l357 -1l13 73h-102l-12 -9l-178 -1zM470 99l153 178l-29 -171l-9 -6l-17 -100h88l72 420l-60 -1l-295 -342z" />
    <glyph glyph-name="onehalf" unicode="&#xbd;" horiz-adv-x="845" 
d="M697 699l-623 -699h89l624 699h-90zM97 585l101 25l-56 -335h83l73 428l-188 -41zM458 3h330l14 78l-167 1l122 102q28 23 48.5 51t25.5 62q6 34 -8 64.5t-44 49.5t-74 19q-49 0 -86.5 -22t-60.5 -58t-31 -79h84q5 21 16.5 41t29.5 32t41 11q18 -1 29 -10t15.5 -22
t2.5 -27q-5 -28 -25.5 -50.5t-43.5 -43.5z" />
    <glyph glyph-name="threequarters" unicode="&#xbe;" horiz-adv-x="835" 
d="M760 699l-623 -699h89l624 699h-90zM209 485q41 2 80 12.5t66 33.5t33 61q5 33 -9.5 58.5t-42.5 41t-67 15.5q-61 0 -101 -35t-52 -87l80 -1q6 20 24 36.5t44 16.5q22 -1 32.5 -15.5t7.5 -33.5q-4 -19 -17 -32t-32 -20.5t-40 -9.5zM198 272q42 0 78.5 14.5t60.5 42
t29 64.5q5 33 -6.5 55t-34 36t-52.5 20.5t-61 8.5l-8 -45q24 -2 43 -9t29 -20.5t6 -34.5q-4 -28 -26.5 -45t-49.5 -15q-30 0 -43 17.5t-13 44.5h-83q-2 -37 12.5 -67.5t44 -48.5t74.5 -18zM435 79l357 -1l13 73h-102l-12 -9l-178 -1zM528 99l153 178l-29 -171l-8 -6
l-17 -100h88l72 420l-60 -1l-295 -342z" />
    <glyph glyph-name="questiondown" unicode="&#xbf;" horiz-adv-x="587" 
d="M188 200q7 36 36 65.5t71.5 47t93.5 18.5h29l9 178h-103l-22 -96q-57 -10 -108.5 -37.5t-88 -71t-45.5 -103.5q-7 -48 6.5 -87.5t42.5 -68.5t69 -45t87 -16q85 0 148.5 34.5t116.5 89.5l-80 73q-31 -37 -73.5 -61.5t-90.5 -23.5q-35 0 -59 13t-34.5 36.5t-4.5 54.5z
M480 646q3 30 -18 52t-53 23q-22 0 -42 -10t-33 -26.5t-15 -36.5q-4 -30 16.5 -52t53.5 -22q21 -1 40.5 9t33.5 27t17 36z" />
    <glyph glyph-name="Agrave" unicode="&#xc0;" horiz-adv-x="690" 
d="M167 159h361l3 113h-329zM402 473l59 -243l-9 -36l55 -194h155l-218 744l-474 -744h163l123 200l3 32zM334 953l152 -152l74 37l-120 162z" />
    <glyph glyph-name="Aacute" unicode="&#xc1;" horiz-adv-x="690" 
d="M167 159h361l3 113h-329zM402 473l59 -243l-9 -36l55 -194h155l-218 744l-474 -744h163l123 200l3 32zM627 949l-96 51l-171 -157l69 -41z" />
    <glyph glyph-name="Acircumflex" unicode="&#xc2;" horiz-adv-x="690" 
d="M167 159h361l3 113h-329zM402 473l59 -243l-9 -36l55 -194h155l-218 744l-474 -744h163l123 200l3 32zM470 867l78 -88l94 59l-160 142l-201 -137l79 -64z" />
    <glyph glyph-name="Atilde" unicode="&#xc3;" horiz-adv-x="690" 
d="M167 159h361l3 113h-329zM402 473l59 -243l-9 -36l55 -194h155l-218 744l-474 -744h163l123 200l3 32zM281 849l59 -56q6 14 18 31.5t38 18.5q23 1 41 -11t37 -25t43 -14q28 -1 53.5 11t46 31t33.5 37l-55 66q-16 -19 -33 -34.5t-37 -15.5q-25 -1 -42 11t-34.5 24.5
t-43.5 13.5q-29 0 -53.5 -12.5t-42.5 -33t-28 -42.5z" />
    <glyph glyph-name="Adieresis" unicode="&#xc4;" horiz-adv-x="690" 
d="M167 159h361l3 113h-329zM402 473l59 -243l-9 -36l55 -194h155l-218 744l-474 -744h163l123 200l3 32zM509 838q-4 -31 15.5 -52.5t50.5 -21.5q30 -1 56 20.5t30 50.5q4 30 -15.5 52t-50.5 23q-30 0 -56 -21.5t-30 -50.5zM257 842q-4 -30 16 -51.5t51 -22.5
q30 -1 56 20.5t30 51.5q3 30 -16.5 51.5t-49.5 22.5t-56.5 -21t-30.5 -51z" />
    <glyph glyph-name="Aring" unicode="&#xc5;" horiz-adv-x="690" 
d="M167 159h361l3 113h-329zM402 473l59 -243l-9 -36l55 -194h155l-218 744l-474 -744h163l123 200l3 32zM339 801q-4 -31 8 -56.5t36 -40t55 -14.5q32 -1 60 13.5t48 39.5t24 56q5 31 -7.5 56t-37 40t-55.5 15t-59.5 -14.5t-48 -39t-23.5 -55.5zM408 799q1 13 10.5 24.5
t22 19t24.5 6.5q17 -1 27.5 -16t8.5 -32q-2 -13 -11 -24.5t-22 -18.5t-24 -6q-18 0 -28 14.5t-8 32.5z" />
    <glyph glyph-name="AE" unicode="&#xc6;" horiz-adv-x="1015" 
d="M247 170l298 -1l23 132h-294zM520 700l-538 -700h176l483 658zM556 0h365l21 121h-365zM667 579h353l21 121h-521zM610 313l345 -1l21 119h-346zM606 700l-118 -700h148l120 700h-150z" />
    <glyph glyph-name="Ccedilla" unicode="&#xc7;" horiz-adv-x="675" 
d="M219 350q8 49 32 90t59 71.5t78.5 47.5t90.5 18q65 0 111.5 -26.5t78.5 -69.5l25 161q-42 35 -91 53.5t-115 18.5q-81 0 -152 -27.5t-127.5 -77t-93.5 -116t-49 -143.5q-11 -75 5.5 -140.5t57.5 -116t102.5 -79t140.5 -28.5q69 0 123 19.5t102 52.5l24 160
q-45 -38 -101 -66.5t-126 -27.5q-47 0 -82.5 18t-59 49.5t-32.5 72t-1 86.5zM333 51l-113 -185q20 8 42 12.5t36 3.5q11 0 22.5 -3.5t18.5 -10.5t5 -18q-1 -12 -10 -20.5t-22.5 -13t-27.5 -4.5q-17 0 -33.5 6.5t-31.5 17.5l-48 -57q28 -20 56.5 -30.5t63.5 -9.5q31 0 60 12
t50 35t26 56q4 39 -18.5 63.5t-53.5 26.5q-7 0 -13.5 -0.5t-12.5 -1.5l101 118z" />
    <glyph glyph-name="Egrave" unicode="&#xc8;" horiz-adv-x="569" 
d="M135 0h345l21 121h-345zM234 580l345 -1l21 121h-345zM188 313l326 -1l21 119h-326zM165 700l-119 -700h135l121 700h-137zM274 930l152 -151l74 36l-120 163z" />
    <glyph glyph-name="Eacute" unicode="&#xc9;" horiz-adv-x="569" 
d="M135 0h345l21 121h-345zM234 580l345 -1l21 121h-345zM188 313l326 -1l21 119h-326zM165 700l-119 -700h135l121 700h-137zM567 926l-96 51l-171 -157l69 -40z" />
    <glyph glyph-name="Ecircumflex" unicode="&#xca;" horiz-adv-x="569" 
d="M135 0h345l21 121h-345zM234 580l345 -1l21 121h-345zM188 313l326 -1l21 119h-326zM165 700l-119 -700h135l121 700h-137zM416 862l79 -88l93 60l-159 142l-202 -137l79 -64z" />
    <glyph glyph-name="Edieresis" unicode="&#xcb;" horiz-adv-x="569" 
d="M135 0h345l21 121h-345zM234 580l345 -1l21 121h-345zM188 313l326 -1l21 119h-326zM165 700l-119 -700h135l121 700h-137zM450 861q-4 -31 15.5 -52.5t51.5 -21.5q29 -1 55 20.5t31 50.5q3 30 -16.5 51.5t-49.5 23.5q-31 0 -57 -21.5t-30 -50.5zM227 861
q-4 -31 15.5 -52.5t51.5 -21.5q29 -1 55 20.5t31 50.5q3 30 -16.5 51.5t-50.5 23.5q-30 0 -56 -21.5t-30 -50.5z" />
    <glyph glyph-name="Igrave" unicode="&#xcc;" horiz-adv-x="288" 
d="M165 700l-119 -700h142l120 700h-143zM124 930l152 -151l75 36l-121 163z" />
    <glyph glyph-name="Iacute" unicode="&#xcd;" horiz-adv-x="288" 
d="M165 700l-119 -700h142l120 700h-143zM417 926l-95 51l-171 -157l68 -40z" />
    <glyph glyph-name="Icircumflex" unicode="&#xce;" horiz-adv-x="288" 
d="M165 700l-119 -700h142l120 700h-143zM260 862l79 -88l94 60l-160 142l-201 -137l79 -64z" />
    <glyph glyph-name="Idieresis" unicode="&#xcf;" horiz-adv-x="288" 
d="M165 700l-119 -700h142l120 700h-143zM297 849q-3 -30 16 -51.5t50 -22.5q30 -1 56.5 20.5t30.5 51.5q3 30 -16.5 51.5t-50.5 22.5q-30 1 -56 -20.5t-30 -51.5zM74 849q-3 -30 16 -51.5t50 -22.5q30 -1 56.5 20.5t30.5 51.5q3 30 -17 51.5t-50 22.5q-31 1 -56.5 -20.5
t-29.5 -51.5z" />
    <glyph glyph-name="Eth" unicode="&#xd0;" horiz-adv-x="695" 
d="M30 305h327l15 92h-326zM165 700l-119 -700h144l120 700h-145zM282 0q108 2 195 46t144 122.5t74 181.5q14 100 -18.5 178.5t-105.5 124t-179 47.5h-138l-23 -130h143q63 -2 106 -29t61.5 -75.5t8.5 -115.5q-12 -70 -49 -118.5t-91 -74t-119 -27.5h-134l-23 -130h148z
" />
    <glyph glyph-name="Ntilde" unicode="&#xd1;" horiz-adv-x="764" 
d="M648 700l-75 -434l-403 468l-125 -734h137l75 435l403 -469l125 734h-137zM292 822l58 -55q6 13 18 30.5t39 19.5q22 1 40.5 -11.5t37.5 -25.5t43 -13q28 -2 53.5 10.5t45.5 31.5t33 37l-54 66q-16 -20 -33 -35t-37 -16q-25 -1 -41.5 11.5t-34.5 25t-45 13.5
q-28 0 -52.5 -12.5t-42.5 -33t-28 -43.5z" />
    <glyph glyph-name="Ograve" unicode="&#xd2;" horiz-adv-x="788" 
d="M215 350q8 47 30.5 89t56 74t76.5 50t92 18q49 -1 84 -20t56 -51.5t28 -74t0 -85.5q-8 -47 -30.5 -89t-56 -74t-76.5 -50t-92 -17q-49 0 -83.5 19t-56 51.5t-28.5 74t0 85.5zM66 350q-11 -73 5 -139.5t56 -118t101 -81.5t140 -30q80 0 150.5 28.5t127 79.5t93 118
t48.5 143q11 73 -6 139t-57 117t-101 79.5t-139 28.5q-79 0 -149.5 -27.5t-127 -77.5t-93 -116t-48.5 -143zM390 930l152 -151l75 36l-121 163z" />
    <glyph glyph-name="Oacute" unicode="&#xd3;" horiz-adv-x="788" 
d="M215 350q8 47 30.5 89t56 74t76.5 50t92 18q49 -1 84 -20t56 -51.5t28 -74t0 -85.5q-8 -47 -30.5 -89t-56 -74t-76.5 -50t-92 -17q-49 0 -83.5 19t-56 51.5t-28.5 74t0 85.5zM66 350q-11 -73 5 -139.5t56 -118t101 -81.5t140 -30q80 0 150.5 28.5t127 79.5t93 118
t48.5 143q11 73 -6 139t-57 117t-101 79.5t-139 28.5q-79 0 -149.5 -27.5t-127 -77.5t-93 -116t-48.5 -143zM672 926l-96 51l-171 -157l69 -40z" />
    <glyph glyph-name="Ocircumflex" unicode="&#xd4;" horiz-adv-x="788" 
d="M215 350q8 47 30.5 89t56 74t76.5 50t92 18q49 -1 84 -20t56 -51.5t28 -74t0 -85.5q-8 -47 -30.5 -89t-56 -74t-76.5 -50t-92 -17q-49 0 -83.5 19t-56 51.5t-28.5 74t0 85.5zM66 350q-11 -73 5 -139.5t56 -118t101 -81.5t140 -30q80 0 150.5 28.5t127 79.5t93 118
t48.5 143q11 73 -5.5 139t-57 117t-101.5 79.5t-139 28.5q-79 0 -149 -27.5t-127 -77.5t-93.5 -116t-48.5 -143zM520 862l79 -88l94 60l-161 142l-201 -137l79 -64z" />
    <glyph glyph-name="Otilde" unicode="&#xd5;" horiz-adv-x="788" 
d="M215 350q8 47 30.5 89t56 74t76.5 50t92 18q49 -1 84 -20t56 -51.5t28 -74t0 -85.5q-8 -47 -30.5 -89t-56 -74t-76.5 -50t-92 -17q-49 0 -83.5 19t-56 51.5t-28.5 74t0 85.5zM66 350q-11 -73 5 -139.5t56 -118t101 -81.5t140 -30q80 0 150.5 28.5t127 79.5t93 118
t48.5 143q11 73 -5.5 139t-57 117t-101.5 79.5t-139 28.5q-79 0 -149 -27.5t-127 -77.5t-93.5 -116t-48.5 -143zM325 831l59 -56q6 14 18 31.5t38 18.5q22 1 40.5 -11t37.5 -25t43 -14q28 -1 53.5 11t45.5 31t33 38l-54 65q-16 -19 -33 -34.5t-37 -15.5q-25 -1 -42 11
t-34.5 24.5t-43.5 13.5q-26 0 -53 -12.5t-46.5 -32.5t-24.5 -43z" />
    <glyph glyph-name="Odieresis" unicode="&#xd6;" horiz-adv-x="788" 
d="M215 350q8 47 30.5 89t56 74t76.5 50t92 18q49 -1 84 -20t56 -51.5t28 -74t0 -85.5q-8 -47 -30.5 -89t-56 -74t-76.5 -50t-92 -17q-49 0 -83.5 19t-56 51.5t-28.5 74t0 85.5zM66 350q-11 -73 5 -139.5t56 -118t101 -81.5t140 -30q80 0 150.5 28.5t127 79.5t93 118
t48.5 143q11 73 -6 139t-57 117t-101 79.5t-139 28.5q-79 0 -149.5 -27.5t-127 -77.5t-93 -116t-48.5 -143zM547 849q-4 -30 16 -51.5t50 -22.5t56.5 20.5t29.5 51.5q4 30 -16 51.5t-50 22.5q-31 1 -57 -20.5t-29 -51.5zM324 849q-4 -30 15.5 -51.5t50.5 -22.5
q30 -1 56.5 20.5t29.5 51.5q4 30 -16 51.5t-50 22.5q-31 1 -57 -20.5t-29 -51.5z" />
    <glyph glyph-name="multiply" unicode="&#xd7;" horiz-adv-x="578" 
d="M107 9l189 168l130 -168l91 79l-137 164l192 163l-67 86l-189 -167l-130 167l-91 -78l137 -165l-193 -163z" />
    <glyph glyph-name="Oslash" unicode="&#xd8;" horiz-adv-x="767" 
d="M215 350q8 48 30.5 89.5t56 73.5t76.5 50t92 18q48 -1 83 -20t56.5 -51.5t28.5 -73.5t0 -86q-8 -48 -30.5 -89.5t-56 -73.5t-76.5 -50t-92 -17q-49 0 -83.5 19t-56 51.5t-28.5 73.5t0 86zM66 350q-11 -73 5.5 -139.5t56.5 -118t101 -81.5t139 -30q79 0 149.5 28.5
t127 79.5t93.5 118t49 143q11 73 -5.5 139t-57 116.5t-101.5 79.5t-139 29q-79 0 -149.5 -27.5t-127 -77.5t-93 -116t-48.5 -143zM773 754l-757 -759l60 -49l758 757z" />
    <glyph glyph-name="Ugrave" unicode="&#xd9;" horiz-adv-x="658" 
d="M160 700l-79 -470q-11 -75 14 -132t78.5 -88.5t128.5 -31.5q78 0 141 31t105 88t55 133l80 470h-141l-79 -461q-8 -37 -27 -67t-49.5 -48t-70.5 -17q-39 0 -61.5 18.5t-30.5 48.5t-3 65l80 461h-141zM313 926l152 -152l74 37l-120 162z" />
    <glyph glyph-name="Uacute" unicode="&#xda;" horiz-adv-x="658" 
d="M160 700l-79 -470q-11 -75 14 -132t78.5 -88.5t128.5 -31.5q78 0 141 31t105 88t55 133l80 470h-141l-79 -461q-8 -37 -27 -67t-49.5 -48t-70.5 -17q-39 0 -61.5 18.5t-30.5 48.5t-3 65l80 461h-141zM608 922l-96 50l-171 -156l69 -41z" />
    <glyph glyph-name="Ucircumflex" unicode="&#xdb;" horiz-adv-x="658" 
d="M160 700l-79 -470q-11 -75 14 -132t78.5 -88.5t128.5 -31.5q78 0 141 31t105 88t55 133l80 470h-141l-79 -461q-8 -37 -27 -67t-49.5 -48t-70.5 -17q-39 0 -61.5 18.5t-30.5 48.5t-3 65l80 461h-141zM452 862l79 -88l94 60l-160 142l-201 -137l78 -64z" />
    <glyph glyph-name="Udieresis" unicode="&#xdc;" horiz-adv-x="658" 
d="M160 700l-79 -470q-11 -75 14 -132t78.5 -88.5t128.5 -31.5q78 0 141 31t105 88t55 133l80 470h-141l-79 -461q-8 -37 -27 -67t-49.5 -48t-70.5 -17q-39 0 -61.5 18.5t-30.5 48.5t-3 65l80 461h-141zM494 849q-4 -30 16 -51.5t51 -22.5q29 -1 55.5 20.5t30.5 51.5
t-16 51.5t-50 22.5q-31 1 -57 -20.5t-30 -51.5zM246 849q-4 -30 16 -51.5t50 -22.5t56.5 20.5t30.5 51.5q3 30 -16.5 51.5t-50.5 22.5q-30 1 -56 -20.5t-30 -51.5z" />
    <glyph glyph-name="Yacute" unicode="&#xdd;" horiz-adv-x="610" 
d="M584 922l-96 50l-170 -156l68 -41zM541 700l-193 -279l-97 279h-157l164 -407l-51 -293h143l48 287l308 413h-165z" />
    <glyph glyph-name="Thorn" unicode="&#xde;" horiz-adv-x="576" 
d="M169 700l-119 -700h125l121 700h-127zM204 456h140q35 -1 61 -12t38.5 -33.5t5.5 -57.5q-6 -36 -27 -59t-52.5 -34t-69.5 -12h-131l-21 -117h141q76 1 137 27.5t101 75.5t51 118q9 68 -16.5 117t-79 76t-126.5 28h-132z" />
    <glyph glyph-name="germandbls" unicode="&#xdf;" horiz-adv-x="591" 
d="M372 -12q58 0 105 27t75 73t28 102q0 43 -13 70.5t-33 45.5t-40 31t-33.5 26.5t-13.5 33.5t14.5 37t36 34.5t42.5 39t35.5 51.5t14.5 72q0 51 -26.5 87.5t-71.5 57t-102 20.5q-82 0 -137 -28.5t-86.5 -79.5t-41.5 -118l-96 -572h130l95 564q6 40 22 66t40.5 39t57.5 13
q36 0 58.5 -17t22.5 -54q0 -31 -14.5 -53.5t-36 -41.5t-43 -37t-36 -39t-14.5 -49q0 -29 13.5 -48.5t33.5 -35t40.5 -31.5t34 -37t13.5 -51q0 -26 -12 -46t-32.5 -32t-47.5 -12q-25 0 -51.5 10.5t-47.5 28.5l-36 -98q17 -14 42 -25.5t54 -17.5t57 -6z" />
    <glyph glyph-name="agrave" unicode="&#xe0;" 
d="M452 460l-78 -460h125l79 460h-126zM43 230q-9 -65 10.5 -119.5t63 -87.5t106.5 -32q45 0 84 18.5t69 51.5t49 76.5t26 92.5q6 46 0 89t-25 77t-51.5 54t-78.5 20q-62 1 -116.5 -31t-91 -86t-45.5 -123zM175 230q6 37 27.5 67t52.5 48t67 18q23 -1 41.5 -12t30 -29.5
t16 -42t1.5 -49.5q-5 -28 -18.5 -52t-33 -42t-42.5 -28t-47 -10q-35 0 -58 18.5t-33 48.5t-4 65zM211 682l153 -152l73 37l-120 162z" />
    <glyph glyph-name="aacute" unicode="&#xe1;" 
d="M452 460l-78 -460l125 1l79 459h-126zM43 230q-9 -65 10.5 -119.5t63 -87.5t106.5 -32q45 0 84 18.5t69 51.5t49 76.5t26 92.5q6 46 0 89t-25 77t-51.5 54t-78.5 20q-62 1 -116.5 -31t-91 -86t-45.5 -123zM175 230q6 37 27.5 67t52.5 48t67 18q23 -1 41.5 -12t30 -29.5
t16 -42t1.5 -49.5q-5 -28 -18.5 -52t-33 -42t-42.5 -28t-47 -10q-35 0 -58 18.5t-33 48.5t-4 65zM509 678l-95 51l-171 -157l68 -41z" />
    <glyph glyph-name="acircumflex" unicode="&#xe2;" 
d="M452 460l-78 -460h125l79 460h-126zM43 230q-9 -65 10.5 -119.5t63 -87.5t106.5 -32q45 0 84 18.5t69 51.5t49 76.5t26 92.5q6 46 0 89t-25 77t-51.5 54t-78.5 20q-62 1 -116.5 -31t-91 -86t-45.5 -123zM175 230q6 37 27.5 67t52.5 48t67 18q23 -1 41.5 -12t30 -29.5
t16 -42t1.5 -49.5q-5 -28 -18.5 -52t-33 -42t-42.5 -28t-47 -10q-35 0 -58 18.5t-33 48.5t-4 65zM378 619l78 -88l94 59l-160 142l-201 -137l79 -64z" />
    <glyph glyph-name="atilde" unicode="&#xe3;" 
d="M452 460l-78 -460h125l79 460h-126zM43 230q-9 -65 10.5 -119.5t63 -87.5t106.5 -32q45 0 84 18.5t69 51.5t49 76.5t26 92.5q6 46 0 89t-25 77t-51.5 54t-78.5 20q-62 1 -116.5 -31t-91 -86t-45.5 -123zM175 230q6 37 27.5 67t52.5 48t67 18q23 -1 41.5 -12t30 -29.5
t16 -42t1.5 -49.5q-5 -28 -18.5 -52t-33 -42t-42.5 -28t-47 -10q-35 0 -58 18.5t-33 48.5t-4 65zM191 589l58 -55q6 13 18.5 30.5t38.5 19.5q23 0 41 -12t37 -25t43 -13q28 -2 53.5 10.5t46 31.5t32.5 37l-53 66q-16 -20 -33.5 -35t-37.5 -16q-19 -1 -32.5 6.5t-26 17.5
t-27 17.5t-34.5 8.5q-29 0 -53.5 -12.5t-42.5 -33t-28 -43.5z" />
    <glyph glyph-name="adieresis" unicode="&#xe4;" 
d="M452 460l-78 -460h125l79 460h-126zM43 230q-9 -65 10.5 -119.5t63 -87.5t106.5 -32q45 0 84 18.5t69 51.5t49 76.5t26 92.5q6 46 0 89t-25 77t-51.5 54t-78.5 20q-62 1 -116.5 -31t-91 -86t-45.5 -123zM175 230q6 37 27.5 67t52.5 48t67 18q23 -1 41.5 -12t30 -29.5
t16 -42t1.5 -49.5q-5 -28 -18.5 -52t-33 -42t-42.5 -28t-47 -10q-35 0 -58 18.5t-33 48.5t-4 65zM403 605q-4 -30 15.5 -51.5t50.5 -22.5q30 -1 56 20.5t31 51.5q3 30 -17 51.5t-50 22.5t-56.5 -20.5t-29.5 -51.5zM180 605q-4 -30 15.5 -51.5t49.5 -22.5q31 -1 57 20.5
t30 51.5q3 30 -16.5 51.5t-49.5 22.5q-31 1 -57 -20.5t-29 -51.5z" />
    <glyph glyph-name="aring" unicode="&#xe5;" 
d="M452 460l-78 -460h125l79 460h-126zM43 230q-9 -65 10.5 -119.5t63 -87.5t106.5 -32q45 0 84 18.5t69 51.5t49 76.5t26 92.5q6 46 0 89t-25 77t-51.5 54t-78.5 20q-62 1 -116.5 -31t-91 -86t-45.5 -123zM175 230q6 37 27.5 67t52.5 48t67 18q23 -1 41.5 -12t30 -29.5
t16 -42t1.5 -49.5q-5 -28 -18.5 -52t-33 -42t-42.5 -28t-47 -10q-35 0 -58 18.5t-33 48.5t-4 65zM243 642q-4 -31 8 -56t36 -40t56 -15q31 0 59.5 14t48 39t23.5 56t-8.5 56t-36.5 40t-55 15q-32 0 -60.5 -14t-47 -39t-23.5 -56zM312 640q2 13 10.5 24.5t21.5 18.5t25 7
q18 0 28 -15t8 -33q-2 -14 -11 -25t-22 -18t-24 -7q-18 0 -28 15t-8 33z" />
    <glyph glyph-name="ae" unicode="&#xe6;" horiz-adv-x="860" 
d="M187 -10q80 0 134 30.5t78 84.5h-14q19 -59 64 -87t120 -28q78 0 142 32.5t107 97.5l-112 35q-20 -32 -54.5 -49t-74.5 -17q-37 0 -59.5 16.5t-30.5 46.5t-3 68l-22 -19h369q3 9 6.5 23.5t4.5 31.5q5 68 -16 115.5t-63.5 73t-104.5 25.5q-50 0 -92.5 -15t-75.5 -42
t-56 -63l17 9q4 57 -33.5 85t-108.5 28q-50 0 -100.5 -13.5t-103.5 -40.5l39 -89q20 12 45.5 22t52 15t48.5 5q38 0 57.5 -19.5t14.5 -57.5l-12 -68h60q-58 31 -97.5 43t-81.5 12q-60 0 -107.5 -20.5t-75.5 -56t-31 -80.5q-6 -59 37.5 -96.5t132.5 -37.5zM221 80
q-39 0 -57 12.5t-16 41.5q1 23 13.5 39t35.5 24.5t52 8.5q31 0 59 -7.5t53 -22.5l-16 27l-1 -75l7 60q-14 -54 -46.5 -81t-83.5 -27zM486 237q10 45 28.5 76.5t46 48.5t63.5 17q33 0 52 -13.5t26.5 -39t5.5 -60.5q0 -5 -0.5 -8t-2.5 -8l26 31h-262z" />
    <glyph glyph-name="ccedilla" unicode="&#xe7;" horiz-adv-x="474" 
d="M170 230q7 36 29.5 66.5t55.5 48.5t72 19q40 0 73.5 -19.5t50.5 -53.5l20 133q-27 21 -62.5 33.5t-80.5 12.5q-72 -1 -134 -31.5t-102.5 -84.5t-50.5 -124q-11 -67 14 -121.5t76.5 -86t122.5 -31.5q46 0 84.5 12.5t68.5 33.5l20 132q-27 -30 -67 -51.5t-87 -20.5
q-37 1 -62 19t-36 48t-5 66zM217 59l-114 -184q21 8 42.5 12.5t35.5 3.5q12 0 23.5 -3.5t18.5 -10.5t6 -18q-1 -12 -11 -20.5t-23.5 -13t-26.5 -5.5q-17 0 -33 7t-32 18l-49 -57q29 -21 57.5 -31t64.5 -10q29 1 58.5 13t50.5 35t25 55q5 40 -17.5 64t-53.5 27
q-7 0 -13.5 -0.5t-11.5 -1.5l99 118z" />
    <glyph glyph-name="egrave" unicode="&#xe8;" horiz-adv-x="539" 
d="M112 202h402q2 9 3.5 18t2.5 16q8 68 -11.5 120.5t-66 82.5t-119.5 31q-66 0 -120 -24.5t-92.5 -67.5t-56.5 -99q-7 -24 -11 -49q-9 -66 12.5 -120.5t70.5 -86.5t122 -32q58 -1 103.5 15.5t81.5 45t65 66.5l-108 37q-16 -18 -36 -33.5t-44 -24t-52 -7.5q-36 0 -57.5 19
t-28 50.5t-1.5 70.5l7 26q7 34 25.5 62t46.5 44.5t63 16.5q30 -1 46.5 -14.5t23.5 -35t7 -48.5h-266zM212 688l152 -152l74 37l-121 162z" />
    <glyph glyph-name="eacute" unicode="&#xe9;" horiz-adv-x="539" 
d="M112 202h402q2 9 3.5 18t2.5 16q8 68 -11.5 120.5t-66 82.5t-119.5 31q-66 0 -120 -24.5t-92.5 -67.5t-56.5 -99q-7 -24 -11 -49q-9 -66 12.5 -120.5t70.5 -86.5t122 -32q58 -1 103.5 15.5t81.5 45t65 66.5l-108 37q-16 -18 -36 -33.5t-44 -24t-52 -7.5q-36 0 -57.5 19
t-28 50.5t-1.5 70.5l7 26q7 34 25.5 62t46.5 44.5t63 16.5q30 -1 46.5 -14.5t23.5 -35t7 -48.5h-266zM529 684l-96 50l-171 -156l69 -41z" />
    <glyph glyph-name="ecircumflex" unicode="&#xea;" horiz-adv-x="539" 
d="M112 202h402q2 9 3.5 18t2.5 16q8 68 -11.5 120.5t-66 82.5t-119.5 31q-66 0 -120 -24.5t-92.5 -67.5t-56.5 -99q-7 -24 -11 -49q-9 -66 12.5 -120.5t70.5 -86.5t122 -32q58 -1 103.5 15.5t81.5 45t65 66.5l-108 37q-16 -18 -36 -33.5t-44 -24t-52 -7.5q-36 0 -57.5 19
t-28 50.5t-1.5 70.5l7 26q7 34 25.5 62t46.5 44.5t63 16.5q30 -1 46.5 -14.5t23.5 -35t7 -48.5h-266zM356 619l79 -88l94 59l-160 142l-201 -137l79 -64z" />
    <glyph glyph-name="edieresis" unicode="&#xeb;" horiz-adv-x="539" 
d="M112 202h402q2 9 3.5 18t2.5 16q8 68 -11.5 120.5t-66 82.5t-119.5 31q-66 0 -120 -24.5t-92.5 -67.5t-56.5 -99q-7 -24 -11 -49q-9 -66 12.5 -120.5t70.5 -86.5t122 -32q58 -1 103.5 15.5t81.5 45t65 66.5l-108 37q-16 -18 -36 -33.5t-44 -24t-52 -7.5q-36 0 -57.5 19
t-28 50.5t-1.5 70.5l7 26q7 34 25.5 62t46.5 44.5t63 16.5q30 -1 46.5 -14.5t23.5 -35t7 -48.5h-266zM385 605q-4 -30 16 -51.5t51 -22.5q30 -1 56 20.5t30 51.5q3 30 -16.5 51.5t-49.5 22.5q-31 1 -57 -20.5t-30 -51.5zM162 605q-4 -30 15.5 -51.5t51.5 -22.5
q29 -1 55.5 20.5t30.5 51.5q3 30 -16.5 51.5t-50.5 22.5q-30 1 -56 -20.5t-30 -51.5z" />
    <glyph glyph-name="igrave" unicode="&#xec;" horiz-adv-x="263" 
d="M120 460l-77 -460h123l80 460h-126zM54 694l152 -152l74 37l-120 162z" />
    <glyph glyph-name="iacute" unicode="&#xed;" horiz-adv-x="263" 
d="M120 460l-77 -460h123l80 460h-126zM387 689l-96 51l-171 -157l69 -40z" />
    <glyph glyph-name="icircumflex" unicode="&#xee;" horiz-adv-x="263" 
d="M120 460l-77 -460h123l80 460h-126zM214 624l79 -88l94 60l-160 142l-201 -138l78 -63z" />
    <glyph glyph-name="idieresis" unicode="&#xef;" horiz-adv-x="263" 
d="M120 460l-77 -460h123l80 460h-126zM246 622q-4 -30 15.5 -51.5t50.5 -21.5q30 -2 56.5 20t29.5 51q4 30 -15.5 51.5t-50.5 22.5q-30 1 -56.5 -20.5t-29.5 -51.5zM23 622q-4 -30 15.5 -51.5t50.5 -21.5q30 -2 56 20t30 51q4 30 -16 51.5t-50 22.5t-56.5 -20.5
t-29.5 -51.5z" />
    <glyph glyph-name="eth" unicode="&#xf0;" horiz-adv-x="611" 
d="M285 -14q65 0 118.5 23.5t92 64t59.5 93t21 110.5q0 45 -10 89.5t-30.5 89t-53.5 91.5t-80 97t-108 105l-92 -69q49 -37 87 -73.5t68.5 -75t53.5 -81t41 -92.5l41 -1q-44 55 -90.5 83t-102.5 28q-49 0 -94 -19t-79 -54t-54.5 -81.5t-20.5 -102.5q0 -68 30 -119
t82.5 -78.5t120.5 -27.5zM293 103q-48 0 -77 31t-29 80q0 30 12 57t32.5 47.5t46.5 32.5t54 12q32 0 55.5 -13.5t36.5 -39t13 -59.5q0 -28 -10.5 -54.5t-29.5 -48t-45.5 -33.5t-58.5 -12zM218 506l327 110l-17 53l-327 -111z" />
    <glyph glyph-name="ntilde" unicode="&#xf1;" horiz-adv-x="542" 
d="M241 460h-128l-79 -460h128zM372 280l-49 -280h131l51 294q6 51 -5.5 91t-42.5 63t-85 22q-55 0 -95 -27t-65.5 -71t-34.5 -95l33 4q6 24 20.5 46t36.5 34.5t49 12.5q27 -2 39.5 -15t16 -33.5t0.5 -45.5zM163 589l58 -55q6 13 18.5 30.5t38.5 19.5q22 0 40.5 -12
t37.5 -25t43 -13q28 -2 53.5 10.5t46 31.5t33.5 37l-55 66q-15 -20 -32.5 -35t-37.5 -16q-25 -1 -41.5 11t-34.5 25t-45 14q-28 0 -52.5 -12.5t-42 -33t-28.5 -43.5z" />
    <glyph glyph-name="ograve" unicode="&#xf2;" horiz-adv-x="559" 
d="M43 230q-10 -67 14.5 -121.5t76 -86t121.5 -31.5q72 0 133 30.5t101.5 85t51.5 123.5q9 67 -15.5 121.5t-75.5 86.5t-122 32q-72 0 -132.5 -31t-101.5 -85.5t-51 -123.5zM173 230q6 36 27 66t51.5 47.5t65.5 17.5q35 -1 57.5 -19.5t32 -48t4.5 -63.5q-6 -36 -27 -66
t-52 -47.5t-66 -16.5q-35 0 -57.5 18.5t-32 48t-3.5 63.5zM215 694l153 -152l74 37l-121 162z" />
    <glyph glyph-name="oacute" unicode="&#xf3;" horiz-adv-x="559" 
d="M43 230q-10 -67 14.5 -121.5t76 -86t121.5 -31.5q72 0 133 30.5t101.5 85t51.5 123.5q9 67 -15.5 121.5t-75.5 86.5t-122 32q-72 0 -132.5 -31t-101.5 -85.5t-51 -123.5zM173 230q6 36 27 66t51.5 47.5t65.5 17.5q35 -1 57.5 -19.5t32 -48t4.5 -63.5q-6 -36 -27 -66
t-52 -47.5t-66 -16.5q-35 0 -57.5 18.5t-32 48t-3.5 63.5zM527 689l-96 51l-171 -157l69 -40z" />
    <glyph glyph-name="ocircumflex" unicode="&#xf4;" horiz-adv-x="559" 
d="M43 230q-10 -67 14.5 -121.5t76 -86t121.5 -31.5q72 0 133 30.5t101.5 85t51.5 123.5q9 67 -15.5 121.5t-75.5 86.5t-122 32q-72 0 -132.5 -31t-101.5 -85.5t-51 -123.5zM173 230q6 36 27 66t51.5 47.5t65.5 17.5q35 -1 57.5 -19.5t32 -48t4.5 -63.5q-6 -36 -27 -66
t-52 -47.5t-66 -16.5q-35 0 -57.5 18.5t-32 48t-3.5 63.5zM363 630l79 -88l94 59l-160 142l-201 -137l79 -64z" />
    <glyph glyph-name="otilde" unicode="&#xf5;" horiz-adv-x="559" 
d="M43 230q-10 -67 14.5 -121.5t76 -86t121.5 -31.5q72 0 133 30.5t101.5 85t51.5 123.5q9 67 -15.5 121.5t-75.5 86.5t-122 32q-72 0 -132.5 -31t-101.5 -85.5t-51 -123.5zM173 230q6 36 27 66t51.5 47.5t65.5 17.5q35 -1 57.5 -19.5t32 -48t4.5 -63.5q-6 -36 -27 -66
t-52 -47.5t-66 -16.5q-35 0 -57.5 18.5t-32 48t-3.5 63.5zM171 589l58 -55q6 13 18.5 30.5t38.5 19.5q22 0 40.5 -12t37.5 -25t43 -13q28 -2 54 10.5t46 31.5t32 37l-54 66q-16 -20 -33 -35t-38 -16q-18 -1 -31.5 6.5t-26 17.5t-27 17.5t-34.5 8.5q-23 0 -52 -12.5
t-50.5 -33t-21.5 -43.5z" />
    <glyph glyph-name="odieresis" unicode="&#xf6;" horiz-adv-x="559" 
d="M43 230q-10 -67 14.5 -121.5t76 -86t121.5 -31.5q72 0 133 30.5t101.5 85t51.5 123.5q9 67 -15.5 121.5t-75.5 86.5t-122 32q-72 0 -132.5 -31t-101.5 -85.5t-51 -123.5zM173 230q6 36 27 66t51.5 47.5t65.5 17.5q35 -1 57.5 -19.5t32 -48t4.5 -63.5q-6 -36 -27 -66
t-52 -47.5t-66 -16.5q-35 0 -57.5 18.5t-32 48t-3.5 63.5zM394 622q-4 -30 15.5 -51.5t50.5 -21.5q30 -2 56 20t30 51q4 30 -15.5 51.5t-50.5 22.5q-30 1 -56.5 -20.5t-29.5 -51.5zM171 622q-4 -30 15.5 -51.5t50.5 -21.5q30 -2 56 20t30 51q4 30 -16 51.5t-50 22.5
t-56.5 -20.5t-29.5 -51.5z" />
    <glyph glyph-name="divide" unicode="&#xf7;" horiz-adv-x="616" 
d="M289 522q-3 -21 5 -39.5t24.5 -30t39.5 -11.5q22 -1 42 10t33.5 29.5t16.5 39.5q2 21 -6 39.5t-24.5 30t-39.5 11.5q-22 0 -42 -11t-33.5 -29t-15.5 -39zM215 90q-2 -21 6 -39.5t24.5 -29.5t38.5 -11q22 -1 42 10t33.5 29.5t16.5 38.5q2 22 -6 40t-24.5 29.5t-39.5 12.5
q-22 0 -42 -11t-33 -29t-16 -40zM50 249h546l20 118h-545z" />
    <glyph glyph-name="oslash" unicode="&#xf8;" horiz-adv-x="530" 
d="M43 230q-10 -68 14.5 -122.5t76 -85.5t121.5 -31q71 0 132 30.5t102 84.5t52 124q9 69 -15.5 123t-76 85.5t-121.5 31.5q-71 0 -132 -31t-102 -85t-51 -124zM165 230q6 36 28.5 67t55 49.5t69.5 18.5q37 -1 61 -20t34.5 -49.5t5.5 -65.5q-6 -38 -28.5 -68.5t-55.5 -48.5
t-70 -17q-37 0 -61.5 18.5t-34.5 49t-4 66.5zM493 504l-465 -522l51 -29l466 520z" />
    <glyph glyph-name="ugrave" unicode="&#xf9;" horiz-adv-x="542" 
d="M326 0h128l80 460h-128zM196 180l48 280h-130l-51 -294q-6 -51 5 -91t42 -62.5t85 -22.5q55 1 95 27.5t65.5 71t35.5 94.5l-33 -4q-7 -24 -21.5 -46t-36.5 -34.5t-49 -11.5t-39.5 14t-16 33.5t0.5 45.5zM229 694l153 -152l74 37l-121 162z" />
    <glyph glyph-name="uacute" unicode="&#xfa;" horiz-adv-x="542" 
d="M326 0h128l80 460h-128zM196 180l48 280h-130l-51 -294q-6 -51 5 -91t42 -62.5t85 -22.5q55 1 95 27.5t65.5 71t35.5 94.5l-33 -4q-7 -24 -21.5 -46t-36.5 -34.5t-49 -11.5t-39.5 14t-16 33.5t0.5 45.5zM496 689l-95 51l-170 -157l67 -40z" />
    <glyph glyph-name="ucircumflex" unicode="&#xfb;" horiz-adv-x="542" 
d="M326 0h128l80 460h-128zM196 180l48 280h-130l-51 -294q-6 -51 5 -91t42 -62.5t85 -22.5q55 1 95 27.5t65.5 71t35.5 94.5l-33 -4q-7 -24 -21.5 -46t-36.5 -34.5t-49 -11.5t-39.5 14t-16 33.5t0.5 45.5zM355 630l78 -88l95 59l-160 142l-202 -137l79 -64z" />
    <glyph glyph-name="udieresis" unicode="&#xfc;" horiz-adv-x="542" 
d="M326 0h128l80 460h-128zM196 180l48 280h-130l-51 -294q-6 -51 5 -91t42 -62.5t85 -22.5q55 1 95 27.5t65.5 71t35.5 94.5l-33 -4q-7 -24 -21.5 -46t-36.5 -34.5t-49 -11.5t-39.5 14t-16 33.5t0.5 45.5zM386 617q-5 -31 14.5 -52.5t50.5 -21.5q30 -1 56.5 20.5t30.5 50.5
q4 30 -16 52t-51 23q-30 0 -56 -21.5t-29 -50.5zM163 617q-5 -31 14.5 -52.5t50.5 -21.5q30 -1 56 20.5t30 50.5q4 30 -16 52t-50 23q-30 0 -56 -21.5t-29 -50.5z" />
    <glyph glyph-name="yacute" unicode="&#xfd;" horiz-adv-x="481" 
d="M542 460h-136l-204 -363l64 -3l-81 366h-139l116 -410l-162 -269h134zM480 689l-96 51l-170 -157l68 -40z" />
    <glyph glyph-name="thorn" unicode="&#xfe;" 
d="M122 -219l170 999h-127l-172 -1000zM566 230q8 65 -11.5 119.5t-62.5 87.5t-105 33q-46 -1 -85.5 -19.5t-69.5 -51.5t-49 -76.5t-26 -92.5q-6 -46 0.5 -89t25.5 -77t51.5 -54t78.5 -20q63 0 117 31.5t90 86t46 122.5zM434 230q-6 -36 -27.5 -66.5t-53 -48.5t-66.5 -17
q-24 0 -42 11t-30 29.5t-16.5 42t-1.5 49.5q5 28 18.5 52t33 42t43 28.5t47.5 10.5q35 -1 58 -19.5t32.5 -48.5t4.5 -65z" />
    <glyph glyph-name="ydieresis" unicode="&#xff;" horiz-adv-x="481" 
d="M542 460h-136l-204 -363l64 -3l-81 366h-139l116 -410l-162 -269h134zM352 605q-4 -30 15.5 -51.5t50.5 -22.5q30 -1 56.5 20.5t29.5 51.5q4 30 -15.5 51.5t-49.5 22.5q-31 1 -57 -20.5t-30 -51.5zM129 605q-4 -30 15.5 -51.5t50.5 -22.5q30 -1 56 20.5t30 51.5
t-15.5 51.5t-50.5 22.5q-30 1 -56 -20.5t-30 -51.5z" />
    <glyph glyph-name="Amacron" unicode="&#x100;" horiz-adv-x="690" 
d="M167 159h361l3 113h-329zM402 473l59 -243l-9 -36l55 -194h155l-218 744l-474 -744h163l123 200l3 32zM278 802l356 -1l19 114h-356z" />
    <glyph glyph-name="amacron" unicode="&#x101;" 
d="M452 460l-78 -460h125l79 460h-126zM43 230q-9 -65 10.5 -119.5t63 -87.5t106.5 -32q45 0 84 18.5t69 51.5t49 76.5t26 92.5q6 46 0 89t-25 77t-51.5 54t-78.5 20q-62 1 -116.5 -31t-91 -86t-45.5 -123zM175 230q6 37 27.5 67t52.5 48t67 18q23 -1 41.5 -12t30 -29.5
t16 -42t1.5 -49.5q-5 -28 -18.5 -52t-33 -42t-42.5 -28t-47 -10q-35 0 -58 18.5t-33 48.5t-4 65zM176 537l356 -1l20 114h-357z" />
    <glyph glyph-name="Abreve" unicode="&#x102;" horiz-adv-x="690" 
d="M167 159h361l3 113h-329zM402 473l59 -243l-9 -36l55 -194h155l-218 744l-474 -744h163l123 200l3 32zM321 946q-3 -40 11.5 -72.5t46 -52t80.5 -19.5t86 19.5t60 51.5t32 72l-90 1q-6 -16 -16.5 -31t-27 -24.5t-39.5 -8.5q-21 1 -33.5 10t-17.5 23.5t-5 30.5h-87z" />
    <glyph glyph-name="abreve" unicode="&#x103;" 
d="M452 460l-78 -460h125l79 460h-126zM43 230q-9 -65 10.5 -119.5t63 -87.5t106.5 -32q45 0 84 18.5t69 51.5t49 76.5t26 92.5q6 46 0 89t-25 77t-51.5 54t-78.5 20q-62 1 -116.5 -31t-91 -86t-45.5 -123zM175 230q6 37 27.5 67t52.5 48t67 18q23 -1 41.5 -12t30 -29.5
t16 -42t1.5 -49.5q-5 -28 -18.5 -52t-33 -42t-42.5 -28t-47 -10q-35 0 -58 18.5t-33 48.5t-4 65zM198 675q-3 -40 12 -73t46.5 -52.5t80.5 -18.5q50 0 86 19t59.5 51.5t32.5 72.5h-91q-5 -15 -15.5 -30t-27 -24.5t-39.5 -8.5q-21 0 -33.5 9t-18 24t-5.5 30z" />
    <glyph glyph-name="Aogonek" unicode="&#x104;" horiz-adv-x="690" 
d="M167 159h361l3 113h-329zM402 473l59 -243l-9 -36l55 -194h155l-218 744l-474 -744h163l123 200l3 32zM613 -117q-11 -8 -24.5 -14.5t-28.5 -4.5q-17 1 -24 12t-5 28q4 20 19 37t36.5 32t44.5 27l-40 25q-33 -17 -67 -37t-58.5 -46t-29.5 -61q-6 -47 23.5 -74t78.5 -26
q34 0 57.5 11.5t40.5 26.5z" />
    <glyph glyph-name="aogonek" unicode="&#x105;" 
d="M452 460l-78 -460l125 1l79 459h-126zM43 230q-9 -65 10.5 -119.5t63 -87.5t106.5 -32q45 0 84 18.5t69 51.5t49 76.5t26 92.5q6 46 0 89t-25 77t-51.5 54t-78.5 20q-62 1 -116.5 -31t-91 -86t-45.5 -123zM175 230q6 37 27.5 67t52.5 48t67 18q23 -1 41.5 -12t30 -29.5
t16 -42t1.5 -49.5q-5 -28 -18.5 -52t-33 -42t-42.5 -28t-47 -10q-35 0 -58 18.5t-33 48.5t-4 65zM461 -117q-11 -8 -25 -14.5t-28 -4.5q-17 1 -24 12t-5 28q4 20 19 37t36 32t44 27l-39 25q-34 -17 -68 -37t-58 -46t-29 -61q-7 -47 23 -74t79 -26q32 0 56 11.5t42 26.5z" />
    <glyph glyph-name="Cacute" unicode="&#x106;" horiz-adv-x="675" 
d="M219 350q8 49 32 90t59 71.5t78.5 47.5t90.5 18q65 0 111.5 -26.5t78.5 -69.5l25 161q-42 35 -91 53.5t-115 18.5q-81 0 -152 -27.5t-127.5 -77t-93.5 -116t-49 -143.5q-11 -75 5.5 -140.5t57.5 -116t102.5 -79t140.5 -28.5q69 0 123 19.5t102 52.5l24 160
q-45 -38 -101 -66.5t-126 -27.5q-47 0 -82.5 18t-59 49.5t-32.5 72t-1 86.5zM655 922l-95 50l-171 -156l69 -41z" />
    <glyph glyph-name="cacute" unicode="&#x107;" horiz-adv-x="474" 
d="M170 230q7 36 29.5 66.5t55.5 48.5t72 19q40 0 73.5 -19.5t50.5 -53.5l20 133q-27 21 -62.5 33.5t-80.5 12.5q-72 -1 -134 -31.5t-102.5 -84.5t-50.5 -124q-11 -67 14 -121.5t76.5 -86t122.5 -31.5q46 0 84.5 12.5t68.5 33.5l20 132q-27 -30 -67 -51.5t-87 -20.5
q-37 1 -62 19t-36 48t-5 66zM495 678l-96 51l-170 -157l68 -41z" />
    <glyph glyph-name="Ccircumflex" unicode="&#x108;" horiz-adv-x="675" 
d="M219 350q8 49 32 90t59 71.5t78.5 47.5t90.5 18q65 0 111.5 -26.5t78.5 -69.5l25 161q-42 35 -91 53.5t-115 18.5q-81 0 -152 -27.5t-127.5 -77t-93.5 -116t-49 -143.5q-11 -75 5.5 -140.5t57.5 -116t102.5 -79t140.5 -28.5q69 0 123 19.5t102 52.5l24 160
q-45 -38 -101 -66.5t-126 -27.5q-47 0 -82.5 18t-59 49.5t-32.5 72t-1 86.5zM521 862l79 -88l94 60l-160 142l-202 -137l79 -64z" />
    <glyph glyph-name="ccircumflex" unicode="&#x109;" horiz-adv-x="474" 
d="M170 230q7 36 29.5 66.5t55.5 48.5t72 19q40 0 73.5 -19.5t50.5 -53.5l20 133q-27 21 -62.5 33.5t-80.5 12.5q-72 -1 -134 -31.5t-102.5 -84.5t-50.5 -124q-11 -67 14 -121.5t76.5 -86t122.5 -31.5q46 0 84.5 12.5t68.5 33.5l20 132q-27 -30 -67 -51.5t-87 -20.5
q-37 1 -62 19t-36 48t-5 66zM340 619l79 -88l94 59l-161 142l-201 -137l80 -64z" />
    <glyph glyph-name="Cdotaccent" unicode="&#x10a;" horiz-adv-x="675" 
d="M219 350q8 49 32 90t59 71.5t78.5 47.5t90.5 18q65 0 111.5 -26.5t78.5 -69.5l25 161q-42 35 -91 53.5t-115 18.5q-81 0 -152 -27.5t-127.5 -77t-93.5 -116t-49 -143.5q-11 -75 5.5 -140.5t57.5 -116t102.5 -79t140.5 -28.5q69 0 123 19.5t102 52.5l24 160
q-45 -38 -101 -66.5t-126 -27.5q-47 0 -82.5 18t-59 49.5t-32.5 72t-1 86.5zM422 849q-4 -30 15.5 -51.5t50.5 -22.5q30 -1 56.5 20.5t29.5 51.5q4 30 -15.5 51.5t-49.5 22.5q-31 1 -57 -20.5t-30 -51.5z" />
    <glyph glyph-name="cdotaccent" unicode="&#x10b;" horiz-adv-x="474" 
d="M170 230q7 36 29.5 66.5t55.5 48.5t72 19q40 0 73.5 -19.5t50.5 -53.5l20 133q-27 21 -62.5 33.5t-80.5 12.5q-72 -1 -134 -31.5t-102.5 -84.5t-50.5 -124q-11 -67 14 -121.5t76.5 -86t122.5 -31.5q46 0 84.5 12.5t68.5 33.5l20 132q-27 -30 -67 -51.5t-87 -20.5
q-37 1 -62 19t-36 48t-5 66zM263 610q-4 -31 15.5 -52.5t50.5 -21.5q30 -1 56 20.5t30 50.5q4 30 -15.5 51.5t-50.5 23.5q-30 0 -56.5 -21.5t-29.5 -50.5z" />
    <glyph glyph-name="Ccaron" unicode="&#x10c;" horiz-adv-x="675" 
d="M219 350q8 49 32 90t59 71.5t78.5 47.5t90.5 18q65 0 111.5 -26.5t78.5 -69.5l25 161q-42 35 -91 53.5t-115 18.5q-81 0 -152 -27.5t-127.5 -77t-93.5 -116t-49 -143.5q-11 -75 5.5 -140.5t57.5 -116t102.5 -79t140.5 -28.5q69 0 123 19.5t102 52.5l24 160
q-45 -38 -101 -66.5t-126 -27.5q-47 0 -82.5 18t-59 49.5t-32.5 72t-1 86.5zM519 889l-79 87l-94 -59l160 -143l201 138l-79 64z" />
    <glyph glyph-name="ccaron" unicode="&#x10d;" horiz-adv-x="474" 
d="M170 230q7 36 29.5 66.5t55.5 48.5t72 19q40 0 73.5 -19.5t50.5 -53.5l20 133q-27 21 -62.5 33.5t-80.5 12.5q-72 -1 -134 -31.5t-102.5 -84.5t-50.5 -124q-11 -67 14 -121.5t76.5 -86t122.5 -31.5q46 0 84.5 12.5t68.5 33.5l20 132q-27 -30 -67 -51.5t-87 -20.5
q-37 1 -62 19t-36 48t-5 66zM338 645l-79 87l-95 -59l161 -143l201 139l-79 63z" />
    <glyph glyph-name="Dcaron" unicode="&#x10e;" horiz-adv-x="695" 
d="M165 700l-119 -700h144l120 700h-145zM282 0q108 2 195 46t144 122.5t74 181.5q14 100 -18.5 178.5t-105.5 124t-179 47.5h-138l-23 -130h143q63 -2 106 -29t61.5 -75.5t8.5 -115.5q-12 -70 -49 -118.5t-91 -74t-119 -27.5h-134l-23 -130h148zM472 889l-80 87l-93 -59
l160 -143l201 138l-79 64z" />
    <glyph glyph-name="dcaron" unicode="&#x10f;" 
d="M504 780l-132 -780h126l135 780h-129zM43 230q-9 -65 10.5 -119.5t63 -87.5t106.5 -32q45 0 84 18.5t69 51.5t49.5 76.5t26.5 92.5q6 46 -0.5 89t-25.5 77t-51.5 54t-78.5 20q-62 1 -116.5 -31t-91 -86t-45.5 -123zM175 230q6 37 27.5 67t52.5 48t67 18q23 -1 41.5 -12
t30 -29.5t16.5 -42t1 -49.5q-4 -28 -17.5 -52t-33.5 -42t-43 -28t-47 -10q-35 0 -58 18.5t-33 48.5t-4 65zM743 779l-129 -257l95 -23l159 247z" />
    <glyph glyph-name="Dcroat" unicode="&#x110;" horiz-adv-x="695" 
d="M28 302l323 -1l16 93h-322zM165 700l-119 -700h144l120 700h-145zM282 0q108 2 195 46t144 122.5t74 181.5q14 100 -18.5 178.5t-105.5 124t-179 47.5h-138l-23 -130h143q63 -2 106 -29t61.5 -75.5t8.5 -115.5q-12 -70 -49 -118.5t-91 -74t-119 -27.5h-134l-23 -130h148z
" />
    <glyph glyph-name="dcroat" unicode="&#x111;" 
d="M356 573h331l17 92h-331zM504 780l-132 -780h126l135 780h-129zM43 230q-9 -65 10.5 -119.5t63 -87.5t106.5 -32q45 0 84 18.5t69 51.5t49.5 76.5t26.5 92.5q6 46 -0.5 89t-25.5 77t-51.5 54t-78.5 20q-62 1 -116.5 -31t-91 -86t-45.5 -123zM175 230q6 37 27.5 67
t52.5 48t67 18q23 -1 41.5 -12t30 -29.5t16.5 -42t1 -49.5q-4 -28 -17.5 -52t-33.5 -42t-43 -28t-47 -10q-35 0 -58 18.5t-33 48.5t-4 65z" />
    <glyph glyph-name="Emacron" unicode="&#x112;" horiz-adv-x="569" 
d="M135 0h345l21 121h-345zM234 580l345 -1l21 121h-345zM188 313l326 -1l21 119h-326zM165 700l-119 -700h135l121 700h-137zM217 775l356 -1l20 114h-357z" />
    <glyph glyph-name="emacron" unicode="&#x113;" horiz-adv-x="539" 
d="M112 202h402q2 9 3.5 18t2.5 16q8 68 -11.5 120.5t-66 82.5t-119.5 31q-66 0 -120 -24.5t-92.5 -67.5t-56.5 -99q-7 -24 -11 -49q-9 -66 12.5 -120.5t70.5 -86.5t122 -32q58 -1 103.5 15.5t81.5 45t65 66.5l-108 37q-16 -18 -36 -33.5t-44 -24t-52 -7.5q-36 0 -57.5 19
t-28 50.5t-1.5 70.5l7 26q7 34 25.5 62t46.5 44.5t63 16.5q30 -1 46.5 -14.5t23.5 -35t7 -48.5h-266zM159 531l357 -1l20 114h-357z" />
    <glyph glyph-name="Ebreve" unicode="&#x114;" horiz-adv-x="569" 
d="M135 0h345l21 121h-345zM234 580l345 -1l21 121h-345zM188 313l326 -1l21 119h-326zM165 700l-119 -700h135l121 700h-137zM260 919q-3 -40 11.5 -73t46 -52t80.5 -19t86 19.5t60.5 51.5t32.5 72l-91 1q-6 -16 -16.5 -31t-27 -24.5t-38.5 -8.5t-34.5 10t-17.5 23t-4 31
h-88z" />
    <glyph glyph-name="ebreve" unicode="&#x115;" horiz-adv-x="539" 
d="M112 202h402q2 9 3.5 18t2.5 16q8 68 -11.5 120.5t-66 82.5t-119.5 31q-66 0 -120 -24.5t-92.5 -67.5t-56.5 -99q-7 -24 -11 -49q-9 -66 12.5 -120.5t70.5 -86.5t122 -32q58 -1 103.5 15.5t81.5 45t65 66.5l-108 37q-16 -18 -36 -33.5t-44 -24t-52 -7.5q-36 0 -57.5 19
t-28 50.5t-1.5 70.5l7 26q7 34 25.5 62t46.5 44.5t63 16.5q30 -1 46.5 -14.5t23.5 -35t7 -48.5h-266zM204 675q-3 -40 11 -72.5t45.5 -52t80.5 -19.5q50 0 86.5 19.5t60 51.5t32.5 72l-91 1q-5 -16 -16 -31t-27.5 -24.5t-38.5 -8.5t-34.5 10t-17.5 23.5t-4 30.5h-87z" />
    <glyph glyph-name="Edotaccent" unicode="&#x116;" horiz-adv-x="569" 
d="M135 0h345l21 121h-345zM234 580l345 -1l21 121h-345zM188 313l326 -1l21 119h-326zM165 700l-119 -700h135l121 700h-137zM331 849q-5 -30 15 -51.5t51 -22.5q30 -1 56 20.5t30 51.5t-15.5 51.5t-50.5 22.5q-30 1 -56.5 -20.5t-29.5 -51.5z" />
    <glyph glyph-name="edotaccent" unicode="&#x117;" horiz-adv-x="539" 
d="M112 202h402q2 9 3.5 18t2.5 16q8 68 -11.5 120.5t-66 82.5t-119.5 31q-66 0 -120 -24.5t-92.5 -67.5t-56.5 -99q-7 -24 -11 -49q-9 -66 12.5 -120.5t70.5 -86.5t122 -32q58 -1 103.5 15.5t81.5 45t65 66.5l-108 37q-16 -18 -36 -33.5t-44 -24t-52 -7.5q-36 0 -57.5 19
t-28 50.5t-1.5 70.5l7 26q7 34 25.5 62t46.5 44.5t63 16.5q30 -1 46.5 -14.5t23.5 -35t7 -48.5h-266zM274 605q-4 -30 15.5 -51.5t50.5 -22.5q30 -1 56 20.5t30 51.5t-16 51.5t-50 22.5t-56.5 -20.5t-29.5 -51.5z" />
    <glyph glyph-name="Eogonek" unicode="&#x118;" horiz-adv-x="569" 
d="M135 0h345l21 121h-345zM234 580l345 -1l21 121h-345zM188 313l326 -1l21 119h-326zM165 700l-119 -700h135l121 700h-137zM329 -117q-11 -8 -24.5 -14.5t-28.5 -4.5q-17 1 -23.5 12t-5.5 28q4 20 19 37t36.5 32t43.5 27l-39 25q-34 -17 -67.5 -37t-58 -46t-29.5 -61
q-7 -47 23 -74t79 -26q33 0 57 11.5t41 26.5z" />
    <glyph glyph-name="eogonek" unicode="&#x119;" horiz-adv-x="539" 
d="M112 202h402q2 9 3.5 18t2.5 16q8 68 -11.5 120.5t-66 82.5t-119.5 31q-66 0 -120 -24.5t-92.5 -67.5t-56.5 -99q-7 -24 -11 -49q-9 -66 12.5 -120.5t70.5 -86.5t122 -32q58 -1 103.5 15.5t81.5 45t65 66.5l-108 37q-16 -18 -36 -33.5t-44 -24t-52 -7.5q-36 0 -57.5 19
t-28 50.5t-1.5 70.5l7 26q7 34 25.5 62t46.5 44.5t63 16.5q30 -1 46.5 -14.5t23.5 -35t7 -48.5h-266zM262 -112q-11 -8 -25 -14.5t-29 -4.5q-17 1 -23.5 12t-4.5 28q3 20 18 37t36.5 31.5t44.5 25.5l-40 27q-33 -17 -66.5 -37t-58 -46t-30.5 -61q-6 -47 24 -74t78 -26
q34 0 57.5 11.5t41.5 26.5z" />
    <glyph glyph-name="Ecaron" unicode="&#x11a;" horiz-adv-x="569" 
d="M135 0h345l21 121h-345zM234 580l345 -1l21 121h-345zM188 313l326 -1l21 119h-326zM165 700l-119 -700h135l121 700h-137zM410 889l-79 87l-93 -59l160 -143l201 138l-79 64z" />
    <glyph glyph-name="ecaron" unicode="&#x11b;" horiz-adv-x="539" 
d="M112 202h402q2 9 3.5 18t2.5 16q8 68 -11.5 120.5t-66 82.5t-119.5 31q-66 0 -120 -24.5t-92.5 -67.5t-56.5 -99q-7 -24 -11 -49q-9 -66 12.5 -120.5t70.5 -86.5t122 -32q58 -1 103.5 15.5t81.5 45t65 66.5l-108 37q-16 -18 -36 -33.5t-44 -24t-52 -7.5q-36 0 -57.5 19
t-28 50.5t-1.5 70.5l7 26q7 34 25.5 62t46.5 44.5t63 16.5q30 -1 46.5 -14.5t23.5 -35t7 -48.5h-266zM354 645l-80 87l-93 -59l160 -143l201 139l-79 63z" />
    <glyph glyph-name="Gcircumflex" unicode="&#x11c;" horiz-adv-x="778" 
d="M419 260h197q-16 -31 -38 -57.5t-50 -47.5t-62.5 -33.5t-75.5 -11.5q-50 0 -86.5 19.5t-59 53t-30.5 76.5t0 91q8 50 32 93t59.5 75.5t80 50t93.5 17.5q61 0 101 -27.5t61 -75.5l129 70q-42 75 -111.5 118t-165.5 43q-81 0 -153 -27t-129.5 -76.5t-95 -116t-49.5 -144.5
q-11 -75 5.5 -141.5t57 -118t102.5 -80.5t142 -29q85 0 154.5 32t121.5 87t83.5 125.5t42.5 148.5h-336zM526 862l79 -88l94 60l-160 142l-202 -137l79 -64z" />
    <glyph glyph-name="gcircumflex" unicode="&#x11d;" horiz-adv-x="580" 
d="M7 -32q-3 -61 20.5 -107t71.5 -71.5t120 -24.5q70 0 128.5 29.5t98 84.5t51.5 131l77 450h-124l-78 -450q-7 -40 -28 -71.5t-52 -49.5t-67 -17q-33 0 -54 12t-31.5 33.5t-9.5 50.5h-123zM44 235q-9 -66 11 -119.5t63.5 -85t105.5 -31.5q45 0 84 18t69 50t49.5 75t26.5 92
q6 47 -0.5 89.5t-26 75.5t-52 52t-78.5 19q-62 1 -116 -29.5t-90.5 -84t-45.5 -121.5zM176 234q6 37 27 66t52.5 46.5t66.5 16.5q23 -1 41.5 -11.5t30.5 -28t16.5 -40t1.5 -48.5q-4 -28 -17.5 -51.5t-33 -41t-43 -27t-47.5 -8.5q-34 0 -57.5 17t-33.5 46t-4 64zM375 619
l79 -88l94 59l-160 142l-202 -137l79 -64z" />
    <glyph glyph-name="Gbreve" unicode="&#x11e;" horiz-adv-x="778" 
d="M419 260h197q-16 -31 -38 -57.5t-50 -47.5t-62.5 -33.5t-75.5 -11.5q-50 0 -86.5 19.5t-59 53t-30.5 76.5t0 91q8 50 32 93t59.5 75.5t80 50t93.5 17.5q61 0 101 -27.5t61 -75.5l129 70q-42 75 -111.5 118t-165.5 43q-81 0 -153 -27t-129.5 -76.5t-95 -116t-49.5 -144.5
q-11 -75 5.5 -141.5t57 -118t102.5 -80.5t142 -29q85 0 154.5 32t121.5 87t83.5 125.5t42.5 148.5h-336zM373 919q-3 -40 11.5 -73t46 -52t80.5 -19t85.5 19.5t60 51.5t33.5 72l-91 1q-5 -16 -16 -31t-27.5 -24.5t-38.5 -8.5t-34.5 10t-17.5 23t-5 31h-87z" />
    <glyph glyph-name="gbreve" unicode="&#x11f;" horiz-adv-x="580" 
d="M7 -32q-3 -61 20.5 -107t71.5 -71.5t120 -24.5q70 0 128.5 29.5t98 84.5t51.5 131l77 450h-124l-78 -450q-7 -40 -28 -71.5t-52 -49.5t-67 -17q-33 0 -54 12t-31.5 33.5t-9.5 50.5h-123zM44 235q-9 -66 11 -119.5t63.5 -85t105.5 -31.5q45 0 84 18t69 50t49.5 75t26.5 92
q6 47 -0.5 89.5t-26 75.5t-52 52t-78.5 19q-62 1 -116 -29.5t-90.5 -84t-45.5 -121.5zM176 234q6 37 27 66t52.5 46.5t66.5 16.5q23 -1 41.5 -11.5t30.5 -28t16.5 -40t1.5 -48.5q-4 -28 -17.5 -51.5t-33 -41t-43 -27t-47.5 -8.5q-34 0 -57.5 17t-33.5 46t-4 64zM222 675
q-3 -40 11.5 -72.5t46 -52t80.5 -19.5t85.5 19.5t60 51.5t33.5 72l-91 1q-5 -16 -16 -31t-27.5 -24.5t-38.5 -8.5t-34.5 10t-17.5 23.5t-5 30.5h-87z" />
    <glyph glyph-name="Gdotaccent" unicode="&#x120;" horiz-adv-x="778" 
d="M419 260h197q-16 -31 -38 -57.5t-50 -47.5t-62.5 -33.5t-75.5 -11.5q-50 0 -86.5 19.5t-59 53t-30.5 76.5t0 91q8 50 32 93t59.5 75.5t80 50t93.5 17.5q61 0 101 -27.5t61 -75.5l129 70q-42 75 -111.5 118t-165.5 43q-81 0 -153 -27t-129.5 -76.5t-95 -116t-49.5 -144.5
q-11 -75 5.5 -141.5t57 -118t102.5 -80.5t142 -29q85 0 154.5 32t121.5 87t83.5 125.5t42.5 148.5h-336zM443 849q-3 -30 16.5 -51.5t50.5 -22.5q30 -1 56 20.5t30 51.5q3 30 -16.5 51.5t-50.5 22.5q-30 1 -56 -20.5t-30 -51.5z" />
    <glyph glyph-name="gdotaccent" unicode="&#x121;" horiz-adv-x="580" 
d="M7 -32q-3 -61 20.5 -107t71.5 -71.5t120 -24.5q70 0 128.5 29.5t98 84.5t51.5 131l77 450h-124l-78 -450q-7 -40 -28 -71.5t-52 -49.5t-67 -17q-33 0 -54 12t-31.5 33.5t-9.5 50.5h-123zM44 235q-9 -66 11 -119.5t63.5 -85t105.5 -31.5q45 0 84 18t69 50t49.5 75t26.5 92
q6 47 -0.5 89.5t-26 75.5t-52 52t-78.5 19q-62 1 -116 -29.5t-90.5 -84t-45.5 -121.5zM176 234q6 37 27 66t52.5 46.5t66.5 16.5q23 -1 41.5 -11.5t30.5 -28t16.5 -40t1.5 -48.5q-4 -28 -17.5 -51.5t-33 -41t-43 -27t-47.5 -8.5q-34 0 -57.5 17t-33.5 46t-4 64zM295 628
q-4 -30 16 -51.5t50 -22.5t56.5 20.5t29.5 51.5q4 30 -15.5 51.5t-50.5 22.5q-30 1 -56 -20.5t-30 -51.5z" />
    <glyph glyph-name="uni0122" unicode="&#x122;" horiz-adv-x="778" 
d="M419 260h197q-16 -31 -38 -57.5t-50 -47.5t-62.5 -33.5t-75.5 -11.5q-50 0 -86.5 19.5t-59 53t-30.5 76.5t0 91q8 50 32 93t59.5 75.5t80 50t93.5 17.5q61 0 101 -27.5t61 -75.5l129 70q-42 75 -111.5 118t-165.5 43q-81 0 -153 -27t-129.5 -76.5t-95 -116t-49.5 -144.5
q-11 -75 5.5 -141.5t57 -118t102.5 -80.5t142 -29q85 0 154.5 32t121.5 87t83.5 125.5t42.5 148.5h-336zM314 -80l-129 -256l94 -23l160 247z" />
    <glyph glyph-name="uni0123" unicode="&#x123;" horiz-adv-x="553" 
d="M-26 -32q-2 -61 22 -107t72.5 -71.5t120.5 -25.5q71 1 129 30t97 84.5t51 131.5l76 450h-125l-78 -450q-7 -40 -28.5 -71.5t-52.5 -49.5t-67 -18q-33 1 -54 13t-31 33.5t-10 49.5zM11 234q-8 -66 12.5 -119.5t64.5 -84.5t106 -31q46 0 84.5 18t68 50.5t48.5 75t26 91.5
q6 48 -1 90t-27 75t-52.5 52t-78.5 19q-62 1 -116 -29.5t-90 -84t-45 -122.5zM144 234q6 37 27.5 66t53 46t67.5 16q23 0 41 -10.5t29 -28t15.5 -40.5t0.5 -48q-4 -28 -17.5 -51.5t-33 -41t-42.5 -27t-47 -8.5q-35 0 -57.5 17.5t-32 46t-4.5 63.5zM331 543l161 239l-89 40
l-190 -224z" />
    <glyph glyph-name="Hcircumflex" unicode="&#x124;" horiz-adv-x="742" 
d="M144 308h502l22 129h-502zM621 700l-119 -700h140l121 700h-142zM165 700l-119 -700h140l120 700h-141zM495 862l79 -88l94 60l-160 142l-202 -137l79 -64z" />
    <glyph glyph-name="hcircumflex" unicode="&#x125;" horiz-adv-x="538" 
d="M296 780h-128l-134 -780h128zM372 280l-49 -280h127l51 299q6 50 -4.5 90t-40 63t-83.5 23q-55 0 -95.5 -27.5t-65.5 -71.5t-34 -95h32q6 24 21 46t36.5 34.5t49.5 12.5q26 -2 39 -15t16 -33.5t0 -45.5zM294 928l79 -88l94 60l-160 141l-201 -137l78 -63z" />
    <glyph glyph-name="Hbar" unicode="&#x126;" horiz-adv-x="742" 
d="M111 308h503l22 129h-502zM588 700l-119 -700h142l120 700h-143zM132 700l-119 -700h141l121 700h-143zM37 538h735l16 96h-735z" />
    <glyph glyph-name="hbar" unicode="&#x127;" horiz-adv-x="538" 
d="M265 780h-130l-134 -780h129zM340 280l-49 -280h127l51 299q6 50 -4.5 90t-41 63t-84.5 23q-55 -1 -93.5 -28.5t-62.5 -71t-33 -93.5l29 -1q6 24 21 46t36.5 34.5t49.5 11.5q26 -1 38.5 -14t15 -34t0.5 -45zM48 606h319l20 113h-320z" />
    <glyph glyph-name="Itilde" unicode="&#x128;" horiz-adv-x="288" 
d="M165 700l-119 -700h142l120 700h-143zM77 833l58 -56q6 14 18.5 31.5t38.5 18.5q23 1 41 -11t37 -25t43 -13q28 -2 53.5 10.5t46 31t33.5 37.5l-55 66q-15 -20 -32.5 -35t-37.5 -16q-25 -1 -41.5 11t-34.5 25t-45 14q-28 0 -52.5 -12.5t-42 -33t-28.5 -43.5z" />
    <glyph glyph-name="itilde" unicode="&#x129;" horiz-adv-x="263" 
d="M120 460l-77 -460h123l80 460h-126zM23 589l58 -55q6 13 18.5 30.5t38.5 19.5q22 0 40.5 -12t37 -25t42.5 -13q29 -2 54.5 10.5t46 31.5t32.5 37l-54 66q-16 -20 -33 -35t-37 -16q-25 -1 -41.5 11t-34.5 25t-45 14q-28 0 -52.5 -12.5t-42.5 -33t-28 -43.5z" />
    <glyph glyph-name="Imacron" unicode="&#x12a;" horiz-adv-x="288" 
d="M165 700l-119 -700h142l120 700h-143zM71 775l357 -1l19 114h-356z" />
    <glyph glyph-name="imacron" unicode="&#x12b;" horiz-adv-x="263" 
d="M120 460l-77 -460h123l80 460h-126zM17 531l356 -1l20 114h-356z" />
    <glyph glyph-name="Ibreve" unicode="&#x12c;" horiz-adv-x="288" 
d="M165 700l-119 -700h142l120 700h-143zM115 919q-3 -40 11.5 -73t46 -52t80.5 -19t86 19.5t60 51.5t33 72l-91 1q-5 -16 -16 -31t-27.5 -24.5t-38.5 -8.5t-34.5 10t-17.5 23t-5 31h-87z" />
    <glyph glyph-name="ibreve" unicode="&#x12d;" horiz-adv-x="263" 
d="M120 460l-77 -460h123l80 460h-126zM60 675q-3 -40 11.5 -72.5t46.5 -52t80 -19.5q50 0 86.5 19.5t60 51.5t32.5 72l-90 1q-6 -16 -16.5 -31t-27 -24.5t-39.5 -8.5q-22 1 -34.5 10t-17.5 23.5t-5 30.5h-87z" />
    <glyph glyph-name="Iogonek" unicode="&#x12e;" horiz-adv-x="288" 
d="M165 700l-119 -700h142l120 700h-143zM154 -115q-11 -8 -25 -15t-28 -5q-18 1 -24.5 12t-4.5 29q3 19 18 36t37 32t44 26l-39 26q-34 -16 -68 -36.5t-58 -46.5t-29 -61q-4 -31 8 -53.5t36.5 -34.5t57.5 -12t57 11.5t41 26.5z" />
    <glyph glyph-name="iogonek" unicode="&#x12f;" horiz-adv-x="263" 
d="M137 639q-4 -30 16 -51.5t51 -21.5q30 -2 56 20t30 51q3 30 -16.5 51.5t-50.5 22.5q-30 1 -56 -20.5t-30 -51.5zM120 460l-77 -460h123l80 460h-126zM133 -117q-11 -8 -25 -14.5t-29 -4.5q-17 1 -23.5 12t-4.5 28q3 20 18 37t36.5 32t44.5 27l-40 25q-33 -17 -67 -37
t-58.5 -46t-29.5 -61q-6 -47 24 -74t78 -26q34 0 57.5 11.5t41.5 26.5z" />
    <glyph glyph-name="Idotaccent" unicode="&#x130;" horiz-adv-x="288" 
d="M165 700l-119 -700h142l120 700h-143zM185 849q-4 -30 16 -51.5t50 -22.5t56.5 20.5t29.5 51.5q4 30 -15.5 51.5t-50.5 22.5q-30 1 -56.5 -20.5t-29.5 -51.5z" />
    <glyph glyph-name="dotlessi" unicode="&#x131;" horiz-adv-x="263" 
d="M120 460l-77 -460h123l80 460h-126z" />
    <glyph glyph-name="IJ" unicode="&#x132;" horiz-adv-x="565" 
d="M160 -76l-90 -101q29 -22 70 -38.5t89 -16.5q57 -1 105 19t80.5 59t42.5 98l129 756h-149l-125 -726q-6 -38 -29 -60.5t-51 -23.5q-23 -1 -41 9t-31 25zM165 700l-119 -700h142l120 700h-143z" />
    <glyph glyph-name="ij" unicode="&#x133;" horiz-adv-x="518" 
d="M393 639q-5 -30 15 -51.5t51 -21.5q30 -2 56 20t30 51q3 30 -16.5 51.5t-49.5 22.5q-31 1 -57 -20.5t-29 -51.5zM188 -89l-68 -95q18 -18 43.5 -33t64.5 -15q51 -1 89 20t61.5 58t32.5 85l89 529h-123l-87 -499q-3 -20 -11 -37.5t-20.5 -28t-29.5 -9.5q-7 0 -14.5 4
t-14.5 10t-12 11zM137 639q-4 -30 16 -51.5t51 -21.5q30 -2 56 20t30 51q3 30 -16.5 51.5t-50.5 22.5q-30 1 -56 -20.5t-30 -51.5zM120 460l-77 -460h123l80 460h-126z" />
    <glyph glyph-name="Jcircumflex" unicode="&#x134;" horiz-adv-x="293" 
d="M-112 -76l-89 -101q29 -22 69.5 -38.5t88.5 -16.5q57 -1 105 19t80.5 59t43.5 98l128 756h-149l-125 -726q-6 -38 -29 -60.5t-51 -23.5q-22 -1 -40.5 9t-31.5 25zM270 862l79 -88l94 60l-160 142l-201 -137l79 -64z" />
    <glyph glyph-name="jcircumflex" unicode="&#x135;" horiz-adv-x="258" 
d="M-73 -89l-67 -95q18 -18 43.5 -33t63.5 -15q52 -1 90 20t61.5 58t31.5 85l90 529h-124l-86 -499q-3 -21 -11.5 -38t-21 -27.5t-28.5 -9.5q-13 0 -23 6.5t-19 18.5zM208 619l78 -88l94 59l-159 142l-202 -137l79 -64z" />
    <glyph glyph-name="uni0136" unicode="&#x136;" horiz-adv-x="638" 
d="M165 700l-119 -700h144l121 700h-146zM547 700l-335 -328l231 -372h166l-232 369l342 331h-172zM279 -61l-129 -257l94 -23l161 247z" />
    <glyph glyph-name="uni0137" unicode="&#x137;" horiz-adv-x="518" 
d="M164 780l-132 -780h123l134 780h-125zM393 460l-221 -186l168 -274h146l-165 267l230 193h-158zM210 -61l-128 -257l94 -23l160 247z" />
    <glyph glyph-name="kgreenlandic" unicode="&#x138;" horiz-adv-x="518" 
d="M110 460l-78 -460h123l80 460h-125zM393 460l-221 -186l168 -274h146l-165 267l230 193h-158z" />
    <glyph glyph-name="Lacute" unicode="&#x139;" horiz-adv-x="489" 
d="M165 700l-120 -700h412l22 125h-271l98 575h-141zM557 922l-95 50l-172 -156l69 -41z" />
    <glyph glyph-name="lacute" unicode="&#x13a;" horiz-adv-x="250" 
d="M167 780l-132 -780h126l135 780h-129zM416 988l-96 50l-171 -157l69 -40z" />
    <glyph glyph-name="uni013B" unicode="&#x13b;" horiz-adv-x="489" 
d="M165 700l-120 -700h412l22 125h-271l98 575h-141zM219 -61l-130 -257l95 -23l160 247z" />
    <glyph glyph-name="uni013C" unicode="&#x13c;" horiz-adv-x="250" 
d="M167 780l-132 -780h126l135 780h-129zM65 -61l-129 -257l95 -23l160 247z" />
    <glyph glyph-name="Lcaron" unicode="&#x13d;" horiz-adv-x="489" 
d="M165 700l-120 -700h412l22 125h-271l98 575h-141zM467 713l-129 -256l94 -23l160 247z" />
    <glyph glyph-name="lcaron" unicode="&#x13e;" horiz-adv-x="250" 
d="M167 780l-132 -780h126l135 780h-129zM426 779l-130 -257l95 -23l160 247z" />
    <glyph glyph-name="Ldot" unicode="&#x13f;" horiz-adv-x="489" 
d="M165 700l-120 -700h412l22 125h-271l98 575h-141zM338 427q-3 -21 5 -39.5t25 -30t39 -11.5q22 -1 42 10t33.5 29.5t16.5 39.5t-5.5 39.5t-25 30t-39.5 11.5q-22 0 -42 -11t-33.5 -29t-15.5 -39z" />
    <glyph glyph-name="ldot" unicode="&#x140;" horiz-adv-x="430" 
d="M167 780l-132 -780h126l135 780h-129zM276 412q-3 -21 5.5 -39.5t24.5 -30t40 -11.5q21 -1 41 10t33.5 29.5t16.5 39.5q2 21 -6 39.5t-24.5 30t-38.5 11.5q-23 0 -42.5 -11t-33 -29t-16.5 -39z" />
    <glyph glyph-name="Lslash" unicode="&#x141;" horiz-adv-x="493" 
d="M34 319l362 220l-23 70l-360 -220zM165 700l-120 -700h412l22 125h-271l98 575h-141z" />
    <glyph glyph-name="lslash" unicode="&#x142;" horiz-adv-x="250" 
d="M26 319l330 196l-23 69l-329 -195zM167 780l-132 -780h126l135 780h-129z" />
    <glyph glyph-name="Nacute" unicode="&#x143;" horiz-adv-x="764" 
d="M648 700l-75 -434l-403 468l-125 -734h137l75 435l403 -469l125 734h-137zM665 907l-96 50l-171 -156l69 -41z" />
    <glyph glyph-name="nacute" unicode="&#x144;" horiz-adv-x="542" 
d="M241 460h-128l-79 -460h128zM372 280l-49 -280h131l51 294q6 51 -5.5 91t-42.5 63t-85 22q-55 0 -94 -27.5t-63 -71.5t-33 -94l28 4q6 24 20.5 46t36.5 34.5t49 12.5q27 -2 39.5 -15t16 -33.5t0.5 -45.5zM513 678l-95 51l-170 -157l68 -41z" />
    <glyph glyph-name="uni0145" unicode="&#x145;" horiz-adv-x="764" 
d="M326 -49l-129 -256l94 -24l160 247zM648 700l-75 -434l-403 468l-125 -734h137l75 435l403 -469l125 734h-137z" />
    <glyph glyph-name="uni0146" unicode="&#x146;" horiz-adv-x="542" 
d="M241 460h-128l-79 -460h128zM372 280l-49 -280h131l51 294q6 51 -5.5 91t-42.5 63t-85 22q-55 0 -95 -27t-65.5 -71t-34.5 -95l33 4q6 24 20.5 46t36.5 34.5t49 12.5q27 -2 39.5 -15t16 -33.5t0.5 -45.5zM211 -61l-129 -257l95 -23l159 247z" />
    <glyph glyph-name="Ncaron" unicode="&#x147;" horiz-adv-x="764" 
d="M494 896l-78 88l-94 -60l159 -142l202 138l-79 64zM648 700l-75 -434l-403 468l-125 -734h137l75 435l403 -469l125 734h-137z" />
    <glyph glyph-name="ncaron" unicode="&#x148;" horiz-adv-x="542" 
d="M241 460h-128l-79 -460h128zM372 280l-49 -280h131l51 294q6 51 -5.5 91t-42.5 63t-85 22q-55 0 -95 -27t-65.5 -71t-34.5 -95l33 4q6 24 20.5 46t36.5 34.5t49 12.5q27 -2 39.5 -15t16 -33.5t0.5 -45.5zM351 645l-80 87l-93 -59l160 -143l201 139l-79 63z" />
    <glyph glyph-name="napostrophe" unicode="&#x149;" horiz-adv-x="691" 
d="M389 460h-127l-80 -460h128zM520 280l-49 -280h131l51 294q6 51 -5.5 91t-42.5 63t-84 22q-55 0 -95.5 -27t-66 -71t-34.5 -95l33 4q7 24 21.5 46t36 34.5t49.5 12.5q27 -2 39.5 -15t15.5 -33.5t0 -45.5zM204 700l-95 -246h92l143 246h-140z" />
    <glyph glyph-name="Eng" unicode="&#x14a;" horiz-adv-x="788" 
d="M470 -217q50 0 89.5 20t65 57t33.5 88l126 752h-138l-73 -433l-419 468l-123 -735h138l73 433l312 -359l-16 -97q-4 -26 -12 -42.5t-20 -24.5t-28 -8q-15 0 -25.5 6.5t-17.5 19.5l-72 -97q21 -25 46 -36.5t61 -11.5z" />
    <glyph glyph-name="eng" unicode="&#x14b;" horiz-adv-x="559" 
d="M241 -233q82 0 133 42.5t65 121.5l60 363q15 88 -18.5 132t-113.5 44q-46 0 -85.5 -20.5t-67.5 -58.5l12 69h-130l-77 -460h130l46 278q5 30 20 51.5t37.5 33t49.5 11.5q40 0 54.5 -23t6.5 -71l-53 -319q-6 -38 -21.5 -56.5t-38.5 -18.5q-29 0 -44 25l-71 -97
q20 -23 46.5 -35t59.5 -12z" />
    <glyph glyph-name="Omacron" unicode="&#x14c;" horiz-adv-x="788" 
d="M215 350q8 47 30.5 89t56 74t76.5 50t92 18q49 -1 84 -20t56 -51.5t28 -74t0 -85.5q-8 -47 -30.5 -89t-56 -74t-76.5 -50t-92 -17q-49 0 -83.5 19t-56 51.5t-28.5 74t0 85.5zM66 350q-11 -73 5 -139.5t56 -118t101 -81.5t140 -30q80 0 150.5 28.5t127 79.5t93 118
t48.5 143q11 73 -5.5 139t-57 117t-101.5 79.5t-139 28.5q-79 0 -149 -27.5t-127 -77.5t-93.5 -116t-48.5 -143zM321 775l356 -1l20 114h-356z" />
    <glyph glyph-name="omacron" unicode="&#x14d;" horiz-adv-x="559" 
d="M43 230q-10 -67 14.5 -121.5t76 -86t121.5 -31.5q72 0 133 30.5t101.5 85t51.5 123.5q9 67 -15.5 121.5t-75.5 86.5t-122 32q-72 0 -132.5 -31t-101.5 -85.5t-51 -123.5zM173 230q6 36 27 66t51.5 47.5t65.5 17.5q35 -1 57.5 -19.5t32 -48t4.5 -63.5q-6 -36 -27 -66
t-52 -47.5t-66 -16.5q-35 0 -57.5 18.5t-32 48t-3.5 63.5zM165 531l356 -1l20 114h-356z" />
    <glyph glyph-name="Obreve" unicode="&#x14e;" horiz-adv-x="788" 
d="M215 350q8 47 30.5 89t56 74t76.5 50t92 18q49 -1 84 -20t56 -51.5t28 -74t0 -85.5q-8 -47 -30.5 -89t-56 -74t-76.5 -50t-92 -17q-49 0 -83.5 19t-56 51.5t-28.5 74t0 85.5zM66 350q-11 -73 5 -139.5t56 -118t101 -81.5t140 -30q80 0 150.5 28.5t127 79.5t93 118
t48.5 143q11 73 -5.5 139t-57 117t-101.5 79.5t-139 28.5q-79 0 -149 -27.5t-127 -77.5t-93.5 -116t-48.5 -143zM365 919q-3 -40 11 -73t46 -52t80 -19q50 0 86.5 19.5t60 51.5t32.5 72l-90 1q-6 -16 -16.5 -31t-27 -24.5t-39.5 -8.5q-21 1 -33.5 10t-17.5 23t-5 31h-87z
" />
    <glyph glyph-name="obreve" unicode="&#x14f;" horiz-adv-x="559" 
d="M43 230q-10 -67 14.5 -121.5t76 -86t121.5 -31.5q72 0 133 30.5t101.5 85t51.5 123.5q9 67 -15.5 121.5t-75.5 86.5t-122 32q-72 0 -132.5 -31t-101.5 -85.5t-51 -123.5zM173 230q6 36 27 66t51.5 47.5t65.5 17.5q35 -1 57.5 -19.5t32 -48t4.5 -63.5q-6 -36 -27 -66
t-52 -47.5t-66 -16.5q-35 0 -57.5 18.5t-32 48t-3.5 63.5zM209 675q-3 -40 11 -72.5t46 -52t81 -19.5t85.5 19.5t60 51.5t32.5 72l-90 1q-6 -16 -16.5 -31t-27 -24.5t-38.5 -8.5t-34.5 10t-17.5 23.5t-5 30.5h-87z" />
    <glyph glyph-name="Ohungarumlaut" unicode="&#x150;" horiz-adv-x="788" 
d="M402 775l169 185l-113 30l-138 -189zM586 775l170 185l-114 30l-138 -189zM215 350q8 47 30.5 89t56 74t76.5 50t92 18q49 -1 84 -20t56 -51.5t28 -74t0 -85.5q-8 -47 -30.5 -89t-56 -74t-76.5 -50t-92 -17q-49 0 -83.5 19t-56 51.5t-28.5 74t0 85.5zM66 350
q-11 -73 5 -139.5t56 -118t101 -81.5t140 -30q80 0 150.5 28.5t127 79.5t93 118t48.5 143q11 73 -6 139t-57 117t-101 79.5t-139 28.5q-79 0 -149.5 -27.5t-127 -77.5t-93 -116t-48.5 -143z" />
    <glyph glyph-name="ohungarumlaut" unicode="&#x151;" horiz-adv-x="559" 
d="M249 531l169 185l-113 30l-138 -189zM433 531l170 185l-114 30l-138 -189zM49 230q-9 -67 16.5 -121.5t77.5 -86t122 -31.5q71 0 132 30.5t100.5 85t49.5 123.5q9 67 -17 121.5t-77.5 86.5t-121.5 32q-72 0 -132 -31t-100 -85.5t-50 -123.5zM179 230q6 36 26 66
t50.5 47.5t65.5 17.5q35 -1 58 -19.5t33 -48t5 -63.5q-6 -36 -26.5 -66t-50.5 -47.5t-66 -16.5q-34 0 -57 18.5t-33 48t-5 63.5z" />
    <glyph glyph-name="OE" unicode="&#x152;" horiz-adv-x="956" 
d="M571 313l348 -1l21 119h-349zM565 670l-109 -639l136 -1l111 640h-138zM905 121h-360l-22 6l-133 1q-52 0 -89.5 17t-60 46.5t-30 70t0.5 88.5q9 50 31 91t56.5 70t79 45t97.5 17h135l17 6h356l22 121h-538q-77 -1 -145 -27.5t-121 -73.5t-88.5 -110.5t-46.5 -138.5
q-10 -72 5.5 -135t54.5 -111t97 -75.5t133 -28.5h530z" />
    <glyph glyph-name="oe" unicode="&#x153;" horiz-adv-x="873" 
d="M724 250l-4 -19l128 -29q1 7 2.5 16t3.5 16q7 62 -10 115.5t-57 86.5t-99 34q-60 0 -109.5 -25.5t-85.5 -68.5t-53 -97q-8 -24 -11 -49q-9 -61 8 -116t58 -89t105 -34q49 -1 92 16.5t78.5 46.5t61.5 64l-107 38q-25 -28 -57.5 -49t-73.5 -20q-38 1 -59 21t-27 52.5
t0 69.5l7 30q7 34 26 61t47.5 42.5t60.5 14.5q35 -1 52.5 -19.5t21.5 -47.5t1 -61zM475 202l372 -1l-7 79h-353zM45 230q-9 -65 11 -119.5t65 -87.5t110 -32q64 0 113.5 32t80.5 86.5t41 120.5q8 63 -6 117.5t-52 88t-103 34.5q-65 0 -121 -32t-92.5 -86t-46.5 -122z
M171 230q6 37 26.5 67t51.5 47t66 17q33 -1 52.5 -19.5t27 -48t3.5 -63.5q-6 -37 -25.5 -66.5t-47.5 -46.5t-61 -17q-35 0 -57.5 17.5t-31.5 47t-4 65.5z" />
    <glyph glyph-name="Racute" unicode="&#x154;" horiz-adv-x="601" 
d="M258 326l149 -326h161l-166 326h-144zM165 700l-119 -700h140l120 700h-141zM229 578h140q33 -2 56.5 -14.5t34.5 -35.5t6 -55q-6 -33 -26 -56t-50 -35.5t-65 -13.5h-131l-21 -114h149q76 1 137.5 28.5t101.5 77t50 117.5q10 67 -15.5 116.5t-79 77.5t-126.5 29h-140z
M568 922l-96 50l-171 -156l69 -41z" />
    <glyph glyph-name="racute" unicode="&#x155;" horiz-adv-x="379" 
d="M239 460h-126l-79 -460h126zM348 326l74 107q-15 17 -35 27t-44 11q-44 0 -79.5 -28t-60 -71.5t-32.5 -90.5l31 -37q5 27 16.5 51.5t30.5 40t46 14.5q17 0 29.5 -7t23.5 -17zM455 678l-95 51l-171 -157l68 -40z" />
    <glyph glyph-name="uni0156" unicode="&#x156;" horiz-adv-x="601" 
d="M258 326l149 -326h161l-166 326h-144zM165 700l-119 -700h140l120 700h-141zM229 578h140q33 -2 56.5 -14.5t34.5 -35.5t6 -55q-6 -33 -26 -56t-50 -35.5t-65 -13.5h-131l-21 -114h149q76 1 137.5 28.5t101.5 77t50 117.5q10 67 -15.5 116.5t-79 77.5t-126.5 29h-140z
M275 -61l-129 -257l95 -23l159 247z" />
    <glyph glyph-name="uni0157" unicode="&#x157;" horiz-adv-x="379" 
d="M239 460h-126l-79 -460h126zM348 326l74 107q-15 17 -35 27t-44 11q-44 0 -79.5 -28t-60 -71.5t-32.5 -90.5l31 -37q5 27 16.5 51.5t30.5 40t46 14.5q17 0 29.5 -7t23.5 -17zM64 -61l-128 -257l94 -23l159 247z" />
    <glyph glyph-name="Rcaron" unicode="&#x158;" horiz-adv-x="601" 
d="M258 326l149 -326h161l-166 326h-144zM165 700l-119 -700h140l120 700h-141zM229 578h140q33 -2 56.5 -14.5t34.5 -35.5t6 -55q-6 -33 -26 -56t-50 -35.5t-65 -13.5h-131l-21 -114h149q76 1 137.5 28.5t101.5 77t50 117.5q10 67 -15.5 116.5t-79 77.5t-126.5 29h-140z
M408 889l-79 87l-94 -59l160 -143l201 138l-79 64z" />
    <glyph glyph-name="rcaron" unicode="&#x159;" horiz-adv-x="379" 
d="M239 460h-126l-79 -460h126zM348 326l74 107q-15 17 -35 27t-44 11q-44 0 -79.5 -28t-60 -71.5t-32.5 -90.5l31 -37q5 27 16.5 51.5t30.5 40t46 14.5q17 0 29.5 -7t23.5 -17zM297 645l-79 88l-93 -60l160 -142l201 138l-79 63z" />
    <glyph glyph-name="Sacute" unicode="&#x15a;" horiz-adv-x="583" 
d="M148 243l-111 -69q15 -56 48 -99.5t81 -68t109 -24.5q72 -1 131 24.5t97 73t49 114.5q7 54 -11 95.5t-52 70.5t-78 48q-24 9 -49 19.5t-46 23t-32.5 29.5t-6.5 38q4 22 19 38t37.5 25t47.5 9q30 0 50 -13t33.5 -34t25.5 -46l115 64q-13 41 -40.5 76t-71.5 56t-104 21
q-63 0 -118 -23t-91.5 -65.5t-45.5 -100.5q-8 -57 13.5 -98.5t58.5 -69t76 -44.5q32 -14 62.5 -29.5t48 -37.5t11.5 -56q-8 -38 -38 -60t-74 -21q-29 -1 -51 9.5t-39 29t-30 43t-24 52.5zM605 922l-95 50l-172 -156l69 -41z" />
    <glyph glyph-name="sacute" unicode="&#x15b;" horiz-adv-x="427" 
d="M82 170l-74 -79q19 -32 48.5 -56t67.5 -37.5t82 -12.5q50 -1 91 15t67.5 48.5t33.5 81.5q4 35 -9.5 61t-38.5 45t-55 32q-20 8 -44.5 17t-41 21t-13.5 29q2 18 21.5 26.5t41.5 8.5q29 0 58 -15.5t51 -38.5l67 78q-30 34 -75 55t-99 21q-43 -1 -83.5 -15.5t-68.5 -42.5
t-35 -71q-5 -36 7.5 -61.5t37 -44t53.5 -32.5q15 -7 33 -14.5t33.5 -16t24.5 -19.5t6 -25q-3 -22 -22.5 -31.5t-41.5 -8.5q-24 0 -45.5 10t-40.5 28.5t-37 43.5zM477 678l-96 51l-171 -157l69 -41z" />
    <glyph glyph-name="Scircumflex" unicode="&#x15c;" horiz-adv-x="583" 
d="M148 243l-111 -69q15 -56 48 -99.5t81 -68t109 -24.5q72 -1 131 24.5t97 73t48 114.5q7 54 -10.5 95.5t-51.5 70.5t-78 48q-24 9 -49 19.5t-46 23t-32.5 29.5t-6.5 38q4 22 19 38t37.5 25t47.5 9q30 0 50 -13t33.5 -34t25.5 -46l115 64q-13 41 -40.5 76t-71.5 56t-104 21
q-63 0 -118 -23t-91.5 -65.5t-45.5 -100.5q-8 -57 13.5 -98.5t58.5 -69t76 -44.5q32 -14 62.5 -29.5t48 -37.5t11.5 -56q-8 -38 -38 -60t-74 -21q-29 -1 -51 9.5t-39 29t-30 43t-24 52.5zM422 862l80 -88l93 60l-160 142l-201 -137l78 -64z" />
    <glyph glyph-name="scircumflex" unicode="&#x15d;" horiz-adv-x="427" 
d="M82 170l-74 -79q19 -32 48.5 -56t67.5 -37.5t82 -12.5q50 -1 91 15t67.5 48.5t33.5 81.5q4 35 -9.5 61t-38.5 45t-55 32q-20 8 -44.5 17t-41 21t-13.5 29q2 18 21.5 26.5t41.5 8.5q29 0 58 -15.5t51 -38.5l67 78q-30 34 -75 55t-99 21q-43 -1 -83.5 -15.5t-68.5 -42.5
t-35 -71q-5 -36 7.5 -61.5t37 -44t53.5 -32.5q15 -7 33 -14.5t33.5 -16t24.5 -19.5t6 -25q-3 -22 -22 -31.5t-42 -8.5q-24 0 -45.5 10t-40.5 28.5t-37 43.5zM302 619l79 -88l93 59l-160 142l-201 -137l79 -64z" />
    <glyph glyph-name="Scedilla" unicode="&#x15e;" horiz-adv-x="583" 
d="M148 243l-111 -69q15 -56 48 -99.5t81 -68t109 -24.5q70 0 129.5 25.5t98 73t49.5 113.5q7 54 -11 95.5t-52 70.5t-78 48q-24 9 -49 19.5t-46 23t-32.5 29t-6.5 38.5q4 21 17.5 37.5t35 25.5t45.5 9q30 0 51.5 -12.5t36.5 -34t27 -45.5l115 63q-14 43 -42 77.5t-71 55
t-103 20.5q-65 0 -119.5 -23.5t-90.5 -67t-45 -101.5q-8 -59 13.5 -99t58.5 -66.5t76 -43.5q32 -14 62.5 -29t48 -37.5t11.5 -56.5q-8 -38 -38 -60t-74 -21q-29 -1 -51 9.5t-39 29t-30 43t-24 52.5zM266 60l-114 -185q21 8 42.5 12.5t35.5 3.5q12 0 23 -3.5t18 -10.5t6 -18
q-1 -12 -10.5 -20.5t-23 -13t-26.5 -4.5q-17 -1 -33.5 6t-32.5 18l-48 -57q28 -21 56.5 -31t64.5 -9q30 0 59 12t50 35t26 55q4 40 -18.5 64.5t-53.5 26.5q-6 0 -12.5 -0.5t-12.5 -1.5l100 118z" />
    <glyph glyph-name="scedilla" unicode="&#x15f;" horiz-adv-x="427" 
d="M81 171l-73 -79q24 -31 54.5 -55t68 -38t81.5 -14q48 0 88 16t65.5 48.5t32.5 81.5q4 36 -9.5 62.5t-38.5 45t-55 32.5q-20 8 -44 16.5t-39.5 20.5t-11.5 32q3 18 22 27t41 9q30 0 57 -18t48 -42l67 79q-33 33 -76.5 54.5t-97.5 21.5q-43 -1 -82 -15.5t-65 -43t-32 -70.5
q-6 -40 8.5 -66.5t40.5 -44t58 -30.5l40 -18t32 -22t9 -33q-4 -21 -22.5 -32t-39.5 -11q-22 0 -43 10.5t-42 30.5t-42 45zM199 62l-113 -184q21 8 42 12t35 3q11 0 22.5 -3.5t19 -10t5.5 -18.5q-1 -12 -10.5 -20t-23 -13t-26.5 -5q-17 0 -33.5 6.5t-31.5 18.5l-48 -58
q28 -20 56 -30t64 -10q30 0 59.5 12.5t51 35.5t25.5 55q4 40 -18.5 64t-54.5 27q-6 0 -12 -1t-12 -1l101 117z" />
    <glyph glyph-name="Scaron" unicode="&#x160;" horiz-adv-x="583" 
d="M148 243l-111 -69q15 -56 48 -99.5t81 -68t109 -24.5q72 -1 131 24.5t97 73t48 114.5q7 54 -10.5 95.5t-51.5 70.5t-78 48q-24 9 -49 19.5t-46 23t-32.5 29.5t-6.5 38q4 22 19 38t37.5 25t47.5 9q30 0 50 -13t33.5 -34t25.5 -46l115 64q-13 41 -40.5 76t-71.5 56t-104 21
q-63 0 -118 -23t-91.5 -65.5t-45.5 -100.5q-8 -57 13.5 -98.5t58.5 -69t76 -44.5q32 -14 62.5 -29.5t48 -37.5t11.5 -56q-8 -38 -38 -60t-74 -21q-29 -1 -51 9.5t-39 29t-30 43t-24 52.5zM420 889l-79 87l-94 -59l160 -143l201 138l-79 64z" />
    <glyph glyph-name="scaron" unicode="&#x161;" horiz-adv-x="427" 
d="M82 170l-74 -79q19 -32 48.5 -56t67.5 -37.5t82 -12.5q50 -1 91 15t67.5 48.5t33.5 81.5q4 35 -9.5 61t-38.5 45t-55 32q-20 8 -44.5 17t-41 21t-13.5 29q2 18 21.5 26.5t41.5 8.5q29 0 58 -15.5t51 -38.5l67 78q-30 34 -75 55t-99 21q-43 -1 -83.5 -15.5t-68.5 -42.5
t-35 -71q-5 -36 7.5 -61.5t37 -44t53.5 -32.5q15 -7 33 -14.5t33.5 -16t24.5 -19.5t6 -25q-3 -22 -22 -31.5t-42 -8.5q-24 0 -45.5 10t-40.5 28.5t-37 43.5zM290 636l-79 88l-94 -60l160 -142l202 138l-80 63z" />
    <glyph glyph-name="uni0162" unicode="&#x162;" horiz-adv-x="516" 
d="M186 13l-114 -184q21 7 42.5 11.5t35.5 3.5q11 0 22.5 -3.5t19 -10.5t5.5 -18q-1 -12 -10.5 -20.5t-23 -13t-26.5 -4.5q-17 0 -33.5 6.5t-31.5 17.5l-49 -57q29 -21 57 -31t64 -9q30 0 59.5 12t50.5 35t25 56q4 39 -18 63.5t-54 27.5q-7 0 -13 -1l-12 -2l100 119zM74 571
h184l-98 -571h141l98 571h182l23 129h-507z" />
    <glyph glyph-name="uni0163" unicode="&#x163;" horiz-adv-x="285" 
d="M70 12l-114 -184q21 7 42.5 11.5t35.5 3.5q11 0 22.5 -3.5t19 -10.5t5.5 -18q-1 -12 -10.5 -20.5t-23 -13t-26.5 -4.5q-17 0 -33.5 6.5t-31.5 17.5l-49 -57q29 -21 57 -31t64 -9q30 0 59.5 12t50.5 35t25 56q4 39 -18 63.5t-54 27.5q-7 0 -13 -1l-12 -2l100 119zM57 460
l-20 -109h278l19 109h-277zM159 620l-105 -620h122l108 620h-125z" />
    <glyph glyph-name="Tcaron" unicode="&#x164;" horiz-adv-x="516" 
d="M74 571h184l-98 -571h141l98 571h182l23 129h-507zM379 889l-79 87l-93 -59l159 -143l201 138l-78 64z" />
    <glyph glyph-name="tcaron" unicode="&#x165;" horiz-adv-x="429" 
d="M56 460l-20 -109h278l19 109h-277zM159 620l-105 -620h122l108 620h-125zM450 793l-130 -257l95 -23l159 247z" />
    <glyph glyph-name="Tbar" unicode="&#x166;" horiz-adv-x="531" 
d="M108.6 327h322.878l31.5 113h-322.877zM74 571h184l-98 -571h141l98 571h182l23 129h-507z" />
    <glyph glyph-name="tbar" unicode="&#x167;" horiz-adv-x="294" 
d="M16 156h205l20 113h-205zM57 460l-20 -109h278l19 109h-277zM159 620l-105 -620h122l108 620h-125z" />
    <glyph glyph-name="Utilde" unicode="&#x168;" horiz-adv-x="658" 
d="M160 700l-80 -470q-10 -76 15 -132.5t78.5 -88t129.5 -31.5q77 0 140 31t105.5 88t54.5 133l80 470h-141l-80 -461q-7 -37 -26.5 -67t-49.5 -48t-71 -17q-40 0 -62 18.5t-29.5 48.5t-2.5 65l81 461h-142zM262 833l59 -56q6 13 18.5 31t38.5 19q22 1 40.5 -11t37.5 -25
t43 -14q28 -1 53.5 11.5t45.5 31t32 36.5l-55 67q-15 -20 -32.5 -35.5t-37.5 -15.5q-25 -1 -41.5 11t-34.5 25t-45 13q-25 1 -51.5 -12t-46.5 -33t-24 -43z" />
    <glyph glyph-name="utilde" unicode="&#x169;" horiz-adv-x="542" 
d="M326 0h129l79 460h-128zM196 180l48 280h-131l-50 -294q-6 -51 5 -91t43 -62.5t85 -22.5q54 1 93 28t63 70.5t33 94.5l-28 -4q-6 -24 -21 -46t-36.5 -34.5t-49.5 -11.5q-27 1 -39.5 14t-15.5 33.5t1 45.5zM163 589l59 -55q7 13 19 30.5t38 19.5q22 0 40.5 -12t37.5 -25
t43 -14q29 -1 54 11.5t45 31t32 36.5l-55 67q-15 -20 -32.5 -35.5t-37.5 -15.5q-24 -1 -41 11t-35 25t-45 13q-28 1 -52.5 -12t-42 -33.5t-27.5 -42.5z" />
    <glyph glyph-name="Umacron" unicode="&#x16a;" horiz-adv-x="658" 
d="M160 700l-80 -470q-10 -76 15 -132.5t78.5 -88t129.5 -31.5q77 0 140 31t105.5 88t54.5 133l80 470h-141l-80 -461q-7 -37 -26.5 -67t-49.5 -48t-71 -17q-40 0 -62 18.5t-29.5 48.5t-2.5 65l81 461h-142zM257 775h357l18 113h-357z" />
    <glyph glyph-name="umacron" unicode="&#x16b;" horiz-adv-x="542" 
d="M326 0h129l79 460h-128zM196 180l48 280h-131l-50 -294q-6 -51 5 -91t43 -62.5t85 -22.5q54 1 93 28t63 70.5t33 94.5l-28 -4q-6 -24 -21 -46t-36.5 -34.5t-49.5 -11.5q-27 1 -39.5 14t-15.5 33.5t1 45.5zM158 531h357l18 113h-357z" />
    <glyph glyph-name="Ubreve" unicode="&#x16c;" horiz-adv-x="658" 
d="M160 700l-80 -470q-10 -76 15 -132.5t78.5 -88t129.5 -31.5q77 0 140 31t105.5 88t54.5 133l80 470h-141l-80 -461q-7 -37 -26.5 -67t-49.5 -48t-71 -17q-40 0 -62 18.5t-29.5 48.5t-2.5 65l81 461h-142zM300 919q-2 -41 12.5 -73.5t46.5 -51.5t81 -19t85.5 19t59.5 51.5
t32 72.5h-91q-6 -15 -16.5 -30t-27 -24.5t-38.5 -8.5q-22 0 -34 9.5t-17.5 23.5t-5.5 31h-87z" />
    <glyph glyph-name="ubreve" unicode="&#x16d;" horiz-adv-x="542" 
d="M326 0h129l79 460h-128zM196 180l48 280h-131l-50 -294q-6 -51 5 -91t43 -62.5t85 -22.5q54 1 93 28t63 70.5t33 94.5l-28 -4q-6 -24 -21 -46t-36.5 -34.5t-49.5 -11.5q-27 1 -39.5 14t-15.5 33.5t1 45.5zM201 675q-2 -41 12.5 -73.5t46.5 -51.5t81 -19t85.5 19
t59.5 51.5t32 72.5h-91q-5 -15 -16 -30t-27.5 -24.5t-38.5 -8.5q-22 0 -34.5 9.5t-17.5 23.5t-5 31h-87z" />
    <glyph glyph-name="Uring" unicode="&#x16e;" horiz-adv-x="658" 
d="M160 700l-79 -470q-11 -75 14 -132t78.5 -88.5t128.5 -31.5q78 0 141 31t105 88t55 133l80 470h-141l-79 -461q-8 -37 -27 -67t-49.5 -48t-70.5 -17q-39 0 -61.5 18.5t-30.5 48.5t-3 65l80 461h-141zM338 886q-5 -31 7.5 -56.5t36 -40t55.5 -14.5q31 0 59.5 14t48 39
t23.5 56q5 31 -7.5 56.5t-37 40t-55.5 15.5q-31 0 -59.5 -14.5t-48 -39.5t-22.5 -56zM406 885q1 12 10.5 23.5t22 19t24.5 7.5q18 -2 28 -16.5t8 -32.5q-1 -13 -10.5 -24.5t-22 -18.5t-24.5 -6q-18 0 -28 14.5t-8 33.5z" />
    <glyph glyph-name="uring" unicode="&#x16f;" horiz-adv-x="542" 
d="M326 0h128l80 460h-128zM196 180l48 280h-130l-51 -294q-6 -51 5 -91t42 -62.5t85 -22.5q55 1 94 28t63 71t33 94l-27 -4q-7 -24 -21.5 -46t-36.5 -34.5t-49 -11.5t-39.5 14t-16 33.5t0.5 45.5zM238 642q-4 -31 8.5 -56t36.5 -40t55 -15t59.5 14.5t48 39t23.5 55.5
q5 31 -7.5 56.5t-36.5 40t-56 15.5q-31 0 -59.5 -14.5t-48 -39t-23.5 -56.5zM307 641q2 12 11 24t21.5 19t24.5 7q18 -2 28 -16.5t8 -32.5q-2 -13 -11 -24.5t-21.5 -18.5t-25.5 -6q-17 1 -27 15t-8 33z" />
    <glyph glyph-name="Uhungarumlaut" unicode="&#x170;" horiz-adv-x="658" 
d="M342 775l169 185l-113 30l-138 -189zM526 775l170 185l-114 30l-138 -189zM160 700l-79 -470q-11 -75 14 -132t78.5 -88.5t129.5 -31.5q81 0 144 31t103 88t53 133l80 470h-141l-79 -461q-7 -37 -25 -67t-48.5 -47.5t-73.5 -17.5q-40 0 -62 18.5t-30 48.5t-3 65l80 461
h-141z" />
    <glyph glyph-name="uhungarumlaut" unicode="&#x171;" horiz-adv-x="542" 
d="M243 531l169 185l-113 30l-138 -189zM427 531l170 185l-114 30l-138 -189zM196 180l48 280h-130l-51 -294q-7 -50 4 -89.5t42.5 -63t85.5 -23.5q48 0 82.5 20.5t59.5 56.5l-11 -67h128l80 460h-128l-50 -283q-4 -28 -19 -48t-37.5 -31t-48.5 -11q-27 0 -40 13t-16 34
t1 46z" />
    <glyph glyph-name="Uogonek" unicode="&#x172;" horiz-adv-x="658" 
d="M326 -130q-11 -8 -24.5 -14.5t-28.5 -4.5q-18 1 -25 12t-5 28q3 20 17.5 37t36 32t43.5 27l-39 25q-33 -17 -67 -37t-58 -46t-28 -61q-6 -47 24.5 -74t79.5 -26q33 0 57 11.5t40 26.5zM160 700l-79 -470q-11 -75 14 -132t78.5 -88.5t129.5 -31.5q81 0 144 31t103 88
t53 133l80 470h-141l-79 -461q-7 -37 -25 -67t-48.5 -47.5t-73.5 -17.5q-40 0 -62 18.5t-30 48.5t-3 65l80 461h-141z" />
    <glyph glyph-name="uogonek" unicode="&#x173;" horiz-adv-x="542" 
d="M225 -112q-11 -8 -24.5 -14.5t-28.5 -4.5q-18 1 -25 12t-5 28q3 20 17.5 37t36 32t43.5 27l-39 25q-33 -17 -67 -37t-58 -46t-28 -61q-6 -47 24.5 -74t79.5 -26q33 0 57 11.5t40 26.5zM196 180l48 280h-130l-51 -294q-7 -50 4 -89.5t42.5 -63t85.5 -23.5q48 0 82.5 20.5
t59.5 56.5l-11 -67h128l80 460h-128l-50 -283q-4 -28 -19 -48t-37.5 -31t-48.5 -11q-27 0 -40 13t-16 34t1 46z" />
    <glyph glyph-name="Wcircumflex" unicode="&#x174;" horiz-adv-x="1011" 
d="M715 254l-112 485l-274 -484l-68 445h-163l164 -742l292 460l137 -459l410 741h-170zM632 884l79 -88l93 60l-161 142l-200 -137l79 -64z" />
    <glyph glyph-name="wcircumflex" unicode="&#x175;" horiz-adv-x="714" 
d="M49 460l135 -493l191 292l92 -292l306 493h-140l-142 -253l-80 291l-176 -289l-54 251h-132zM440 644l79 -88l94 60l-161 142l-200 -137l79 -64z" />
    <glyph glyph-name="Ycircumflex" unicode="&#x176;" horiz-adv-x="610" 
d="M540 700l-193 -279l-96 279h-156l163 -406l-52 -294h144l48 287l309 413h-167zM427 862l79 -88l93 60l-161 142l-200 -137l80 -64z" />
    <glyph glyph-name="ycircumflex" unicode="&#x177;" horiz-adv-x="481" 
d="M543 460h-138l-203 -363l64 -3l-81 366h-139l116 -409l-163 -270h136zM321 618l78 -88l94 60l-161 142l-201 -137l80 -64z" />
    <glyph glyph-name="Ydieresis" unicode="&#x178;" horiz-adv-x="610" 
d="M224 856q-4 -30 15 -51.5t51 -21.5q30 -2 56.5 20t29.5 51q4 30 -15.5 51.5t-50.5 22.5q-30 1 -56 -20.5t-30 -51.5zM472 856q-4 -30 15 -51.5t51 -21.5q30 -2 56.5 20t30.5 51q4 30 -16 51.5t-51 22.5q-30 1 -56 -20.5t-30 -51.5zM541 700l-193 -279l-97 279h-157
l164 -407l-51 -293h143l48 287l308 413h-165z" />
    <glyph glyph-name="Zacute" unicode="&#x179;" horiz-adv-x="579" 
d="M118 571h289l-427 -571h528l22 125l-301 1l430 574h-519zM601 922l-96 50l-170 -156l69 -41z" />
    <glyph glyph-name="zacute" unicode="&#x17a;" horiz-adv-x="488" 
d="M290 342l-306 -342h436l21 118l-211 1l298 341h-425l-21 -117zM518 689l-95 51l-171 -157l68 -40z" />
    <glyph glyph-name="Zdotaccent" unicode="&#x17b;" horiz-adv-x="579" 
d="M118 571h289l-427 -571h528l22 125l-301 1l430 574h-519zM347 849q-4 -30 16 -51.5t50 -22.5t56.5 20.5t30.5 51.5t-16 51.5t-50 22.5q-31 1 -57 -20.5t-30 -51.5z" />
    <glyph glyph-name="zdotaccent" unicode="&#x17c;" horiz-adv-x="488" 
d="M290 342l-306 -342h436l21 118l-211 1l298 341h-425l-21 -117zM265 622q-4 -30 16 -51.5t51 -21.5q30 -2 56 20t30 51q4 30 -16 51.5t-50 22.5q-31 1 -57 -20.5t-30 -51.5z" />
    <glyph glyph-name="Zcaron" unicode="&#x17d;" horiz-adv-x="579" 
d="M118 571h289l-427 -571h528l22 125l-301 1l430 574h-519zM427 889l-79 87l-94 -59l160 -143l202 138l-79 64z" />
    <glyph glyph-name="zcaron" unicode="&#x17e;" horiz-adv-x="484" 
d="M342 645l-79 87l-94 -60l161 -142l201 138l-79 63zM291 342l-307 -342h436l21 118l-212 1l299 341h-425l-21 -117z" />
    <glyph glyph-name="florin" unicode="&#x192;" horiz-adv-x="600" 
d="M137 -200q44 -1 81 20t63 58.5t36 86.5l85 386h85l25 109h-87l34 140q7 35 23.5 56t37.5 21q10 0 19.5 -5.5t24.5 -20.5l65 93q-31 27 -56.5 38t-54.5 11q-44 1 -81 -20t-62.5 -58.5t-36.5 -86.5l-37 -168h-65l-25 -109h66l-81 -359q-7 -34 -24 -54.5t-37 -20.5
q-10 0 -20 5.5t-24 19.5l-66 -93q32 -26 57.5 -37t54.5 -12z" />
    <glyph glyph-name="uni0212" unicode="&#x212;" horiz-adv-x="601" 
d="M258 326l149 -326h161l-166 326h-144zM165 700l-119 -700h140l120 700h-141zM229 578h140q33 -2 56.5 -14.5t34.5 -35.5t6 -55q-6 -33 -26 -56t-50 -35.5t-65 -13.5h-131l-21 -114h149q76 1 137.5 28.5t101.5 77t50 117.5q10 67 -15.5 116.5t-79 77.5t-126.5 29h-140z
M248 774q11 39 36 72t63 53t88 20q49 -1 78.5 -21t41 -52.5t7.5 -71.5h-84q0 17 -6 31.5t-19.5 23.5t-35.5 10q-23 0 -39 -9.5t-26.5 -24.5t-15.5 -30z" />
    <glyph glyph-name="uni0213" unicode="&#x213;" horiz-adv-x="379" 
d="M239 460h-126l-79 -460h126zM348 326l74 107q-15 17 -35 27t-44 11q-44 0 -79.5 -28t-60 -71.5t-32.5 -90.5l31 -37q5 27 16.5 51.5t30.5 40t46 14.5q17 0 29.5 -7t23.5 -17zM123 530q12 39 36.5 72t62.5 53t89 20q49 -1 78 -20.5t41 -52.5t7 -71h-84q0 16 -6 30.5
t-19 24t-36 9.5q-22 1 -38.5 -9t-27 -24.5t-14.5 -30.5z" />
    <glyph glyph-name="uni0218" unicode="&#x218;" horiz-adv-x="583" 
d="M148 243l-111 -69q15 -56 48 -99.5t81 -68t109 -24.5q72 -1 131 24.5t97 73t49 114.5q7 54 -11 95.5t-52 70.5t-78 48q-24 9 -49 19.5t-46 23t-32.5 29.5t-6.5 38q4 22 19 38t37.5 25t47.5 9q30 0 50 -13t33.5 -34t25.5 -46l115 64q-13 41 -40.5 76t-71.5 56t-104 21
q-63 0 -118 -23t-91.5 -65.5t-45.5 -100.5q-8 -57 13.5 -98.5t58.5 -69t76 -44.5q32 -14 62.5 -29.5t48 -37.5t11.5 -56q-8 -38 -38 -60t-74 -21q-29 -1 -51 9.5t-39 29t-30 43t-24 52.5zM223 -71l-130 -257l95 -23l160 247z" />
    <glyph glyph-name="uni0219" unicode="&#x219;" horiz-adv-x="427" 
d="M82 170l-74 -79q19 -32 48.5 -56t67.5 -37.5t82 -12.5q50 -1 91 15t67.5 48.5t33.5 81.5q4 35 -9.5 61t-38.5 45t-55 32q-20 8 -44.5 17t-41 21t-13.5 29q2 18 21.5 26.5t41.5 8.5q29 0 58 -15.5t51 -38.5l67 78q-30 34 -75 55t-99 21q-43 -1 -83.5 -15.5t-68.5 -42.5
t-35 -71q-5 -36 7.5 -61.5t37 -44t53.5 -32.5q15 -7 33 -14.5t33.5 -16t24.5 -19.5t6 -25q-3 -22 -22.5 -31.5t-41.5 -8.5q-24 0 -45.5 10t-40.5 28.5t-37 43.5zM155 -69l-129 -256l94 -24l159 247z" />
    <glyph glyph-name="uni021A" unicode="&#x21a;" horiz-adv-x="516" 
d="M74 571h184l-98 -571h141l98 571h182l23 129h-507zM198 -60l-129 -257l94 -23l160 247z" />
    <glyph glyph-name="uni021B" unicode="&#x21b;" horiz-adv-x="285" 
d="M57 460l-20 -109h278l19 109h-277zM159 620l-105 -620h122l108 620h-125zM83 -60l-129 -257l94 -23l160 247z" />
    <glyph glyph-name="uni0237" unicode="&#x237;" horiz-adv-x="258" 
d="M-73 -89l-67 -95q18 -18 43.5 -33t63.5 -15q52 -1 90 20t61.5 58t31.5 85l90 529h-124l-86 -499q-3 -21 -11.5 -38t-21 -27.5t-28.5 -9.5q-13 0 -23 6.5t-19 18.5z" />
    <glyph glyph-name="circumflex" unicode="&#x2c6;" horiz-adv-x="466" 
d="M318 634l79 -88l93 59l-160 142l-201 -137l79 -64z" />
    <glyph glyph-name="caron" unicode="&#x2c7;" horiz-adv-x="466" 
d="M317 671l-79 88l-94 -60l160 -142l201 138l-78 63z" />
    <glyph glyph-name="breve" unicode="&#x2d8;" horiz-adv-x="530" 
d="M220 850q-3 -40 12 -73t47.5 -52t80.5 -18q49 0 85.5 19t59.5 51.5t32 71.5l-91 1q-5 -16 -15.5 -30.5t-26.5 -24t-39 -8.5q-22 0 -34.5 9t-18 23.5t-5.5 30.5h-87z" />
    <glyph glyph-name="dotaccent" unicode="&#x2d9;" horiz-adv-x="291" 
d="M180 807q-2 -31 19 -52.5t53 -21.5q31 0 55 21t27 52q2 31 -19.5 52.5t-52.5 21.5t-55.5 -21t-26.5 -52z" />
    <glyph glyph-name="ring" unicode="&#x2da;" horiz-adv-x="303" 
d="M141 775q-4 -31 8 -56t36 -39.5t56 -14.5q31 -1 59.5 13.5t48 39t23.5 55.5t-8.5 56.5t-36.5 40t-55 15.5q-31 0 -59.5 -14.5t-47.5 -39t-24 -56.5zM210 774q2 12 10.5 24t21.5 19t25 7q18 -2 28 -16.5t8 -32.5q-2 -13 -11 -24.5t-22 -18.5t-24 -6q-18 1 -28 15.5
t-8 32.5z" />
    <glyph glyph-name="ogonek" unicode="&#x2db;" horiz-adv-x="252" 
d="M153 -117q-11 -8 -24.5 -14.5t-28.5 -4.5q-18 1 -25 12t-5 28q3 20 17.5 37t36 32t43.5 27l-39 25q-33 -17 -67 -37t-58 -46t-28 -61q-6 -47 24.5 -74t79.5 -26q33 0 57 11.5t40 26.5z" />
    <glyph glyph-name="tilde" unicode="&#x2dc;" horiz-adv-x="514" 
d="M160 636l59 -56q6 13 18 31t38 19q22 1 40.5 -11t37.5 -25t44 -14q28 -1 53 11t45.5 30.5t32.5 38.5l-55 65q-16 -19 -32.5 -34.5t-36.5 -15.5q-25 -1 -42 11t-35 24.5t-45 13.5q-28 0 -52.5 -12.5t-42 -33t-27.5 -42.5z" />
    <glyph glyph-name="hungarumlaut" unicode="&#x2dd;" horiz-adv-x="0" 
d="M103 516l169 185l-113 30l-138 -189zM287 516l170 185l-114 30l-138 -189z" />
    <glyph glyph-name="gravecomb" unicode="&#x300;" horiz-adv-x="0" 
d="M251 539l72 38l-123 160l-104 -48z" />
    <glyph glyph-name="acutecomb" unicode="&#x301;" horiz-adv-x="0" 
d="M169 536l206 150l-105 53l-177 -160z" />
    <glyph glyph-name="uni0302" unicode="&#x302;" horiz-adv-x="0" 
d="M136 548l141 102h-35l102 -101l71 73l-144 125l-186 -125z" />
    <glyph glyph-name="tildecomb" unicode="&#x303;" horiz-adv-x="0" 
d="M144 577q1 10 9.5 22t22.5 20.5t33 8.5q16 0 28.5 -8t25 -18t28 -18t35.5 -8q29 0 56.5 13t49 32t33.5 37l-53 67q-20 -24 -39.5 -37.5t-38.5 -13.5t-30.5 7.5t-22 17.5t-25 17.5t-38.5 7.5q-27 0 -53.5 -12.5t-47.5 -32.5t-30 -45z" />
    <glyph glyph-name="uni0304" unicode="&#x304;" horiz-adv-x="0" 
d="M77 576h365l17 99h-365z" />
    <glyph glyph-name="uni0306" unicode="&#x306;" horiz-adv-x="0" 
d="M237 544q48 0 87 18.5t64 51t33 75.5h-102q-3 -19 -14 -33.5t-26 -23t-32 -8.5q-26 0 -40 18.5t-9 46.5h-102q-7 -43 9 -75.5t50 -51t82 -18.5z" />
    <glyph glyph-name="uni0307" unicode="&#x307;" horiz-adv-x="0" 
d="M161 544q33 0 55.5 21.5t22.5 51.5q0 31 -22.5 52.5t-55.5 21.5t-55 -21.5t-22 -52.5q0 -30 22 -51.5t55 -21.5z" />
    <glyph glyph-name="uni0308" unicode="&#x308;" horiz-adv-x="0" 
d="M222 567q34 0 56 20.5t22 53.5q0 32 -22 52.5t-56 20.5q-35 0 -56.5 -20.5t-21.5 -52.5q0 -33 21.5 -53.5t56.5 -20.5zM338 567q34 0 55.5 20.5t21.5 53.5q0 32 -21.5 52.5t-55.5 20.5q-35 0 -56.5 -20.5t-21.5 -52.5q0 -33 21.5 -53.5t56.5 -20.5z" />
    <glyph glyph-name="uni030A" unicode="&#x30a;" horiz-adv-x="0" 
d="M191 520q35 0 66 15.5t52 42t26 58.5q8 50 -22 83.5t-83 33.5q-35 0 -65.5 -15.5t-51 -41.5t-25.5 -60q-9 -49 20.5 -82.5t82.5 -33.5zM202 584q-22 0 -34 15t-8 37q4 23 21 38t38 15q22 0 34 -15t9 -38q-5 -21 -22 -36.5t-38 -15.5z" />
    <glyph glyph-name="uni030B" unicode="&#x30b;" horiz-adv-x="0" 
d="M103 516l169 185l-113 30l-138 -189zM287 516l170 185l-114 30l-138 -189z" />
    <glyph glyph-name="uni030C" unicode="&#x30c;" horiz-adv-x="0" 
d="M238 549l186 126l-52 74l-141 -103h38l-105 101l-70 -72z" />
    <glyph glyph-name="uni0312" unicode="&#x312;" horiz-adv-x="0" 
d="M194 498l131 259l-93 23l-162 -250z" />
    <glyph glyph-name="uni0326" unicode="&#x326;" horiz-adv-x="0" 
d="M19 -215l144 153l-90 43l-123 -164z" />
    <glyph glyph-name="uni0327" unicode="&#x327;" horiz-adv-x="0" 
d="M57 -217q35 0 64 13t47.5 36t23.5 52q5 32 -13 56.5t-50 24.5q-24 0 -42.5 -5t-34.5 -13l45 -9l87 128l-83 2l-97 -153q14 2 31.5 2h30.5q25 0 35 -7.5t7 -23.5q-3 -17 -16 -27t-34 -10q-19 0 -37 4.5t-35 14.5l-37 -57q21 -14 48.5 -21t59.5 -7z" />
    <glyph glyph-name="uni0328" unicode="&#x328;" horiz-adv-x="0" 
d="M62 -220q39 0 64.5 12.5t39.5 27.5l-22 63q-12 -10 -24.5 -15t-29.5 -5t-26.5 10t-5.5 31q3 17 16 34t34.5 33t49.5 29l-42 25q-38 -18 -71.5 -39.5t-56 -47.5t-27.5 -58q-6 -31 6.5 -54t37.5 -34.5t57 -11.5z" />
    <glyph glyph-name="uni0394" unicode="&#x394;" horiz-adv-x="600" 
d="M-27 0l416 800l147 -800h-563zM144 103h257l-59 411z" />
    <glyph glyph-name="uni03A9" unicode="&#x3a9;" horiz-adv-x="600" 
d="M21 0l19 111l86 -9q-20 32 -33 67.5t-17 72.5t1 75q10 69 48.5 123.5t96 86.5t123.5 32q65 0 112.5 -32t70 -86.5t10.5 -123.5q-6 -38 -21.5 -74.5t-40 -72t-57.5 -68.5l88 9l-19 -111h-203l16 96q21 15 40.5 36.5t35 46.5t26.5 51.5t15 53.5q7 42 -2 72t-32 46.5
t-59 16.5t-64.5 -16.5t-47.5 -46.5t-27 -72q-5 -34 -0.5 -70t19 -67t36.5 -51l-16 -96h-204z" />
    <glyph glyph-name="uni03BC" unicode="&#x3bc;" horiz-adv-x="556" 
d="M245 460h-132l-133 -779l124 -1l56 334q15 -10 31 -14.5t35 -4.5q31 0 59.5 16t49.5 43l-9 -54h129l78 460h-125l-48 -265q-5 -27 -19 -47.5t-35 -32t-49 -11.5q-26 -1 -40.5 10.5t-19.5 31.5t-1 45z" />
    <glyph glyph-name="pi" unicode="&#x3c0;" horiz-adv-x="566" 
d="M132 430l-72 -430h120l75 430h-123zM80 460l-19 -109h500l19 109h-500zM376 430l-53 -309q-5 -41 3.5 -66.5t29 -38.5t50.5 -18.5t68 -5.5l17 105q-17 4 -27 10t-13 19.5t0 40.5l47 263h-122z" />
    <glyph glyph-name="uni0400" unicode="&#x400;" horiz-adv-x="552" 
d="M135 0h346l21 121h-347zM234 580h346l21 120h-347zM188 313h327l20 118h-327zM164 700l-119 -700h137l121 700h-139zM250 927l154 -153l73 36l-123 163z" />
    <glyph glyph-name="uni0401" unicode="&#x401;" horiz-adv-x="552" 
d="M135 0h346l21 121h-347zM234 580h346l21 120h-347zM188 313h327l20 118h-327zM164 700l-119 -700h137l121 700h-139zM449 849q-4 -30 16.5 -52t51.5 -22q30 -1 55.5 20t29.5 51q3 31 -17 52.5t-51 22.5q-30 0 -56 -21t-29 -51zM225 849q-3 -30 17 -52t52 -22
q30 -1 55.5 20t28.5 51q4 31 -16.5 52.5t-50.5 22.5q-30 0 -56 -21t-30 -51z" />
    <glyph glyph-name="uni0403" unicode="&#x403;" horiz-adv-x="470" 
d="M167 700l-117 -700h140l99 571h243l23 129h-388zM566 920l-97 52l-168 -156l69 -41z" />
    <glyph glyph-name="uni040C" unicode="&#x40c;" horiz-adv-x="594" 
d="M164 700l-119 -700h145l122 700h-148zM546 700l-334 -326l232 -374h164l-231 367l345 333h-176zM629 916l-98 53l-169 -156l71 -42z" />
    <glyph glyph-name="uni040D" unicode="&#x40d;" horiz-adv-x="764" 
d="M754 546l42 198l-719 -589l-42 -198zM303 700h-139l-129 -743l166 153zM796 744l-168 -157l-101 -587h139zM354 907l154 -153l72 35l-122 164z" />
    <glyph glyph-name="uni040E" unicode="&#x40e;" horiz-adv-x="575" 
d="M679 700h-151l-261 -430l66 -4l-95 434h-151l135 -483l-131 -217h149zM256 919q-2 -40 13 -73t47 -52.5t81 -19.5t85.5 19.5t59.5 52t31 72.5h-91q-6 -16 -16.5 -30.5t-27 -24t-39.5 -8.5q-21 0 -33.5 9.5t-17.5 23.5t-5 31h-87z" />
    <glyph glyph-name="uni0410" unicode="&#x410;" horiz-adv-x="690" 
d="M167 159h362l3 113h-330zM403 474l58 -244l-9 -36l55 -194h155l-218 745l-475 -745h166l123 200l2 31z" />
    <glyph glyph-name="uni0411" unicode="&#x411;" horiz-adv-x="615" 
d="M149 313l202 -1q33 -1 55.5 -12t33 -31.5t5.5 -51.5q-7 -32 -26 -53t-47 -32t-62 -11h-195l-21 -121h231q65 1 121.5 28.5t94.5 75.5t47 112q8 63 -16.5 111t-73.5 75.5t-113 28.5h-217zM167 700l-117 -700h143l100 579h306l21 121h-453z" />
    <glyph glyph-name="uni0412" unicode="&#x412;" horiz-adv-x="613" 
d="M211 356h129q63 0 117 18.5t91 55.5t45 93q7 44 -7 77t-44 55t-70 33t-85 12h-222l-120 -700h249q72 1 133 22t101 64.5t49 112.5q7 51 -10 87.5t-50.5 60t-77 35t-90.5 12.5h-132l-13 -77l130 -1q33 -2 58 -12.5t37 -31.5t7 -54q-7 -35 -28.5 -58t-52.5 -34t-66 -12
l-83 -1l83 474l77 -1q41 -1 63.5 -22t15.5 -59q-5 -27 -22 -45.5t-42 -28.5t-53 -11h-106z" />
    <glyph glyph-name="uni0413" unicode="&#x413;" horiz-adv-x="470" 
d="M167 700l-117 -700h140l99 571h243l23 129h-388z" />
    <glyph glyph-name="uni0414" unicode="&#x414;" horiz-adv-x="830" 
d="M467 462l81 -432h155l-193 709l-438 -708h166zM624 0l-20 -109h138l41 234h-751l-41 -234h139l20 109h474z" />
    <glyph glyph-name="uni0415" unicode="&#x415;" horiz-adv-x="570" 
d="M136 0h346l21 121h-347zM234 580h346l21 120h-347zM189 313h327l20 118h-327zM164 700l-118 -700h137l121 700h-140z" />
    <glyph glyph-name="uni0416" unicode="&#x416;" horiz-adv-x="996" 
d="M269 700h-158l228 -323l-371 -377h175l357 365zM519 700l-117 -700h145l120 700h-148zM899 700l-325 -324l228 -376h163l-235 367l348 333h-179z" />
    <glyph glyph-name="uni0417" unicode="&#x417;" horiz-adv-x="630" 
d="M320 341q55 1 109 11t98.5 31t74.5 55t39 83q8 57 -20 100t-82 67t-122 24q-75 0 -133.5 -26t-96 -72t-49.5 -108l133 -1q13 39 49 65t89 25q31 -1 53 -11.5t31.5 -29.5t5.5 -45q-7 -32 -31.5 -53.5t-60.5 -32.5t-78 -13zM308 -14q77 0 140.5 24t104.5 69.5t50 109.5
q8 55 -13 93t-61.5 61t-93.5 34t-109 12l-11 -76q34 -2 63.5 -8t51.5 -19t31.5 -33t3.5 -49q-7 -33 -28.5 -55t-54 -33t-71.5 -11q-58 1 -88 27.5t-29 77.5l-138 1q-6 -67 22.5 -117.5t87 -79t142.5 -28.5z" />
    <glyph glyph-name="uni0418" unicode="&#x418;" horiz-adv-x="764" 
d="M754 546l42 198l-719 -589l-42 -198zM303 700h-139l-129 -743l166 153zM796 744l-168 -157l-101 -587h139z" />
    <glyph glyph-name="uni0419" unicode="&#x419;" horiz-adv-x="764" 
d="M754 546l42 198l-719 -589l-42 -198zM303 700h-139l-129 -743l166 153zM796 744l-168 -157l-101 -587h139zM361 917q-2 -41 13 -73.5t47 -51.5t80 -19q49 0 86 19.5t59.5 51.5t31.5 72h-91q-5 -16 -15.5 -30.5t-26.5 -24t-39 -8.5q-21 0 -34 9.5t-18.5 24t-5.5 30.5h-87z
" />
    <glyph glyph-name="uni041A" unicode="&#x41a;" horiz-adv-x="639" 
d="M164 700l-119 -700h145l122 700h-148zM546 700l-334 -326l232 -374h164l-231 367l345 333h-176z" />
    <glyph glyph-name="uni041B" unicode="&#x41b;" horiz-adv-x="714" 
d="M730 700h-531l-73 -422q-7 -41 -23 -75t-41.5 -55.5t-61.5 -26.5l-16 -120q85 4 143.5 38t93.5 95t49 145l49 292h245l-98 -571h144z" />
    <glyph glyph-name="uni041C" unicode="&#x41c;" horiz-adv-x="840" 
d="M266 392l140 -329l248 321l-22 -384h147l27 742l-368 -456l-206 451l-228 -737h151z" />
    <glyph glyph-name="uni041D" unicode="&#x41d;" horiz-adv-x="742" 
d="M144 308h503l22 129h-503zM620 700l-119 -700h142l120 700h-143zM164 700l-119 -700h141l121 700h-143z" />
    <glyph glyph-name="uni041E" unicode="&#x41e;" horiz-adv-x="788" 
d="M216 350q8 47 30.5 89t56.5 74t77 50t92 18q49 -1 83.5 -20.5t55 -51.5t27 -73.5t-0.5 -85.5q-8 -47 -30.5 -89t-56.5 -74t-77 -50t-92 -17q-49 0 -83.5 19.5t-55 52t-27 73.5t0.5 85zM65 350q-10 -74 6.5 -140.5t57 -118t102 -81t139.5 -29.5q80 0 150.5 28.5
t126.5 79.5t92.5 118t47.5 143q11 74 -6 140t-58 116.5t-102 79t-139 28.5q-79 0 -149.5 -27.5t-126.5 -77.5t-93 -116t-48 -143z" />
    <glyph glyph-name="uni041F" unicode="&#x41f;" horiz-adv-x="731" 
d="M583 571l-98 -571h143l120 700h-579l-120 -700h144l98 571h292z" />
    <glyph glyph-name="uni0420" unicode="&#x420;" 
d="M164 700l-118 -700h141l121 700h-144zM230 580l141 -1q34 -1 57 -13t34 -34t5 -54q-6 -33 -26.5 -56t-50.5 -34.5t-65 -12.5h-130l-22 -121h144q76 1 137 28t100.5 76.5t49.5 118.5q10 68 -16 118t-80 77t-128 28h-130z" />
    <glyph glyph-name="uni0421" unicode="&#x421;" horiz-adv-x="675" 
d="M220 350q8 48 32 89.5t59.5 72t79.5 47.5t91 18q65 0 111 -26.5t77 -69.5l23 161q-43 35 -92 53.5t-115 18.5q-81 0 -152 -27.5t-127.5 -76.5t-93 -116t-48.5 -144q-10 -75 7 -141t58.5 -116t103.5 -78.5t140 -28.5q69 0 122.5 19.5t101.5 52.5l22 161
q-45 -38 -101.5 -67t-126.5 -28q-47 0 -82 18.5t-58.5 49.5t-31.5 71.5t0 86.5z" />
    <glyph glyph-name="uni0422" unicode="&#x422;" horiz-adv-x="517" 
d="M74 571h184l-98 -571h142l98 571h183l23 129h-509z" />
    <glyph glyph-name="uni0423" unicode="&#x423;" 
d="M687 700h-155l-261 -430l66 -4l-95 434h-155l140 -483l-133 -217h154z" />
    <glyph glyph-name="uni0424" unicode="&#x424;" horiz-adv-x="860" 
d="M450 700l-119 -700h144l120 700h-145zM712 350q-10 -50 -42 -81t-79.5 -46t-102.5 -15l-111 1q-52 0 -93 14.5t-60.5 45.5t-10.5 81q10 51 42 81.5t79.5 45.5t103.5 15h110q52 -1 93 -15.5t61 -45t10 -81.5zM855 350q9 62 -9 111.5t-57 85t-93.5 54t-117.5 19.5h-152
q-88 -1 -165 -33t-128 -92.5t-63 -144.5q-9 -62 9 -111.5t57 -85t93 -54t118 -19.5h153q87 1 163.5 33t128 92.5t63.5 144.5z" />
    <glyph glyph-name="uni0425" unicode="&#x425;" horiz-adv-x="647" 
d="M530 700l-156 -216l-77 216h-167l146 -333l-297 -367h179l181 248l91 -248h167l-161 356l274 344h-180z" />
    <glyph glyph-name="uni0426" unicode="&#x426;" horiz-adv-x="804" 
d="M209 129l99 571h-143l-121 -700h566l-22 -127h135l44 256h-100l98 571h-145l-98 -571h-313z" />
    <glyph glyph-name="uni0427" unicode="&#x427;" horiz-adv-x="666" 
d="M312 240h209l22 126l-180 -1zM535 700l-118 -700h145l121 700h-148zM307 700h-143l-36 -216q-9 -64 9 -120t62 -90t113 -34l51 125q-36 0 -59 17.5t-31.5 47.5t-2.5 69z" />
    <glyph glyph-name="uni0428" unicode="&#x428;" horiz-adv-x="1020" 
d="M797 129h-223l99 571h-139l-98 -571h-223l99 571h-143l-120 -700h869l120 700h-143z" />
    <glyph glyph-name="uni0429" unicode="&#x429;" horiz-adv-x="1081" 
d="M797 129h-223l99 571h-139l-98 -571h-223l99 571h-143l-120 -700h833l-22 -127h135l44 256h-99l98 571h-143z" />
    <glyph glyph-name="uni042A" unicode="&#x42a;" horiz-adv-x="691" 
d="M295 325h141q34 -1 57 -13t34 -34.5t5 -54.5q-6 -33 -26.5 -55.5t-50.5 -34.5t-65 -12h-130l-22 -121h144q76 0 137 27t100.5 76.5t49.5 119.5q10 68 -16 118t-80 77t-128 28h-130zM255 572l-99 -572h141l121 700h-317l-23 -129z" />
    <glyph glyph-name="uni042B" unicode="&#x42b;" horiz-adv-x="838" 
d="M714 700l-118 -700h143l121 700h-146zM164 700l-119 -700h141l121 700h-143zM186 325h141q33 -1 56.5 -13t34.5 -34.5t5 -54.5q-6 -33 -26.5 -55.5t-50.5 -34.5t-65 -12h-130l-22 -121h144q76 0 137 27t100.5 76.5t49.5 119.5q10 68 -16.5 118t-80 77t-127.5 28h-130z
" />
    <glyph glyph-name="uni042C" unicode="&#x42c;" horiz-adv-x="582" 
d="M164 700l-119 -700h141l121 700h-143zM186 325h141q33 -1 56.5 -13t34.5 -34.5t5 -54.5q-6 -33 -26.5 -55.5t-50.5 -34.5t-65 -12h-130l-22 -121h144q76 0 137 27t100.5 76.5t49.5 119.5q10 68 -16.5 118t-80 77t-127.5 28h-130z" />
    <glyph glyph-name="uni042D" unicode="&#x42d;" horiz-adv-x="675" 
d="M153 291h381l20 118h-381zM534 350q-10 -49 -35.5 -91t-63.5 -73t-83.5 -48.5t-92.5 -17.5q-65 -1 -112.5 24t-78.5 62l-21 -147q43 -35 92.5 -54t115.5 -19q80 0 151 27.5t127.5 76.5t93.5 116t48 144q10 75 -7 141t-58.5 116t-103 78.5t-139.5 28.5q-70 0 -123.5 -19.5
t-100.5 -52.5l-20 -147q28 22 63 41.5t76 32t88 12.5q46 -1 83 -19.5t62.5 -50.5t35.5 -73t3 -88z" />
    <glyph glyph-name="uni042E" unicode="&#x42e;" horiz-adv-x="1075" 
d="M144 308h295l23 129h-296zM164 700l-119 -700h141l121 700h-143zM503 350q8 47 30.5 89t56.5 74t77 50t92 18q49 -1 83.5 -20.5t55 -51.5t27 -73.5t-0.5 -85.5q-8 -47 -30.5 -89t-56.5 -74t-77 -50t-92 -17q-49 0 -83.5 19.5t-55 52t-27 73.5t0.5 85zM352 350
q-10 -74 6.5 -140.5t57 -118t102 -81t139.5 -29.5q80 0 150.5 28.5t126.5 79.5t92.5 118t48.5 143q10 74 -7 140t-58 116.5t-102 79t-139 28.5q-79 0 -149.5 -27.5t-126.5 -77.5t-93 -116t-48 -143z" />
    <glyph glyph-name="uni042F" unicode="&#x42f;" horiz-adv-x="601" 
d="M408 326h-157l-278 -326h175zM623 700h-142l-120 -700h142zM516 578l23 122h-152q-77 0 -138 -27.5t-100.5 -77.5t-49.5 -117q-10 -68 16 -117.5t80 -77.5t128 -29l138 1l21 113l-143 1q-34 0 -57.5 13t-33.5 36t-4 54q6 33 26 57t50.5 36.5t66.5 12.5h129z" />
    <glyph glyph-name="uni0430" unicode="&#x430;" horiz-adv-x="510" 
d="M148 136q3 22 18.5 37.5t38.5 23.5t49 9q35 0 62.5 -10.5t54.5 -30.5l8 63q-21 21 -59 37t-87 16q-54 0 -100 -17.5t-76.5 -51t-37.5 -80.5q-6 -44 11.5 -76t52 -48.5t78.5 -16.5q47 -1 85.5 16t64.5 48.5t35 73.5l-7 55q-9 -33 -27 -56.5t-44.5 -35.5t-59.5 -11
q-27 0 -46 14t-14 41zM144 328q25 14 64 29t84 13q22 0 39 -8.5t25 -22.5t5 -33l-56 -306h126l54 326q6 36 -6 63t-38 45.5t-60.5 28t-72.5 9.5q-57 0 -107.5 -16.5t-91.5 -35.5z" />
    <glyph glyph-name="uni0431" unicode="&#x431;" horiz-adv-x="572" 
d="M328 362q34 0 58.5 -17.5t35.5 -47t4 -67.5q-5 -36 -25.5 -65.5t-51.5 -47t-66 -17.5q-33 0 -54.5 15.5t-32 40t-10.5 52.5l-131 33q0 -65 23 -122.5t72 -93t128 -35.5q72 0 132.5 31.5t99.5 85.5t48 123q8 66 -15.5 120.5t-72 87t-117.5 32.5zM132 231l54 -23
q0 37 12.5 65.5t33 48t45.5 30t51 10.5l25 108q-47 0 -85 -18t-65 -50.5t-45.5 -76t-25.5 -94.5zM55 241l126 -32l-9 105q1 43 16.5 83t42.5 75t63.5 62.5t79.5 43.5q79 31 138.5 80t81.5 121l-125 1q-22 -42 -62 -69t-100 -51t-106.5 -65t-79 -95.5t-49.5 -120t-17 -138.5z
" />
    <glyph glyph-name="uni0432" unicode="&#x432;" horiz-adv-x="488" 
d="M157 240l-7 -50l133 -1q13 0 24 -3.5t18 -10t9.5 -15.5t0.5 -20q-4 -23 -26 -38t-52 -15h-125l-15 -87l177 1q67 0 110 34t50 90q6 44 -14.5 69t-57.5 35.5t-78 10.5h-147zM156 221h146q40 0 76.5 12t61.5 37t31 65q6 42 -13 70t-53 41.5t-73 13.5h-137l-15 -86l124 -1
q15 -1 25.5 -7t15.5 -16.5t3 -23.5q-2 -15 -12.5 -26.5t-24.5 -17.5t-31 -6l-116 -1zM122 460l-77 -460h124l80 460h-127z" />
    <glyph glyph-name="uni0433" unicode="&#x433;" horiz-adv-x="339" 
d="M114 460l-77 -460h126l61 351h147l19 109h-276z" />
    <glyph glyph-name="uni0434" unicode="&#x434;" horiz-adv-x="669" 
d="M358 289l68 -260l126 21l-164 448l-317 -444l129 -23zM480 0l-17 -90h121l35 195h-591l-34 -195h128l16 90h342z" />
    <glyph glyph-name="uni0435" unicode="&#x435;" horiz-adv-x="540" 
d="M116 202h402q2 9 3.5 18t2.5 16q8 68 -13 120.5t-68.5 82.5t-119.5 31q-66 0 -119.5 -24.5t-91.5 -67.5t-55 -99q-8 -24 -11 -49q-8 -66 14.5 -120.5t72.5 -86.5t122 -32q58 -1 103 15t81 45t64 67l-111 38q-15 -19 -34.5 -34.5t-43.5 -24t-51 -7.5q-36 0 -57.5 19.5
t-29 50.5t-2.5 70l7 26q7 34 25.5 62t46 44.5t62.5 16.5q30 -1 47.5 -14.5t24.5 -35.5t6 -48h-265z" />
    <glyph glyph-name="uni0436" unicode="&#x436;" horiz-adv-x="792" 
d="M672 460l-221 -185l170 -275h142l-168 260l236 200h-159zM509 460h-122l-78 -460l121 1zM214 460h-140l160 -190l-267 -270h158l255 265z" />
    <glyph glyph-name="uni0437" unicode="&#x437;" horiz-adv-x="502" 
d="M266 230q51 0 95.5 10t73.5 33.5t36 62.5q6 41 -16.5 71t-61.5 46.5t-84 16.5q-53 0 -94 -20.5t-68 -55t-36 -79.5l120 -1q4 14 14 27.5t24.5 22t34.5 8.5q16 0 26.5 -6t16 -15.5t4.5 -21.5q-4 -24 -26 -35.5t-50 -13.5zM239 -9q51 0 98.5 16.5t80 48.5t38.5 79
q6 45 -19.5 72.5t-70 40t-95.5 12.5l-9 -55q22 -1 40.5 -7t28 -18.5t5.5 -33.5q-3 -18 -16 -31.5t-32.5 -21t-42.5 -7.5q-35 0 -50.5 19.5t-19.5 48.5h-120q2 -75 50 -119t134 -44z" />
    <glyph glyph-name="uni0438" unicode="&#x438;" horiz-adv-x="560" 
d="M523 342l36 161l-497 -385l-36 -160zM241 460h-126l-89 -502l151 135zM559 503l-151 -135l-63 -368h125z" />
    <glyph glyph-name="uni0439" unicode="&#x439;" horiz-adv-x="560" 
d="M523 342l36 161l-497 -385l-36 -160zM241 460h-126l-89 -502l151 135zM559 503l-151 -135l-63 -368h125zM207 692q-2 -40 13 -73t47 -52t81 -19q48 0 85 19.5t59.5 52t31.5 71.5l-91 1q-5 -17 -15.5 -31.5t-26.5 -24t-38 -8.5t-35 10t-18.5 23.5t-5.5 30.5h-87z" />
    <glyph glyph-name="uni043A" unicode="&#x43a;" horiz-adv-x="515" 
d="M109 460l-77 -460h123l81 460h-127zM390 460l-218 -185l169 -275h144l-164 266l232 194h-163z" />
    <glyph glyph-name="uni043B" unicode="&#x43b;" horiz-adv-x="585" 
d="M562 460h-431l-49 -274q-7 -38 -29 -52.5t-53 -18.5l-17 -114q65 2 111 18.5t73.5 50.5t37.5 90l31 182h180l-59 -342h125z" />
    <glyph glyph-name="uni043C" unicode="&#x43c;" horiz-adv-x="622" 
d="M460 0h130l-42 502l-95 -165zM273 118l6 -151l245 333l24 202zM279 -33l52 139l-140 392l-42 -186zM-26 0h135l118 324l-36 174z" />
    <glyph glyph-name="uni043D" unicode="&#x43d;" horiz-adv-x="581" 
d="M113 193h354l17 100h-354zM447 460l-77 -460h124l80 460h-127zM112 460l-78 -460h124l80 460h-126z" />
    <glyph glyph-name="uni043E" unicode="&#x43e;" horiz-adv-x="559" 
d="M42 230q-9 -67 16 -121.5t77 -86t123 -31.5t131.5 30.5t101 85t50.5 123.5q10 67 -15.5 121.5t-77 86.5t-122.5 32t-132 -31t-101.5 -85.5t-50.5 -123.5zM174 230q6 36 27 66t52 47.5t66 17.5q35 -1 57 -19.5t30.5 -48t3.5 -63.5q-6 -36 -27.5 -65.5t-52.5 -47.5t-66 -17
q-35 0 -56.5 18.5t-30.5 48t-3 63.5z" />
    <glyph glyph-name="uni043F" unicode="&#x43f;" horiz-adv-x="542" 
d="M534 460h-422l-79 -460h125l60 346h172l-60 -346h125z" />
    <glyph glyph-name="uni0440" unicode="&#x440;" 
d="M123 -219l115 679h-128l-118 -680zM567 230q7 67 -12.5 122.5t-63 89t-106.5 32.5q-47 0 -85.5 -19.5t-67 -53t-46.5 -78t-24 -93.5q-6 -47 -1 -90.5t23.5 -78t50 -55t80.5 -20.5q63 0 116.5 32t89.5 87t46 125zM434 231q-7 -37 -28.5 -66.5t-52.5 -46.5t-67 -16
q-23 0 -41 10.5t-29.5 28t-16 40.5t-0.5 49q4 27 17.5 50.5t33.5 41t43 27.5t47 10q34 -1 57 -18.5t32.5 -46t4.5 -63.5z" />
    <glyph glyph-name="uni0441" unicode="&#x441;" horiz-adv-x="473" 
d="M171 230q7 36 29.5 66.5t56 48.5t71.5 19q41 0 74 -19.5t50 -53.5l19 133q-28 21 -64 33.5t-81 12.5q-73 -1 -134 -31.5t-101.5 -84.5t-50.5 -124q-10 -67 15.5 -121.5t78 -86.5t123.5 -32q45 0 83.5 12.5t67.5 34.5l18 132q-27 -30 -67.5 -51.5t-87.5 -20.5
q-37 1 -61.5 19t-34.5 48t-4 66z" />
    <glyph glyph-name="uni0442" unicode="&#x442;" horiz-adv-x="307" 
d="M55 460l-19 -109h301l19 109h-301zM139 440l-74 -440h123l77 440h-126z" />
    <glyph glyph-name="uni0443" unicode="&#x443;" horiz-adv-x="481" 
d="M543 460h-138l-203 -363l64 -3l-81 366h-139l116 -409l-163 -270h136z" />
    <glyph glyph-name="uni0444" unicode="&#x444;" horiz-adv-x="623" 
d="M318 560l-111 -659h121l114 659h-124zM42 230q-10 -72 19.5 -125.5t89 -84t138.5 -30.5q82 0 149.5 29.5t111.5 83.5t55 127q10 72 -19.5 126t-88.5 84t-139 30q-81 0 -149 -29.5t-112 -83.5t-55 -127zM162 230q8 41 33.5 70.5t66 45t90.5 15.5q48 0 81 -16.5t47 -45.5
t6 -69q-8 -41 -34 -70t-66 -45t-91 -15q-47 0 -80.5 16t-47 45t-5.5 69z" />
    <glyph glyph-name="uni0445" unicode="&#x445;" horiz-adv-x="483" 
d="M383 460l-112 -131l-67 131h-140l127 -217l-218 -243h151l121 146l77 -146h136l-135 233l207 227h-147z" />
    <glyph glyph-name="uni0446" unicode="&#x446;" horiz-adv-x="586" 
d="M477 109l60 351h-127l-62 -351h-167l61 351h-129l-80 -460h385l-17 -98h120l36 207h-80z" />
    <glyph glyph-name="uni0447" unicode="&#x447;" horiz-adv-x="513" 
d="M221 124h151l19 108h-128zM369 460l-77 -460h128l80 460h-131zM228 460h-129l-22 -132q-10 -61 -0.5 -107.5t44 -71.5t100.5 -25l42 108q-41 0 -54.5 22t-6.5 65z" />
    <glyph glyph-name="uni0448" unicode="&#x448;" horiz-adv-x="795" 
d="M450 109l61 351h-124l-61 -351h-149l61 351h-125l-80 -460h674l80 460h-126l-61 -351h-150z" />
    <glyph glyph-name="uni0449" unicode="&#x449;" horiz-adv-x="833" 
d="M450 109l61 351h-124l-61 -351h-149l61 351h-125l-80 -460h633l-18 -98h120l35 207h-78l61 351h-126l-60 -351h-150z" />
    <glyph glyph-name="uni044A" unicode="&#x44a;" 
d="M244 211l124 -1q25 -1 39 -15.5t10 -37.5q-5 -26 -26 -40.5t-49 -14.5h-117l-18 -102h146q47 0 86.5 19t66 54t32.5 83q7 47 -11.5 79t-54 48t-80.5 16h-134zM181 351l-60 -351h119l80 460h-265l-19 -109h145z" />
    <glyph glyph-name="uni044B" unicode="&#x44b;" horiz-adv-x="705" 
d="M567 460l-78 -460h127l81 460h-130zM112 460l-78 -460h128l81 460h-131zM164 211l124 -1q18 -1 30 -7.5t17.5 -18.5t2.5 -27q-4 -18 -14.5 -30t-26.5 -18.5t-34 -6.5h-118l-18 -102h147q46 0 86 19t66.5 54t32.5 83q6 47 -12 79t-53.5 48t-80.5 16h-134z" />
    <glyph glyph-name="uni044C" unicode="&#x44c;" horiz-adv-x="511" 
d="M116 460l-78 -460h128l81 460h-131zM169 211l123 -1q18 -1 30 -7.5t17 -18.5t3 -27q-6 -26 -26.5 -40.5t-49.5 -14.5h-117l-18 -102h147q46 0 86 19t66.5 54t32.5 83q6 47 -12.5 79t-53.5 48t-80 16h-134z" />
    <glyph glyph-name="uni044D" unicode="&#x44d;" horiz-adv-x="474" 
d="M135 276l-16 -91h253l55 91h-292zM328 230q-7 -42 -30 -75t-56.5 -52t-72.5 -19q-43 -1 -75 19t-49 54l-17 -119q27 -24 63.5 -36t81.5 -11q72 0 133.5 30.5t102 85t50.5 123.5q9 68 -16 122t-77 86t-123 32q-46 0 -84.5 -13t-67.5 -33l-16 -119q27 29 68.5 50.5
t86.5 20.5q38 -1 61.5 -21.5t33 -53.5t3.5 -71z" />
    <glyph glyph-name="uni044E" unicode="&#x44e;" horiz-adv-x="774" 
d="M113 193h235l18 100h-236zM112 460l-78 -460h124l80 460h-126zM257 230q-9 -67 16.5 -121.5t77 -86t121.5 -31.5q72 0 133 30.5t101 85t50 123.5q10 67 -15.5 121.5t-77.5 86.5t-122 32q-71 0 -132 -31t-101.5 -85.5t-50.5 -123.5zM389 230q6 36 27 66t52 47.5t66 17.5
q35 -1 57 -19.5t30.5 -48t3.5 -63.5q-7 -36 -28 -65.5t-52 -47.5t-66 -17q-35 0 -57 18.5t-30.5 48t-2.5 63.5z" />
    <glyph glyph-name="uni044F" unicode="&#x44f;" horiz-adv-x="511" 
d="M152 0l174 218h-126l-189 -218h141zM444 0l77 460h-128l-80 -460h131zM405 263h-128q-18 0 -31.5 4.5t-19.5 15t-3 26.5q2 17 13.5 27t29 15t36.5 5l120 1l18 103h-146q-47 -1 -89 -16t-71 -45.5t-35 -79.5q-7 -50 14 -82.5t59.5 -48.5t83.5 -17l135 1z" />
    <glyph glyph-name="uni0450" unicode="&#x450;" horiz-adv-x="540" 
d="M116 202h402q2 9 3.5 18t2.5 16q8 68 -13 120.5t-68.5 82.5t-119.5 31q-66 0 -119.5 -24.5t-91.5 -67.5t-55 -99q-8 -24 -11 -49q-8 -66 14.5 -120.5t72.5 -86.5t122 -32q58 -1 103 15t81 45t64 67l-111 38q-15 -19 -34.5 -34.5t-43.5 -24t-51 -7.5q-36 0 -57.5 19.5
t-29 50.5t-2.5 70l7 26q7 34 25.5 62t46 44.5t62.5 16.5q30 -1 47.5 -14.5t24.5 -35.5t6 -48h-265zM187 682l154 -152l74 37l-123 162z" />
    <glyph glyph-name="uni0451" unicode="&#x451;" horiz-adv-x="540" 
d="M116 202h402q2 9 3.5 18t2.5 16q8 68 -13 120.5t-68.5 82.5t-119.5 31q-66 0 -119.5 -24.5t-91.5 -67.5t-55 -99q-8 -24 -11 -49q-8 -66 14.5 -120.5t72.5 -86.5t122 -32q58 -1 103 15t81 45t64 67l-111 38q-15 -19 -34.5 -34.5t-43.5 -24t-51 -7.5q-36 0 -57.5 19.5
t-29 50.5t-2.5 70l7 26q7 34 25.5 62t46 44.5t62.5 16.5q30 -1 47.5 -14.5t24.5 -35.5t6 -48h-265zM380 604q-3 -30 17 -51.5t51 -22.5q30 -1 56 21t29 51q3 30 -16.5 51.5t-50.5 22.5q-30 1 -56.5 -20.5t-29.5 -51.5zM157 604q-3 -30 17 -51.5t51 -22.5q30 -1 56 21t29 51
q3 30 -17 51.5t-50 22.5t-56.5 -20.5t-29.5 -51.5z" />
    <glyph glyph-name="uni0453" unicode="&#x453;" horiz-adv-x="339" 
d="M114 460l-77 -460h126l61 351h147l19 109h-276zM466 677l-98 52l-170 -156l71 -42z" />
    <glyph glyph-name="uni045C" unicode="&#x45c;" horiz-adv-x="427" 
d="M109 460l-77 -460h123l81 460h-127zM390 460l-218 -185l169 -275h144l-164 266l232 194h-163zM542 677l-98 52l-169 -156l72 -42z" />
    <glyph glyph-name="uni045D" unicode="&#x45d;" horiz-adv-x="560" 
d="M523 342l36 161l-497 -385l-36 -160zM241 460h-126l-89 -502l151 135zM559 503l-151 -135l-63 -368h125zM191 697l155 -151l74 36l-124 162z" />
    <glyph glyph-name="uni045E" unicode="&#x45e;" horiz-adv-x="453" 
d="M543 460h-138l-203 -363l64 -3l-81 366h-139l116 -409l-163 -270h136zM163 675q-2 -41 12.5 -73.5t46.5 -51.5t81 -19t85.5 19t59.5 51.5t32 72.5h-91q-6 -15 -16.5 -30t-27 -24.5t-38.5 -8.5q-22 0 -34.5 9.5t-17.5 23.5t-5 31h-87z" />
    <glyph glyph-name="Wgrave" unicode="&#x1e80;" horiz-adv-x="1011" 
d="M612 798l72 38l-123 160l-104 -48zM718 261l-117 476l-266 -475l-76 438h-162l171 -742l287 461l143 -460l401 741h-168z" />
    <glyph glyph-name="wgrave" unicode="&#x1e81;" horiz-adv-x="714" 
d="M422 558l72 38l-123 160l-104 -48zM49 460l135 -493l191 292l92 -292l305 493h-138l-143 -254l-80 291l-176 -289l-54 252h-132z" />
    <glyph glyph-name="Wacute" unicode="&#x1e82;" horiz-adv-x="1011" 
d="M611 798l206 150l-105 53l-177 -160zM718 261l-117 476l-266 -475l-76 438h-162l171 -742l287 461l143 -460l401 741h-168z" />
    <glyph glyph-name="wacute" unicode="&#x1e83;" horiz-adv-x="714" 
d="M422 558l206 150l-105 53l-177 -160zM49 460l135 -493l191 292l92 -292l305 493h-138l-143 -254l-80 291l-176 -289l-54 252h-132z" />
    <glyph glyph-name="Wdieresis" unicode="&#x1e84;" horiz-adv-x="1011" 
d="M660 872q-4 -31 16 -52t51 -22q30 -1 56 20.5t30 51.5q2 30 -18 51.5t-50 22.5t-56.5 -21t-28.5 -51zM437 872q-4 -31 16 -52t51 -22q30 -1 56 20.5t29 51.5t-17 51.5t-50 22.5q-31 1 -57 -21t-28 -51zM718 261l-117 476l-266 -475l-76 438h-162l171 -742l287 461
l143 -460l401 741h-168z" />
    <glyph glyph-name="wdieresis" unicode="&#x1e85;" horiz-adv-x="714" 
d="M470 632q-4 -31 16 -52t51 -22q30 -1 56 20.5t30 51.5q2 30 -18 51.5t-50 22.5t-56.5 -21t-28.5 -51zM247 632q-4 -31 16 -52t51 -22q30 -1 56 20.5t29 51.5t-17 51.5t-50 22.5q-31 1 -57 -21t-28 -51zM49 460l135 -493l191 292l92 -292l305 493h-138l-143 -254l-80 291
l-176 -289l-54 252h-132z" />
    <glyph glyph-name="uni1E86" unicode="&#x1e86;" horiz-adv-x="1011" 
d="M547 871q-2 -31 19 -52.5t53 -21.5q31 0 55 21t27 52q2 31 -19.5 52.5t-52.5 21.5t-55.5 -21t-26.5 -52zM718 261l-117 476l-266 -475l-76 438h-162l171 -742l287 461l143 -460l401 741h-168z" />
    <glyph glyph-name="uni1E87" unicode="&#x1e87;" horiz-adv-x="714" 
d="M358 631q-2 -31 19 -52.5t53 -21.5q31 0 55 21t27 52q2 31 -19.5 52.5t-52.5 21.5t-55.5 -21t-26.5 -52zM49 460l135 -493l191 292l92 -292l305 493h-138l-143 -254l-80 291l-176 -289l-54 252h-132z" />
    <glyph glyph-name="uni1E88" unicode="&#x1e88;" horiz-adv-x="1011" 
d="M385 -174q-2 -31 19 -52.5t53 -21.5q31 0 55 21t27 52q2 31 -19.5 52.5t-52.5 21.5t-55.5 -21t-26.5 -52zM718 261l-117 476l-266 -475l-76 438h-162l171 -742l287 461l143 -460l401 741h-168z" />
    <glyph glyph-name="uni1E89" unicode="&#x1e89;" horiz-adv-x="714" 
d="M230 -166q-2 -31 19 -52.5t53 -21.5q31 0 55 21t27 52q2 31 -19.5 52.5t-52.5 21.5t-55.5 -21t-26.5 -52zM49 460l135 -493l191 292l92 -292l305 493h-138l-143 -254l-80 291l-176 -289l-54 252h-132z" />
    <glyph glyph-name="uni1E9E" unicode="&#x1e9e;" horiz-adv-x="784" 
d="M508 -12q-43 0 -83 6.5t-76.5 18.5t-67.5 27l40 117q40 -21 76.5 -33t76.5 -12q31 0 57 7.5t42 24t16 42.5q0 28 -12.5 44t-31.5 27t-37.5 22.5t-31 28.5t-12.5 45q0 26 13 44t33 31.5t39.5 25.5t32.5 26.5t13 34.5q0 19 -12 34.5t-37 25t-61 9.5q-60 0 -107 -27
t-77.5 -77t-41.5 -120l-62 -362h-147l63 375q12 77 42 140t78.5 108t114 69t148.5 24q81 0 137.5 -20.5t86.5 -57t30 -83.5q0 -35 -13.5 -60.5t-33 -44.5t-39 -34t-32.5 -28.5t-13 -28.5q0 -18 12 -29.5t30.5 -23t36.5 -27t30.5 -42t12.5 -67.5q0 -54 -29.5 -94.5t-82 -63
t-121.5 -22.5z" />
    <glyph glyph-name="Ygrave" unicode="&#x1ef2;" horiz-adv-x="610" 
d="M390 775l72 38l-123 160l-104 -48zM541 700l-193 -279l-97 279h-157l164 -407l-51 -293h143l48 287l308 413h-165z" />
    <glyph glyph-name="ygrave" unicode="&#x1ef3;" horiz-adv-x="481" 
d="M289 531l72 38l-123 160l-104 -48zM542 460h-136l-204 -363l64 -3l-83 366h-137l116 -410l-162 -269h134z" />
    <glyph glyph-name="uni2010" unicode="&#x2010;" horiz-adv-x="212" 
d="M8 181h205l20 113h-205z" />
    <glyph glyph-name="figuredash" unicode="&#x2012;" horiz-adv-x="598" 
d="M71 181h458l19 113h-457z" />
    <glyph glyph-name="endash" unicode="&#x2013;" horiz-adv-x="747" 
d="M71 181h609l20 113h-609z" />
    <glyph glyph-name="emdash" unicode="&#x2014;" horiz-adv-x="897" 
d="M71 181h761l20 113h-761z" />
    <glyph glyph-name="quoteleft" unicode="&#x2018;" horiz-adv-x="304" 
d="M254 453l97 246h-94l-142 -245z" />
    <glyph glyph-name="quoteright" unicode="&#x2019;" horiz-adv-x="304" 
d="M193 700l-96 -246h92l143 246h-139z" />
    <glyph glyph-name="quotesinglbase" unicode="&#x201a;" horiz-adv-x="304" 
d="M97 80l-96 -246h92l143 246h-139z" />
    <glyph glyph-name="quotedblleft" unicode="&#x201c;" horiz-adv-x="519" 
d="M254 453l97 246h-94l-142 -245zM469 453l96 246h-93l-142 -245z" />
    <glyph glyph-name="quotedblright" unicode="&#x201d;" horiz-adv-x="519" 
d="M193 700l-96 -246h92l143 246h-139zM408 700l-96 -246h93l143 246h-140z" />
    <glyph glyph-name="quotedblbase" unicode="&#x201e;" horiz-adv-x="519" 
d="M92 80l-96 -246h92l143 246h-139zM307 80l-96 -246h93l143 246h-140z" />
    <glyph glyph-name="dagger" unicode="&#x2020;" horiz-adv-x="595" 
d="M153 540l-18 -109h422l18 109h-422zM327 700l-130 -849l120 -1l133 850h-123z" />
    <glyph glyph-name="daggerdbl" unicode="&#x2021;" horiz-adv-x="595" 
d="M92 146l-18 -110h423l18 110h-423zM153 540l-18 -109h422l18 109h-422zM327 700l-130 -849l120 -1l133 850h-123z" />
    <glyph glyph-name="bullet" unicode="&#x2022;" horiz-adv-x="298" 
d="M120 436q-3 -22 6.5 -40.5t27 -29.5t40.5 -11t42 11t31 29t14 40t-7.5 40t-26.5 29.5t-40 11.5t-42 -11.5t-31.5 -29t-13.5 -39.5z" />
    <glyph glyph-name="ellipsis" unicode="&#x2026;" horiz-adv-x="890" 
d="M56 60q-3 -21 5 -39.5t25 -29.5t39 -11q22 -1 42 10t33.5 29.5t16.5 38.5q3 22 -6 40t-25 29.5t-38 12.5q-23 0 -43 -11t-33.5 -29t-15.5 -40zM347 60q-3 -21 5 -39.5t25 -29.5t39 -11q22 -1 42 10t33.5 29.5t16.5 38.5q3 22 -5.5 40t-25 29.5t-38.5 12.5q-23 0 -43 -11
t-33.5 -29t-15.5 -40zM638 60q-3 -21 5 -39.5t25 -29.5t40 -11q21 -1 41 10t33.5 29.5t16.5 38.5q3 22 -5.5 40t-25 29.5t-38.5 12.5q-23 0 -43 -11t-33.5 -29t-15.5 -40z" />
    <glyph glyph-name="perthousand" unicode="&#x2030;" horiz-adv-x="1260" 
d="M885 162q-6 -47 10.5 -87t52.5 -65t86 -25q51 0 94.5 24t72 64t35.5 88q6 46 -10.5 86.5t-52.5 65.5t-86 25q-51 0 -94.5 -24t-72 -64t-35.5 -88zM991 161q3 19 15.5 36.5t30.5 28t39 10.5q20 -1 33 -12t18 -27.5t3 -34.5q-3 -19 -15.5 -36.5t-30.5 -28.5t-39 -10
q-20 0 -33 11t-18 27.5t-3 35.5zM90 540q-7 -46 9.5 -86.5t53 -65.5t86.5 -25t93.5 24t72 64.5t36.5 87.5q6 46 -11 86.5t-53 65.5t-86 25q-51 0 -94.5 -24t-71.5 -64t-35 -88zM195 539q3 19 15.5 36.5t31 28.5t39.5 11q20 -1 33 -12t18 -28t3 -35q-3 -19 -15.5 -36.5
t-31 -28.5t-38.5 -10q-21 0 -34 11t-18 28t-3 35zM467 162q-7 -47 10 -87t53 -65t86 -25q51 0 94 24t71.5 64t35.5 88q6 46 -10.5 86.5t-52 65.5t-86.5 25t-94 -24t-71.5 -64t-35.5 -88zM573 161q2 19 14.5 36.5t31 28t39.5 10.5q20 -1 32.5 -12t18 -27.5t3.5 -34.5
q-3 -19 -15.5 -36.5t-31 -28.5t-38.5 -10q-21 0 -33.5 11t-18.5 27.5t-2 35.5zM694 700l-614 -700h132l616 700h-134z" />
    <glyph glyph-name="uni2031" unicode="&#x2031;" horiz-adv-x="1678" 
d="M1304 162q-6 -47 10.5 -87t52.5 -65t86 -25t93.5 24t72.5 64t35 88q7 46 -10 86.5t-53 65.5t-86 25q-51 0 -94 -24t-71.5 -64t-35.5 -88zM1409 161q4 19 16 36.5t30.5 28t39.5 10.5q20 -1 33 -12t18.5 -27.5t2.5 -34.5q-3 -19 -15.5 -36.5t-31 -28.5t-39.5 -10
q-20 0 -33 11t-18 27.5t-3 35.5zM885 162q-6 -47 10.5 -87t52.5 -65t86 -25q51 0 94.5 24t72 64t35.5 88q6 46 -10.5 86.5t-52.5 65.5t-86 25q-51 0 -94.5 -24t-72 -64t-35.5 -88zM991 161q3 19 15.5 36.5t30.5 28t39 10.5q20 -1 33 -12t18 -27.5t3 -34.5
q-3 -19 -15.5 -36.5t-30.5 -28.5t-39 -10q-20 0 -33 11t-18 27.5t-3 35.5zM90 540q-7 -46 9.5 -86.5t53 -65.5t86.5 -25t93.5 24t72 64.5t36.5 87.5q6 46 -11 86.5t-53 65.5t-86 25q-51 0 -94.5 -24t-71.5 -64t-35 -88zM195 539q3 19 15.5 36.5t31 28.5t39.5 11
q20 -1 33 -12t18 -28t3 -35q-3 -19 -15.5 -36.5t-31 -28.5t-38.5 -10q-21 0 -34 11t-18 28t-3 35zM467 162q-7 -47 10 -87t53 -65t86 -25q51 0 94 24t71.5 64t35.5 88q6 46 -10.5 86.5t-52 65.5t-86.5 25t-94 -24t-71.5 -64t-35.5 -88zM573 161q2 19 14.5 36.5t31 28
t39.5 10.5q20 -1 32.5 -12t18 -27.5t3.5 -34.5q-3 -19 -15.5 -36.5t-31 -28.5t-38.5 -10q-21 0 -33.5 11t-18.5 27.5t-2 35.5zM694 700l-614 -700h132l616 700h-134z" />
    <glyph glyph-name="guilsinglleft" unicode="&#x2039;" horiz-adv-x="340" 
d="M155 257l179 186l-71 60l-216 -244l136 -252l86 56z" />
    <glyph glyph-name="guilsinglright" unicode="&#x203a;" horiz-adv-x="340" 
d="M217 253l-178 -185l71 -60l216 243l-136 253l-86 -57z" />
    <glyph glyph-name="uni203D" unicode="&#x203d;" horiz-adv-x="587" 
d="M472 488q-8 -41 -36 -71.5t-68.5 -48t-84.5 -20.5l19 -66q46 1 94 16t89.5 42.5t70.5 67t37 92.5q6 47 -7 86t-42.5 68t-70 45t-87.5 17q-57 0 -106 -16.5t-88 -44t-69 -63.5l80 -72q29 39 70 62t89 23q38 -1 65 -15t38.5 -40.5t6.5 -61.5zM263 506l-30 -314h81l79 314
h-130zM173 56q-4 -31 17 -53.5t54 -22.5q32 -2 59.5 20.5t31.5 53.5t-17 53.5t-53 23.5q-33 1 -60.5 -21.5t-31.5 -53.5z" />
    <glyph glyph-name="fraction" unicode="&#x2044;" horiz-adv-x="701" 
d="M652 699l-623 -699h106l623 699h-106z" />
    <glyph glyph-name="uni2070" unicode="&#x2070;" horiz-adv-x="373" 
d="M161 490q3 25 12.5 50.5t23.5 46.5t33 33.5t42 11.5q21 -1 34 -14t18 -34t5 -46t-2 -48q-5 -25 -14 -50.5t-23.5 -46.5t-33 -33.5t-40.5 -10.5q-23 0 -35.5 13t-17.5 34t-5 46t3 48zM79 490q-6 -41 -1 -79.5t20.5 -69.5t43.5 -49.5t68 -18.5q41 0 75 17.5t59.5 47.5
t41.5 69.5t23 82.5q4 41 -0.5 79.5t-20 69.5t-43.5 49.5t-69 18.5q-40 0 -73.5 -17.5t-59.5 -47.5t-42.5 -69t-21.5 -83z" />
    <glyph glyph-name="uni2074" unicode="&#x2074;" horiz-adv-x="402" 
d="M51 359l358 -1l13 73h-102l-12 -9l-179 -1zM145 379l153 178l-30 -171l-7 -6l-17 -99h87l72 419l-60 -1l-294 -342z" />
    <glyph glyph-name="uni2075" unicode="&#x2075;" horiz-adv-x="366" 
d="M384 413q5 38 -6.5 69t-36.5 50t-61 20q-31 1 -59.5 -11t-51.5 -32l-61 -46q30 14 60 21.5t60 6.5q20 -1 36 -9.5t25 -23.5t6 -36q-3 -23 -17.5 -39t-36 -24.5t-45.5 -8.5q-28 0 -51.5 15.5t-41.5 36.5l-48 -65q26 -28 62.5 -47t87.5 -18q42 0 80.5 16.5t65.5 48t33 76.5
zM256 623l158 1l13 74h-224l-101 -240l101 54z" />
    <glyph glyph-name="uni2076" unicode="&#x2076;" horiz-adv-x="361" 
d="M153 422q3 22 16.5 40.5t33.5 29.5t42 11q22 -1 36 -12.5t20 -29.5t3 -38q-3 -21 -17 -39.5t-33.5 -29.5t-41.5 -10q-21 0 -35.5 11.5t-20.5 29t-3 37.5zM279 696l-152 -166q-21 -23 -36.5 -49.5t-20.5 -57.5q-7 -45 9 -79.5t49.5 -54t77.5 -19.5q45 0 84 19t65 53t32 80
q5 36 -8 67t-38 50.5t-59 18.5q-21 0 -36.5 -5.5t-30.5 -16.5l18 4l157 156h-111z" />
    <glyph glyph-name="uni2077" unicode="&#x2077;" horiz-adv-x="360" 
d="M102 620h194l-220 -339h93l269 419h-322z" />
    <glyph glyph-name="uni2078" unicode="&#x2078;" horiz-adv-x="339" 
d="M113 600q-5 -35 10.5 -60t43.5 -38t62 -13q33 -1 65 12t54 38t27 60q5 32 -10.5 57t-43.5 38.5t-61 14.5q-35 0 -67 -14t-53.5 -38t-26.5 -57zM191 590q2 14 11.5 26.5t23 20.5t28.5 7q22 -1 32 -16.5t8 -36.5q-2 -14 -12 -27t-23.5 -20.5t-27.5 -6.5q-14 0 -23.5 8
t-13.5 19.5t-3 25.5zM64 395q-6 -36 11 -64t48.5 -43.5t68.5 -15.5q38 0 73.5 15.5t60 42.5t29.5 64q3 29 -6.5 52t-28 38.5t-43.5 24t-50 8.5q-36 0 -71.5 -14.5t-61 -41.5t-30.5 -66zM149 406q3 16 14.5 31t27.5 24t34 8q24 -1 38 -19.5t10 -42.5q-4 -27 -27 -46t-49 -18
q-25 0 -38.5 18.5t-9.5 44.5z" />
    <glyph glyph-name="uni2079" unicode="&#x2079;" horiz-adv-x="359" 
d="M329 558q-3 -21 -16.5 -40t-33 -30t-41.5 -10q-22 0 -36.5 11.5t-20.5 29.5t-2 38q3 22 16.5 40t33 29t42.5 11q21 -1 35 -12t20 -29t3 -38zM203 284l152 166q20 23 36.5 49.5t21.5 58.5q6 44 -10.5 78.5t-49.5 54.5t-77 20q-45 0 -83.5 -19.5t-64.5 -53.5t-32 -79
q-5 -37 7.5 -68t37.5 -50t59 -19q20 0 36 5.5t32 17.5l-19 -4l-157 -156z" />
    <glyph glyph-name="uni2080" unicode="&#x2080;" horiz-adv-x="373" 
d="M113 210q3 25 12.5 50.5t23.5 46.5t33 33.5t42 11.5q22 -1 34.5 -14t17.5 -34t5 -46t-2 -48q-5 -25 -14 -50.5t-23.5 -46.5t-33 -33.5t-40.5 -10.5q-23 0 -35.5 13t-17.5 34t-5 46t3 48zM31 210q-6 -41 -1 -79.5t20.5 -69.5t43.5 -49.5t68 -18.5q41 0 75 17.5t59.5 47.5
t42 69.5t22.5 82.5q5 41 0.5 79.5t-20 69.5t-43.5 49.5t-69 18.5q-40 0 -74 -17.5t-60 -47.5t-42.5 -69t-21.5 -83z" />
    <glyph glyph-name="uni2081" unicode="&#x2081;" horiz-adv-x="336" 
d="M112 312l102 25l-57 -335h83l74 428l-188 -41z" />
    <glyph glyph-name="uni2082" unicode="&#x2082;" horiz-adv-x="379" 
d="M-2 3h330l13 78l-167 1l123 102q27 23 47.5 51t26.5 62q5 34 -8.5 64.5t-43.5 49.5t-74 19q-50 0 -87 -22t-60 -58t-32 -79h84q5 21 16.5 41t30 32t41.5 11q18 -1 29 -10t15 -22t3 -27q-5 -28 -25.5 -50.5t-43.5 -43.5z" />
    <glyph glyph-name="uni2083" unicode="&#x2083;" horiz-adv-x="343" 
d="M157 205q41 2 80 12.5t66 33.5t33 61q5 33 -9 58.5t-43 41t-66 15.5q-61 0 -101.5 -35t-52.5 -87l80 -1q7 20 25 36.5t44 16.5q22 -1 32 -15.5t7 -33.5t-16 -32t-32.5 -20.5t-40.5 -9.5zM147 -8q41 0 77.5 14.5t60 42t29.5 64.5q5 33 -6.5 55t-34 36t-52.5 20.5t-61 8.5
l-8 -45q23 -2 42.5 -9t30 -20.5t6.5 -34.5q-4 -28 -27 -45t-50 -15q-30 0 -43 17.5t-13 44.5h-82q-2 -37 11.5 -67.5t44 -48.5t75.5 -18z" />
    <glyph glyph-name="uni2084" unicode="&#x2084;" horiz-adv-x="405" 
d="M2 79l358 -1l13 73h-102l-12 -9l-178 -1zM96 99l154 178l-29 -171l-9 -6l-17 -100h88l72 420l-60 -1l-295 -342z" />
    <glyph glyph-name="uni2085" unicode="&#x2085;" horiz-adv-x="372" 
d="M339 133q5 38 -7 69.5t-37 50t-61 19.5q-30 1 -59 -11t-52 -32l-61 -46q31 14 60.5 21.5t59.5 6.5q20 -1 36.5 -9.5t25 -23.5t5.5 -36q-3 -23 -17.5 -39t-36 -24.5t-44.5 -8.5q-29 0 -52 15.5t-41 36.5l-49 -65q26 -28 62.5 -47t88.5 -18q41 0 79.5 16.5t66 48t33.5 76.5
zM210 343l158 1l13 74h-224l-100 -240l100 54z" />
    <glyph glyph-name="uni2086" unicode="&#x2086;" horiz-adv-x="368" 
d="M107 142q3 22 16.5 40.5t33.5 29.5t42 11q22 -1 36 -12.5t20 -29.5t3 -38q-3 -21 -16.5 -39.5t-33.5 -29.5t-42 -10q-21 0 -35.5 11.5t-20.5 29t-3 37.5zM234 416l-152 -166q-21 -23 -37 -49.5t-21 -57.5q-7 -45 9.5 -79.5t49.5 -54t77 -19.5q45 0 84 19t65 53t32 80
q5 36 -8 67t-38 50.5t-59 18.5q-21 0 -36.5 -5.5t-30.5 -16.5l18 4l157 156h-110z" />
    <glyph glyph-name="uni2087" unicode="&#x2087;" horiz-adv-x="364" 
d="M57 340h194l-221 -340h94l269 420h-322z" />
    <glyph glyph-name="uni2088" unicode="&#x2088;" horiz-adv-x="343" 
d="M68 320q-5 -35 10.5 -60t43.5 -38t62 -13q33 -1 65 12t54.5 38t26.5 60q5 32 -10 57t-43.5 38.5t-61.5 14.5q-35 0 -67 -14t-53.5 -38t-26.5 -57zM147 310q1 14 10.5 26.5t23 20.5t28.5 7q22 -1 32 -16.5t8 -36.5q-2 -14 -12 -27t-23.5 -20.5t-27.5 -6.5q-14 0 -23.5 8
t-13.5 19.5t-2 25.5zM19 115q-6 -36 11 -64t48.5 -43.5t68.5 -15.5q38 0 73.5 15.5t60 42.5t29.5 64q3 29 -6.5 52t-28 38.5t-43.5 24t-50 8.5q-36 0 -71.5 -14.5t-61 -41.5t-30.5 -66zM104 126q3 16 14.5 31t28 24t33.5 8q24 -1 38 -19.5t11 -42.5q-5 -27 -28 -46t-48 -18
q-25 0 -39 18.5t-10 44.5z" />
    <glyph glyph-name="uni2089" unicode="&#x2089;" horiz-adv-x="371" 
d="M278 278q-4 -21 -17.5 -40t-33.5 -30t-41 -10q-22 0 -36 11.5t-20.5 29.5t-3.5 38q3 22 16.5 40t34 29t42.5 11q21 -1 35 -12t20 -29t4 -38zM152 4l151 166q20 23 36.5 49.5t21.5 58.5q6 44 -10 78.5t-49 54.5t-77 20q-45 0 -84 -19.5t-65 -53.5t-32 -79q-5 -37 7.5 -68
t37.5 -50t60 -19q20 0 36 5.5t31 17.5l-18 -4l-158 -156z" />
    <glyph glyph-name="Euro" unicode="&#x20ac;" horiz-adv-x="613" 
d="M79 390h482l12 72h-481zM48 262h470l12 73h-470zM247 350q7 49 25.5 93.5t47 79t66 54t81.5 19.5q40 0 73 -16.5t60 -45.5l22 142q-33 18 -68.5 29.5t-73.5 11.5q-73 0 -134.5 -30t-108 -82t-76.5 -117.5t-40 -137.5q-10 -67 -0.5 -132.5t39 -118.5t80 -84t123.5 -31
q40 0 77.5 11.5t72.5 29.5l21 140q-34 -25 -74.5 -43t-84.5 -17t-72 22t-42.5 56.5t-17 78.5t3.5 88z" />
    <glyph glyph-name="trademark" unicode="&#x2122;" horiz-adv-x="699" 
d="M110 636l91 -1l-48 -284h71l49 284l91 1l12 64h-255zM646 598l-14 -247l73 -1l15 374zM432 718l-114 -367h75l69 241zM722 724l-188 -231l-102 224l-17 -101l104 -235l180 227z" />
    <glyph glyph-name="uni2150" unicode="&#x2150;" horiz-adv-x="883" 
d="M666 699l-624 -699h106l624 699h-106zM97 585l101 25l-56 -335h83l73 428l-188 -41zM572 340h194l-220 -340h94l268 420h-322z" />
    <glyph glyph-name="uni2151" unicode="&#x2151;" horiz-adv-x="827" 
d="M662 699l-624 -699h106l623 699h-105zM97 585l101 25l-56 -335h83l73 428l-188 -41zM745 278q-3 -21 -16.5 -40t-33 -30t-41.5 -10q-22 0 -36.5 11.5t-20.5 29.5t-3 38q3 22 17 40t33.5 29t41.5 11q22 -1 36 -12t20 -29t3 -38zM620 4l151 166q20 23 36.5 49.5t21.5 58.5
q5 44 -11 78.5t-49 54.5t-77 20t-83 -19.5t-65.5 -53.5t-31.5 -79q-5 -37 7 -68t37.5 -50t59.5 -19q20 0 36 5.5t32 17.5l-18 -4l-158 -156z" />
    <glyph glyph-name="uni2152" unicode="&#x2152;" horiz-adv-x="1135" 
d="M662 699l-624 -699h106l623 699h-105zM97 585l101 25l-56 -335h83l73 428l-188 -41zM541 312l101 25l-57 -335h83l74 428l-188 -41zM867 210q3 25 12 50.5t23.5 46.5t33 33.5t41.5 11.5q22 -1 34.5 -14t17.5 -34t5.5 -46t-2.5 -48q-4 -25 -13 -50.5t-23.5 -46.5
t-33 -33.5t-40.5 -10.5q-23 0 -35.5 13t-17.5 34t-5 46t3 48zM784 210q-5 -41 -0.5 -79.5t20 -69.5t44 -49.5t68.5 -18.5q41 0 74.5 17.5t59.5 47.5t42 69.5t22 82.5q5 41 0.5 79.5t-20 69.5t-43 49.5t-68.5 18.5t-75 -17.5t-59.5 -47.5t-42.5 -69t-22 -83z" />
    <glyph glyph-name="onethird" unicode="&#x2153;" horiz-adv-x="812" 
d="M661 699l-624 -699h107l623 699h-106zM97 585l101 25l-56 -335h83l73 428l-188 -41zM623 205q42 2 80.5 12.5t65.5 33.5t34 61q5 33 -9 58.5t-43 41t-67 15.5q-61 0 -101 -35t-52 -87l80 -1q7 20 24.5 36.5t43.5 16.5q22 -1 32.5 -15.5t7.5 -33.5q-4 -19 -17 -32
t-32 -20.5t-41 -9.5zM613 -8q42 0 78 14.5t60 42t29 64.5q5 33 -6 55t-33.5 36t-52.5 20.5t-62 8.5l-7 -45q23 -2 42.5 -9t29.5 -20.5t6 -34.5q-4 -28 -26.5 -45t-50.5 -15q-29 0 -42 17.5t-13 44.5h-82q-3 -37 11 -67.5t44 -48.5t75 -18z" />
    <glyph glyph-name="twothirds" unicode="&#x2154;" horiz-adv-x="939" 
d="M797 699l-624 -699h107l623 699h-106zM48 283h330l14 78l-167 1l122 102q27 23 48 51t27 62q5 34 -8.5 64.5t-44 49.5t-73.5 19q-50 0 -87 -22t-60 -58t-32 -79h84q5 21 16.5 41t29.5 32t41 11q18 -1 29 -10t15.5 -22t2.5 -27q-4 -28 -25 -50.5t-43 -43.5zM750 205
q42 2 81 12.5t65.5 33.5t33.5 61q5 33 -9 58.5t-42.5 41t-66.5 15.5q-61 0 -101.5 -35t-52.5 -87l80 -1q7 20 25 36.5t43 16.5q22 -1 33 -15.5t8 -33.5q-4 -19 -17 -32t-32.5 -20.5t-40.5 -9.5zM740 -8q42 0 78.5 14.5t60.5 42t29 64.5q5 33 -6 55t-34 36t-52.5 20.5
t-62.5 8.5l-6 -45q23 -2 42.5 -9t29.5 -20.5t6 -34.5q-4 -28 -27 -45t-50 -15q-30 0 -43 17.5t-13 44.5h-83q-2 -37 12.5 -67.5t44 -48.5t74.5 -18z" />
    <glyph glyph-name="uni2155" unicode="&#x2155;" horiz-adv-x="801" 
d="M662 699l-624 -699h106l623 699h-105zM97 585l101 25l-56 -335h83l73 428l-188 -41zM774 133q4 38 -7 69.5t-36.5 50t-60.5 19.5q-32 1 -60 -11t-52 -32l-60 -46q30 14 59.5 21.5t58.5 6.5q20 -1 36.5 -9.5t25.5 -23.5t6 -36q-3 -23 -17.5 -39t-36 -24.5t-44.5 -8.5
q-29 0 -52.5 15.5t-41.5 36.5l-48 -65q26 -28 62.5 -47t87.5 -18q42 0 80.5 16.5t65.5 48t34 76.5zM645 343l159 1l12 74h-224l-101 -240l100 54z" />
    <glyph glyph-name="uni2156" unicode="&#x2156;" horiz-adv-x="935" 
d="M797 699l-624 -699h107l623 699h-106zM48 283h330l14 78l-167 1l122 102q27 23 48 51t27 62q5 34 -8.5 64.5t-44 49.5t-73.5 19q-50 0 -87 -22t-60 -58t-32 -79h84q5 21 16.5 41t29.5 32t41 11q18 -1 29 -10t15.5 -22t2.5 -27q-4 -28 -25 -50.5t-43 -43.5zM901 133
q4 38 -7 69.5t-36 50t-61 19.5q-31 1 -59.5 -11t-52.5 -32l-61 -46q31 14 61 21.5t59 6.5q20 -1 36.5 -9.5t25 -23.5t6.5 -36q-4 -23 -18 -39t-36 -24.5t-45 -8.5q-28 0 -51.5 15.5t-41.5 36.5l-49 -65q27 -28 63 -47t88 -18q41 0 79.5 16.5t65.5 48t34 76.5zM772 343l159 1
l13 74h-225l-101 -240l101 54z" />
    <glyph glyph-name="uni2157" unicode="&#x2157;" horiz-adv-x="873" 
d="M738 699l-624 -699h106l624 699h-106zM207 485q41 2 80 12.5t66 33.5t33 61q5 33 -9 58.5t-43 41t-67 15.5q-61 0 -101 -35t-52 -87l80 -1q6 20 24 36.5t44 16.5q22 -1 32.5 -15.5t7.5 -33.5q-4 -19 -17 -32t-32 -20.5t-40 -9.5zM197 272q41 0 77 14.5t60 42t30 64.5
q5 33 -6.5 55t-34 36t-52.5 20.5t-61 8.5l-8 -45q23 -2 42.5 -9t29.5 -20.5t6 -34.5q-4 -28 -26.5 -45t-50.5 -15q-29 0 -42 17.5t-13 44.5h-83q-2 -37 12 -67.5t44.5 -48.5t75.5 -18zM838 133q4 38 -7.5 69.5t-36.5 50t-61 19.5q-31 1 -59.5 -11t-51.5 -32l-61 -46
q30 14 60 21.5t59 6.5q20 -1 36.5 -9.5t25 -23.5t6.5 -36q-3 -23 -17.5 -39t-36 -24.5t-45.5 -8.5q-28 0 -51.5 15.5t-41.5 36.5l-49 -65q27 -28 63 -47t88 -18q41 0 80 16.5t66 48t34 76.5zM709 343l158 1l13 74h-225l-100 -240l100 54z" />
    <glyph glyph-name="uni2158" unicode="&#x2158;" horiz-adv-x="940" 
d="M788 699l-623 -699h106l623 699h-106zM55 359l358 -1l13 73h-102l-12 -9l-179 -1zM149 379l153 178l-29 -171l-8 -6l-17 -99h88l71 419l-60 -1l-294 -342zM909 133q4 37 -7.5 68.5t-36.5 50.5t-61 20q-30 0 -59 -11.5t-52 -32.5l-61 -45q31 13 60.5 21t58.5 7
q21 -1 37 -9.5t25 -24t6 -35.5q-3 -23 -17.5 -39t-36 -25t-44.5 -8q-29 0 -52 15t-41 37l-49 -65q26 -29 62.5 -47.5t87.5 -18.5q42 0 80.5 16.5t65.5 48t34 77.5zM780 343l158 1l13 74h-225l-100 -241l100 54z" />
    <glyph glyph-name="uni2159" unicode="&#x2159;" horiz-adv-x="804" 
d="M674 699l-624 -699h107l623 699h-106zM97 585l101 25l-56 -335h83l73 428l-188 -41zM542 142q3 22 16.5 40.5t34 29.5t42.5 11q21 -1 35 -12.5t20 -29.5t3 -38q-3 -21 -16.5 -39.5t-33.5 -29.5t-42 -10q-21 0 -35.5 11.5t-20.5 29t-3 37.5zM668 416l-152 -166
q-20 -23 -36 -49.5t-21 -57.5q-6 -45 10 -79.5t49 -54t78 -19.5q44 0 83 19t65 53t32 80q5 36 -7.5 67t-38 50.5t-59.5 18.5q-20 0 -36 -5.5t-31 -16.5l18 4l158 156h-112z" />
    <glyph glyph-name="uni215A" unicode="&#x215a;" horiz-adv-x="881" 
d="M763 699l-623 -699h106l623 699h-106zM388 413q5 38 -6.5 69t-36.5 50t-60 20q-32 1 -60 -11t-52 -32l-61 -46q31 14 61 21.5t59 6.5q20 -1 36.5 -9.5t25 -23.5t5.5 -36q-3 -23 -17.5 -39t-36 -24.5t-44.5 -8.5q-29 0 -52 15.5t-41 36.5l-49 -65q26 -28 62.5 -47
t88.5 -18q41 0 79.5 16.5t65.5 48t33 76.5zM260 623l159 1l12 74h-225l-100 -240l101 54zM619 142q3 22 16.5 40.5t33.5 29.5t42 11q22 -1 35.5 -12.5t20 -29.5t3.5 -38q-3 -21 -16.5 -39.5t-33.5 -29.5t-41 -10q-22 0 -36.5 11.5t-20.5 29t-3 37.5zM745 416l-152 -166
q-20 -23 -36 -49.5t-21 -57.5q-7 -45 9.5 -79.5t50 -54t77.5 -19.5t82.5 19t65 53t32.5 80q4 36 -8.5 67t-37.5 50.5t-59 18.5q-21 0 -36.5 -5.5t-30.5 -16.5l18 4l158 156h-112z" />
    <glyph glyph-name="oneeighth" unicode="&#x215b;" horiz-adv-x="825" 
d="M674 699l-624 -699h107l623 699h-106zM97 585l101 25l-56 -335h83l73 427l-188 -40zM547 320q-5 -35 10.5 -60t43.5 -38t62 -13q33 -1 65 12t54.5 38t26.5 60q5 32 -10 57t-43.5 38.5t-61.5 14.5q-35 0 -67 -14t-53.5 -38t-26.5 -57zM626 310q2 14 11.5 26.5t23 20.5
t28.5 7q21 -1 31 -16.5t8 -36.5q-2 -14 -11.5 -27t-23.5 -20.5t-28 -6.5q-14 0 -23.5 8t-13.5 19.5t-2 25.5zM498 115q-6 -36 11 -64t48.5 -43.5t68.5 -15.5q38 0 73.5 15.5t60 42.5t29.5 64q3 29 -6.5 52t-28 38.5t-43.5 24t-50 8.5q-36 0 -71.5 -14.5t-61 -41.5t-30.5 -66
zM583 126q3 16 14.5 31t28 24t33.5 8q24 -1 38 -19.5t11 -42.5q-5 -27 -28 -46t-48 -18q-25 0 -39 18.5t-10 44.5z" />
    <glyph glyph-name="threeeighths" unicode="&#x215c;" horiz-adv-x="893" 
d="M742 699l-623 -699h105l624 699h-106zM207 485q41 2 80 12.5t66 33.5t33 61q5 33 -9 58.5t-43 41t-67 15.5q-61 0 -101 -35t-52 -87l80 -1q6 20 24 36.5t44 16.5q22 -1 32.5 -15.5t7.5 -33.5q-4 -19 -17 -32t-32 -20.5t-40 -9.5zM197 272q41 0 77 14.5t60 42t30 64.5
q5 33 -6.5 55t-34 36t-52.5 20.5t-61 8.5l-8 -45q23 -2 42.5 -9t29.5 -20.5t6 -34.5q-4 -28 -26.5 -45t-50.5 -15q-29 0 -42 17.5t-13 44.5h-83q-2 -37 12 -67.5t44.5 -48.5t75.5 -18zM615 320q-5 -35 10.5 -60t44 -38t61.5 -13q33 -1 65 12t54 38t27 60q5 32 -10.5 57
t-43.5 38.5t-62 14.5q-34 0 -66 -14t-53.5 -38t-26.5 -57zM693 310q3 14 12 26.5t22.5 20.5t29.5 7q21 -1 31.5 -16.5t7.5 -36.5q-3 -14 -12.5 -27t-23 -20.5t-27.5 -6.5q-14 0 -23.5 8t-13.5 19.5t-3 25.5zM565 115q-5 -36 12 -64t48 -43.5t69 -15.5t73.5 15.5t59.5 42.5
t30 64q4 29 -5.5 52t-29 38.5t-44 24t-50.5 8.5q-35 0 -71 -14.5t-61 -41.5t-31 -66zM651 126q3 16 14.5 31t28 24t33.5 8q24 -1 38 -19.5t10 -42.5q-4 -27 -27 -46t-48 -18q-26 0 -39.5 18.5t-9.5 44.5z" />
    <glyph glyph-name="fiveeighths" unicode="&#x215d;" horiz-adv-x="914" 
d="M763 699l-623 -699h106l623 699h-106zM384 413q5 38 -6.5 69t-36.5 50t-61 20q-31 1 -59.5 -11t-51.5 -32l-61 -46q30 14 60 21.5t60 6.5q20 -1 36 -9.5t25 -23.5t6 -36q-3 -23 -17.5 -39t-36 -24.5t-45.5 -8.5q-28 0 -51.5 15.5t-41.5 36.5l-48 -65q26 -28 62.5 -47
t87.5 -18q42 0 80.5 16.5t65.5 48t33 76.5zM256 623l158 1l13 74h-224l-101 -240l101 54zM637 320q-5 -35 10 -60t43.5 -38t61.5 -13q34 -1 65.5 12t54 38t27.5 60q5 32 -11 57t-44 38.5t-62 14.5q-34 0 -65.5 -14t-53.5 -38t-26 -57zM715 310q2 14 11 26.5t23 20.5t29 7
q21 -1 31.5 -16.5t7.5 -36.5q-2 -14 -11.5 -27t-23 -20.5t-27.5 -6.5q-15 0 -24.5 8t-13.5 19.5t-2 25.5zM587 115q-6 -36 11.5 -64t48.5 -43.5t68 -15.5q38 0 73.5 15.5t60 42.5t29.5 64q4 29 -5.5 52t-28.5 38.5t-43.5 24t-51.5 8.5q-35 0 -71 -14.5t-61 -41.5t-30 -66z
M673 126q2 16 13.5 31t28 24t33.5 8q25 -1 38.5 -19.5t10.5 -42.5q-5 -27 -27.5 -46t-48.5 -18q-25 0 -39 18.5t-9 44.5z" />
    <glyph glyph-name="seveneighths" unicode="&#x215e;" horiz-adv-x="807" 
d="M652 699l-623 -699h106l623 699h-106zM102 620h194l-220 -339h93l269 419h-322zM530 320q-5 -35 10.5 -60t43.5 -38t62 -13q33 -1 65 12t54 38t27 60q5 32 -10.5 57t-43.5 38.5t-62 14.5q-35 0 -66.5 -14t-53 -38t-26.5 -57zM608 310q2 14 11.5 26.5t23 20.5t28.5 7
q22 -1 32 -16.5t8 -36.5q-2 -14 -12 -27t-23.5 -20.5t-27.5 -6.5q-15 0 -24.5 8t-13.5 19.5t-2 25.5zM480 115q-5 -36 12 -64t48 -43.5t69 -15.5t73 15.5t59.5 42.5t29.5 64q4 29 -5.5 52t-28.5 38.5t-43.5 24t-50.5 8.5q-35 0 -71 -14.5t-61 -41.5t-31 -66zM566 126
q2 16 14 31t28 24t34 8q24 -1 38 -19.5t10 -42.5q-4 -27 -27 -46t-49 -18q-25 0 -39 18.5t-9 44.5z" />
    <glyph glyph-name="partialdiff" unicode="&#x2202;" horiz-adv-x="602" 
d="M281 -14q65 0 118.5 23.5t92 64t59.5 93t21 110.5q0 45 -10 89.5t-30.5 89t-53.5 91.5t-80 97t-108 105l-92 -69q48 -37 86.5 -73.5t68.5 -75t53.5 -81t41.5 -92.5l41 -1q-44 55 -90.5 83t-102.5 28q-49 0 -94 -19t-79.5 -54t-54.5 -81.5t-20 -102.5q0 -68 29.5 -119
t82.5 -78.5t121 -27.5zM289 103q-48 0 -77 31t-29 80q0 30 12 57t32.5 47.5t46.5 32.5t54 12q31 0 54.5 -13.5t37 -39t13.5 -59.5q0 -28 -10.5 -54.5t-30 -48t-45.5 -33.5t-58 -12z" />
    <glyph glyph-name="emptyset" unicode="&#x2205;" horiz-adv-x="600" 
d="M267 24q51 0 95 18.5t78 51t55 74t24 86.5q4 56 -18.5 103t-66.5 75.5t-103 28.5q-48 0 -91.5 -18t-78.5 -49.5t-57 -73t-25 -89.5q-5 -56 18 -103t67 -75.5t103 -28.5zM276 111q-35 0 -60 17t-38 44.5t-11 58.5q2 39 24 71.5t57 51.5t74 19q35 0 60 -16.5t38 -43.5
t12 -59q-2 -35 -23 -67.5t-55 -54t-78 -21.5zM102 31l435 376l-44 47l-434 -376z" />
    <glyph glyph-name="product" unicode="&#x220f;" horiz-adv-x="600" 
d="M101 0h111l102 597h104l-103 -597h111l103 597h79l16 103h-483l-16 -103h79z" />
    <glyph glyph-name="summation" unicode="&#x2211;" horiz-adv-x="600" 
d="M55 0h400l18 108h-221l158 244l-80 240h224l18 108h-400l113 -345z" />
    <glyph glyph-name="minus" unicode="&#x2212;" horiz-adv-x="575" 
d="M63 181h458l19 113h-458z" />
    <glyph glyph-name="uni2215" unicode="&#x2215;" horiz-adv-x="562" 
d="M516 700l-556 -849h130l553 849h-127z" />
    <glyph glyph-name="uni2219" unicode="&#x2219;" horiz-adv-x="306" 
d="M120 435q-3 -21 5 -39.5t25 -29.5t39 -11q22 -1 42 10t33.5 29.5t16.5 38.5q3 22 -6 40t-25 29.5t-38 12.5q-23 0 -43 -11t-33.5 -29t-15.5 -40z" />
    <glyph glyph-name="radical" unicode="&#x221a;" horiz-adv-x="600" 
d="M167 -197l-71 401l74 -33l-135 -36l-12 89l153 46l40 -283l-50 34l251 679h171l-17 -105h-156l97 77z" />
    <glyph glyph-name="infinity" unicode="&#x221e;" horiz-adv-x="789" 
d="M164 35q94 0 212 120q38 -60 80 -90t91 -30q48 0 93.5 27.5t78.5 71.5t42 96q8 52 -10 96t-54.5 71t-84.5 27q-95 0 -211 -121q-77 121 -171 121q-49 0 -95 -27t-78.5 -71t-40.5 -96q-9 -52 9 -96t54.5 -71.5t84.5 -27.5zM199 138q-22 0 -39 13.5t-26 34t-4 44.5
q3 25 18.5 45t37.5 33t44 13q29 0 54.5 -23.5t45.5 -67.5q-35 -44 -68.5 -68t-62.5 -24zM547 138q-29 0 -55 24.5t-45 67.5q34 44 68 67.5t63 23.5q22 0 38.5 -13t25 -33t5.5 -45q-5 -24 -20.5 -44.5t-36.5 -34t-43 -13.5z" />
    <glyph glyph-name="integral" unicode="&#x222b;" horiz-adv-x="600" 
d="M118 -200q44 -1 81.5 19.5t64 57.5t38.5 88l141 635q9 37 25.5 57t36.5 20q10 0 19 -5.5t23 -20.5l68 93q-29 27 -53.5 38t-53.5 11q-44 1 -81.5 -19t-64 -57.5t-38.5 -88.5l-141 -636q-9 -35 -25.5 -55t-37.5 -20q-10 0 -19 5.5t-22 19.5l-68 -93q28 -26 52.5 -37
t54.5 -12z" />
    <glyph glyph-name="approxequal" unicode="&#x2248;" horiz-adv-x="600" 
d="M417 338q-28 0 -57.5 12.5t-62.5 36.5q-24 18 -43.5 27t-38.5 9q-20 0 -32.5 -9t-17 -26.5t-0.5 -41.5l-105 5q-5 42 16 80t60 62.5t86 24.5q30 0 59 -12t62 -36q25 -17 43.5 -25.5t31.5 -8.5q26 0 37.5 21t4.5 53l107 -5q3 -44 -17 -82t-55 -61.5t-78 -23.5zM375 88
q-28 0 -57.5 12.5t-62.5 36.5q-24 18 -43 27t-39 9q-19 0 -32 -9t-17.5 -26.5t-0.5 -41.5l-105 5q-4 42 16.5 80t59 62.5t87.5 24.5q29 0 59 -12t64 -36q25 -17 42 -25.5t30 -8.5q27 0 38 21t4 53l107 -5q4 -44 -16 -82t-55.5 -61.5t-78.5 -23.5z" />
    <glyph glyph-name="notequal" unicode="&#x2260;" horiz-adv-x="600" 
d="M201 8l-96 46l317 476l96 -46zM33 114l19 114h505l-18 -114h-506zM65 303l18 113h506l-19 -113h-505z" />
    <glyph glyph-name="lessequal" unicode="&#x2264;" horiz-adv-x="600" 
d="M7 4l19 115h512l-19 -115h-512zM540 147l-474 216l15 83l546 216l-22 -127l-341 -126l298 -135z" />
    <glyph glyph-name="greaterequal" unicode="&#x2265;" horiz-adv-x="600" 
d="M21 4l19 115h513l-20 -115h-512zM45 147l21 127l342 127l-298 134l21 127l474 -216l-14 -83z" />
    <glyph glyph-name="lozenge" unicode="&#x25ca;" horiz-adv-x="600" 
d="M264 15l-149 341l263 340l137 -340zM294 220l102 136l-56 136l-106 -136z" />
    <glyph glyph-name="uniFF10" unicode="&#xff10;" horiz-adv-x="596" 
d="M193 350q6 43 21 85.5t38 77t54 54.5t69 20q30 -1 49 -15.5t30 -39t15 -55.5t3 -64t-4 -63q-6 -43 -21 -85.5t-38.5 -77t-54 -54.5t-68.5 -19q-30 0 -49.5 14.5t-30 39t-14.5 55.5t-3.5 64t4.5 63zM56 350q-7 -54 -3.5 -106.5t18 -98.5t41 -81.5t66.5 -55.5t95 -20
q68 0 125 29t99.5 79.5t69.5 115.5t38 138q6 54 3 106.5t-17 99t-40.5 81.5t-67 55t-95.5 20q-68 0 -124.5 -29t-99.5 -79.5t-70.5 -115.5t-37.5 -138z" />
    <glyph glyph-name="uniFF11" unicode="&#xff11;" horiz-adv-x="596" 
d="M167 517l171 43l-96 -560h137l122 714l-311 -66z" />
    <glyph glyph-name="uniFF12" unicode="&#xff12;" horiz-adv-x="596" 
d="M-13 0h550l23 131l-283 1l206 171q46 38 80.5 84.5t44.5 103.5q9 57 -13.5 107.5t-72 82.5t-122.5 32q-83 0 -145.5 -36t-101.5 -96t-53 -133h139q8 37 27.5 69t49 52t68.5 19q31 -1 50 -15.5t26.5 -37t3.5 -46.5q-6 -31 -23 -57.5t-40.5 -50.5t-49.5 -49z" />
    <glyph glyph-name="uniFF13" unicode="&#xff13;" horiz-adv-x="596" 
d="M296 342q52 0 102 10.5t91.5 32t69 55.5t36.5 81q8 54 -15.5 97.5t-70.5 68.5t-111 25q-67 0 -120.5 -27t-88.5 -73.5t-47 -105.5l132 -1q6 24 22 45t39 33t51 12q27 -1 43 -12t22 -29.5t3 -40.5q-6 -31 -27.5 -53t-53.5 -35t-67 -15zM277 -14q71 0 131 24.5t99.5 70.5
t49.5 108q8 54 -10 91.5t-55.5 60.5t-87 34.5t-102.5 12.5l-12 -76q30 -1 55.5 -8t44.5 -20t27 -33t3 -47q-5 -30 -23.5 -53t-45.5 -35t-58 -11q-33 1 -54.5 14t-31.5 36.5t-8 55.5h-138q-6 -62 18 -113t74 -81t124 -31z" />
    <glyph glyph-name="uniFF14" unicode="&#xff14;" horiz-adv-x="596" 
d="M5 130l566 -1l21 122h-159l-20 -14l-276 -1zM150 164l246 301l-49 -289l-14 -11l-29 -165h145l120 700l-98 -1l-468 -571z" />
    <glyph glyph-name="uniFF15" unicode="&#xff15;" horiz-adv-x="596" 
d="M569 226q8 62 -11 114t-60 84t-101 33q-52 0 -99.5 -18.5t-86.5 -54.5l-104 -76q51 23 100.5 35.5t98.5 12.5q34 -2 62 -16t42 -39.5t9 -61.5q-6 -37 -29 -64t-57.5 -41.5t-74.5 -13.5q-47 0 -87.5 25t-69.5 62l-81 -110q42 -47 102.5 -78t145.5 -31q52 0 102.5 16t92 46
t69.5 74.5t37 101.5zM353 576h265l21 124h-373l-165 -398l163 88z" />
    <glyph glyph-name="uniFF16" unicode="&#xff16;" horiz-adv-x="596" 
d="M186 241q6 36 28 66.5t54.5 48.5t69.5 18q37 -1 61 -19.5t34 -49t5 -64.5q-7 -37 -29 -67t-54 -47.5t-69 -16.5q-37 0 -61 18.5t-34.5 48t-4.5 64.5zM398 698l-253 -278q-35 -38 -62 -82.5t-34 -96.5q-11 -75 15 -132.5t80.5 -90t128.5 -32.5q75 0 140 31.5t108 89
t54 134.5q8 60 -12 111.5t-62 83.5t-99 32q-35 0 -61.5 -9.5t-52.5 -30.5l29 7l264 263h-183z" />
    <glyph glyph-name="uniFF17" unicode="&#xff17;" horiz-adv-x="596" 
d="M112 566h324l-369 -566h154l448 700h-534z" />
    <glyph glyph-name="uniFF18" unicode="&#xff18;" horiz-adv-x="596" 
d="M153 532q-7 -44 6 -78.5t41 -58t64.5 -36t78.5 -12.5q43 0 84 12t75 35.5t56.5 58t28.5 78.5q6 41 -6.5 74.5t-39.5 58t-64 37.5t-80 13q-59 0 -111.5 -22.5t-88.5 -63.5t-44 -96zM282 516q4 25 19 46t37 33.5t49 11.5q24 -1 40 -13.5t23 -33t3 -43.5q-3 -24 -19 -44.5
t-38 -33t-47 -11.5q-24 1 -40.5 13.5t-23.5 32t-3 42.5zM70 191q-6 -46 8 -83t44.5 -64.5t71 -42.5t87.5 -15q48 0 94 14.5t83.5 41.5t62.5 64.5t32 83.5q7 49 -8.5 87t-46.5 64t-71.5 39.5t-84.5 13.5q-45 0 -90 -13t-84 -39t-65 -64t-33 -87zM212 210q4 28 23 52t46 39
t56 15q28 -1 48 -16.5t29 -39t5 -49.5q-5 -31 -24 -55.5t-45.5 -38t-55.5 -12.5q-28 0 -48.5 14t-29.5 38t-4 53z" />
    <glyph glyph-name="uniFF19" unicode="&#xff19;" horiz-adv-x="596" 
d="M475 460q-6 -37 -28 -67.5t-54.5 -48.5t-69.5 -17q-38 0 -61.5 18.5t-33.5 49t-4 64.5q5 37 27 67t54.5 47.5t69.5 17.5q37 -1 61 -19.5t34 -48t5 -63.5zM263 3l253 277q35 38 61.5 82.5t35.5 96.5q10 75 -16.5 132.5t-80.5 90t-128 32.5t-139.5 -31.5t-108.5 -89
t-54 -133.5q-8 -60 12 -112t62 -83.5t100 -31.5q33 -1 60 8.5t54 31.5l-30 -7l-264 -263h183z" />
    <glyph glyph-name="a.alt" horiz-adv-x="508" 
d="M148 140q2 21 16.5 35.5t36.5 22t49 7.5q34 0 63 -10t55 -29l9 61q-22 22 -60.5 38t-90.5 16q-53 0 -97.5 -17t-73.5 -50t-36 -79q-6 -45 11.5 -77.5t51.5 -49.5t77 -17q44 -1 82.5 15.5t65.5 47t37 72.5l-7 58q-13 -45 -47 -75t-81 -28q-28 0 -46.5 15t-14.5 44z
M138 329q17 9 40 19t50.5 17t56.5 5q19 0 33.5 -4.5t24 -13t13.5 -21t2 -28.5l-54 -303h124l55 326q7 48 -16.5 80.5t-66.5 49t-93 16.5q-59 0 -110 -16.5t-93 -36.5z" />
    <glyph glyph-name="agrave.alt" horiz-adv-x="510" 
d="M148 136q3 22 18 37.5t38 23.5t49 9q35 0 63 -10.5t54 -29.5l9 62q-21 21 -58.5 37t-85.5 16q-54 0 -100.5 -17.5t-77.5 -52t-38 -83.5q-6 -43 10.5 -73.5t51 -47t79.5 -16.5q47 -1 85.5 16t64.5 48.5t36 73.5l-7 55q-8 -33 -26.5 -56.5t-45 -35.5t-58.5 -11
q-30 0 -47.5 14t-13.5 41zM143 329q25 13 64 28t83 13q23 0 39 -8t24.5 -22t7.5 -34l-55 -306h124l55 326q6 49 -17 81t-65.5 48.5t-93.5 16.5q-58 0 -108.5 -16.5t-91.5 -36.5zM186 684l152 -152l74 37l-121 162z" />
    <glyph glyph-name="aacute.alt" horiz-adv-x="510" 
d="M148 136q3 22 18 37.5t38 23.5t49 9q35 0 63 -10.5t54 -29.5l9 62q-21 21 -58.5 37t-85.5 16q-54 0 -100.5 -17.5t-77.5 -52t-38 -83.5q-6 -43 10.5 -73.5t51 -47t79.5 -16.5q47 -1 85.5 16t64.5 48.5t36 73.5l-7 55q-8 -33 -26.5 -56.5t-45 -35.5t-58.5 -11
q-30 0 -47.5 14t-13.5 41zM143 329q25 13 64 28t83 13q23 0 39 -8t24.5 -22t7.5 -34l-55 -306h124l55 326q6 49 -17 81t-65.5 48.5t-93.5 16.5q-58 0 -108.5 -16.5t-91.5 -36.5zM513 680l-95 50l-171 -156l69 -41z" />
    <glyph glyph-name="acircumflex.alt" horiz-adv-x="510" 
d="M148 136q3 22 18 37.5t38 23.5t49 9q35 0 63 -10.5t54 -29.5l9 62q-21 21 -58.5 37t-85.5 16q-54 0 -100.5 -17.5t-77.5 -52t-38 -83.5q-6 -43 10.5 -73.5t51 -47t79.5 -16.5q47 -1 85.5 16t64.5 48.5t36 73.5l-7 55q-8 -33 -26.5 -56.5t-45 -35.5t-58.5 -11
q-30 0 -47.5 14t-13.5 41zM143 329q25 13 64 28t83 13q23 0 39 -8t24.5 -22t7.5 -34l-55 -306h124l55 326q6 49 -17 81t-65.5 48.5t-93.5 16.5q-58 0 -108.5 -16.5t-91.5 -36.5zM341 620l79 -88l95 60l-161 142l-201 -138l79 -63z" />
    <glyph glyph-name="atilde.alt" horiz-adv-x="510" 
d="M148 136q3 22 18 37.5t38 23.5t49 9q35 0 63 -10.5t54 -29.5l9 62q-21 21 -58.5 37t-85.5 16q-54 0 -100.5 -17.5t-77.5 -52t-38 -83.5q-6 -43 10.5 -73.5t51 -47t79.5 -16.5q47 -1 85.5 16t64.5 48.5t36 73.5l-7 55q-8 -33 -26.5 -56.5t-45 -35.5t-58.5 -11
q-30 0 -47.5 14t-13.5 41zM143 329q25 13 64 28t83 13q23 0 39 -8t24.5 -22t7.5 -34l-55 -306h124l55 326q6 49 -17 81t-65.5 48.5t-93.5 16.5q-58 0 -108.5 -16.5t-91.5 -36.5zM151 591l58 -56q6 14 18.5 31.5t38.5 18.5q23 1 41 -11t37 -25t43 -14q28 -1 53.5 11t46 31
t32.5 38l-53 65q-16 -19 -33 -34.5t-38 -15.5q-24 -1 -41 11t-34.5 24.5t-44.5 13.5q-29 0 -53.5 -12.5t-42.5 -32.5t-28 -43z" />
    <glyph glyph-name="adieresis.alt" horiz-adv-x="510" 
d="M148 136q3 22 18 37.5t38 23.5t49 9q35 0 63 -10.5t54 -29.5l9 62q-21 21 -58.5 37t-85.5 16q-54 0 -100.5 -17.5t-77.5 -52t-38 -83.5q-6 -43 10.5 -73.5t51 -47t79.5 -16.5q47 -1 85.5 16t64.5 48.5t36 73.5l-7 55q-8 -33 -26.5 -56.5t-45 -35.5t-58.5 -11
q-30 0 -47.5 14t-13.5 41zM143 329q25 13 64 28t83 13q23 0 39 -8t24.5 -22t7.5 -34l-55 -306h124l55 326q6 49 -17 81t-65.5 48.5t-93.5 16.5q-58 0 -108.5 -16.5t-91.5 -36.5zM372 607q-5 -30 15 -51.5t50 -22.5q31 -1 56.5 20.5t30.5 51.5q3 30 -16.5 51.5t-49.5 22.5
q-31 1 -57 -21t-29 -51zM148 607q-4 -30 16 -51.5t50 -22.5t56 20.5t30 51.5t-15.5 51.5t-50.5 22.5q-30 1 -56 -21t-30 -51z" />
    <glyph glyph-name="aring.alt" horiz-adv-x="510" 
d="M148 136q3 22 18 37.5t38 23.5t49 9q35 0 63 -10.5t54 -29.5l9 62q-21 21 -58.5 37t-85.5 16q-54 0 -100.5 -17.5t-77.5 -52t-38 -83.5q-6 -43 10.5 -73.5t51 -47t79.5 -16.5q47 -1 85.5 16t64.5 48.5t36 73.5l-7 55q-8 -33 -26.5 -56.5t-45 -35.5t-58.5 -11
q-30 0 -47.5 14t-13.5 41zM143 329q25 13 64 28t83 13q23 0 39 -8t24.5 -22t7.5 -34l-55 -306h124l55 326q6 49 -17 81t-65.5 48.5t-93.5 16.5q-58 0 -108.5 -16.5t-91.5 -36.5zM227 644q-4 -31 8 -56.5t36 -40t55 -14.5q32 0 60 14t47.5 39t23.5 56q5 31 -7.5 56t-36.5 40
t-56 16q-31 0 -59.5 -15t-47.5 -39.5t-23 -55.5zM296 642q1 13 10 24.5t22 19t25 6.5q17 -1 27 -15.5t9 -32.5q-2 -13 -11.5 -24.5t-22 -18.5t-24.5 -6q-18 0 -28 14.5t-7 32.5z" />
    <glyph glyph-name="amacron.alt" horiz-adv-x="510" 
d="M148 136q3 22 18 37.5t38 23.5t49 9q35 0 63 -10.5t54 -29.5l9 62q-21 21 -58.5 37t-85.5 16q-54 0 -100.5 -17.5t-77.5 -52t-38 -83.5q-6 -43 10.5 -73.5t51 -47t79.5 -16.5q47 -1 85.5 16t64.5 48.5t36 73.5l-7 55q-8 -33 -26.5 -56.5t-45 -35.5t-58.5 -11
q-30 0 -47.5 14t-13.5 41zM143 329q25 13 64 28t83 13q23 0 39 -8t24.5 -22t7.5 -34l-55 -306h124l55 326q6 49 -17 81t-65.5 48.5t-93.5 16.5q-58 0 -108.5 -16.5t-91.5 -36.5zM147 544h357l20 113h-357z" />
    <glyph glyph-name="abreve.alt" horiz-adv-x="510" 
d="M148 136q3 22 18 37.5t38 23.5t49 9q35 0 63 -10.5t54 -29.5l9 62q-21 21 -58.5 37t-85.5 16q-54 0 -100.5 -17.5t-77.5 -52t-38 -83.5q-6 -43 10.5 -73.5t51 -47t79.5 -16.5q47 -1 85.5 16t64.5 48.5t36 73.5l-7 55q-8 -33 -26.5 -56.5t-45 -35.5t-58.5 -11
q-30 0 -47.5 14t-13.5 41zM143 329q25 13 64 28t83 13q23 0 39 -8t24.5 -22t7.5 -34l-55 -306h124l55 326q6 49 -17 81t-65.5 48.5t-93.5 16.5q-58 0 -108.5 -16.5t-91.5 -36.5zM189 676q-3 -40 11.5 -72.5t46 -51.5t80.5 -19t86 19.5t60.5 51.5t32.5 71l-91 1
q-6 -15 -16.5 -30t-27 -24.5t-38.5 -8.5t-34.5 9.5t-17.5 23t-5 30.5h-87z" />
    <glyph glyph-name="aogonek.alt" horiz-adv-x="510" 
d="M148 136q3 22 18 37.5t38 23.5t49 9q35 0 63 -10.5t54 -29.5l9 62q-21 21 -58.5 37t-85.5 16q-55 0 -101 -17.5t-77 -51t-38 -80.5q-6 -44 11 -76t51 -48.5t79 -16.5q47 -1 85.5 16t64.5 48.5t36 73.5l-7 55q-8 -33 -26.5 -56.5t-45 -35.5t-58.5 -11q-27 0 -46 14t-15 41
zM143 329q25 13 64 28t83 13q23 0 39 -8t24.5 -22t7.5 -34l-55 -306h124l55 326q6 49 -17 81t-65.5 48.5t-93.5 16.5q-58 0 -108.5 -16.5t-91.5 -36.5zM392 -117q-11 -8 -24.5 -14.5t-28.5 -4.5q-17 1 -23.5 12t-5.5 28q4 20 19 37t36.5 32t43.5 27l-39 25
q-34 -17 -67.5 -37t-58 -46t-29.5 -61q-7 -47 23.5 -74t78.5 -26q33 0 57 11.5t41 26.5z" />
    </font>
</defs>
</svg>
